<?xml version="1.0" encoding="UTF-8"?>
<svg id="_圖層_2" data-name="圖層 2" xmlns="http://www.w3.org/2000/svg" xmlns:xlink="http://www.w3.org/1999/xlink" viewBox="0 0 308.99 220.33">
  <defs>
    <linearGradient id="_未命名漸層_6" data-name="未命名漸層 6" x1="109.99" y1="219.27" x2="164.18" y2="219.27" gradientUnits="userSpaceOnUse">
      <stop offset="0" stop-color="#fff"/>
      <stop offset=".35" stop-color="#d2d2d2"/>
      <stop offset="1" stop-color="#959596"/>
    </linearGradient>
  </defs>
  <g id="pic">
    <g>
      <g>
        <path d="M20.61,76.3l.81,.29c-.42,.71-.9,1.41-1.44,2.1-.54,.69-1.11,1.34-1.71,1.94-.6,.61-1.19,1.15-1.78,1.63-.04-.06-.09-.14-.15-.23-.07-.09-.13-.18-.21-.28-.07-.1-.14-.17-.2-.22,.58-.44,1.15-.94,1.73-1.5s1.12-1.16,1.63-1.8,.95-1.29,1.32-1.94Zm-.47-3.55l.81,.31c-.34,.49-.74,.99-1.21,1.5-.47,.51-.96,1-1.49,1.46-.52,.46-1.05,.88-1.57,1.25-.04-.06-.08-.13-.14-.21-.06-.08-.12-.16-.19-.24-.07-.08-.12-.15-.17-.2,.49-.32,.99-.7,1.49-1.13,.5-.43,.97-.88,1.4-1.36,.44-.47,.79-.93,1.07-1.38Zm-1.24,6.57l.67-.68,.18,.09v10.44h-.85v-9.85Zm4.32,1.71l.88,.05c-.12,1.85-.4,3.42-.83,4.71-.43,1.29-1.14,2.37-2.12,3.25-.04-.04-.1-.09-.19-.16-.09-.07-.18-.14-.27-.22-.09-.07-.17-.13-.24-.18,.97-.78,1.66-1.79,2.05-3.02,.4-1.24,.64-2.71,.72-4.43Zm1.19-8.28l.86,.14c-.31,1.5-.77,2.86-1.37,4.07-.6,1.21-1.34,2.22-2.23,3.02-.04-.05-.09-.11-.17-.19s-.17-.16-.26-.23c-.1-.08-.18-.13-.25-.17,.88-.74,1.6-1.69,2.16-2.83,.56-1.15,.98-2.41,1.26-3.81Zm-.68,10.85c.29,1.25,.69,2.2,1.21,2.84,.52,.65,1.14,1.09,1.87,1.32,.73,.23,1.57,.35,2.5,.35h3.42c-.05,.07-.09,.16-.13,.25s-.08,.2-.11,.31c-.03,.11-.05,.2-.06,.27h-3.17c-.8,0-1.53-.07-2.19-.22-.65-.14-1.24-.4-1.75-.77-.51-.37-.95-.88-1.33-1.54-.38-.66-.69-1.51-.95-2.54l.68-.29Zm.09-7.42l.47-.59c.28,.23,.56,.47,.86,.73,.3,.26,.58,.52,.85,.77,.26,.26,.47,.49,.63,.69l-.47,.67c-.17-.2-.38-.44-.64-.71-.26-.27-.54-.54-.84-.82-.3-.28-.59-.52-.86-.74Zm5.45-3.42l.9,.11c-.24,1.51-.65,2.83-1.22,3.95s-1.33,2.05-2.27,2.78c-.05-.05-.12-.11-.21-.19s-.18-.15-.27-.23c-.09-.07-.17-.13-.24-.16,.94-.66,1.67-1.51,2.21-2.56,.54-1.05,.91-2.28,1.1-3.7Zm-2.54,6.88h.85v8.78l-.85-.27v-8.51Zm.38,3.33h4.75v.79h-4.75v-.79Zm1.55-6.8l.63-.52c.42,.34,.85,.71,1.3,1.13,.44,.42,.86,.83,1.26,1.24,.4,.41,.71,.77,.94,1.08l-.65,.61c-.23-.32-.54-.69-.93-1.11-.39-.41-.81-.83-1.25-1.26-.44-.43-.88-.82-1.3-1.18Z" fill="#fff"/>
        <path d="M45.81,83.15l.63,.45c-.48,.46-1.05,.91-1.72,1.36-.67,.45-1.38,.88-2.14,1.28-.76,.4-1.54,.77-2.34,1.1s-1.57,.6-2.31,.82c-.05-.11-.11-.23-.2-.38s-.17-.26-.27-.36c.73-.18,1.49-.42,2.29-.73,.79-.31,1.57-.65,2.32-1.04,.76-.38,1.46-.79,2.11-1.21,.65-.43,1.19-.85,1.64-1.29Zm-.56-5.53l.74,.32c-.6,.58-1.33,1.12-2.19,1.62-.86,.5-1.76,.95-2.72,1.35s-1.88,.74-2.78,1.03c-.04-.06-.08-.14-.14-.23-.06-.09-.12-.18-.19-.27-.07-.09-.13-.16-.19-.23,.9-.25,1.82-.55,2.76-.91,.94-.35,1.82-.76,2.65-1.22,.82-.46,1.51-.95,2.06-1.47Zm-.41,3.31l.61,.41c-.43,.34-.93,.68-1.5,1.03-.57,.35-1.18,.68-1.84,1s-1.31,.61-1.97,.87c-.66,.26-1.28,.49-1.87,.68-.05-.11-.12-.23-.21-.37-.09-.14-.18-.25-.28-.33,.59-.17,1.21-.37,1.87-.61,.66-.24,1.31-.51,1.95-.81,.64-.3,1.24-.61,1.8-.93s1.04-.63,1.43-.94Zm-6.98-6.48h14.81v3.49h-.88v-2.68h-13.07v2.68h-.86v-3.49Zm2.03,2.99h10.6v.79h-10.6v-.79Zm3.56,2.02l.63-.38c.68,.61,1.23,1.29,1.65,2.04s.71,1.51,.88,2.29,.25,1.51,.23,2.2c-.02,.69-.13,1.29-.32,1.81-.2,.52-.47,.89-.8,1.12-.26,.2-.52,.34-.77,.41-.25,.07-.55,.1-.93,.1-.2,.01-.44,.02-.72,0-.28,0-.56-.02-.86-.03,0-.12-.02-.26-.06-.42s-.1-.3-.17-.42c.34,.04,.65,.06,.95,.07,.29,.01,.53,.02,.71,.02,.25,0,.48-.02,.67-.05,.2-.04,.39-.13,.57-.27,.25-.18,.46-.49,.62-.94s.25-.97,.26-1.58c.01-.61-.06-1.27-.22-1.96-.16-.7-.43-1.39-.8-2.08s-.88-1.33-1.51-1.92Zm.52-6.53l.86-.27c.2,.31,.41,.66,.62,1.04s.36,.71,.44,.98l-.88,.31c-.1-.29-.24-.62-.44-1.01-.2-.38-.4-.73-.6-1.04Zm6.62,6.25l.7,.56c-.48,.41-1.02,.83-1.61,1.25s-1.19,.83-1.79,1.22c-.6,.39-1.16,.74-1.69,1.04l-.56-.49c.53-.3,1.09-.66,1.7-1.07,.61-.41,1.2-.84,1.77-1.28s1.07-.85,1.48-1.23Zm-2.39,2.7c.3,.86,.71,1.68,1.21,2.44s1.11,1.43,1.8,2.01c.69,.58,1.43,1.01,2.22,1.31-.06,.06-.13,.13-.2,.21-.07,.08-.14,.16-.21,.25s-.13,.18-.19,.26c-.83-.36-1.59-.85-2.29-1.47-.7-.62-1.31-1.34-1.84-2.16-.53-.82-.95-1.7-1.26-2.64l.74-.22Z" fill="#fff"/>
        <path d="M58.99,81.7h.92v5.44h12.51v.86h-13.43v-6.3Zm.74-7.25h.88v5.15h10.62v-5.15h.92v5.99h-12.42v-5.99Zm5.71-1.69h.92v14.72h-.92v-14.72Zm6.52,8.95h.92v7.34h-.92v-7.34Z" fill="#fff"/>
        <path d="M85.01,73.58h.16l.16-.04,.54,.29c-.44,.97-1.05,1.84-1.83,2.61-.77,.77-1.63,1.42-2.57,1.97-.94,.55-1.88,.98-2.83,1.31-.06-.11-.13-.23-.22-.36-.09-.13-.18-.23-.28-.31,.68-.2,1.37-.48,2.04-.82,.68-.34,1.33-.74,1.95-1.19,.62-.45,1.19-.95,1.68-1.5,.5-.55,.89-1.15,1.18-1.78v-.18Zm-4.72,7.63h.77c-.08,.61-.18,1.27-.28,1.96-.1,.7-.2,1.28-.3,1.76h-.79c.07-.34,.14-.72,.22-1.14,.07-.43,.14-.86,.21-1.31,.07-.45,.12-.87,.17-1.27Zm-.54-5.9l.54-.49c.44,.28,.9,.6,1.37,.98,.47,.38,.82,.72,1.06,1.04l-.54,.56c-.25-.31-.61-.67-1.06-1.06s-.91-.74-1.37-1.03Zm.34,8.89h4.27v.74h-4.39l.13-.74Zm.07-10.62h5.11v.76h-5.11v-.76Zm3.96,10.62h.83c-.01,.2-.02,.34-.04,.41-.07,.85-.15,1.54-.24,2.07-.09,.53-.19,.94-.29,1.24s-.22,.52-.37,.65c-.14,.13-.29,.23-.44,.28-.15,.05-.35,.08-.6,.08-.23,.01-.56,.02-1,0-.44,0-.9-.03-1.39-.06-.01-.13-.04-.27-.09-.41-.05-.14-.11-.27-.18-.38,.52,.05,1,.08,1.46,.09,.46,.01,.77,.02,.94,.02s.3,0,.4-.03c.1-.02,.19-.06,.26-.12,.16-.14,.29-.49,.41-1.04,.12-.55,.23-1.44,.34-2.66v-.14Zm-3.47-2.99h3.8v.76h-3.92l.13-.76Zm.22-3.02h4.05v3.78h-.81v-3.02h-3.24v-.76Zm6.03-.02h.77v1.49c0,.36-.05,.73-.16,1.12-.11,.38-.3,.75-.58,1.11s-.69,.67-1.21,.96c-.04-.06-.09-.12-.16-.19s-.15-.13-.22-.21c-.08-.07-.15-.12-.21-.14,.5-.26,.88-.55,1.13-.85s.42-.61,.51-.92,.13-.61,.13-.9v-1.48Zm5.18,5.18h.16l.14-.04,.52,.25c-.42,1-1.01,1.86-1.78,2.59-.77,.73-1.63,1.34-2.58,1.82-.95,.48-1.95,.86-2.98,1.15-.04-.1-.1-.21-.18-.34s-.17-.24-.25-.32c.96-.23,1.9-.56,2.83-1.01,.92-.44,1.75-1,2.47-1.66,.73-.66,1.28-1.42,1.65-2.29v-.16Zm-6.17,0h6.39v.72h-6.39v-.72Zm.16,1.64l.43-.47c.55,.31,1.13,.65,1.74,1.01,.61,.36,1.2,.72,1.79,1.09,.59,.37,1.14,.72,1.66,1.05,.52,.34,.96,.64,1.32,.92l-.47,.56c-.36-.26-.79-.57-1.3-.91-.51-.34-1.06-.7-1.65-1.08s-1.18-.75-1.79-1.12c-.61-.37-1.18-.72-1.74-1.04Zm1.19-12.24c.46,.96,1.06,1.84,1.82,2.64,.76,.8,1.63,1.49,2.62,2.07,.99,.58,2.04,1.02,3.16,1.32-.1,.08-.2,.19-.3,.32-.1,.13-.19,.25-.26,.36-1.13-.34-2.19-.82-3.19-1.44s-1.89-1.36-2.67-2.21c-.79-.85-1.42-1.79-1.9-2.81l.72-.25Zm-.07,5.42h3.78v.74h-3.78v-.74Zm4.32-5.29l.68,.47c-.44,.43-.95,.87-1.51,1.31-.56,.44-1.08,.82-1.55,1.13l-.54-.43c.31-.22,.65-.47,1.01-.77,.36-.29,.71-.59,1.05-.89,.34-.3,.63-.58,.86-.83Zm2.07,1.82l.67,.45c-.44,.43-.95,.86-1.53,1.3-.58,.43-1.11,.8-1.6,1.1l-.54-.43c.31-.2,.66-.45,1.04-.74s.74-.58,1.09-.87c.35-.29,.64-.56,.88-.8Zm-2.97,3.47h.79v2.93c0,.2,.02,.34,.06,.41,.04,.07,.12,.11,.24,.11h1.62c.11,0,.25,0,.42-.02,.17-.01,.31-.02,.4-.04,.01,.1,.02,.2,.03,.32,0,.12,.01,.23,.03,.32-.08,.01-.2,.02-.36,.04-.16,.01-.32,.02-.5,.02h-1.71c-.28,0-.49-.04-.64-.12-.15-.08-.25-.2-.31-.38-.05-.17-.08-.41-.08-.69v-2.92Z" fill="#fff"/>
        <path d="M101.36,84.07l-.31-.65c.73-.35,1.29-.77,1.67-1.26,.38-.49,.57-1.13,.57-1.91l-.45-1.37,.97,1.22c-.13,.17-.28,.28-.43,.33-.16,.05-.31,.08-.47,.08-.32,0-.59-.09-.8-.27-.21-.18-.31-.46-.31-.83s.11-.66,.34-.84c.23-.17,.49-.26,.77-.26,.42,0,.74,.17,.96,.5,.22,.34,.33,.78,.33,1.33,0,.95-.26,1.76-.78,2.42-.52,.67-1.21,1.16-2.06,1.48Z" fill="#fff"/>
        <path d="M111.71,73.56h.86v15.57h-.86v-15.57Zm.47,2.52h5.36v.7h-5.36v-.7Zm.07-2.52h5.8v5.87h-5.8v-.74h4.97v-4.39h-4.97v-.74Zm1.84,10.21h9.86v.79h-9.86v-.79Zm2.54-2.79h.79v3.19c0,.26-.03,.6-.1,1-.07,.4-.19,.83-.37,1.29-.18,.46-.44,.9-.77,1.34s-.76,.84-1.29,1.2c-.07-.1-.17-.2-.29-.31-.12-.11-.23-.2-.32-.27,.66-.41,1.15-.88,1.48-1.4s.56-1.05,.68-1.57c.12-.52,.18-.95,.18-1.3v-3.17Zm-2.16-.29h9.05v.77h-9.05v-.77Zm11.43-7.13v.74h-5.17v4.41h5.17v.72h-6.01v-5.87h6.01Zm-5.47,7.36h.83v7.83h-.83v-7.83Zm.02-4.84h5.42v.7h-5.42v-.7Zm5.08-2.52h.86v14.24c0,.32-.05,.57-.14,.75-.1,.17-.26,.3-.49,.39-.23,.07-.57,.12-1.02,.14-.45,.02-1.02,.02-1.7,0-.01-.07-.03-.16-.05-.27-.02-.11-.06-.22-.1-.32-.04-.11-.09-.2-.15-.29,.56,.01,1.07,.02,1.52,.02s.75,0,.89-.02c.14-.01,.24-.04,.3-.1,.05-.05,.08-.15,.08-.3v-14.24Z" fill="#fff"/>
        <path d="M133.15,74.14h.83v4.19c0,.68-.02,1.43-.07,2.24s-.14,1.64-.27,2.48-.33,1.68-.58,2.49-.59,1.58-1,2.29c-.06-.07-.13-.14-.21-.22-.08-.07-.16-.14-.25-.21-.09-.07-.17-.11-.22-.13,.4-.67,.71-1.39,.95-2.16,.24-.77,.42-1.55,.53-2.34,.11-.79,.19-1.57,.23-2.32,.04-.76,.06-1.46,.06-2.12v-4.19Zm6.21-1.19l.7,.65c-.56,.18-1.22,.35-1.97,.5-.75,.16-1.53,.3-2.33,.42-.8,.13-1.58,.23-2.34,.31-.01-.1-.05-.21-.11-.34-.06-.13-.11-.25-.16-.36,.73-.1,1.49-.2,2.27-.32,.78-.12,1.51-.25,2.21-.4,.69-.15,1.27-.3,1.74-.46Zm-5.78,3.02h6.35v4.25h-6.35v-.79h5.54v-2.68h-5.54v-.77Zm.43,6.1h5.92v5.78h-.83v-5h-4.3v5.31h-.79v-6.08Zm.34,4.12h5.27v.77h-5.27v-.77Zm11.84-9.74l.74,.34c-.24,1.9-.63,3.65-1.16,5.27-.53,1.62-1.24,3.03-2.11,4.23-.87,1.2-1.94,2.12-3.21,2.77-.06-.11-.15-.23-.27-.35-.12-.13-.24-.23-.36-.31,1.26-.61,2.32-1.5,3.18-2.66,.86-1.16,1.54-2.53,2.06-4.11,.52-1.58,.89-3.3,1.13-5.18Zm-3.83-3.71l.88,.13c-.16,1.09-.35,2.15-.59,3.16-.24,1.01-.53,1.96-.86,2.84-.34,.88-.73,1.67-1.19,2.35-.05-.06-.12-.13-.21-.2-.09-.07-.18-.14-.27-.22-.09-.07-.17-.13-.24-.18,.44-.64,.83-1.37,1.14-2.2,.32-.83,.59-1.73,.81-2.7s.4-1.97,.53-2.99Zm-.09,4.39c.28,1.63,.67,3.19,1.17,4.66s1.13,2.78,1.87,3.92c.74,1.14,1.62,2.02,2.63,2.65-.07,.05-.15,.12-.23,.21-.08,.09-.17,.18-.24,.26-.08,.08-.14,.17-.19,.25-1.02-.7-1.91-1.64-2.66-2.83s-1.37-2.55-1.87-4.09c-.5-1.54-.9-3.17-1.21-4.91l.74-.13Zm-.34-.81h5.98v.83h-5.98v-.83Z" fill="#fff"/>
        <path d="M152.26,80.26h16.36v.95h-16.36v-.95Z" fill="#fff"/>
        <path d="M174.24,74.8h.85v5.06c0,.67-.02,1.4-.06,2.19s-.12,1.59-.22,2.42c-.11,.83-.27,1.64-.5,2.42-.22,.79-.51,1.52-.86,2.21-.06-.06-.13-.12-.22-.18s-.18-.12-.27-.17c-.09-.05-.17-.1-.24-.13,.35-.65,.62-1.34,.83-2.09,.2-.74,.36-1.51,.46-2.29,.1-.78,.17-1.54,.2-2.29,.03-.74,.04-1.44,.04-2.09v-5.06Zm.45,0h14.42v.85h-14.42v-.85Zm.61,13.01h13.82v.79h-13.82v-.79Zm3.17-11l.81,.09c-.23,1.3-.6,2.45-1.12,3.46-.52,1.01-1.16,1.86-1.93,2.53-.05-.06-.11-.12-.19-.18s-.17-.12-.26-.19c-.1-.07-.17-.12-.23-.15,.78-.62,1.41-1.41,1.89-2.36,.48-.95,.82-2.02,1.03-3.2Zm-1.96,6.97h11.43v.81h-11.43v-.81Zm1.42-4.27l.56-.45c.31,.26,.64,.56,.98,.88s.67,.65,.97,.96c.31,.32,.54,.6,.71,.85l-.56,.56c-.19-.25-.44-.54-.73-.86-.29-.32-.61-.66-.94-1-.34-.34-.67-.66-.99-.95Zm3.02-6.55l.77-.29c.3,.38,.59,.81,.86,1.27,.28,.46,.49,.87,.63,1.21l-.83,.34c-.13-.36-.34-.78-.61-1.25-.28-.47-.55-.9-.83-1.29Zm.79,3.49h.86v11.72h-.86v-11.72Zm4,.36l.81,.11c-.23,1.25-.6,2.35-1.12,3.29-.52,.95-1.16,1.74-1.93,2.38-.05-.06-.11-.12-.19-.19s-.16-.13-.25-.2c-.09-.07-.17-.12-.24-.17,.78-.58,1.41-1.3,1.89-2.19,.48-.88,.82-1.89,1.03-3.03Zm-.65,2.66l.58-.47c.41,.32,.83,.68,1.26,1.06,.43,.38,.84,.76,1.22,1.12,.38,.37,.7,.7,.94,1l-.58,.56c-.24-.3-.55-.64-.94-1.03-.38-.38-.79-.77-1.22-1.17-.43-.4-.85-.76-1.26-1.08Z" fill="#fff"/>
        <path d="M197.8,79.1h.18l.18-.04,.5,.14c-.31,2.48-.85,4.54-1.61,6.17s-1.7,2.86-2.8,3.72c-.04-.06-.1-.13-.18-.2-.08-.07-.17-.15-.25-.22-.08-.08-.16-.14-.23-.19,1.09-.8,2-1.97,2.74-3.49,.73-1.52,1.22-3.43,1.48-5.71v-.18Zm-3.78-5.17h4.12v.81h-4.12v-.81Zm.58,6.39c-.01-.06-.04-.14-.09-.23-.05-.1-.1-.19-.14-.29-.05-.1-.1-.17-.14-.23,.16-.04,.33-.15,.52-.33,.19-.19,.37-.42,.54-.69,.13-.17,.34-.49,.64-.96,.29-.47,.61-1.02,.95-1.65,.34-.62,.63-1.25,.88-1.89v-.07l.36-.2,.61,.38c-.54,1.09-1.1,2.13-1.69,3.12-.59,.99-1.17,1.84-1.73,2.55v.02c-.13,.06-.25,.11-.34,.16-.1,.05-.18,.1-.25,.16-.07,.06-.11,.11-.11,.16Zm.52,1.3c.37,1.3,.86,2.35,1.46,3.16,.6,.81,1.31,1.43,2.12,1.87,.82,.44,1.73,.74,2.75,.9,1.02,.16,2.12,.24,3.31,.24h4.5c.36,0,.61,0,.76-.02-.05,.06-.1,.14-.14,.24-.05,.1-.09,.2-.13,.31s-.07,.19-.08,.28h-4.9c-1.31,0-2.5-.09-3.59-.27-1.09-.18-2.06-.51-2.92-.99s-1.61-1.15-2.25-2.02c-.64-.87-1.16-2.01-1.58-3.41l.7-.29Zm.09-2.52h2.88v.79h-3.08l.2-.79Zm3.47-2.32h11.11v.76h-11.11v-.76Zm.16,7.38h10.82v.76h-10.82v-.76Zm.79-2.47h9.29v.74h-9.29v-.74Zm.32-7.29h8.44v5.6h-8.6v-.76h7.78v-4.1h-7.61v-.74Zm3.55-1.67h.85v14.31h-.85v-14.31Z" fill="#fff"/>
        <path d="M217.21,72.62l.79,.22c-.35,.73-.79,1.44-1.31,2.12-.53,.68-1.07,1.27-1.62,1.75-.05-.05-.11-.11-.19-.18-.08-.07-.16-.14-.25-.21s-.17-.12-.22-.17c.56-.44,1.09-.98,1.59-1.59,.5-.62,.9-1.26,1.21-1.94Zm-2.65,9.25c.8-.12,1.78-.27,2.93-.46,1.15-.19,2.33-.37,3.55-.57l.05,.74c-1.15,.19-2.29,.38-3.42,.57s-2.12,.36-2.97,.51l-.14-.79Zm0,2.03h15.93v.77h-15.93v-.77Zm5.11,1.31l.74,.31c-.4,.44-.88,.87-1.47,1.27s-1.2,.76-1.86,1.09-1.3,.59-1.91,.79c-.05-.08-.11-.17-.17-.25-.07-.08-.13-.17-.21-.26-.07-.09-.14-.17-.22-.22,.61-.17,1.24-.39,1.87-.67,.64-.28,1.24-.59,1.81-.95s1.04-.73,1.41-1.1Zm-4.84-7.67h6.1v.74h-6.1v-.74Zm1.85-3.71h5.76v.76h-5.76v-.76Zm.85,3.94h.83v3.92h-.83v-3.92Zm.54-2.59l.61-.4c.28,.25,.56,.54,.86,.85s.53,.58,.7,.8l-.63,.47c-.16-.23-.38-.51-.68-.84s-.59-.63-.86-.89Zm5.9,2.5h.79v1.06c0,.47-.1,.94-.31,1.43-.2,.49-.56,.96-1.06,1.41s-1.21,.86-2.12,1.22c-.04-.06-.09-.13-.15-.22-.07-.08-.13-.16-.21-.23s-.14-.12-.2-.15c.85-.34,1.51-.7,1.99-1.08,.47-.38,.8-.78,.99-1.2,.19-.41,.28-.82,.28-1.21v-1.04Zm-2.54,1.93l.38-.58c.53,.2,1.09,.43,1.67,.68s1.15,.5,1.68,.76,.98,.47,1.34,.67l-.34,.7c-.36-.2-.81-.44-1.35-.7-.54-.26-1.11-.53-1.7-.8-.59-.27-1.16-.51-1.68-.73Zm.22-2.21h5.71v.72h-5.71v-.72Zm2.68-4.79l.81,.22c-.28,.74-.66,1.45-1.15,2.11s-1.01,1.23-1.55,1.68c-.05-.05-.11-.1-.19-.17s-.16-.14-.25-.21c-.09-.07-.17-.13-.24-.16,.55-.43,1.05-.95,1.5-1.55,.45-.6,.81-1.24,1.07-1.93Zm-2.27,10.08h.85v6.37h-.85v-6.37Zm1.85-8.84h6.73v.76h-6.73v-.76Zm.54,11.86l.5-.59c.59,.25,1.2,.54,1.84,.85s1.24,.64,1.82,.96c.58,.32,1.05,.62,1.42,.88l-.54,.7c-.37-.28-.84-.58-1.4-.92-.56-.34-1.16-.67-1.8-1.01s-1.25-.63-1.84-.88Zm1.48-10.49l.59-.41c.28,.24,.57,.51,.87,.81,.31,.3,.54,.56,.71,.79l-.61,.49c-.17-.23-.4-.5-.7-.81s-.59-.6-.86-.86Zm1.13,2.18h.83v3.98c0,.18,0,.32,.03,.43,.02,.11,.04,.18,.08,.22,.08,.04,.2,.05,.34,.05h.61c.08,0,.17,0,.25-.02,.08-.01,.14-.03,.18-.05,.06-.02,.11-.07,.14-.13s.07-.15,.09-.24c.02-.13,.04-.32,.04-.58,0-.25,.01-.56,.03-.92,.1,.08,.2,.15,.31,.21,.11,.05,.23,.1,.33,.14-.01,.34-.03,.67-.04,.99-.02,.32-.05,.56-.1,.7-.08,.25-.23,.42-.43,.5-.1,.05-.21,.08-.35,.09-.14,.01-.27,.02-.39,.02h-.83c-.14,0-.3-.01-.46-.04s-.3-.08-.41-.18c-.11-.08-.18-.21-.22-.38s-.05-.48-.05-.94v-3.85Z" fill="#fff"/>
        <path d="M235.91,75.63h.83v13.05h-.83v-13.05Zm.43,5.11h5.18v.81h-5.18v-.81Zm.09-5.11h5.44v11.56h-5.44v-.83h4.61v-9.94h-4.61v-.79Zm2.34-2.93l.94,.22c-.17,.52-.36,1.06-.57,1.63-.21,.57-.41,1.05-.58,1.43l-.7-.2c.11-.29,.22-.61,.33-.97,.11-.36,.22-.73,.33-1.11,.11-.38,.19-.71,.25-1Zm6.34-.07l.83,.18c-.2,.9-.45,1.78-.75,2.63-.29,.85-.62,1.65-.97,2.39-.35,.74-.74,1.4-1.16,1.98-.04-.05-.1-.1-.2-.16-.1-.06-.19-.12-.29-.18-.1-.06-.18-.11-.25-.14,.42-.55,.8-1.19,1.15-1.9,.35-.71,.66-1.48,.94-2.3,.28-.82,.51-1.65,.7-2.5Zm-.81,7.36l.68-.4c.37,.42,.75,.88,1.12,1.4s.73,1,1.06,1.47c.33,.47,.59,.88,.78,1.24l-.74,.5c-.19-.37-.45-.8-.76-1.29-.32-.49-.67-.99-1.04-1.5-.38-.52-.75-.99-1.11-1.42Zm.25-4.37h5.69v.83h-5.69v-.83Zm5.36,0h.83v.52c-.07,2.09-.15,3.85-.22,5.28-.08,1.43-.17,2.6-.26,3.51-.1,.91-.21,1.6-.33,2.1s-.28,.85-.46,1.06c-.18,.22-.36,.36-.55,.44-.19,.08-.43,.13-.73,.15-.28,.02-.65,.03-1.13,0-.48-.02-.97-.04-1.46-.08-.01-.13-.04-.28-.09-.44-.05-.16-.11-.3-.2-.4,.59,.05,1.13,.08,1.62,.09,.49,.01,.83,.02,1.03,.02,.18,0,.33-.02,.45-.04,.12-.03,.22-.1,.31-.23,.16-.17,.29-.5,.41-.98s.23-1.18,.32-2.09c.09-.91,.17-2.07,.25-3.5,.08-1.43,.15-3.16,.22-5.2v-.22Z" fill="#fff"/>
        <path d="M256.07,74.03h5.87v.79h-5.87v-.79Zm.13,7.04h15.44v2.9h-.85v-2.14h-13.75v2.14h-.85v-2.9Zm11.68,2.03h.2l.18-.04,.58,.38c-.54,.85-1.25,1.6-2.12,2.23s-1.85,1.18-2.93,1.62-2.22,.8-3.41,1.08-2.37,.49-3.54,.63c-.02-.12-.08-.26-.15-.42-.08-.16-.16-.3-.24-.4,1.12-.1,2.25-.27,3.4-.52,1.15-.25,2.25-.58,3.29-.97s1.98-.88,2.81-1.45,1.48-1.23,1.94-1.97v-.16Zm-10.13-6.73h12.62v3.65h-12.62v-3.65Zm4.5,5.62l.92,.18c-.46,.62-1.07,1.21-1.84,1.75s-1.7,1.02-2.79,1.44c-.05-.07-.1-.15-.17-.23-.07-.08-.13-.15-.21-.22-.07-.07-.14-.13-.2-.16,1.03-.35,1.91-.77,2.65-1.26,.73-.49,1.28-.99,1.64-1.49Zm-3.69-4.91v2.23h3.04v-2.23h-3.04Zm1.49,7.36l.61-.45c.41,.22,.83,.47,1.27,.76,.44,.29,.85,.58,1.23,.87s.7,.56,.94,.8l-.63,.5c-.24-.25-.55-.53-.93-.83s-.78-.6-1.21-.89c-.43-.29-.86-.55-1.28-.77Zm1.48-1.33h6.64v.74h-7.38l.74-.74Zm-.05-10.35h.86v3.22h-.86v-3.22Zm.92,4.32v2.23h3.15v-2.23h-3.15Zm3.13-4.32h.86v3.22h-.86v-3.22Zm.36,1.28h5.83v.79h-5.83v-.79Zm.43,3.04v2.23h3.2v-2.23h-3.2Z" fill="#fff"/>
        <path d="M280.1,75.94l.63,.25c-.26,.74-.61,1.48-1.03,2.21s-.87,1.41-1.36,2.02-.98,1.12-1.47,1.52c-.07-.1-.17-.21-.29-.33-.12-.13-.23-.23-.32-.3,.5-.35,1-.81,1.49-1.39,.49-.58,.93-1.21,1.34-1.9,.41-.69,.74-1.39,1.01-2.1Zm-1.71,8.17l.74,.31c-.13,.38-.29,.81-.46,1.27-.17,.46-.38,.91-.6,1.35s-.47,.82-.74,1.16l-.74-.4c.28-.32,.52-.7,.75-1.12,.22-.42,.42-.86,.6-1.31s.33-.88,.45-1.26Zm-1.73-8.6h7.38v.79h-7.38v-.79Zm3.49-2.7h.83v10.28h-.83v-10.28Zm.72,4.64c.14,.1,.37,.25,.67,.47,.3,.22,.62,.45,.96,.7,.34,.25,.66,.49,.94,.71,.29,.22,.5,.39,.63,.5l-.5,.7c-.16-.14-.37-.34-.65-.58-.28-.24-.58-.5-.91-.77-.33-.28-.64-.53-.93-.76s-.52-.4-.68-.52l.47-.45Zm.04,6.79h.86v3.11c0,.23,.08,.38,.23,.44,.16,.07,.5,.1,1.04,.1h3.98c.31,0,.54-.04,.68-.13,.14-.09,.25-.29,.31-.59,.06-.3,.1-.76,.13-1.39,.07,.05,.16,.1,.25,.15,.1,.05,.19,.1,.29,.13,.1,.03,.19,.05,.29,.06-.05,.7-.13,1.23-.23,1.6-.11,.37-.29,.63-.54,.77-.25,.14-.62,.21-1.1,.21h-4.05c-.56,0-1-.03-1.31-.1-.31-.07-.53-.2-.65-.4-.12-.2-.18-.48-.18-.85v-3.11Zm2.23-.85l.63-.41c.29,.26,.59,.56,.91,.89,.32,.33,.62,.65,.91,.95,.29,.31,.52,.58,.7,.82l-.63,.5c-.19-.24-.43-.52-.7-.84-.28-.32-.57-.65-.89-.99-.32-.34-.63-.65-.93-.93Zm1.73-9.67h6.84v9.22h-6.84v-9.22Zm.83,.76v2.03h5.18v-2.03h-5.18Zm0,2.79v2.07h5.18v-2.07h-5.18Zm0,2.83v2.07h5.18v-2.07h-5.18Zm3.94,3.94l.77-.31c.25,.38,.51,.8,.78,1.24,.27,.44,.52,.88,.76,1.3,.23,.42,.42,.78,.57,1.08l-.79,.4c-.14-.32-.33-.7-.57-1.12-.23-.42-.48-.86-.75-1.31-.26-.46-.52-.88-.77-1.28Z" fill="#fff"/>
        <path d="M3.91,120.13l.61,.29c-.29,.66-.65,1.31-1.1,1.96-.44,.65-.92,1.24-1.43,1.78-.51,.54-1.02,.98-1.54,1.31-.05-.11-.12-.23-.21-.38s-.17-.26-.24-.36c.49-.3,.99-.7,1.49-1.19s.97-1.03,1.39-1.62,.76-1.19,1.03-1.8Zm3.56-7.06l.72,.34c-.55,.71-1.24,1.38-2.06,2.02-.82,.64-1.7,1.2-2.65,1.69-.94,.49-1.87,.89-2.78,1.19-.04-.07-.09-.15-.16-.23s-.14-.17-.21-.25c-.07-.08-.13-.16-.21-.22,.91-.26,1.83-.62,2.76-1.08s1.8-.98,2.6-1.58c.8-.59,1.46-1.22,1.98-1.88Zm-6.75,6.7H7.83v.81H.72v-.81Zm.16-6.97H15.7v.81H.88v-.81Zm2.99,4.95h.85v9.23h-.85v-9.23Zm.7,2.92c.14,.11,.37,.28,.67,.51,.31,.23,.64,.49,.99,.77,.35,.28,.68,.54,.97,.78,.29,.25,.51,.43,.64,.55l-.63,.56c-.14-.14-.36-.34-.64-.6-.28-.26-.59-.53-.93-.82-.34-.29-.65-.55-.95-.8-.3-.25-.53-.43-.7-.55l.58-.4Zm7.09-.5l.65,.29c-.32,.67-.74,1.33-1.25,1.97-.51,.64-1.06,1.23-1.64,1.76-.58,.53-1.16,.97-1.74,1.31-.07-.1-.16-.21-.27-.33-.11-.13-.21-.23-.31-.3,.58-.3,1.15-.7,1.73-1.19s1.11-1.04,1.6-1.65,.9-1.23,1.22-1.86Zm-3.83-9.43h.86v7.79h-.86v-7.79Zm.81,2.5c.26,.13,.64,.33,1.13,.59,.49,.26,1.04,.56,1.63,.9,.59,.34,1.18,.67,1.77,.99,.59,.32,1.11,.62,1.58,.89s.8,.47,1.02,.6l-.36,.83c-.26-.17-.63-.4-1.09-.68-.46-.29-.98-.6-1.54-.95-.56-.34-1.13-.69-1.71-1.04-.58-.35-1.11-.66-1.6-.94-.49-.28-.89-.5-1.19-.64l.36-.56Zm-.18,6.57h7.49v.79h-7.49v-.79Zm3.13-2.05h.83v9.38h-.83v-9.38Zm.76,2.43c.32,.59,.73,1.18,1.21,1.76,.49,.59,1,1.12,1.54,1.61s1.06,.88,1.57,1.18c-.1,.08-.2,.19-.32,.32-.11,.13-.21,.25-.3,.36-.49-.35-1.01-.79-1.55-1.33s-1.06-1.12-1.55-1.76c-.49-.63-.9-1.26-1.22-1.88l.61-.27Z" fill="#fff"/>
        <path d="M25.45,123.73l.79,.32c-.4,.34-.86,.67-1.39,1-.53,.33-1.07,.64-1.64,.94-.56,.29-1.1,.55-1.62,.77-.04-.06-.1-.13-.18-.22-.08-.08-.17-.17-.24-.25-.08-.08-.15-.15-.22-.2,.53-.19,1.06-.41,1.61-.67,.55-.25,1.07-.52,1.57-.81s.94-.58,1.31-.88Zm-4.41-6.1h15.91v.76h-15.91v-.76Zm2.14-6.17h11.65v4.79h-11.65v-4.79Zm.41,8.08h10.85v3.56h-10.85v-3.56Zm.43-7.4v1.35h9.94v-1.35h-9.94Zm0,2.03v1.37h9.94v-1.37h-9.94Zm.41,6.08v2.12h9.14v-2.12h-9.14Zm4.1,2.38h.86v3.49c0,.25-.04,.44-.11,.58-.07,.13-.22,.22-.43,.27-.22,.06-.52,.1-.92,.12-.4,.02-.91,.03-1.55,.03-.02-.12-.06-.24-.12-.37s-.11-.25-.17-.37c.35,.01,.67,.02,.95,.03s.53,0,.74,0,.35,0,.43,0c.12-.01,.2-.04,.24-.08,.04-.04,.06-.11,.06-.21v-3.47Zm-.58-6.01l.76-.29c.19,.23,.37,.48,.55,.77,.17,.28,.3,.54,.37,.78l-.81,.31c-.07-.22-.19-.47-.34-.77-.16-.3-.33-.56-.52-.79Zm3.44,7.74l.56-.54c.56,.19,1.15,.43,1.75,.71,.61,.28,1.19,.57,1.74,.86s1.01,.56,1.37,.81l-.56,.63c-.36-.25-.81-.52-1.35-.82s-1.12-.59-1.74-.88-1.21-.55-1.77-.77Z" fill="#fff"/>
        <path d="M44.78,115.14l.67,.22c-.18,.73-.4,1.48-.66,2.26s-.55,1.53-.86,2.28c-.32,.74-.66,1.43-1.02,2.07-.36,.64-.72,1.18-1.08,1.62-.06-.11-.14-.24-.24-.39-.1-.15-.19-.27-.28-.35,.35-.42,.7-.92,1.04-1.5,.35-.58,.68-1.22,.99-1.92,.31-.7,.59-1.41,.85-2.14s.45-1.45,.59-2.14Zm-3.08-.45h6.73v.85h-6.73v-.85Zm3.11-3.96h.85v16.33h-.85v-16.33Zm.76,6.62c.13,.12,.33,.33,.59,.62,.26,.29,.55,.61,.86,.95,.31,.34,.6,.66,.86,.95,.26,.29,.44,.51,.55,.64l-.61,.74c-.12-.2-.3-.46-.55-.78-.25-.32-.51-.65-.79-1-.28-.35-.55-.67-.81-.98-.26-.31-.46-.54-.6-.69l.5-.45Zm3.73-5.51h7.94v15.12h-.86v-14.27h-6.21v14.29h-.86v-15.14Zm.47,4.32h7v.83h-7v-.83Zm0,8.86h7.02v.83h-7.02v-.83Zm.02-4.43h7.02v.81h-7.02v-.81Z" fill="#fff"/>
        <path d="M66.22,110.8l.81,.22c-.35,1.01-.76,2-1.22,2.97s-.97,1.88-1.51,2.74c-.54,.85-1.1,1.61-1.69,2.29-.02-.06-.07-.14-.13-.24-.07-.1-.14-.2-.21-.3-.07-.1-.14-.17-.2-.23,.56-.61,1.1-1.32,1.62-2.12,.52-.8,.99-1.65,1.42-2.56s.8-1.83,1.12-2.76Zm-1.66,4.52l.77-.81,.04,.02v12.62h-.81v-11.83Zm2.38-1.51h11.36v.79h-11.36v-.79Zm1.12,7.63h8.95v5.62h-.83v-4.84h-7.33v4.9h-.79v-5.67Zm.2-5.11h8.59v.77h-8.59v-.77Zm0,2.52h8.59v.76h-8.59v-.76Zm.27,6.7h8.01v.77h-8.01v-.77Zm2.63-14.47l.79-.31c.26,.36,.52,.76,.77,1.19,.25,.43,.43,.8,.55,1.12l-.81,.38c-.12-.32-.3-.71-.55-1.15s-.5-.85-.75-1.22Z" fill="#fff"/>
        <path d="M85.16,122.07l-.31-.65c.73-.35,1.29-.77,1.67-1.26,.38-.49,.57-1.13,.57-1.91l-.45-1.37,.97,1.22c-.13,.17-.28,.28-.43,.33-.16,.05-.31,.08-.47,.08-.32,0-.59-.09-.8-.27-.21-.18-.31-.46-.31-.83s.11-.66,.34-.84c.23-.17,.49-.26,.77-.26,.42,0,.74,.17,.96,.5,.22,.34,.33,.78,.33,1.33,0,.95-.26,1.76-.78,2.42-.52,.67-1.21,1.16-2.06,1.48Z" fill="#fff"/>
        <path d="M95.26,112.44h.83v11.68h-.83v-11.68Zm.45,0h3.76v10.3h-3.76v-.85h2.95v-8.6h-2.95v-.85Zm7.67-1.58l.88,.22c-.28,.79-.62,1.6-1.02,2.44-.4,.83-.85,1.64-1.35,2.4-.5,.77-1.04,1.46-1.61,2.07-.05-.06-.11-.13-.18-.21s-.14-.16-.22-.23-.13-.14-.18-.19c.55-.56,1.06-1.22,1.53-1.95,.47-.74,.88-1.5,1.25-2.29,.37-.79,.66-1.54,.89-2.26Zm-.63,3.15h7.7v.83h-7.7v12.26h-.83v-12.47l.58-.61h.25Zm-.34,3.53h7.7v.81h-7.7v-.81Zm0,3.6h7.7v.81h-7.7v-.81Zm.02,3.78h8.35v.83h-8.35v-.83Zm3.15-13.73l.72-.27c.25,.41,.5,.86,.75,1.35,.25,.49,.43,.92,.55,1.28l-.79,.32c-.11-.36-.28-.79-.52-1.3-.24-.5-.47-.97-.7-1.39Zm.56,3.13h.85v11.07h-.85v-11.07Z" fill="#fff"/>
        <path d="M121.81,110.75l.86,.22c-.4,1.28-.91,2.55-1.53,3.81s-1.37,2.42-2.23,3.51c-.86,1.09-1.85,2.03-2.97,2.83-.04-.07-.09-.15-.15-.23-.07-.08-.13-.17-.2-.24-.07-.08-.13-.15-.19-.21,.82-.55,1.56-1.2,2.22-1.94,.67-.74,1.27-1.53,1.81-2.38,.54-.85,1.01-1.72,1.4-2.64,.4-.91,.72-1.82,.97-2.74Zm-6.08,2.41h15.61v.85h-15.61v-.85Zm3.55,3.31h.86v4.75c0,.48-.02,.98-.06,1.49s-.14,1.04-.28,1.57c-.14,.53-.34,1.03-.59,1.52s-.58,.94-.99,1.36c-.04-.07-.09-.15-.16-.24s-.15-.18-.22-.26c-.08-.08-.15-.14-.21-.18,.49-.5,.86-1.05,1.1-1.65,.24-.59,.39-1.2,.46-1.83,.07-.62,.1-1.22,.1-1.78v-4.75Zm.38,6.17h9v.81h-9v-.81Zm.07-6.17h8.91v.83h-8.91v-.83Zm.09,3.1h8.86v.77h-8.86v-.77Zm8.48-3.1h.86v9.32c0,.32-.04,.57-.14,.73-.09,.16-.27,.29-.53,.37-.26,.07-.65,.11-1.15,.12s-1.15,0-1.94,0c-.02-.12-.07-.26-.13-.42-.06-.16-.13-.3-.2-.42,.46,.01,.87,.02,1.25,.03,.38,0,.7,0,.98,0,.28,0,.47,0,.59,0,.16-.01,.26-.05,.32-.11,.05-.06,.08-.16,.08-.29v-9.32Z" fill="#fff"/>
        <path d="M136.87,122.14l.81,.14c-.12,.77-.27,1.55-.45,2.35-.18,.8-.37,1.48-.56,2.04-.06-.04-.13-.07-.22-.1-.09-.03-.18-.07-.28-.11-.1-.04-.18-.07-.25-.08,.22-.58,.4-1.24,.56-2,.16-.76,.29-1.51,.4-2.25Zm-.61-4.91c-.01-.06-.04-.14-.07-.25l-.11-.32c-.04-.11-.07-.2-.11-.27,.14-.02,.3-.13,.46-.31,.16-.19,.34-.42,.53-.71,.13-.17,.35-.49,.65-.97s.62-1.04,.96-1.69,.64-1.3,.89-1.96l.83,.34c-.48,1.03-1.01,2.05-1.6,3.04s-1.19,1.87-1.8,2.61c-.12,.06-.23,.12-.32,.17-.09,.05-.17,.11-.22,.17-.06,.06-.09,.11-.09,.16Zm.11,4c-.01-.06-.04-.14-.07-.25s-.07-.22-.11-.32c-.04-.11-.07-.2-.11-.29,.17-.02,.36-.15,.57-.37,.21-.22,.45-.5,.71-.82,.13-.17,.34-.44,.61-.82,.28-.38,.59-.82,.94-1.33,.35-.51,.71-1.06,1.07-1.66,.36-.59,.69-1.19,.99-1.79l.79,.41c-.47,.82-.96,1.63-1.49,2.45-.52,.82-1.06,1.59-1.6,2.31-.55,.73-1.1,1.38-1.67,1.97v.02c-.12,.06-.23,.11-.32,.16s-.17,.1-.23,.15c-.07,.05-.1,.11-.1,.17Zm-.11-4l-.02-.7,.52-.29,3.22-.29c-.02,.11-.04,.23-.05,.38-.01,.14-.01,.26,0,.34-.74,.1-1.34,.17-1.8,.22-.46,.05-.81,.1-1.05,.14-.25,.04-.43,.08-.55,.11s-.21,.06-.27,.08Zm.11,4l-.02-.7,.52-.31,4.48-.61c-.02,.11-.04,.23-.04,.38s0,.26,.02,.36c-1.04,.14-1.88,.27-2.49,.37s-1.09,.18-1.43,.24c-.34,.06-.57,.11-.71,.15s-.25,.08-.33,.12Zm2.27,1.01l.74-.13c.11,.62,.21,1.29,.31,2.01,.1,.71,.16,1.34,.18,1.86l-.74,.14c-.02-.53-.08-1.16-.17-1.88-.09-.73-.2-1.39-.31-2.01Zm1.6-4.57l.72-.18c.18,.4,.35,.83,.51,1.29,.16,.46,.31,.91,.44,1.33,.13,.43,.23,.8,.29,1.11l-.77,.25c-.06-.32-.15-.71-.28-1.14s-.27-.89-.42-1.35c-.16-.46-.32-.9-.49-1.31Zm.04,4.23l.68-.2c.2,.5,.41,1.06,.6,1.66,.2,.61,.34,1.12,.42,1.56l-.74,.23c-.07-.44-.2-.97-.4-1.57-.19-.61-.38-1.17-.58-1.68Zm1.62,3.96h10.35v.85h-10.35v-.85Zm2.5-12.55l.81,.23c-.23,.46-.51,.96-.84,1.52-.33,.56-.65,1.08-.96,1.56,.41,.54,.8,1.12,1.19,1.73,.38,.61,.67,1.13,.86,1.55l-.77,.36c-.19-.47-.49-1.03-.89-1.69-.4-.66-.84-1.3-1.3-1.93,.24-.37,.48-.76,.73-1.16,.25-.4,.47-.79,.68-1.18,.2-.38,.37-.71,.5-.99Zm-1.76-1.58h9.47v.81h-9.47v-.81Zm.36,9.32h8.53v.81h-8.53v-.81Zm4.61-7.74l.81,.25c-.24,.44-.53,.95-.88,1.5-.35,.56-.68,1.08-.99,1.56,.29,.36,.57,.74,.84,1.13,.27,.4,.52,.78,.76,1.15,.23,.37,.42,.7,.55,.97l-.76,.36c-.22-.47-.53-1.03-.95-1.69-.42-.66-.88-1.3-1.39-1.91,.26-.37,.52-.76,.77-1.16,.25-.4,.49-.79,.71-1.18,.22-.38,.4-.71,.53-.99Zm-.77,8.12h.85v4.95h-.85v-4.95Zm3.91-8.12l.83,.25c-.26,.44-.57,.95-.92,1.5-.35,.56-.68,1.08-1.01,1.56,.3,.35,.59,.72,.88,1.12,.29,.4,.55,.79,.79,1.15,.24,.37,.43,.69,.58,.98l-.74,.38c-.23-.47-.56-1.03-1.01-1.69-.44-.66-.92-1.3-1.44-1.93,.26-.37,.52-.76,.77-1.16,.25-.4,.49-.79,.71-1.18,.22-.38,.4-.71,.55-.99Z" fill="#fff"/>
        <path d="M156.69,121.98h16.4v.85h-16.4v-.85Zm5.45,1.46l.86,.47c-.46,.4-.99,.79-1.6,1.2-.61,.4-1.25,.77-1.91,1.12s-1.3,.64-1.93,.91c-.06-.1-.15-.2-.27-.32-.12-.12-.23-.22-.34-.31,.62-.25,1.26-.55,1.92-.89,.65-.34,1.27-.7,1.85-1.08s1.05-.74,1.41-1.09Zm-3.62-10.48h12.91v9.41h-.88v-8.57h-11.16v8.57h-.86v-9.41Zm.47,4.32h11.93v.83h-11.93v-.83Zm3.47-6.55h.83v11.66h-.83v-11.66Zm4.01-.02h.85v11.72h-.85v-11.72Zm.38,13.27l.59-.58c.65,.31,1.29,.65,1.94,1,.64,.35,1.25,.71,1.84,1.05,.58,.35,1.08,.68,1.5,.99l-.74,.59c-.41-.31-.89-.64-1.44-.98-.55-.34-1.14-.69-1.77-1.05-.63-.36-1.27-.7-1.92-1.03Z" fill="#fff"/>
        <path d="M179.66,122.07l-.31-.65c.73-.35,1.29-.77,1.67-1.26,.38-.49,.57-1.13,.57-1.91l-.45-1.37,.97,1.22c-.13,.17-.28,.28-.43,.33-.16,.05-.31,.08-.47,.08-.32,0-.59-.09-.8-.27-.21-.18-.31-.46-.31-.83s.11-.66,.34-.84c.23-.17,.49-.26,.77-.26,.42,0,.74,.17,.96,.5,.22,.34,.33,.78,.33,1.33,0,.95-.26,1.76-.78,2.42-.52,.67-1.21,1.16-2.06,1.48Z" fill="#fff"/>
        <path d="M198.56,114.62l.74,.49c-.52,.91-1.14,1.83-1.86,2.75-.73,.92-1.52,1.82-2.38,2.69-.86,.87-1.75,1.67-2.66,2.38s-1.83,1.33-2.75,1.84c-.07-.12-.17-.25-.29-.4-.12-.14-.23-.26-.34-.36,.9-.47,1.81-1.05,2.74-1.75,.92-.7,1.81-1.46,2.66-2.3,.85-.84,1.63-1.72,2.35-2.64s1.31-1.82,1.79-2.71Zm-9-.14h15.55v.88h-15.55v-.88Zm9.38-3.76h.92v14.72c0,.37-.06,.65-.18,.82s-.31,.3-.58,.39c-.26,.07-.65,.12-1.16,.14-.51,.02-1.21,.03-2.1,.02-.01-.08-.04-.18-.07-.28-.04-.1-.08-.21-.13-.32-.05-.11-.1-.21-.14-.28,.46,.01,.88,.02,1.29,.02s.75,0,1.04,0c.29,0,.5,0,.6,0,.18-.01,.31-.05,.39-.12,.08-.07,.12-.19,.12-.37v-14.72Z" fill="#fff"/>
        <path d="M211.14,117.1h.83v4.66c0,.55-.03,1.15-.1,1.78-.07,.64-.2,1.26-.4,1.87-.2,.61-.51,1.18-.93,1.69-.02-.07-.07-.15-.14-.22-.07-.08-.15-.16-.23-.23s-.15-.13-.22-.17c.36-.46,.62-.95,.79-1.49s.28-1.09,.32-1.65c.05-.56,.07-1.09,.07-1.59v-4.64Zm-.2-1.46c-.02-.06-.05-.14-.09-.25-.04-.11-.07-.22-.11-.33-.04-.11-.07-.21-.11-.28,.14-.02,.29-.1,.43-.23,.14-.13,.31-.28,.49-.48,.13-.13,.34-.37,.62-.72s.58-.75,.91-1.22c.32-.46,.62-.94,.88-1.43l.9,.36c-.34,.52-.68,1.02-1.04,1.51-.36,.49-.73,.96-1.11,1.4s-.75,.82-1.12,1.16v.02c-.13,.07-.24,.13-.32,.18s-.16,.1-.22,.15c-.07,.05-.1,.11-.1,.15Zm0,0l-.02-.68,.58-.31,5.67-.36c.01,.12,.04,.25,.07,.39,.04,.14,.07,.26,.11,.35-1.37,.1-2.46,.18-3.27,.24s-1.43,.12-1.85,.17c-.43,.05-.73,.09-.9,.12-.17,.03-.3,.06-.39,.08Zm.63,1.46h5.11v.77h-5.11v-.77Zm.36,6.84c.59-.26,1.3-.59,2.12-.99,.83-.4,1.66-.81,2.5-1.24l.18,.65c-.76,.42-1.52,.84-2.29,1.25-.77,.41-1.47,.78-2.11,1.11l-.41-.77Zm.4-4.21l.45-.5c.37,.19,.77,.41,1.19,.64s.82,.47,1.19,.69c.37,.23,.68,.43,.92,.59l-.47,.59c-.24-.19-.55-.4-.92-.64-.37-.23-.77-.47-1.18-.72-.41-.25-.81-.46-1.18-.66Zm3.96-2.63h.83v8.84c0,.28-.04,.49-.11,.63-.07,.14-.21,.26-.41,.34-.22,.06-.52,.1-.9,.11-.38,.01-.87,.02-1.46,.02-.01-.11-.05-.24-.11-.39-.06-.15-.12-.29-.18-.4,.48,.01,.9,.02,1.27,.02h.77c.13,0,.22-.02,.25-.06,.04-.04,.05-.12,.05-.24v-8.86Zm-1.13-4.77l.72-.31c.32,.4,.65,.83,.97,1.31,.32,.48,.62,.95,.89,1.4,.27,.46,.48,.86,.62,1.21l-.74,.4c-.14-.37-.35-.79-.61-1.25s-.55-.94-.87-1.42c-.32-.49-.64-.93-.98-1.34Zm3.82-1.6h.85v6.05c0,.32,.05,.55,.16,.68,.11,.13,.31,.2,.61,.2h3.74c.19,0,.43,0,.72-.03s.51-.04,.67-.06c.01,.12,.03,.25,.05,.4,.02,.15,.04,.27,.05,.37-.13,.02-.33,.04-.59,.05-.26,.01-.56,.02-.88,.02h-3.76c-.41,0-.73-.05-.97-.15-.24-.1-.41-.27-.5-.51-.1-.24-.14-.57-.14-.99v-6.03Zm0,8.37h.85v6.32c0,.28,.07,.46,.21,.56,.14,.1,.45,.14,.93,.14h3.51c.28,0,.49-.06,.63-.17,.14-.11,.24-.35,.3-.7,.05-.35,.09-.88,.12-1.59,.11,.07,.24,.14,.39,.21,.15,.07,.29,.11,.42,.14-.05,.78-.12,1.38-.23,1.8s-.28,.71-.52,.88c-.25,.17-.6,.25-1.05,.25h-3.6c-.5,0-.9-.04-1.19-.13-.29-.08-.49-.23-.59-.45-.11-.22-.16-.52-.16-.92v-6.34Zm.43-5.65h5.54v.81h-5.54v-.81Zm.02,8.01h5.76v.83h-5.76v-.83Z" fill="#fff"/>
        <path d="M231.66,118.81l.85,.05c-.04,1.15-.1,2.23-.18,3.24-.08,1.01-.23,1.94-.43,2.78s-.49,1.6-.86,2.26c-.05-.05-.11-.1-.2-.16-.08-.06-.17-.12-.27-.18-.1-.06-.18-.11-.25-.14,.37-.6,.65-1.31,.84-2.12,.19-.81,.31-1.7,.39-2.66s.11-1.99,.13-3.07Zm-.94-2.34h7.58v.81h-7.58v-.81Zm.34-3.37h6.84v.79h-6.84v-.79Zm1.21,8.03c.25,.94,.57,1.71,.96,2.32,.39,.61,.88,1.09,1.47,1.42s1.29,.57,2.11,.71c.82,.14,1.78,.21,2.9,.21h3.59c.57,0,1.11,0,1.63,0,.52,0,.97,0,1.35,0h.77c-.05,.06-.1,.14-.15,.24-.05,.1-.1,.21-.14,.32-.04,.11-.07,.2-.08,.29h-6.93c-1.25,0-2.32-.08-3.21-.23-.89-.15-1.66-.41-2.29-.79s-1.16-.91-1.58-1.59c-.42-.68-.77-1.55-1.06-2.61l.67-.27Zm1.8-10.4h.83v6.17h-.83v-6.17Zm.2,6.3h.79v8.32h-.79v-8.32Zm.45,3.19h3.42v.79h-3.42v-.79Zm6.64-8.41l.86,.05c-.12,1.61-.48,2.92-1.07,3.92-.59,1.01-1.45,1.82-2.57,2.43-.05-.05-.11-.11-.19-.19s-.16-.15-.24-.23c-.08-.07-.16-.13-.23-.16,1.12-.54,1.95-1.28,2.49-2.21s.86-2.14,.95-3.62Zm-2.9-.25h7.45v.77h-7.45v-.77Zm.67,6.98h6.82v5.53h-6.82v-5.53Zm.85,.77v3.96h5.11v-3.96h-5.11Zm5.53-7.76h.85c0,.2,0,.34-.02,.41-.06,1.13-.12,2.03-.19,2.72-.07,.68-.14,1.21-.23,1.57s-.2,.62-.33,.77c-.11,.11-.23,.19-.38,.25-.14,.06-.34,.09-.58,.09-.18,.02-.45,.03-.81,.02-.36-.01-.74-.03-1.13-.05-.01-.11-.04-.24-.08-.39-.04-.15-.09-.28-.15-.39,.41,.04,.79,.06,1.14,.06,.35,0,.59,0,.71,0,.29,.02,.48-.02,.58-.14,.1-.12,.18-.34,.26-.67s.15-.83,.21-1.49c.06-.66,.11-1.53,.16-2.61v-.16Z" fill="#fff"/>
        <path d="M252.45,118.83l.76,.04c.01,.85-.01,1.76-.08,2.72-.07,.96-.21,1.91-.43,2.86-.22,.95-.57,1.81-1.05,2.59-.05-.06-.11-.12-.18-.19-.07-.07-.15-.13-.22-.19-.08-.06-.15-.1-.22-.13,.44-.73,.77-1.55,.98-2.45,.21-.9,.34-1.81,.41-2.72,.06-.91,.08-1.76,.05-2.54Zm-1.21-2.14h7.74v.79h-7.74v-.79Zm.74-3.55h6.61v.81h-6.61v-.81Zm1.12,7.99c.26,.95,.6,1.73,1.01,2.33,.41,.61,.91,1.08,1.5,1.41s1.3,.57,2.13,.71,1.79,.21,2.9,.21h1.91c.49,0,1.01,0,1.56,0,.55,0,1.07,0,1.58,0h2.05c-.05,.06-.1,.14-.14,.24-.05,.1-.09,.21-.14,.32-.04,.11-.08,.2-.1,.29h-6.7c-1.22,0-2.29-.08-3.19-.23-.91-.15-1.68-.41-2.32-.79-.64-.38-1.18-.91-1.62-1.59-.44-.68-.8-1.55-1.09-2.61l.67-.27Zm1.8-10.4h.81v6.37h-.81v-6.37Zm.22,6.53h.81v8.1h-.81v-8.1Zm.36,3.02h3.28v.79h-3.28v-.79Zm3.64,2.88c-.02-.07-.06-.16-.11-.25s-.1-.19-.15-.29c-.05-.1-.11-.18-.15-.25,.13-.07,.29-.2,.49-.39,.19-.19,.29-.45,.29-.78v-6.86h.81v7.85c-.24,.13-.44,.25-.59,.35-.16,.1-.29,.21-.41,.32s-.17,.21-.17,.3Zm0,0l-.07-.79,.36-.45,3.37-1.78c.04,.11,.07,.23,.12,.37,.04,.14,.08,.24,.12,.31-.8,.44-1.45,.81-1.93,1.09-.49,.28-.86,.5-1.12,.66-.26,.16-.45,.28-.57,.36-.12,.08-.21,.16-.27,.23Zm.36-9.14h8.17v.79h-8.17v-.79Zm6.97,2.18l.7,.2c-.36,1.27-.83,2.47-1.42,3.58-.59,1.12-1.27,2.11-2.03,2.97-.77,.86-1.61,1.57-2.54,2.12-.06-.11-.15-.23-.26-.35-.11-.13-.21-.22-.3-.3,.9-.48,1.73-1.13,2.48-1.96s1.42-1.78,1.99-2.86c.57-1.08,1.03-2.21,1.38-3.4Zm-3.44-5.45h.83c.01,1.57,.06,3.03,.14,4.37,.08,1.34,.2,2.55,.35,3.63,.15,1.07,.33,1.99,.55,2.75,.22,.76,.45,1.34,.7,1.74,.25,.4,.52,.6,.81,.6,.18,0,.31-.23,.4-.69s.14-1.2,.18-2.21c.1,.08,.21,.17,.34,.24,.13,.08,.25,.14,.34,.17-.05,.83-.12,1.48-.21,1.96-.09,.48-.23,.83-.41,1.04s-.42,.32-.72,.32c-.46,0-.86-.23-1.2-.68s-.64-1.1-.9-1.93c-.26-.83-.47-1.83-.64-2.99-.17-1.16-.3-2.44-.4-3.83-.1-1.4-.16-2.89-.18-4.47Zm1.62,.54l.63-.34c.32,.34,.67,.71,1.04,1.12s.65,.76,.86,1.04l-.61,.45c-.22-.3-.51-.67-.87-1.1-.37-.43-.71-.82-1.04-1.17Z" fill="#fff"/>
        <path d="M272.77,122.14l.81,.14c-.12,.77-.27,1.55-.45,2.35-.18,.8-.37,1.48-.56,2.04-.06-.04-.13-.07-.22-.1-.09-.03-.18-.07-.28-.11-.1-.04-.18-.07-.25-.08,.22-.58,.4-1.24,.56-2,.16-.76,.29-1.51,.4-2.25Zm-.61-4.91c-.01-.06-.04-.14-.07-.25l-.11-.32c-.04-.11-.07-.2-.11-.27,.14-.02,.3-.13,.46-.31,.16-.19,.34-.42,.53-.71,.13-.17,.35-.49,.65-.97s.62-1.04,.96-1.69,.64-1.3,.89-1.96l.83,.34c-.48,1.03-1.01,2.05-1.6,3.04s-1.19,1.87-1.8,2.61c-.12,.06-.23,.12-.32,.17-.09,.05-.17,.11-.22,.17-.06,.06-.09,.11-.09,.16Zm.11,4c-.01-.06-.04-.14-.07-.25s-.07-.22-.11-.32c-.04-.11-.07-.2-.11-.29,.17-.02,.36-.15,.57-.37,.21-.22,.45-.5,.71-.82,.13-.17,.34-.44,.61-.82,.28-.38,.59-.82,.94-1.33,.35-.51,.71-1.06,1.07-1.66,.36-.59,.69-1.19,.99-1.79l.79,.41c-.47,.82-.96,1.63-1.49,2.45-.52,.82-1.06,1.59-1.6,2.31-.55,.73-1.1,1.38-1.67,1.97v.02c-.12,.06-.23,.11-.32,.16s-.17,.1-.23,.15c-.07,.05-.1,.11-.1,.17Zm-.11-4l-.02-.7,.52-.29,3.22-.29c-.02,.11-.04,.23-.05,.38-.01,.14-.01,.26,0,.34-.74,.1-1.34,.17-1.8,.22-.46,.05-.81,.1-1.05,.14-.25,.04-.43,.08-.55,.11s-.21,.06-.27,.08Zm.11,4l-.02-.7,.52-.31,4.48-.61c-.02,.11-.04,.23-.04,.38s0,.26,.02,.36c-1.04,.14-1.88,.27-2.49,.37s-1.09,.18-1.43,.24c-.34,.06-.57,.11-.71,.15s-.25,.08-.33,.12Zm2.27,1.01l.74-.13c.11,.62,.21,1.29,.31,2.01,.1,.71,.16,1.34,.18,1.86l-.74,.14c-.02-.53-.08-1.16-.17-1.88-.09-.73-.2-1.39-.31-2.01Zm1.6-4.57l.72-.18c.18,.4,.35,.83,.51,1.29,.16,.46,.31,.91,.44,1.33,.13,.43,.23,.8,.29,1.11l-.77,.25c-.06-.32-.15-.71-.28-1.14s-.27-.89-.42-1.35c-.16-.46-.32-.9-.49-1.31Zm.04,4.23l.68-.2c.2,.5,.41,1.06,.6,1.66,.2,.61,.34,1.12,.42,1.56l-.74,.23c-.07-.44-.2-.97-.4-1.57-.19-.61-.38-1.17-.58-1.68Zm1.62,3.96h10.35v.85h-10.35v-.85Zm2.5-12.55l.81,.23c-.23,.46-.51,.96-.84,1.52-.33,.56-.65,1.08-.96,1.56,.41,.54,.8,1.12,1.19,1.73,.38,.61,.67,1.13,.86,1.55l-.77,.36c-.19-.47-.49-1.03-.89-1.69-.4-.66-.84-1.3-1.3-1.93,.24-.37,.48-.76,.73-1.16,.25-.4,.47-.79,.68-1.18,.2-.38,.37-.71,.5-.99Zm-1.76-1.58h9.47v.81h-9.47v-.81Zm.36,9.32h8.53v.81h-8.53v-.81Zm4.61-7.74l.81,.25c-.24,.44-.53,.95-.88,1.5-.35,.56-.68,1.08-.99,1.56,.29,.36,.57,.74,.84,1.13,.27,.4,.52,.78,.76,1.15,.23,.37,.42,.7,.55,.97l-.76,.36c-.22-.47-.53-1.03-.95-1.69-.42-.66-.88-1.3-1.39-1.91,.26-.37,.52-.76,.77-1.16,.25-.4,.49-.79,.71-1.18,.22-.38,.4-.71,.53-.99Zm-.77,8.12h.85v4.95h-.85v-4.95Zm3.91-8.12l.83,.25c-.26,.44-.57,.95-.92,1.5-.35,.56-.68,1.08-1.01,1.56,.3,.35,.59,.72,.88,1.12,.29,.4,.55,.79,.79,1.15,.24,.37,.43,.69,.58,.98l-.74,.38c-.23-.47-.56-1.03-1.01-1.69-.44-.66-.92-1.3-1.44-1.93,.26-.37,.52-.76,.77-1.16,.25-.4,.49-.79,.71-1.18,.22-.38,.4-.71,.55-.99Z" fill="#fff"/>
        <path d="M292.59,121.98h16.4v.85h-16.4v-.85Zm5.45,1.46l.86,.47c-.46,.4-.99,.79-1.6,1.2-.61,.4-1.25,.77-1.91,1.12s-1.3,.64-1.93,.91c-.06-.1-.15-.2-.27-.32-.12-.12-.23-.22-.34-.31,.62-.25,1.26-.55,1.92-.89,.65-.34,1.27-.7,1.85-1.08s1.05-.74,1.41-1.09Zm-3.62-10.48h12.91v9.41h-.88v-8.57h-11.16v8.57h-.86v-9.41Zm.47,4.32h11.93v.83h-11.93v-.83Zm3.47-6.55h.83v11.66h-.83v-11.66Zm4.01-.02h.85v11.72h-.85v-11.72Zm.38,13.27l.59-.58c.65,.31,1.29,.65,1.94,1,.64,.35,1.25,.71,1.84,1.05,.58,.35,1.08,.68,1.5,.99l-.74,.59c-.41-.31-.89-.64-1.44-.98-.55-.34-1.14-.69-1.77-1.05-.63-.36-1.27-.7-1.92-1.03Z" fill="#fff"/>
      </g>
      <g>
        <path d="M16.43,16.56l1.41,.75c-.48,1.04-1.08,2.08-1.82,3.13-.73,1.05-1.52,2.02-2.37,2.9-.85,.88-1.71,1.59-2.57,2.13-.1-.28-.25-.61-.45-1s-.39-.71-.57-.98c.82-.48,1.64-1.09,2.45-1.83,.81-.74,1.55-1.56,2.24-2.45,.68-.89,1.24-1.77,1.68-2.65Zm5.61-12.51l1.86,.78c-.9,1.22-2.01,2.37-3.33,3.45-1.32,1.08-2.74,2.04-4.27,2.88-1.53,.84-3.08,1.52-4.63,2.04-.1-.18-.23-.38-.39-.6s-.33-.44-.51-.66c-.18-.22-.35-.4-.51-.54,1.52-.42,3.02-1,4.51-1.74s2.88-1.59,4.16-2.55c1.28-.96,2.32-1.98,3.12-3.06ZM11.18,15.39h12.03v2.01H11.18v-2.01Zm.36-12h24.96v2.04H11.54V3.39Zm4.68,8.79h2.13v15.45h-2.13V12.18Zm1.89,5.31c.26,.16,.63,.41,1.12,.75,.49,.34,1.02,.72,1.59,1.14,.57,.42,1.09,.81,1.56,1.17,.47,.36,.81,.63,1.04,.81l-1.68,1.26c-.26-.26-.62-.58-1.07-.98s-.94-.8-1.47-1.23c-.53-.43-1.04-.83-1.52-1.2-.48-.37-.87-.65-1.17-.85l1.59-.87Zm11.13-.81l1.62,.66c-.56,1.1-1.26,2.18-2.11,3.23-.85,1.05-1.77,2.01-2.75,2.88-.98,.87-1.96,1.59-2.94,2.15-.16-.24-.38-.52-.66-.85s-.53-.58-.75-.77c.96-.48,1.92-1.1,2.88-1.86,.96-.76,1.85-1.61,2.68-2.55,.83-.94,1.5-1.9,2.03-2.88ZM22.85,.21h2.28V13.41h-2.28V.21Zm1.38,15.24h12.78v2.01h-12.78v-2.01Zm.84-10.95c.46,.22,1.1,.54,1.92,.94,.82,.41,1.72,.88,2.71,1.4,.99,.52,1.97,1.04,2.94,1.54,.97,.51,1.84,.98,2.61,1.4,.77,.42,1.33,.73,1.7,.93l-.81,2.13c-.46-.3-1.08-.69-1.84-1.17-.77-.48-1.62-.99-2.55-1.54-.93-.55-1.87-1.1-2.82-1.65-.95-.55-1.83-1.05-2.64-1.52-.81-.46-1.49-.83-2.03-1.11l.81-1.35Zm4.08,7.68h2.13v15.69h-2.13V12.18Zm2.04,4.56c.52,.88,1.17,1.77,1.95,2.67,.78,.9,1.62,1.72,2.5,2.47s1.75,1.36,2.57,1.81c-.26,.22-.54,.5-.86,.84-.31,.34-.57,.65-.76,.93-.78-.58-1.6-1.31-2.46-2.2-.86-.89-1.68-1.85-2.45-2.87s-1.42-2.03-1.93-3.03l1.44-.63Z" fill="#fff"/>
        <path d="M49.43,0l2.01,.6c-.6,1.24-1.35,2.44-2.26,3.6-.91,1.16-1.83,2.15-2.78,2.97-.1-.12-.25-.28-.43-.48-.19-.2-.39-.39-.6-.58-.21-.19-.4-.35-.56-.46,.94-.68,1.82-1.52,2.64-2.52,.82-1,1.48-2.04,1.98-3.12Zm-4.26,18.81h26.82v1.86h-26.82v-1.86Zm8.22,2.49l1.86,.75c-.64,.76-1.43,1.48-2.37,2.15-.94,.67-1.95,1.27-3.03,1.8-1.08,.53-2.14,.95-3.18,1.27-.1-.18-.24-.39-.42-.62-.18-.23-.36-.46-.54-.67-.18-.22-.36-.4-.54-.54,1.02-.26,2.04-.59,3.08-1,1.03-.41,2-.89,2.91-1.44,.91-.55,1.65-1.11,2.23-1.7Zm-8.13-6.09c1.36-.16,3-.38,4.92-.66,1.92-.28,3.88-.57,5.88-.87l.06,1.77c-1.88,.3-3.75,.6-5.61,.89-1.86,.29-3.51,.54-4.95,.77l-.3-1.89Zm.39-6.99h10.32v1.71h-10.32v-1.71Zm3.18-6.21h9.54v1.8h-9.54v-1.8Zm1.02,6.75h2.1v6.42h-2.1v-6.42Zm1.11-4.02l1.5-1.05c.46,.42,.95,.9,1.46,1.44s.9,1,1.18,1.38l-1.56,1.2c-.26-.4-.64-.89-1.14-1.46s-.98-1.07-1.44-1.52Zm9.6,3.84h1.95v2.13c0,.78-.16,1.58-.46,2.4-.31,.82-.85,1.6-1.62,2.33-.77,.73-1.88,1.38-3.32,1.94-.1-.12-.24-.27-.4-.47-.17-.19-.35-.37-.54-.54-.19-.17-.37-.29-.53-.38,1.34-.5,2.37-1.04,3.08-1.62s1.19-1.19,1.46-1.83c.26-.64,.39-1.27,.39-1.89v-2.07Zm-3.9,3.57l.84-1.35c.84,.32,1.74,.69,2.7,1.11,.96,.42,1.88,.84,2.76,1.26,.88,.42,1.61,.79,2.19,1.11l-.84,1.59c-.58-.34-1.31-.73-2.19-1.17-.88-.44-1.8-.88-2.76-1.33-.96-.45-1.86-.85-2.7-1.21Zm.45-4.11h9.3v1.62h-9.3v-1.62ZM61.46,.03l2.07,.54c-.48,1.26-1.14,2.47-1.97,3.62-.83,1.15-1.69,2.12-2.59,2.92-.12-.14-.28-.29-.48-.46-.2-.17-.41-.34-.63-.51-.22-.17-.42-.3-.6-.4,.9-.7,1.72-1.55,2.46-2.55s1.32-2.05,1.74-3.15Zm-4.02,16.89h2.19v10.89h-2.19v-10.89Zm3.57-14.91h11.22v1.8h-11.22v-1.8Zm.78,20.55l1.44-1.44c.92,.4,1.89,.85,2.93,1.35,1.03,.5,2.01,1.01,2.95,1.52,.94,.51,1.71,.99,2.31,1.43l-1.53,1.65c-.6-.44-1.36-.93-2.26-1.47-.91-.54-1.88-1.07-2.9-1.6-1.02-.53-2-1-2.94-1.42Zm2.28-17.82l1.56-1.05c.46,.38,.94,.83,1.44,1.33,.5,.51,.88,.94,1.14,1.31l-1.62,1.2c-.24-.38-.61-.83-1.09-1.36-.49-.53-.97-1-1.43-1.43Zm1.62,3.3h2.13v6.3c0,.26,.01,.48,.03,.65,.02,.17,.06,.29,.12,.35,.1,.08,.25,.12,.45,.12h.84c.1,0,.21,0,.32-.03,.11-.02,.19-.05,.25-.09,.08-.04,.15-.11,.21-.21,.06-.1,.1-.23,.12-.39,.04-.2,.06-.5,.07-.92,.01-.41,.03-.88,.05-1.42,.2,.16,.44,.31,.73,.46s.57,.27,.83,.34c-.02,.56-.06,1.11-.11,1.65s-.12,.94-.19,1.2c-.18,.46-.46,.78-.84,.96-.18,.08-.4,.14-.65,.18-.25,.04-.49,.06-.71,.06h-1.44c-.28,0-.58-.04-.89-.12-.31-.08-.56-.21-.76-.39-.2-.18-.34-.44-.43-.78-.09-.34-.14-.92-.14-1.74v-6.18Z" fill="#fff"/>
        <path d="M91.25,13.71l1.92,.81c-.7,1.2-1.53,2.37-2.49,3.51-.96,1.14-1.99,2.22-3.08,3.23-1.09,1.01-2.22,1.93-3.39,2.76s-2.33,1.54-3.5,2.15c-.14-.18-.3-.39-.5-.63-.19-.24-.38-.47-.58-.71-.2-.23-.39-.41-.57-.55,1.14-.52,2.3-1.16,3.47-1.92,1.17-.76,2.29-1.6,3.38-2.54s2.07-1.92,2.98-2.96c.91-1.04,1.7-2.09,2.36-3.15Zm-11.34-1.14h26.4v2.22h-26.4v-2.22Zm2.13-7.41h22.23v2.22h-22.23v-2.22ZM91.82,.27h2.37V27.84h-2.37V.27Zm2.94,13.44c.66,1.06,1.46,2.1,2.38,3.13,.93,1.03,1.94,2.02,3.02,2.97,1.08,.95,2.21,1.8,3.39,2.55,1.18,.75,2.34,1.38,3.48,1.88-.16,.16-.35,.35-.56,.57-.21,.22-.41,.45-.6,.69-.19,.24-.36,.47-.5,.69-1.14-.6-2.3-1.32-3.48-2.16-1.18-.84-2.32-1.77-3.42-2.79s-2.12-2.1-3.07-3.24c-.95-1.14-1.79-2.3-2.51-3.48l1.86-.81Z" fill="#fff"/>
        <path d="M126.56,13.56l1.89,.75c-.74,1.28-1.6,2.52-2.58,3.73-.98,1.21-2.05,2.34-3.21,3.39-1.16,1.05-2.37,2-3.62,2.85s-2.52,1.57-3.79,2.17c-.1-.2-.25-.42-.44-.65-.19-.23-.38-.46-.58-.69s-.39-.42-.57-.56c1.26-.52,2.51-1.17,3.76-1.95,1.25-.78,2.45-1.65,3.58-2.61s2.18-1.99,3.12-3.09c.94-1.1,1.75-2.22,2.43-3.36Zm-6.6-6.24l2.22,.42c-.52,2.18-1.29,4.15-2.33,5.9-1.03,1.75-2.23,3.21-3.61,4.37-.12-.14-.29-.3-.51-.5-.22-.19-.45-.38-.67-.56-.23-.18-.42-.32-.58-.42,1.36-1.02,2.5-2.32,3.44-3.92,.93-1.59,1.61-3.35,2.05-5.29Zm-5.25-2.88h25.89v2.19h-25.89v-2.19Zm4.02,7.56l1.47-1.38c.48,.4,.98,.85,1.51,1.33,.53,.49,1.04,.96,1.53,1.42,.49,.46,.87,.87,1.15,1.23l-1.53,1.56c-.3-.38-.69-.81-1.16-1.29s-.96-.98-1.49-1.48c-.52-.51-1.02-.98-1.5-1.4ZM126.29,.27h2.34V27.84h-2.34V.27Zm2.25,13.38c.88,1.52,2,2.98,3.36,4.4s2.87,2.68,4.52,3.79c1.65,1.12,3.33,2.01,5.05,2.67-.18,.16-.38,.36-.58,.6-.21,.24-.41,.48-.6,.73-.19,.25-.35,.48-.47,.71-1.72-.78-3.41-1.79-5.07-3.03-1.66-1.24-3.19-2.64-4.58-4.2-1.39-1.56-2.57-3.2-3.53-4.92l1.89-.75Zm5.64-6.33l2.19,.39c-.4,1.88-.99,3.59-1.77,5.13-.78,1.54-1.71,2.83-2.79,3.87-.14-.12-.33-.26-.55-.42-.23-.16-.46-.31-.71-.47-.24-.15-.45-.26-.63-.34,1.1-.94,2-2.12,2.71-3.52,.71-1.41,1.22-2.96,1.54-4.64Zm-1.02,4.74l1.5-1.32c.68,.5,1.4,1.07,2.17,1.7,.77,.63,1.5,1.26,2.21,1.88,.7,.62,1.27,1.15,1.71,1.59l-1.59,1.56c-.42-.48-.97-1.04-1.65-1.67s-1.41-1.27-2.17-1.92c-.77-.65-1.5-1.25-2.17-1.81Z" fill="#fff"/>
        <path d="M152.09,19.8l-.66-1.59c1.22-.52,2.16-1.17,2.8-1.94,.65-.77,.98-1.73,.98-2.86l-.54-2.52,1.62,2.28c-.22,.26-.47,.44-.75,.52-.28,.09-.56,.14-.84,.14-.62,0-1.15-.18-1.59-.54-.44-.36-.66-.89-.66-1.59s.22-1.26,.67-1.62c.45-.36,.98-.54,1.6-.54,.84,0,1.47,.31,1.91,.94,.43,.63,.65,1.47,.65,2.5,0,1.62-.47,3.02-1.41,4.2-.94,1.18-2.2,2.05-3.78,2.61Z" fill="#fff"/>
        <path d="M175.28,22.02l2.04,.84c-.66,.56-1.43,1.12-2.32,1.67-.89,.55-1.81,1.06-2.75,1.54-.94,.48-1.84,.9-2.7,1.26-.12-.14-.29-.31-.5-.52-.21-.21-.42-.42-.62-.62-.2-.2-.39-.36-.57-.48,.88-.3,1.77-.65,2.68-1.04,.91-.39,1.77-.81,2.59-1.26,.82-.45,1.53-.92,2.13-1.4Zm-7.05-10.41h26.55v1.86h-26.55v-1.86Zm3.42-10.29h19.8V9.72h-19.8V1.32Zm.69,13.74h18.54v6.18h-18.54v-6.18Zm1.47-12.21v1.89h15.39v-1.89h-15.39Zm0,3.39v1.92h15.39v-1.92h-15.39Zm.69,10.5v2.85h14.13v-2.85h-14.13Zm5.91,3.57h2.28v5.37c0,.54-.08,.95-.24,1.24-.16,.29-.47,.5-.93,.62-.42,.14-.99,.23-1.71,.25-.72,.03-1.61,.04-2.67,.04-.04-.28-.12-.58-.25-.92s-.28-.62-.43-.88c.52,.02,1.01,.03,1.48,.04,.47,0,.88,0,1.25,0,.36-.01,.6-.02,.72-.02,.22-.02,.36-.06,.42-.12,.06-.06,.09-.17,.09-.33v-5.31Zm-.87-10.05l1.98-.66c.34,.38,.66,.81,.95,1.3,.29,.49,.5,.93,.64,1.31l-2.1,.78c-.1-.38-.29-.83-.57-1.35s-.58-.98-.9-1.38Zm5.7,13.2l1.44-1.32c.92,.32,1.88,.7,2.88,1.14,1,.44,1.96,.89,2.87,1.35,.91,.46,1.67,.9,2.29,1.32l-1.53,1.47c-.58-.4-1.32-.84-2.21-1.32s-1.84-.96-2.85-1.43c-1.01-.47-1.98-.87-2.89-1.21Z" fill="#fff"/>
        <path d="M203.33,2.43h2.07V24.6h-2.07V2.43Zm1.05,0h6.87V22.14h-6.87v-2.04h4.77V4.47h-4.77V2.43Zm.09,8.73h5.97v1.98h-5.97v-1.98Zm7.62,3.21h17.43v2.13h-17.43v-2.13ZM220.07,.27h2.1V10.92c0,1.6-.09,3.18-.27,4.74-.18,1.56-.55,3.06-1.11,4.51-.56,1.45-1.41,2.83-2.54,4.12s-2.65,2.48-4.54,3.54c-.1-.16-.24-.34-.41-.55-.17-.21-.35-.42-.54-.62-.19-.2-.37-.36-.52-.48,1.76-.96,3.17-2.02,4.21-3.19,1.05-1.17,1.83-2.42,2.35-3.74,.52-1.32,.86-2.68,1.02-4.08,.16-1.4,.24-2.82,.24-4.26V.27Zm-6,4.95h13.86V15.36h-2.07V7.35h-9.78V15.36h-2.01V5.22Zm7.74,14.04l1.56-1.2c.76,.86,1.53,1.8,2.32,2.8,.79,1.01,1.54,1.99,2.25,2.94s1.28,1.78,1.7,2.5l-1.68,1.44c-.42-.74-.98-1.6-1.67-2.58-.69-.98-1.43-1.99-2.22-3.03-.79-1.04-1.54-2-2.27-2.88Z" fill="#fff"/>
        <path d="M240.56,.12l1.86,.45c-.48,1.08-1.09,2.11-1.84,3.08-.75,.97-1.54,1.8-2.36,2.48-.1-.1-.25-.22-.46-.36-.21-.14-.42-.27-.63-.4-.21-.13-.4-.23-.56-.31,.86-.6,1.64-1.33,2.33-2.19,.69-.86,1.25-1.77,1.67-2.73Zm-3.63,7.74h3.12v.12h8.4v-.12h3.24v1.38h-3.24v-.09h-8.4v.09h-3.12v-1.38Zm7.47,14.76l2.01,.78c-.66,.5-1.42,1-2.28,1.48-.86,.49-1.75,.95-2.67,1.37s-1.8,.79-2.64,1.11c-.12-.14-.27-.31-.46-.51-.19-.2-.39-.4-.61-.58-.22-.19-.41-.34-.57-.44,1.28-.38,2.58-.85,3.92-1.41,1.33-.56,2.43-1.16,3.31-1.8Zm-4.68-18.27h1.71c-.08,.92-.18,1.91-.31,2.97-.13,1.06-.26,2.08-.38,3.06-.12,.98-.24,1.83-.36,2.55h-1.71c.14-.74,.27-1.61,.41-2.6,.13-.99,.25-2.01,.36-3.06s.21-2.02,.29-2.92Zm-.39,18.27c0-.16-.03-.35-.09-.56-.06-.21-.13-.44-.2-.67-.07-.24-.13-.44-.2-.6,.48-.04,1.04-.15,1.7-.31,.65-.17,1.39-.38,2.24-.65,.46-.14,1.15-.37,2.08-.69,.93-.32,2-.71,3.22-1.19,1.22-.47,2.47-.99,3.76-1.56,1.29-.57,2.53-1.17,3.71-1.79l1.23,1.41c-2.6,1.28-5.26,2.39-7.96,3.33-2.71,.94-5.43,1.75-8.15,2.43v.06c-.26,.1-.48,.19-.66,.25-.18,.07-.34,.15-.48,.24-.14,.09-.21,.19-.21,.29Zm0,0v-1.32l1.32-.69,18.78-1.08c.04,.24,.09,.5,.17,.78,.07,.28,.14,.51,.22,.69-2.98,.2-5.54,.37-7.68,.5-2.14,.13-3.93,.25-5.38,.34-1.45,.1-2.62,.19-3.53,.25-.9,.07-1.6,.14-2.11,.2-.51,.06-.9,.12-1.16,.17-.26,.05-.47,.1-.63,.17Zm.18-11.04h11.37v1.35h-11.37v-1.35Zm.99-9.87h10.56v1.44h-11.28l.72-1.44Zm-.24,2.64h8.58v1.32h-8.58v-1.32Zm1.05,14.19c-.04-.18-.12-.46-.22-.84-.11-.38-.21-.7-.32-.96,.34-.02,.71-.06,1.1-.13,.39-.07,.81-.17,1.27-.31,.36-.12,.92-.31,1.7-.58,.77-.27,1.63-.61,2.59-1.02,.96-.41,1.88-.85,2.76-1.33l1.32,1.26c-1.44,.68-2.91,1.27-4.39,1.79-1.49,.51-2.98,.94-4.46,1.27v.06c-.28,.1-.51,.19-.68,.25-.17,.07-.33,.16-.46,.25-.14,.1-.21,.2-.21,.3Zm0,0v-1.26l1.11-.54,9.54-.24c-.08,.22-.16,.48-.24,.77s-.14,.52-.18,.7c-2.16,.06-3.88,.12-5.17,.18s-2.28,.11-2.96,.15c-.68,.04-1.17,.08-1.46,.12-.29,.04-.51,.08-.65,.12Zm1.29-8.79l.78-.78c.48,.26,1,.56,1.58,.9,.57,.34,1.04,.64,1.39,.9l-.81,.93c-.32-.28-.77-.6-1.33-.97-.57-.37-1.11-.69-1.61-.98Zm.48-3.48l.75-.81c.48,.24,.99,.51,1.53,.81,.54,.3,.98,.57,1.32,.81l-.75,.93c-.34-.24-.78-.52-1.3-.85-.53-.33-1.05-.62-1.54-.88Zm5.28-1.92h1.71c0,.4,0,.67-.03,.81-.12,2-.25,3.61-.41,4.83-.15,1.22-.31,2.14-.48,2.75-.17,.61-.37,1.04-.59,1.27-.2,.24-.43,.41-.69,.5s-.54,.15-.84,.17c-.24,0-.56,0-.96-.02-.4,0-.81-.02-1.23-.04-.02-.16-.06-.36-.12-.61-.06-.25-.14-.46-.24-.62,.42,.02,.8,.04,1.14,.06,.34,.02,.59,.03,.75,.03,.18,0,.33-.01,.43-.04,.11-.03,.21-.11,.32-.25,.16-.2,.31-.59,.45-1.19,.14-.59,.27-1.48,.4-2.67,.13-1.19,.26-2.75,.38-4.67v-.3Zm1.29,16.17h2.19v5.16c0,.54-.08,.96-.24,1.26s-.47,.52-.93,.66c-.44,.16-1.03,.25-1.75,.28-.73,.03-1.62,.05-2.69,.05-.06-.28-.17-.6-.31-.95-.15-.35-.32-.66-.5-.92,.6,.02,1.15,.03,1.65,.04s.93,.01,1.28,0,.59-.01,.74-.01c.22-.02,.37-.07,.45-.14,.08-.07,.12-.19,.12-.34v-5.1ZM254.48,.18l1.95,.39c-.42,1.46-1,2.83-1.74,4.12s-1.58,2.38-2.52,3.25c-.08-.12-.21-.27-.39-.45-.18-.18-.37-.35-.57-.52-.2-.17-.37-.3-.51-.41,.88-.78,1.64-1.72,2.28-2.82,.64-1.1,1.14-2.29,1.5-3.57Zm5.64,3.27l1.95,.3c-.5,1.76-1.22,3.29-2.16,4.59-.94,1.3-2.07,2.42-3.39,3.36-1.32,.94-2.78,1.73-4.38,2.37-.08-.14-.2-.3-.34-.5-.15-.19-.31-.38-.48-.57-.17-.19-.33-.34-.46-.46,2.36-.82,4.34-1.97,5.94-3.44,1.6-1.47,2.71-3.35,3.33-5.66Zm-5.43,.69c.82,2.1,2.07,3.92,3.74,5.44s3.67,2.62,6.01,3.25c-.22,.2-.46,.47-.72,.79-.26,.33-.46,.64-.6,.92-2.4-.8-4.46-2.06-6.18-3.78-1.72-1.72-3.02-3.78-3.9-6.18l1.65-.45Zm-.39-1.47h9.69v1.68h-10.65l.96-1.68Zm.21,20.97l1.62-1.17c.84,.28,1.72,.61,2.66,.99,.93,.38,1.82,.78,2.67,1.2,.85,.42,1.56,.81,2.14,1.17l-1.71,1.32c-.52-.36-1.2-.75-2.04-1.19s-1.72-.85-2.66-1.26c-.93-.41-1.83-.77-2.68-1.06Zm.93-5.49l1.47-.9c.7,.44,1.43,.94,2.19,1.52,.76,.57,1.5,1.14,2.21,1.69,.71,.56,1.29,1.05,1.75,1.47l-1.56,1.08c-.42-.42-.98-.92-1.67-1.48-.69-.57-1.42-1.15-2.19-1.75s-1.5-1.14-2.21-1.62Z" fill="#fff"/>
        <path d="M271.58,17.4h26.97v1.98h-26.97v-1.98Zm.27-15h12.6v2.01h-12.6V2.4Zm.51,5.13h25.44v1.92h-25.44v-1.92Zm0,4.86h10.05v1.98h-10.05v-1.98Zm.72,9.54h23.79v1.92h-23.79v-1.92Zm3.6-11.67h2.1v6.42h-2.1v-6.42Zm2.01-10.02h2.19V6.69h-2.19V.24Zm5.13,8.04h2.25V27.87h-2.25V8.28Zm1.77-5.88h12.63v2.01h-12.63V2.4Zm2.04,9.9h10.05v1.98h-10.05v-1.98Zm1.41-12.06h2.19V6.69h-2.19V.24Zm2.31,10.02h2.13v6.42h-2.13v-6.42Z" fill="#fff"/>
      </g>
      <g>
        <g>
          <path d="M110.45,206.61h-1.7l1.7-14.7,5.6,10.14,5.6-10.14,1.7,14.7h-1.7l-1.04-9.46-4.56,8.16-4.56-8.16-1.04,9.46Z" fill="#fff"/>
          <path d="M126.48,196.76c.35-.87,.85-1.63,1.49-2.28,.64-.65,1.39-1.15,2.26-1.52,.87-.37,1.81-.55,2.82-.55s1.97,.18,2.83,.55c.86,.37,1.61,.87,2.25,1.52,.64,.65,1.14,1.41,1.49,2.28,.35,.87,.53,1.82,.53,2.85s-.18,1.96-.53,2.84c-.35,.88-.85,1.64-1.49,2.29-.64,.65-1.39,1.15-2.25,1.52-.86,.37-1.8,.55-2.83,.55s-1.95-.18-2.82-.55c-.87-.37-1.62-.87-2.26-1.52-.64-.65-1.14-1.41-1.49-2.29-.35-.88-.53-1.83-.53-2.84s.18-1.98,.53-2.85Zm1.96,5.67c.46,.83,1.09,1.48,1.89,1.96s1.71,.72,2.72,.72,1.94-.24,2.73-.72c.79-.48,1.42-1.13,1.88-1.96,.46-.83,.69-1.77,.69-2.82s-.23-1.99-.69-2.82-1.09-1.48-1.88-1.96c-.79-.48-1.7-.72-2.73-.72s-1.92,.24-2.72,.72-1.43,1.13-1.89,1.96-.69,1.77-.69,2.82,.23,1.99,.69,2.82Z" fill="#fff"/>
          <path d="M145.25,192.61v14h-1.7v-14h1.7Zm-.76,0h2.86c.91,0,1.72,.17,2.43,.51,.71,.34,1.28,.82,1.7,1.45,.42,.63,.63,1.37,.63,2.24s-.21,1.6-.63,2.23-.99,1.12-1.7,1.46c-.71,.34-1.52,.51-2.43,.51h-2.86v-1.5h2.86c.6,0,1.13-.11,1.59-.32,.46-.21,.82-.52,1.08-.92,.26-.4,.39-.89,.39-1.46s-.13-1.06-.39-1.46c-.26-.4-.62-.71-1.08-.92-.46-.21-.99-.32-1.59-.32h-2.86v-1.5Zm3.46,7.1l5,6.9h-2.1l-4.8-6.9h1.9Z" fill="#fff"/>
          <path d="M157.45,192.61v14h-1.7v-14h1.7Zm-.76,0h7.06v1.6h-7.06v-1.6Zm0,5.6h6.66v1.6h-6.66v-1.6Zm0,6.8h7.06v1.6h-7.06v-1.6Z" fill="#fff"/>
        </g>
        <rect x="109.99" y="218.2" width="54.19" height="2.13" fill="url(#_未命名漸層_6)"/>
      </g>
    </g>
  </g>
</svg>