<?xml version="1.0" encoding="UTF-8"?>
<svg id="_圖層_2" data-name="圖層 2" xmlns="http://www.w3.org/2000/svg" viewBox="0 0 81.95 361.24">
  <g id="pic">
    <g>
      <path d="M30.14,22.77l-1.98-.88L1.1,10.45V0L81.95,35.75,1.1,71.5v-10.45l26.4-11.22,2.2-.88,31.02-13.2-30.58-12.98Zm2.86-3.85V53.02l-8.8,3.3V15.62l8.8,3.3Z" fill="#fff"/>
      <path d="M46.97,93.72v12.43c0,2.57,.44,4.88,1.32,6.93,.88,2.05,2.16,3.67,3.85,4.84,1.69,1.17,3.74,1.76,6.16,1.76,3.67,0,6.51-1.28,8.52-3.85,2.02-2.57,3.03-5.79,3.03-9.68v-10.45H9.35v11.55c0,3.3,.59,6.22,1.76,8.75,1.17,2.53,2.86,4.51,5.06,5.94,2.2,1.43,4.88,2.15,8.03,2.15,2.35,0,4.44-.4,6.27-1.21,1.83-.81,3.37-1.96,4.62-3.47,1.25-1.5,2.18-3.28,2.8-5.33,.62-2.05,.94-4.33,.94-6.82v-13.53h5.17v13.53c0,3.74-.4,7.19-1.21,10.34-.81,3.15-2.04,5.92-3.68,8.3-1.65,2.38-3.76,4.24-6.33,5.55-2.57,1.32-5.61,1.98-9.13,1.98-5.06,0-9.26-1.15-12.59-3.46-3.34-2.31-5.83-5.43-7.48-9.35-1.65-3.92-2.47-8.38-2.47-13.36v-20.9H78.1v19.8c0,4.62-.7,8.64-2.09,12.04-1.39,3.41-3.5,6.07-6.33,7.98-2.82,1.91-6.43,2.86-10.83,2.86-3.59,0-6.67-.95-9.24-2.86-2.57-1.91-4.51-4.57-5.83-7.98s-1.98-7.43-1.98-12.04v-12.43h5.17Z" fill="#fff"/>
      <path d="M55.27,151.74c4.8,1.94,8.98,4.68,12.54,8.2,3.56,3.52,6.34,7.66,8.36,12.43,2.02,4.77,3.02,9.94,3.02,15.51s-1.01,10.83-3.02,15.56c-2.02,4.73-4.8,8.86-8.36,12.38-3.56,3.52-7.74,6.25-12.54,8.2-4.8,1.94-10.03,2.92-15.67,2.92s-10.78-.97-15.62-2.92c-4.84-1.94-9.04-4.68-12.59-8.2-3.56-3.52-6.34-7.64-8.36-12.38-2.02-4.73-3.02-9.92-3.02-15.56s1.01-10.74,3.02-15.51c2.02-4.77,4.8-8.91,8.36-12.43,3.56-3.52,7.75-6.25,12.59-8.2,4.84-1.94,10.05-2.92,15.62-2.92s10.87,.97,15.67,2.92Zm-31.18,10.78c-4.55,2.53-8.14,6-10.78,10.4s-3.96,9.39-3.96,14.96,1.32,10.65,3.96,15.02c2.64,4.36,6.23,7.81,10.78,10.34,4.55,2.53,9.72,3.8,15.51,3.8s10.96-1.27,15.51-3.8,8.14-5.98,10.78-10.34c2.64-4.36,3.96-9.37,3.96-15.02s-1.32-10.56-3.96-14.96-6.23-7.86-10.78-10.4-9.72-3.79-15.51-3.79-10.96,1.26-15.51,3.79Z" fill="#fff"/>
      <path d="M78.1,254.43H26.4c-5.28,0-9.53,1.43-12.76,4.29-3.23,2.86-4.84,7.04-4.84,12.54s1.61,9.68,4.84,12.54c3.23,2.86,7.48,4.29,12.76,4.29h51.7v9.35H26.4c-3.81,0-7.33-.61-10.56-1.82-3.23-1.21-6.01-2.97-8.36-5.28-2.35-2.31-4.18-5.08-5.5-8.3-1.32-3.23-1.98-6.82-1.98-10.78s.66-7.55,1.98-10.78c1.32-3.23,3.15-5.99,5.5-8.3,2.35-2.31,5.13-4.07,8.36-5.28,3.23-1.21,6.75-1.81,10.56-1.81h51.7v9.35Z" fill="#fff"/>
      <path d="M78.1,312.29v48.95h-8.8v-19.8H1.1v-9.35H69.3v-19.8h8.8Z" fill="#fff"/>
    </g>
  </g>
</svg>