<?xml version="1.0" encoding="UTF-8"?>
<svg id="_圖層_2" data-name="圖層 2" xmlns="http://www.w3.org/2000/svg" viewBox="0 0 143.03 244.46">
  <g id="pic">
    <g>
      <g>
        <path d="M77.1,15.75c-.02-.08-.06-.18-.1-.29s-.09-.21-.15-.31c-.06-.1-.11-.19-.16-.28,.13-.06,.29-.17,.46-.34s.26-.42,.26-.76V1.01h.86V14.8c-.16,.08-.29,.16-.4,.23-.11,.07-.23,.15-.35,.23-.12,.08-.22,.16-.3,.25s-.12,.17-.12,.24Zm0,0l-.05-.81,.47-.45,5.33-1.85c.02,.12,.05,.25,.09,.38,.04,.13,.07,.25,.09,.34-1.26,.48-2.27,.86-3.02,1.14-.76,.28-1.33,.5-1.72,.66-.39,.16-.66,.28-.82,.36-.16,.08-.28,.16-.36,.23Zm.65-14.74h6.19V9.25h-6.19v-.81h5.31V1.8h-5.31v-.79Zm0,3.62h5.72v.81h-5.72v-.81Zm3.37,6.17l.72-.36c.32,.49,.65,1.02,.98,1.58s.64,1.11,.92,1.63c.28,.52,.5,.98,.66,1.36l-.74,.43c-.17-.4-.39-.86-.67-1.4-.28-.53-.58-1.09-.9-1.67s-.65-1.1-.97-1.58Zm4.82-9.68h5.33v.83h-4.46v14.45h-.86V1.12Zm4.77,0h.88V11.48c0,.29-.04,.51-.13,.67-.08,.16-.24,.28-.47,.36-.22,.07-.54,.12-.96,.14-.43,.02-.98,.03-1.67,.03-.02-.12-.06-.26-.12-.42-.05-.16-.12-.31-.19-.44,.55,.01,1.04,.02,1.46,.03s.7,0,.83,0c.16,0,.25-.03,.3-.08,.04-.05,.06-.14,.06-.26V1.12Z" fill="#333"/>
        <path d="M80.54,21.6l.83,.25c-.41,1.01-.88,1.99-1.42,2.95-.54,.96-1.12,1.86-1.74,2.7-.62,.84-1.26,1.59-1.92,2.25-.02-.06-.07-.14-.13-.25-.07-.11-.14-.21-.21-.31-.07-.1-.14-.18-.2-.25,.64-.6,1.25-1.29,1.84-2.07,.59-.78,1.14-1.62,1.65-2.52,.51-.9,.95-1.82,1.31-2.75Zm-1.98,4.52l.83-.83,.02,.02v12.78h-.85v-11.97Zm7.67-4.45h.85v7.81c0,.67-.03,1.34-.09,2.02-.06,.67-.2,1.33-.41,1.96-.22,.64-.55,1.24-1,1.82-.45,.58-1.06,1.1-1.82,1.58-.76,.47-1.73,.88-2.89,1.23-.04-.07-.08-.15-.14-.24-.06-.09-.12-.18-.18-.27-.06-.09-.12-.17-.18-.22,1.14-.3,2.07-.67,2.8-1.1,.73-.43,1.3-.91,1.72-1.44,.42-.53,.73-1.09,.92-1.67,.19-.59,.31-1.19,.36-1.81s.07-1.23,.07-1.85v-7.81Zm-5.27,2.09h11.59v.83h-11.59v-.83Zm.61,2.88h10.31v4.81h-10.31v-4.81Zm.79,5.27c.58,.98,1.37,1.84,2.39,2.56,1.01,.73,2.2,1.32,3.55,1.79,1.35,.47,2.8,.8,4.36,.99-.06,.05-.13,.12-.2,.22-.07,.1-.14,.19-.19,.29-.05,.1-.11,.19-.15,.29-1.57-.24-3.04-.61-4.39-1.12s-2.56-1.15-3.6-1.94c-1.04-.79-1.88-1.72-2.5-2.8l.74-.29Zm.04-4.5v3.24h8.64v-3.24h-8.64Z" fill="#333"/>
        <path d="M76.09,48.91l.47-.65c.4,.16,.81,.35,1.23,.57s.83,.44,1.2,.67c.37,.22,.67,.43,.9,.64l-.49,.74c-.24-.22-.55-.44-.92-.68-.37-.24-.76-.47-1.18-.69s-.82-.42-1.21-.58Zm.56,9.83c.31-.47,.65-1.03,1.03-1.69s.75-1.35,1.13-2.07c.38-.72,.74-1.42,1.06-2.11l.65,.56c-.3,.62-.63,1.29-.99,2-.36,.71-.73,1.4-1.1,2.08s-.72,1.28-1.04,1.81l-.74-.58Zm.34-14.71l.5-.61c.4,.18,.8,.38,1.21,.61,.41,.23,.8,.46,1.16,.71,.36,.25,.65,.48,.86,.69l-.5,.72c-.23-.23-.52-.47-.88-.72-.36-.25-.74-.5-1.15-.76-.41-.25-.81-.47-1.21-.65Zm13.41,7.65h.2l.16-.04,.54,.27c-.43,1.09-1.01,2.06-1.74,2.91-.73,.85-1.55,1.58-2.47,2.21s-1.91,1.14-2.95,1.56-2.11,.74-3.19,.98c-.02-.07-.06-.16-.11-.25-.05-.1-.1-.19-.16-.29-.06-.1-.12-.17-.18-.23,1.04-.19,2.07-.48,3.08-.86s1.96-.86,2.85-1.44c.89-.58,1.68-1.25,2.37-2.02,.68-.77,1.22-1.64,1.6-2.63v-.16Zm-6.23-8.44l.88,.09c-.2,1.74-.58,3.25-1.14,4.54-.56,1.29-1.33,2.36-2.31,3.21-.05-.05-.11-.11-.2-.19s-.17-.15-.27-.23c-.1-.07-.19-.13-.27-.16,.98-.77,1.73-1.77,2.25-3,.52-1.23,.87-2.65,1.06-4.27Zm-2.48,8.44h8.98v.83h-8.98v-.83Zm2.12,.76c.5,1.06,1.19,2.01,2.04,2.86,.86,.85,1.85,1.58,2.98,2.19,1.13,.61,2.35,1.05,3.67,1.34-.07,.06-.14,.13-.22,.22s-.14,.18-.2,.28c-.06,.1-.12,.19-.18,.27-1.32-.35-2.55-.84-3.69-1.48s-2.15-1.42-3.03-2.34c-.88-.92-1.6-1.94-2.15-3.07l.77-.27Zm.38-7.51h6.5v.81h-6.5v-.81Zm6.17,0h.9c-.01,.22-.02,.36-.04,.43-.08,1.1-.17,1.99-.25,2.66s-.18,1.19-.3,1.55c-.11,.36-.25,.62-.41,.77-.13,.13-.28,.23-.43,.28s-.37,.08-.63,.08c-.2,.02-.52,.03-.94,.02-.42-.01-.86-.03-1.31-.05-.01-.12-.04-.26-.08-.41-.04-.16-.11-.29-.19-.41,.48,.05,.93,.08,1.36,.09,.43,.01,.72,.02,.87,.02,.17,0,.3,0,.39-.03,.09-.02,.17-.06,.24-.13,.12-.12,.23-.35,.32-.68s.18-.83,.26-1.48c.08-.65,.16-1.5,.23-2.56v-.14Z" fill="#333"/>
        <path d="M83.9,64.91h.94c-.01,.48-.04,1.12-.08,1.92-.04,.8-.14,1.7-.29,2.69s-.39,2.03-.72,3.11c-.33,1.07-.79,2.14-1.37,3.19s-1.32,2.03-2.21,2.95c-.89,.92-1.98,1.7-3.27,2.35-.07-.11-.17-.22-.31-.35s-.26-.23-.38-.32c1.27-.62,2.35-1.38,3.22-2.26s1.59-1.83,2.15-2.84,.99-2.04,1.3-3.09c.31-1.04,.54-2.04,.68-3,.14-.95,.23-1.81,.27-2.57s.05-1.35,.05-1.78Zm.79,2.25c.04,.19,.09,.58,.17,1.15,.08,.58,.22,1.27,.41,2.09,.2,.82,.47,1.69,.83,2.63,.35,.94,.82,1.87,1.39,2.79,.57,.92,1.27,1.78,2.1,2.57s1.81,1.44,2.95,1.95c-.12,.08-.24,.19-.36,.33-.12,.14-.21,.27-.27,.39-1.16-.54-2.17-1.22-3.02-2.03-.85-.82-1.55-1.7-2.12-2.66-.57-.96-1.04-1.93-1.4-2.9-.37-.97-.65-1.88-.86-2.74-.2-.85-.35-1.59-.44-2.21-.09-.62-.16-1.05-.21-1.28l.83-.07Z" fill="#333"/>
        <path d="M83.04,87.7l.9,.22c-.4,1.42-.92,2.79-1.57,4.12-.65,1.33-1.45,2.56-2.4,3.68-.95,1.12-2.08,2.09-3.39,2.89-.04-.06-.09-.13-.15-.22-.07-.08-.13-.17-.21-.24s-.14-.15-.2-.21c1.28-.76,2.39-1.68,3.3-2.76,.92-1.09,1.68-2.27,2.29-3.55,.61-1.28,1.08-2.59,1.43-3.93Zm-6.64,4.43h15.8v.79h-15.8v-.79Zm13.86-5.51l.63,.65c-.79,.18-1.71,.33-2.76,.46-1.05,.13-2.17,.23-3.36,.31-1.19,.08-2.39,.15-3.61,.2-1.22,.05-2.39,.07-3.5,.07-.01-.1-.04-.21-.07-.35-.04-.14-.08-.25-.13-.35,1.09-.02,2.24-.06,3.45-.1,1.21-.04,2.39-.1,3.55-.19s2.25-.18,3.25-.3,1.85-.25,2.55-.41Zm-12.51,3.1h13.37v.74h-13.37v-.74Zm2.29,4.75h10.35v8.35h-.86v-7.6h-8.64v7.6h-.85v-8.35Zm.52,6.84h9.34v.76h-9.34v-.76Zm.04-4.59h9.31v.7h-9.31v-.7Zm0,2.27h9.31v.7h-9.31v-.7Z" fill="#333"/>
        <path d="M81.36,118.4h.94c-.11,.79-.28,1.5-.5,2.13-.23,.63-.56,1.19-.98,1.67s-.98,.91-1.66,1.26c-.68,.35-1.52,.65-2.53,.89-.02-.06-.07-.14-.13-.24-.06-.1-.13-.2-.2-.29s-.14-.17-.2-.23c.96-.19,1.76-.45,2.39-.76,.64-.32,1.15-.69,1.54-1.12,.39-.43,.69-.91,.89-1.46,.2-.55,.35-1.17,.43-1.86Zm-2.63-9.7h11.14v10.08h-11.14v-10.08Zm.85,.81v2.27h9.41v-2.27h-9.41Zm0,3.06v2.29h9.41v-2.29h-9.41Zm0,3.06v2.32h9.41v-2.32h-9.41Zm6.07,2.59h.88v4.59c0,.25,.06,.41,.19,.49s.4,.11,.82,.11h3.15c.28,0,.48-.06,.61-.18s.22-.37,.28-.75c.05-.38,.09-.94,.12-1.7,.06,.05,.14,.1,.23,.15,.1,.05,.2,.1,.31,.13,.11,.04,.2,.07,.27,.09-.04,.82-.11,1.45-.21,1.9-.1,.45-.27,.76-.51,.94-.24,.17-.59,.26-1.04,.26h-3.24c-.48,0-.86-.04-1.13-.12-.28-.08-.47-.22-.57-.43s-.15-.5-.15-.87v-4.61Z" fill="#333"/>
        <path d="M75.91,137.18l14.35-4.37,.25,.77-14.35,4.37-.25-.77Zm3.42-6.34h.86v12.35c0,.43,.06,.76,.17,1,.11,.23,.33,.4,.65,.49,.32,.09,.78,.13,1.38,.13h6.89c.58,0,1.01-.1,1.3-.29s.5-.53,.63-1.02c.13-.49,.23-1.19,.3-2.1,.12,.08,.26,.16,.41,.23s.3,.13,.43,.16c-.08,.96-.21,1.72-.39,2.29-.17,.56-.47,.96-.89,1.2-.42,.23-1.04,.35-1.87,.35h-6.73c-.78,0-1.4-.07-1.86-.2-.46-.13-.79-.38-.99-.75s-.3-.88-.3-1.54v-12.31Zm5.17-1.19h.86v12.6h-.86v-12.6Zm5.6,3.38h-.22l.47-.43,.67,.22-.05,.2c-.04,.82-.08,1.7-.14,2.64-.06,.94-.13,1.85-.22,2.73s-.19,1.64-.3,2.3l-.74-.22c.07-.46,.13-.99,.19-1.59,.05-.61,.1-1.25,.15-1.93,.05-.68,.09-1.35,.13-2.02,.04-.67,.06-1.3,.07-1.89Z" fill="#333"/>
        <path d="M79.74,151.36l.81,.2c-.34,1.03-.73,2.04-1.19,3.02-.46,.98-.95,1.91-1.49,2.78s-1.09,1.64-1.67,2.31c-.04-.06-.08-.14-.14-.23-.06-.1-.12-.2-.19-.31-.07-.11-.13-.19-.21-.25,.55-.62,1.08-1.34,1.58-2.15,.5-.81,.97-1.67,1.4-2.59,.43-.92,.79-1.84,1.09-2.78Zm-1.48,4.1l.79-.81,.04,.04v12.91h-.83v-12.13Zm1.85-.58h6.23v.81h-6.23v-.81Zm.61,4.52h.79v7.31h-.79v-7.31Zm.43,0h4.7v6.19h-4.7v-.81h3.89v-4.59h-3.89v-.79Zm1.71-7.99h.85v8.39h-.85v-8.39Zm8.01,3.71l.83,.07c-.23,2.04-.58,3.84-1.04,5.41-.47,1.57-1.12,2.93-1.94,4.09s-1.9,2.14-3.22,2.96c-.04-.05-.09-.11-.16-.2s-.15-.16-.22-.23c-.08-.07-.15-.14-.23-.2,1.32-.74,2.38-1.67,3.19-2.78,.8-1.11,1.42-2.42,1.85-3.93,.43-1.51,.75-3.24,.95-5.18Zm-2.99-3.91l.81,.14c-.17,1.03-.37,2.04-.61,3.02-.24,.98-.52,1.91-.84,2.77s-.69,1.63-1.11,2.29c-.04-.05-.1-.11-.18-.18-.08-.07-.17-.15-.24-.22s-.15-.13-.22-.17c.41-.62,.76-1.35,1.06-2.17s.56-1.7,.78-2.64c.22-.94,.41-1.88,.55-2.84Zm-.25,4.18c.1,1.02,.24,2.08,.44,3.19,.2,1.1,.48,2.18,.85,3.23,.37,1.05,.87,2.02,1.49,2.91,.62,.89,1.39,1.63,2.31,2.21-.05,.05-.11,.11-.18,.2-.07,.08-.14,.17-.22,.25s-.13,.16-.18,.23c-.95-.65-1.73-1.43-2.36-2.35s-1.12-1.91-1.5-2.97c-.38-1.06-.66-2.14-.85-3.23-.19-1.09-.34-2.14-.45-3.15l.65-.52Zm-.05-.58h4.9v.79h-5.13l.23-.79Z" fill="#333"/>
        <path d="M76.54,187.27c.73-.13,1.59-.29,2.58-.47s2.05-.38,3.17-.59,2.25-.43,3.38-.65l.05,.79c-1.08,.22-2.16,.43-3.24,.65s-2.11,.42-3.1,.61c-.98,.19-1.87,.37-2.65,.52l-.2-.86Zm.13-13.19h9.18v.81h-9.18v-.81Zm.79,5.69c-.02-.06-.05-.14-.08-.25-.03-.11-.06-.22-.1-.32-.04-.11-.08-.2-.13-.27,.13-.04,.27-.13,.41-.27,.14-.14,.3-.33,.47-.56,.11-.14,.29-.42,.55-.82,.26-.4,.53-.87,.83-1.4,.29-.53,.55-1.07,.78-1.61l.85,.36c-.28,.58-.58,1.14-.9,1.7-.32,.56-.66,1.09-1.01,1.58-.35,.5-.7,.95-1.04,1.36v.02c-.12,.05-.22,.1-.32,.15-.09,.05-.17,.11-.22,.17s-.09,.11-.09,.16Zm-.29,2.5h8.35v.81h-8.35v-.81Zm.29-2.5l-.02-.65,.56-.32,6.39-.61c.05,.11,.11,.22,.19,.35,.08,.13,.15,.24,.22,.33-1.27,.13-2.33,.24-3.18,.33-.85,.09-1.53,.17-2.04,.23-.52,.06-.92,.11-1.2,.15-.28,.04-.49,.08-.63,.11-.14,.03-.24,.06-.3,.08Zm3.4,.38h.83v6.79h-.83v-6.79Zm1.53-3.92l.65-.38c.35,.41,.7,.85,1.07,1.32,.37,.47,.71,.93,1.02,1.38,.31,.44,.56,.83,.76,1.17l-.68,.47c-.18-.34-.43-.74-.74-1.2-.31-.46-.65-.94-1.01-1.42-.36-.49-.71-.93-1.06-1.34Zm4.64-1.91h.83v10.89h-.83v-10.89Zm3.64-1.13h.85v14.24c0,.35-.05,.61-.14,.77-.1,.17-.26,.29-.5,.38-.24,.07-.58,.12-1.04,.14-.45,.02-.99,.03-1.63,.03-.01-.12-.05-.27-.13-.46-.07-.19-.14-.34-.22-.46,.55,.01,1.06,.02,1.51,.03s.76,0,.92,0c.14-.01,.24-.04,.3-.09,.05-.05,.08-.15,.08-.31v-14.26Z" fill="#333"/>
        <path d="M76.13,208.71c.58-.05,1.23-.11,1.97-.2s1.53-.18,2.37-.28,1.69-.21,2.56-.32l.02,.76c-1.24,.16-2.45,.31-3.65,.46-1.19,.15-2.24,.28-3.14,.39l-.13-.81Zm.25-7.25h15.75v.76h-15.75v-.76Zm1.57,.23h.85v7.16h-.85v-7.16Zm.47,2h4.63v.72h-4.63v-.72Zm0,2.21h4.63v.72h-4.63v-.72Zm.05-10.69h11.7v5.35h-.88v-4.61h-9.95v4.61h-.86v-5.35Zm1.78,2.05h8.1v.68h-8.1v-.68Zm0,2.02h8.1v.7h-8.1v-.7Zm2.32,2.41h.85v9.09h-.85v-9.09Zm8.01,1.93h.16l.16-.04,.52,.23c-.41,1.21-1,2.27-1.76,3.19-.77,.91-1.64,1.68-2.6,2.29-.97,.62-1.96,1.1-2.98,1.43-.05-.1-.12-.22-.23-.36-.1-.14-.19-.25-.28-.32,.97-.29,1.93-.72,2.86-1.29,.94-.57,1.77-1.27,2.5-2.11,.73-.84,1.28-1.79,1.64-2.86v-.16Zm-6.61,0h6.82v.77h-6.82v-.77Zm1.87,.72c.54,1.4,1.39,2.61,2.54,3.63,1.15,1.01,2.51,1.73,4.09,2.13-.06,.05-.13,.11-.2,.2-.07,.08-.13,.17-.19,.25s-.11,.16-.15,.23c-1.6-.48-2.98-1.26-4.16-2.33-1.18-1.07-2.06-2.37-2.65-3.88l.72-.23Z" fill="#333"/>
        <path d="M76.09,220.34c.62-.02,1.34-.06,2.14-.1,.8-.04,1.66-.09,2.57-.14s1.84-.1,2.77-.15v.83c-1.34,.07-2.66,.14-3.96,.22-1.3,.07-2.44,.14-3.42,.22l-.11-.86Zm5.58-1.71h.83v1.53c0,.7-.03,1.45-.09,2.26-.06,.81-.19,1.64-.39,2.5-.2,.86-.5,1.72-.91,2.58-.41,.86-.96,1.71-1.66,2.54-.7,.83-1.58,1.62-2.65,2.38-.04-.07-.09-.14-.17-.22-.08-.07-.16-.14-.23-.21-.08-.07-.15-.12-.23-.15,1.03-.73,1.88-1.5,2.56-2.29,.67-.8,1.21-1.61,1.6-2.44,.4-.83,.69-1.65,.88-2.47,.19-.82,.32-1.6,.37-2.36,.05-.76,.08-1.47,.08-2.14v-1.51Zm-5.02,7.29c.19-.6,.39-1.3,.6-2.12,.21-.81,.41-1.67,.6-2.56,.19-.9,.37-1.79,.52-2.68,.16-.89,.28-1.72,.36-2.48l.85,.05c-.1,.79-.23,1.64-.4,2.55s-.35,1.81-.54,2.72c-.19,.91-.39,1.76-.6,2.57s-.41,1.53-.58,2.15l-.81-.2Zm0,0l.52-.61c.54,.37,1.09,.77,1.67,1.19,.57,.42,1.12,.85,1.67,1.3s1.04,.89,1.48,1.31c.45,.43,.83,.81,1.14,1.16l-.56,.74c-.31-.36-.69-.76-1.14-1.2-.45-.44-.94-.88-1.48-1.34-.53-.46-1.09-.9-1.66-1.34-.57-.44-1.12-.84-1.65-1.21Zm6.34-2.11h9.5v.83h-9.5v-.83Zm.86-6.32h7.16v.81h-7.16v-.81Zm3.53,4.01h.88v9.7c0,.3-.05,.53-.14,.68-.1,.16-.26,.27-.5,.34-.23,.07-.55,.12-.96,.13-.41,.02-.97,.02-1.68,0-.02-.11-.07-.24-.14-.4-.07-.16-.14-.3-.2-.43,.38,.01,.74,.02,1.06,.03,.32,0,.6,0,.84,0,.23,0,.4,0,.5,0,.13-.01,.23-.05,.28-.1s.08-.14,.08-.26v-9.7Zm3.35-4.01h.22l.2-.07,.65,.45c-.32,.49-.7,.99-1.13,1.5-.43,.51-.88,1-1.34,1.46s-.92,.87-1.36,1.21c-.06-.08-.15-.18-.26-.28-.11-.1-.22-.19-.31-.26,.41-.31,.82-.69,1.24-1.13,.42-.44,.82-.9,1.19-1.37s.68-.9,.92-1.3v-.22Z" fill="#333"/>
        <path d="M82.86,244.46l-.31-.65c.73-.35,1.29-.77,1.67-1.26s.57-1.13,.57-1.91l-.45-1.37,.97,1.22c-.13,.17-.28,.28-.43,.33-.16,.05-.31,.08-.47,.08-.32,0-.59-.09-.8-.27s-.31-.46-.31-.83,.11-.66,.34-.84c.23-.17,.49-.26,.77-.26,.42,0,.74,.17,.96,.5,.22,.34,.33,.78,.33,1.33,0,.95-.26,1.75-.78,2.42-.52,.67-1.21,1.16-2.06,1.48Z" fill="#333"/>
        <path d="M43.08,2.59h.83v2.21c0,.7-.03,1.43-.09,2.2-.06,.77-.18,1.55-.37,2.36-.19,.8-.47,1.61-.86,2.43-.39,.82-.91,1.61-1.57,2.38s-1.47,1.51-2.46,2.21c-.04-.06-.09-.13-.17-.2-.08-.07-.16-.14-.23-.22-.08-.07-.15-.13-.23-.16,1.2-.84,2.15-1.73,2.84-2.67,.7-.94,1.21-1.9,1.54-2.86s.54-1.91,.63-2.84c.09-.93,.14-1.8,.14-2.62V2.59Zm-5.06,1.75c.58-.02,1.23-.06,1.95-.1,.73-.04,1.5-.08,2.32-.13,.82-.04,1.65-.08,2.49-.12l-.02,.77c-1.19,.07-2.37,.14-3.54,.22s-2.2,.13-3.09,.18l-.13-.83Zm.63,5.58c.2-.6,.42-1.31,.65-2.12,.23-.81,.45-1.66,.66-2.56s.4-1.79,.58-2.68c.17-.89,.31-1.72,.4-2.48l.81,.05c-.11,.79-.25,1.64-.43,2.54-.18,.9-.38,1.8-.58,2.71-.21,.91-.43,1.76-.66,2.57-.23,.81-.44,1.52-.65,2.13l-.77-.18Zm0,0l.5-.59c.49,.34,1.01,.71,1.54,1.11,.53,.4,1.06,.81,1.57,1.22s.98,.81,1.4,1.21c.43,.4,.78,.76,1.05,1.1l-.56,.68c-.28-.34-.63-.7-1.05-1.11-.43-.4-.89-.82-1.39-1.24-.5-.43-1.01-.84-1.54-1.24s-1.04-.78-1.53-1.12Zm6.37-2.43c0-.06-.02-.14-.05-.25s-.08-.22-.12-.33c-.04-.11-.08-.21-.12-.3,.16-.02,.33-.14,.52-.35,.19-.21,.4-.48,.63-.82,.12-.17,.3-.44,.54-.8,.24-.37,.51-.8,.82-1.3,.31-.5,.61-1.04,.92-1.61,.31-.58,.58-1.15,.82-1.73l.9,.29c-.41,.83-.84,1.64-1.3,2.44-.46,.8-.92,1.56-1.4,2.28-.47,.72-.96,1.37-1.45,1.96v.02c-.14,.06-.26,.12-.35,.17-.09,.05-.17,.11-.25,.17-.08,.06-.12,.11-.12,.16Zm0,0v-.72l.63-.34,7.87-.49c.02,.13,.05,.27,.08,.41s.06,.26,.1,.36c-1.5,.12-2.75,.21-3.75,.28-1,.07-1.81,.13-2.43,.18s-1.09,.1-1.41,.13c-.32,.03-.56,.06-.71,.1s-.27,.07-.37,.09Zm.74,1.71h7.7v7.13h-.83v-6.3h-6.05v6.37h-.83v-7.2Zm.52,5.56h6.79v.79h-6.79v-.79Zm4.54-11.75l.68-.32c.41,.53,.81,1.09,1.21,1.69s.77,1.19,1.1,1.77,.58,1.1,.77,1.56l-.74,.38c-.18-.47-.44-1-.76-1.58-.33-.59-.69-1.19-1.08-1.8-.39-.61-.78-1.18-1.18-1.69Z" fill="#333"/>
        <path d="M38.97,33.03l.79,.14c-.12,.77-.27,1.55-.44,2.33-.17,.79-.36,1.46-.55,2.02-.06-.04-.13-.07-.22-.11-.09-.04-.18-.07-.28-.11-.1-.04-.18-.06-.25-.07,.23-.56,.42-1.22,.57-1.98,.15-.76,.28-1.5,.39-2.23Zm-.61-4.91c-.01-.06-.04-.14-.07-.25l-.11-.32c-.04-.11-.07-.2-.11-.27,.14-.04,.3-.14,.46-.32,.16-.18,.33-.41,.51-.7,.14-.18,.36-.51,.65-.99,.29-.48,.6-1.04,.95-1.69s.64-1.3,.89-1.96l.85,.36c-.31,.68-.65,1.37-1.03,2.04-.37,.68-.75,1.32-1.14,1.94-.39,.61-.79,1.16-1.2,1.64v.04c-.13,.06-.24,.12-.33,.17-.09,.05-.17,.11-.22,.17-.06,.06-.09,.11-.09,.16Zm.11,4c-.01-.06-.04-.14-.07-.25s-.07-.22-.11-.33c-.04-.11-.07-.21-.11-.28,.17-.04,.36-.17,.57-.39,.21-.22,.45-.5,.73-.82,.14-.17,.36-.44,.64-.81,.28-.37,.6-.81,.95-1.32,.35-.51,.71-1.06,1.07-1.67,.36-.6,.7-1.2,1.01-1.8l.79,.43c-.47,.82-.97,1.63-1.5,2.45-.53,.82-1.08,1.58-1.64,2.3s-1.12,1.37-1.68,1.96v.04c-.12,.06-.23,.11-.32,.16s-.17,.1-.23,.15c-.07,.05-.1,.11-.1,.17Zm-.11-4v-.68l.49-.29,3.15-.31c-.02,.12-.04,.25-.04,.39,0,.14,0,.25,0,.33-.72,.1-1.3,.17-1.75,.23-.45,.06-.79,.11-1.03,.14-.23,.04-.41,.07-.53,.1s-.21,.06-.27,.08Zm.11,4l-.02-.68,.5-.32,4.61-.65c0,.12,0,.25,0,.39,0,.14,0,.25,0,.33-1.07,.17-1.92,.3-2.56,.41-.64,.1-1.13,.19-1.47,.25-.34,.07-.58,.12-.72,.16-.14,.04-.26,.08-.34,.12Zm2.3,.99l.72-.11c.11,.62,.21,1.3,.31,2.02s.17,1.35,.19,1.88l-.74,.14c-.01-.36-.04-.77-.1-1.22-.05-.45-.11-.92-.17-1.39-.06-.48-.13-.92-.22-1.33Zm1.6-4.54l.74-.18c.18,.4,.35,.83,.51,1.29,.16,.46,.31,.91,.44,1.34,.13,.43,.22,.8,.27,1.12l-.77,.23c-.06-.32-.15-.7-.27-1.14s-.26-.89-.42-1.35-.33-.9-.5-1.31Zm.18,4.23l.68-.22c.2,.53,.41,1.1,.61,1.73s.35,1.16,.45,1.6l-.72,.23c-.08-.46-.23-1-.42-1.63-.2-.63-.4-1.2-.6-1.72Zm5.44-11.18l.88,.13c-.38,.91-.9,1.88-1.56,2.89-.65,1.01-1.46,1.94-2.42,2.78-.06-.06-.13-.12-.2-.19-.07-.07-.15-.13-.23-.2-.08-.07-.15-.12-.22-.15,.61-.52,1.16-1.08,1.64-1.68,.48-.61,.9-1.22,1.26-1.84,.36-.62,.64-1.2,.85-1.74Zm4.28,1.98h.2l.16-.04,.54,.32c-.5,1.24-1.18,2.36-2.03,3.37-.85,1.01-1.8,1.89-2.83,2.64s-2.1,1.37-3.18,1.86c-.02-.07-.07-.15-.13-.23-.07-.08-.14-.17-.21-.25-.07-.08-.14-.14-.22-.18,1.06-.46,2.09-1.04,3.1-1.75s1.92-1.54,2.73-2.48c.81-.94,1.44-1.96,1.88-3.06v-.2Zm-6.66,11.57l.54-.63c.6,.17,1.23,.36,1.9,.58,.67,.22,1.32,.46,1.95,.72s1.23,.51,1.79,.76,1.04,.49,1.45,.72l-.54,.7c-.54-.31-1.21-.65-2-1.01s-1.63-.71-2.52-1.04c-.89-.33-1.75-.6-2.57-.82Zm1.55-10.76c.49,.97,1.12,1.9,1.9,2.79,.77,.89,1.63,1.68,2.57,2.37,.94,.69,1.9,1.23,2.88,1.63-.06,.06-.13,.13-.21,.22s-.15,.17-.22,.25c-.07,.08-.13,.17-.18,.25-.98-.44-1.95-1.03-2.9-1.76-.95-.73-1.81-1.57-2.59-2.51-.78-.94-1.43-1.92-1.94-2.94l.7-.29Zm.23-.81h5.17v.81h-5.56l.4-.81Zm.18,8.03l.58-.54c.43,.17,.87,.37,1.32,.61,.45,.24,.88,.48,1.3,.73,.41,.25,.75,.48,1.02,.69l-.59,.59c-.28-.22-.62-.45-1.02-.7-.4-.25-.83-.5-1.29-.75s-.89-.46-1.31-.64Z" fill="#333"/>
        <path d="M39.17,52.61h.79v1.21c0,.4-.02,.84-.04,1.32-.03,.49-.09,.99-.18,1.5-.09,.52-.22,1.03-.39,1.54-.17,.51-.38,.99-.63,1.43-.06-.06-.13-.11-.22-.16s-.17-.1-.25-.15c-.08-.05-.17-.09-.25-.12,.34-.58,.58-1.18,.75-1.83,.16-.64,.27-1.28,.33-1.9,.06-.62,.09-1.18,.09-1.66v-1.19Zm-1.04-.29h4.72v.81h-4.72v-.81Zm.81-8.41h.81v5.36h-.81v-5.36Zm.4,4.57h3.53v.79h-3.53v-.79Zm3.06-5.24h.83v16.33h-.83v-16.33Zm6.73-.05l.85,.31c-.42,.55-.93,1.09-1.52,1.6-.59,.52-1.24,1-1.94,1.44-.7,.44-1.44,.84-2.21,1.19-.04-.06-.09-.12-.15-.19s-.13-.13-.2-.2c-.07-.07-.14-.12-.21-.17,.76-.31,1.48-.68,2.16-1.11,.68-.43,1.31-.88,1.86-1.38,.56-.49,1.01-.99,1.36-1.49Zm-5.27,9.29h10.62v.81h-10.62v-.81Zm9.05-7.69h.18l.16-.04,.54,.29c-.41,.96-.95,1.82-1.61,2.58-.67,.76-1.42,1.43-2.27,2.02-.85,.58-1.73,1.08-2.66,1.48-.92,.41-1.85,.74-2.79,.99-.05-.11-.11-.23-.2-.37-.08-.14-.17-.25-.25-.33,.9-.2,1.8-.5,2.69-.87,.89-.38,1.75-.84,2.56-1.39,.81-.55,1.53-1.17,2.16-1.86,.63-.7,1.12-1.48,1.49-2.34v-.16Zm-8.82,3.8c.53-.04,1.13-.09,1.81-.17,.68-.08,1.4-.15,2.17-.22l.02,.68c-.7,.08-1.37,.16-2.03,.23s-1.26,.14-1.83,.2l-.14-.72Zm1.3,5.83l.68-.4c.32,.29,.65,.61,.97,.95,.32,.35,.62,.69,.9,1.04,.28,.34,.5,.65,.67,.93l-.72,.5c-.16-.29-.37-.61-.64-.96-.27-.35-.57-.71-.89-1.07-.32-.36-.65-.69-.97-.99Zm1.62-8.57l.61-.4c.38,.29,.76,.61,1.14,.97,.38,.36,.74,.72,1.07,1.08,.34,.36,.6,.69,.79,.99l-.63,.45c-.19-.3-.45-.63-.77-1s-.68-.73-1.06-1.1c-.38-.37-.77-.7-1.15-1Zm1.06-1.06h5.17l-.23,.72h-5.38l.45-.72Zm3.02,4.93h.86v8.53c0,.29-.05,.51-.14,.66s-.26,.27-.49,.35c-.22,.07-.55,.12-.99,.13-.44,.02-1.04,.03-1.8,.03-.02-.12-.06-.26-.12-.41-.05-.16-.12-.3-.21-.43,.61,.01,1.15,.02,1.6,.02h.92c.14-.01,.24-.04,.29-.09s.07-.13,.07-.25v-8.53Z" fill="#333"/>
        <path d="M50.1,69.32h.18l.16-.04,.59,.38c-.61,.9-1.39,1.72-2.33,2.46-.94,.74-1.98,1.4-3.12,1.97-1.14,.58-2.32,1.07-3.53,1.48s-2.4,.75-3.56,1c-.02-.1-.06-.19-.12-.28-.05-.09-.11-.18-.17-.28-.06-.1-.12-.17-.18-.23,1.14-.23,2.3-.53,3.48-.91,1.18-.38,2.32-.84,3.42-1.38,1.1-.54,2.1-1.14,3-1.81,.9-.67,1.63-1.39,2.18-2.19v-.18Zm-11.34-2.77h15.07v3.06h-.88v-2.23h-13.32v2.23h-.86v-3.06Zm5.36,1.35l.97,.18c-.59,.82-1.34,1.64-2.25,2.48s-2.01,1.58-3.29,2.24c-.05-.07-.11-.14-.18-.22-.07-.07-.14-.14-.22-.22s-.14-.13-.22-.16c1.24-.6,2.3-1.29,3.19-2.07,.89-.78,1.55-1.52,2-2.23Zm-2.48,7.79h9.49v5.45h-.88v-4.68h-7.74v4.68h-.86v-5.45Zm.41,4.05h8.66v.77h-8.66v-.77Zm1.15-9.81c.7,.97,1.63,1.83,2.8,2.58s2.49,1.37,3.97,1.86c1.48,.49,3.01,.86,4.59,1.1-.06,.06-.12,.14-.19,.23-.07,.1-.13,.19-.2,.29-.07,.1-.12,.19-.17,.27-1.58-.26-3.12-.66-4.6-1.2-1.48-.53-2.82-1.2-4.02-2-1.2-.8-2.18-1.72-2.95-2.76l.77-.38Zm.32-.61h6.8v.76h-7.47l.67-.76Zm1.78-4.37l.81-.23c.25,.32,.5,.69,.74,1.11s.42,.77,.54,1.07l-.85,.27c-.12-.29-.3-.64-.53-1.06-.23-.42-.47-.8-.71-1.15Z" fill="#333"/>
        <path d="M40.57,88.47h.88v5.63c0,.66-.03,1.37-.09,2.14-.06,.77-.19,1.54-.38,2.31-.19,.77-.47,1.52-.84,2.25-.37,.73-.85,1.39-1.45,2.01-.05-.06-.11-.13-.18-.21-.07-.08-.15-.16-.23-.23s-.16-.13-.23-.17c.56-.59,1.01-1.22,1.35-1.89,.33-.67,.59-1.37,.76-2.08,.17-.71,.28-1.42,.33-2.13,.05-.71,.08-1.38,.08-2.02v-5.62Zm10.26-1.98l.76,.65c-.68,.23-1.45,.44-2.29,.63-.85,.19-1.75,.38-2.7,.55s-1.92,.33-2.9,.48c-.98,.14-1.93,.28-2.85,.4-.02-.11-.06-.23-.11-.37-.05-.14-.1-.25-.16-.35,.91-.12,1.85-.25,2.82-.41s1.91-.31,2.82-.48c.91-.17,1.77-.35,2.56-.54,.8-.19,1.49-.38,2.06-.56Zm-9.83,9.58h10.69v.83h-10.69v-.83Zm.07-5h11.14v6.84h-.86v-6.01h-10.28v-.83Z" fill="#333"/>
        <path d="M40.48,111.4h.85v4.37c0,1-.06,2-.19,3-.13,1-.39,1.98-.79,2.93-.4,.95-1.02,1.85-1.84,2.7-.07-.08-.17-.18-.3-.29-.13-.11-.24-.2-.35-.27,.79-.8,1.37-1.66,1.74-2.56,.37-.9,.61-1.82,.72-2.76,.11-.94,.17-1.86,.17-2.76v-4.36Zm-2.34-.36h8.01v.85h-8.01v-.85Zm2.84,3.6h3.73v.83h-3.73v-.83Zm.18-6.35l.74-.27c.2,.38,.4,.8,.6,1.25,.2,.45,.35,.83,.46,1.14l-.79,.34c-.1-.34-.24-.74-.43-1.21-.19-.47-.38-.89-.58-1.26Zm3.19,6.35h.86v.29c0,.07,0,.14-.02,.2-.04,1.51-.07,2.78-.11,3.81-.04,1.03-.08,1.86-.13,2.51-.05,.65-.12,1.15-.19,1.49-.07,.35-.17,.59-.29,.74-.13,.17-.27,.29-.42,.36-.15,.07-.34,.11-.58,.13-.2,.01-.49,.01-.85,0s-.73-.02-1.12-.04c-.01-.12-.04-.26-.07-.42s-.09-.3-.16-.42c.42,.05,.81,.07,1.16,.08,.35,0,.6,0,.73,0s.24-.02,.33-.04c.09-.03,.17-.09,.22-.19,.1-.11,.17-.33,.23-.66,.06-.33,.11-.82,.16-1.46,.05-.64,.09-1.47,.13-2.47s.08-2.24,.1-3.71v-.2Zm8.05-2.84l.86,.13c-.34,2.09-.81,3.92-1.41,5.5-.61,1.58-1.42,2.94-2.43,4.09-1.01,1.15-2.29,2.12-3.84,2.91-.02-.07-.07-.15-.14-.24-.07-.09-.13-.18-.21-.27-.07-.09-.14-.17-.2-.23,1.51-.72,2.75-1.62,3.73-2.71,.97-1.09,1.75-2.39,2.32-3.92,.58-1.52,1.01-3.28,1.31-5.26Zm-3.87-3.78l.9,.16c-.23,1.09-.5,2.16-.82,3.2-.32,1.04-.68,2-1.08,2.9-.4,.89-.85,1.68-1.34,2.37-.05-.06-.12-.12-.21-.19-.09-.07-.18-.14-.27-.22-.09-.08-.17-.14-.24-.19,.49-.65,.93-1.4,1.31-2.26,.38-.86,.72-1.78,1.02-2.75,.29-.98,.54-1.98,.73-3.02Zm-.31,4.3c.29,1.75,.7,3.38,1.24,4.88s1.24,2.8,2.09,3.92c.85,1.11,1.88,1.95,3.1,2.53-.06,.06-.13,.13-.22,.22s-.16,.17-.23,.26c-.07,.09-.13,.18-.18,.26-1.24-.65-2.29-1.55-3.15-2.71-.86-1.16-1.57-2.52-2.12-4.09-.55-1.57-.98-3.27-1.3-5.12l.77-.14Zm-.23-.88h6.52v.83h-6.52v-.83Z" fill="#333"/>
        <path d="M44.57,129.64l.88,.22c-.41,1.33-.92,2.65-1.55,3.96-.62,1.31-1.37,2.53-2.23,3.67-.86,1.14-1.87,2.14-3.02,2.99-.04-.07-.08-.15-.14-.24-.06-.09-.12-.18-.19-.28-.07-.1-.12-.17-.17-.22,.82-.6,1.56-1.29,2.23-2.06,.67-.77,1.27-1.6,1.8-2.48s.99-1.79,1.4-2.74c.4-.94,.73-1.88,1-2.82Zm-6.07,2.95h15.61v.85h-15.61v-.85Zm2.52,4.39h.86v8.93h-.86v-8.93Zm2.18,7.76h10.93v.83h-10.93v-.83Zm.72-6.53h9.5v.83h-9.5v-.83Zm4.28-3.74h.86v10.73h-.86v-10.73Z" fill="#333"/>
        <path d="M39.96,157.68l.83,.2c-.1,.66-.23,1.4-.41,2.23s-.38,1.65-.6,2.47c-.23,.82-.47,1.54-.74,2.17l-.86-.38c.29-.61,.55-1.31,.78-2.1s.44-1.58,.61-2.38c.17-.8,.3-1.54,.39-2.21Zm2.66-1.49h.88v9.25c0,.41,.09,.67,.26,.8s.54,.19,1.09,.19h4c.42,0,.73-.1,.94-.31s.34-.59,.42-1.16c.08-.57,.14-1.4,.19-2.49,.08,.05,.17,.1,.27,.16,.1,.06,.2,.11,.31,.14,.11,.04,.2,.07,.27,.11-.05,1.14-.14,2.03-.27,2.67-.13,.64-.36,1.09-.67,1.34s-.8,.38-1.45,.38h-4c-.58,0-1.03-.05-1.35-.15-.32-.1-.55-.29-.68-.56-.13-.27-.2-.65-.2-1.14v-9.23Zm.97-3.58l.59-.52c.58,.41,1.17,.86,1.78,1.34,.61,.49,1.19,.98,1.72,1.47,.53,.49,.97,.93,1.31,1.31l-.59,.61c-.34-.38-.77-.82-1.31-1.31s-1.11-1-1.72-1.51-1.21-.98-1.78-1.39Zm7.67,4.97l.79-.27c.36,.72,.71,1.49,1.04,2.3,.33,.82,.62,1.62,.88,2.4,.26,.79,.45,1.49,.58,2.12l-.85,.31c-.12-.62-.31-1.33-.57-2.12s-.55-1.6-.87-2.43c-.32-.83-.66-1.6-1.01-2.3Z" fill="#333"/>
        <path d="M38.31,187.47h16v.86h-16v-.86Zm6.93-14.35h.9v14.8h-.9v-14.8Zm.5,5.78h7.36v.86h-7.36v-.86Z" fill="#333"/>
        <path d="M44.86,201.26l-.31-.65c.73-.35,1.29-.77,1.67-1.26s.57-1.13,.57-1.91l-.45-1.37,.97,1.22c-.13,.17-.28,.28-.43,.33-.16,.05-.31,.08-.47,.08-.32,0-.59-.09-.8-.27s-.31-.46-.31-.83,.11-.66,.34-.84c.23-.17,.49-.26,.77-.26,.42,0,.74,.17,.96,.5,.22,.34,.33,.78,.33,1.33,0,.95-.26,1.75-.78,2.42-.52,.67-1.21,1.16-2.06,1.48Z" fill="#333"/>
        <path d="M3.91,9.41l.61,.29c-.29,.66-.65,1.31-1.1,1.96-.44,.65-.92,1.24-1.43,1.78-.51,.54-1.02,.98-1.54,1.31-.05-.11-.12-.23-.21-.38s-.17-.26-.24-.36c.49-.3,.99-.7,1.49-1.19s.97-1.03,1.39-1.62,.76-1.19,1.03-1.8ZM7.47,2.36l.72,.34c-.55,.71-1.24,1.38-2.06,2.02-.82,.64-1.7,1.2-2.65,1.69-.94,.49-1.87,.89-2.78,1.19-.04-.07-.09-.15-.16-.23s-.14-.17-.21-.25c-.07-.08-.13-.16-.21-.22,.91-.26,1.83-.62,2.76-1.08s1.8-.98,2.6-1.58c.8-.59,1.46-1.22,1.98-1.88ZM.72,9.05H7.83v.81H.72v-.81Zm.16-6.97H15.7v.81H.88v-.81ZM3.87,7.04h.85v9.23h-.85V7.04Zm.7,2.92c.14,.11,.37,.28,.67,.51,.31,.23,.64,.49,.99,.77,.35,.28,.68,.54,.97,.78,.29,.25,.51,.43,.64,.55l-.63,.56c-.14-.14-.36-.35-.64-.6-.28-.26-.59-.53-.93-.82s-.65-.55-.95-.8c-.3-.25-.53-.43-.7-.55l.58-.4Zm7.09-.5l.65,.29c-.32,.67-.74,1.33-1.25,1.97s-1.06,1.23-1.64,1.76c-.58,.53-1.16,.97-1.74,1.31-.07-.1-.16-.21-.27-.33-.11-.13-.21-.23-.31-.3,.58-.3,1.15-.7,1.73-1.19s1.11-1.04,1.6-1.65,.9-1.23,1.22-1.86ZM7.83,.02h.86V7.81h-.86V.02Zm.81,2.5c.26,.13,.64,.33,1.13,.59,.49,.26,1.04,.56,1.63,.9,.59,.34,1.18,.67,1.77,.99,.59,.32,1.11,.62,1.58,.89s.8,.47,1.02,.6l-.36,.83c-.26-.17-.63-.4-1.09-.68-.46-.29-.98-.6-1.54-.95-.56-.34-1.13-.69-1.71-1.04-.58-.35-1.11-.66-1.6-.94-.49-.28-.89-.5-1.19-.64l.36-.56Zm-.18,6.57h7.49v.79h-7.49v-.79Zm3.13-2.05h.83v9.38h-.83V7.04Zm.76,2.43c.32,.59,.73,1.18,1.21,1.76,.49,.59,1,1.12,1.54,1.61s1.06,.88,1.57,1.18c-.1,.08-.2,.19-.32,.32-.11,.13-.21,.25-.3,.36-.49-.35-1.01-.79-1.55-1.33s-1.06-1.12-1.55-1.76c-.49-.63-.9-1.26-1.22-1.88l.61-.27Z" fill="#333"/>
        <path d="M4.75,34.61l.79,.32c-.4,.34-.86,.67-1.39,1-.53,.33-1.07,.64-1.64,.94-.56,.29-1.1,.55-1.62,.77-.04-.06-.1-.13-.18-.22-.08-.08-.17-.17-.24-.25-.08-.08-.15-.15-.22-.2,.53-.19,1.06-.41,1.61-.67,.55-.25,1.07-.52,1.57-.81s.94-.58,1.31-.88ZM.34,28.51h15.91v.76H.34v-.76Zm2.14-6.17H14.13v4.79H2.48v-4.79Zm.41,8.08H13.75v3.56H2.9v-3.56Zm.43-7.4v1.35H13.27v-1.35H3.33Zm0,2.03v1.37H13.27v-1.37H3.33Zm.41,6.08v2.12H12.89v-2.12H3.74Zm4.1,2.38h.86v3.49c0,.25-.04,.44-.11,.58-.07,.13-.22,.22-.43,.27-.22,.06-.52,.1-.92,.12-.4,.02-.91,.03-1.55,.03-.02-.12-.06-.24-.12-.37s-.11-.25-.17-.37c.35,.01,.67,.02,.95,.03s.53,0,.74,0,.35,0,.43,0c.12-.01,.2-.04,.24-.08,.04-.04,.06-.11,.06-.21v-3.47Zm-.58-6.01l.76-.29c.19,.23,.37,.48,.55,.77,.17,.28,.3,.54,.37,.78l-.81,.31c-.07-.22-.19-.47-.34-.77-.16-.3-.33-.56-.52-.79Zm3.44,7.74l.56-.54c.56,.19,1.15,.43,1.75,.71,.61,.28,1.19,.57,1.74,.86s1.01,.56,1.37,.81l-.56,.63c-.36-.25-.81-.52-1.35-.82s-1.12-.59-1.74-.88-1.21-.55-1.77-.77Z" fill="#333"/>
        <path d="M.97,54.63l.81,.14c-.12,.78-.27,1.57-.44,2.36s-.36,1.47-.55,2.03c-.06-.02-.14-.05-.23-.09s-.19-.08-.29-.12c-.1-.04-.18-.07-.25-.08,.22-.58,.4-1.24,.56-2,.16-.76,.29-1.51,.4-2.25Zm-.61-4.91c-.01-.06-.04-.14-.07-.25-.04-.11-.07-.22-.11-.33-.04-.11-.07-.21-.11-.28,.14-.02,.3-.13,.46-.31,.16-.19,.34-.42,.53-.69,.14-.18,.37-.51,.67-.99,.3-.48,.63-1.04,.98-1.69,.35-.65,.67-1.3,.95-1.96l.83,.36c-.49,1.04-1.04,2.06-1.64,3.05-.6,.99-1.21,1.85-1.84,2.58v.02c-.13,.07-.24,.13-.33,.18-.09,.05-.17,.1-.22,.16s-.09,.11-.09,.16Zm.11,4c-.01-.06-.04-.14-.07-.25s-.07-.22-.11-.33-.07-.21-.11-.28c.17-.04,.36-.16,.57-.39,.21-.22,.45-.5,.73-.82,.14-.17,.36-.44,.64-.81,.28-.37,.6-.81,.95-1.32,.35-.51,.71-1.06,1.07-1.66,.36-.59,.7-1.19,1.01-1.79l.81,.43c-.48,.82-.98,1.63-1.51,2.44-.53,.81-1.07,1.58-1.64,2.3-.56,.72-1.12,1.37-1.67,1.96v.04c-.13,.06-.24,.11-.33,.16-.09,.05-.17,.1-.23,.15-.07,.05-.1,.11-.1,.17Zm-.11-4l-.02-.7,.52-.29,3.22-.29c-.02,.11-.04,.23-.05,.38-.01,.14-.01,.26,0,.34-.74,.1-1.34,.17-1.8,.22-.46,.05-.81,.1-1.05,.14s-.43,.08-.55,.11c-.12,.03-.21,.06-.27,.08Zm.11,4l-.02-.7,.52-.32,4.86-.67c-.02,.12-.04,.25-.04,.39s0,.25,.02,.35c-1.13,.17-2.03,.31-2.7,.41-.67,.11-1.19,.19-1.54,.25-.35,.06-.61,.11-.76,.16-.15,.05-.27,.09-.35,.13Zm2.38,.99l.76-.11c.11,.62,.21,1.3,.32,2.03,.1,.73,.17,1.36,.19,1.89l-.77,.14c0-.36-.03-.77-.08-1.22s-.11-.92-.18-1.4c-.07-.47-.14-.92-.23-1.34Zm1.75-4.55l.74-.18c.18,.4,.35,.83,.52,1.29s.32,.91,.44,1.33,.22,.79,.3,1.11l-.79,.25c-.06-.32-.15-.7-.28-1.13-.13-.43-.27-.88-.43-1.35s-.33-.91-.5-1.31Zm.09,4.23l.7-.2c.2,.53,.41,1.1,.6,1.73,.2,.62,.35,1.16,.44,1.62l-.74,.23c-.08-.46-.22-1-.41-1.64-.19-.64-.39-1.22-.59-1.75Zm6.57-11.07l.86,.23c-.53,1.33-1.25,2.6-2.17,3.82-.92,1.21-1.98,2.26-3.2,3.15-.05-.06-.11-.13-.19-.2-.08-.07-.16-.14-.24-.22-.08-.07-.16-.13-.23-.18,.79-.55,1.52-1.18,2.2-1.9,.67-.71,1.26-1.47,1.76-2.28s.91-1.61,1.21-2.43Zm-3.46,9.05h7.49v7.22h-.86v-6.39h-5.76v6.46h-.86v-7.29Zm.43,5.44h6.61v.83h-6.61v-.83Zm.36-8.66h5.9v.81h-5.9v-.81Zm3.2-5.42c.37,.76,.84,1.52,1.39,2.28,.56,.76,1.16,1.45,1.81,2.07,.65,.62,1.28,1.12,1.91,1.5-.07,.05-.15,.11-.23,.2s-.16,.17-.23,.27c-.07,.1-.14,.18-.2,.25-.62-.43-1.26-.98-1.91-1.66-.65-.67-1.25-1.41-1.82-2.21-.56-.8-1.04-1.61-1.44-2.41l.72-.29Z" fill="#333"/>
        <path d="M4.43,64.8l.81,.27c-.38,.73-.82,1.46-1.31,2.17-.49,.71-1.01,1.38-1.57,2.01s-1.11,1.18-1.67,1.66c-.05-.06-.11-.13-.19-.21-.08-.08-.16-.16-.24-.24-.08-.08-.16-.14-.22-.18,.84-.67,1.65-1.49,2.43-2.47s1.43-1.97,1.96-3.01Zm-2.21,11.41l.76,.32c-.16,.37-.33,.79-.52,1.27-.19,.47-.4,.95-.62,1.41-.22,.47-.45,.89-.69,1.26l-.83-.4c.25-.35,.5-.75,.73-1.22,.23-.46,.45-.93,.66-1.39s.38-.89,.52-1.26Zm.49-8.24l.85-.83v7.81h-.85v-6.98Zm1.42,8.06h.86v3.37c0,.25,.09,.42,.28,.5,.19,.08,.6,.12,1.23,.12h4.79c.36,0,.63-.05,.8-.15s.3-.31,.37-.61c.07-.31,.12-.78,.14-1.41,.08,.05,.17,.1,.27,.15,.1,.05,.19,.1,.3,.13,.1,.03,.19,.05,.26,.06-.05,.72-.13,1.27-.24,1.66-.11,.38-.31,.65-.6,.79-.29,.14-.7,.22-1.24,.22H6.53c-.64,0-1.13-.04-1.48-.11s-.59-.21-.73-.42c-.14-.21-.21-.51-.21-.91v-3.37Zm3.76-11.16l.83,.2c-.36,.96-.83,1.88-1.4,2.75-.57,.88-1.17,1.63-1.79,2.25-.05-.06-.11-.13-.2-.2-.08-.07-.17-.14-.25-.21-.08-.07-.16-.12-.23-.15,.64-.56,1.22-1.25,1.76-2.07,.54-.82,.97-1.67,1.28-2.57Zm0,4.86l.83,.22c-.29,.72-.65,1.42-1.08,2.11s-.88,1.27-1.35,1.75c-.05-.05-.11-.1-.2-.16-.08-.06-.17-.12-.26-.18-.09-.06-.17-.11-.23-.14,.48-.47,.92-1.01,1.31-1.64,.4-.62,.72-1.27,.97-1.94Zm-1.12,5.36l.68-.38c.35,.31,.7,.66,1.06,1.04,.36,.38,.69,.76,1,1.13,.31,.38,.54,.72,.71,1.02l-.72,.45c-.17-.3-.4-.64-.7-1.03-.3-.38-.63-.77-.98-1.16-.35-.39-.71-.75-1.05-1.07Zm.59-8.42H15.55v.77H7.06l.31-.77Zm3.24,1.6h.85v6.62h-.85v-6.62Zm2.18,1.75l.7-.34c.32,.38,.64,.8,.95,1.24,.31,.44,.58,.88,.84,1.31,.25,.43,.44,.82,.58,1.15l-.77,.41c-.12-.36-.3-.76-.55-1.2-.25-.44-.52-.88-.82-1.33-.3-.45-.61-.87-.92-1.25Zm.56,6.21l.79-.29c.29,.42,.57,.87,.84,1.36,.27,.49,.51,.96,.72,1.42s.36,.87,.46,1.23l-.83,.32c-.1-.36-.25-.77-.45-1.24-.2-.47-.44-.95-.7-1.44-.26-.49-.54-.95-.83-1.37Zm1.93-9.56h.16l.16-.05,.58,.18c-.24,.49-.49,1-.76,1.53-.26,.53-.51,.97-.74,1.31l-.77-.16c.23-.35,.46-.77,.71-1.27s.46-.97,.66-1.41v-.13Z" fill="#333"/>
        <path d="M.11,100.92c.53-.14,1.14-.32,1.85-.53s1.45-.44,2.24-.68c.79-.25,1.58-.49,2.38-.73l.11,.77c-1.13,.36-2.25,.72-3.38,1.07-1.12,.35-2.12,.67-2.98,.95l-.22-.85Zm.7-13.68H6.12v5.27H.81v-5.27Zm.2,7.18h.76v6.59h-.76v-6.59Zm.59-6.39v3.69h3.69v-3.69H1.6Zm1.57,4.25h.77v8.12h-.77v-8.12Zm.36,3.06h2.65v.81H3.53v-.81Zm5.89-6.46h.14l.16-.02,.5,.14c-.26,1.34-.71,2.47-1.33,3.38s-1.34,1.61-2.14,2.09c-.06-.08-.14-.19-.24-.31-.1-.12-.2-.22-.3-.29,.74-.42,1.41-1.05,1.99-1.88,.58-.83,.99-1.82,1.21-2.96v-.16Zm-2.74,0h3.01v.79h-3.01v-.79Zm.95,6.55h7.81v7.25h-.85v-6.48h-6.14v6.53h-.83v-7.31Zm.38,5.87h7v.77h-7v-.77Zm.04-3.01h6.98v.74h-6.98v-.74Zm3.06-11.83h.81v7.45c0,.25-.03,.44-.1,.58-.07,.13-.19,.24-.37,.32-.19,.06-.46,.1-.79,.12-.34,.02-.76,.03-1.26,.03-.01-.12-.05-.25-.11-.4-.06-.14-.12-.28-.18-.4,.42,.01,.79,.02,1.1,.02s.52,0,.63-.02c.18,0,.27-.09,.27-.27v-7.43Zm.7,.5c.24,1,.59,1.96,1.05,2.88,.46,.92,1.02,1.72,1.67,2.4,.65,.68,1.41,1.17,2.26,1.47-.06,.06-.12,.13-.19,.22-.07,.08-.13,.17-.2,.25-.07,.08-.12,.17-.17,.25-.85-.37-1.61-.93-2.27-1.67s-1.21-1.6-1.67-2.57c-.45-.98-.8-2.01-1.05-3.09l.56-.14Zm3.58,.92l.7,.56c-.42,.43-.9,.87-1.43,1.32-.53,.45-1.02,.83-1.47,1.14l-.54-.45c.29-.23,.6-.49,.94-.79,.34-.3,.66-.61,.98-.93s.59-.6,.82-.85Z" fill="#333"/>
        <path d="M.22,113.04H3.92v.05H12.71v-.05h3.71v.74h-3.71v-.04H3.92v.04H.22v-.74Zm5.96,9.05l.81,.47c-.48,.26-1.05,.51-1.7,.75-.65,.23-1.33,.44-2.04,.63-.71,.19-1.38,.33-2.02,.44-.06-.08-.14-.19-.23-.32-.1-.13-.19-.23-.27-.31,.64-.12,1.3-.27,2-.44s1.35-.37,1.97-.58c.62-.21,1.11-.42,1.49-.64ZM.85,109.67H15.79v2.72h-.85v-1.96H1.67v1.96H.85v-2.72Zm1.85,6.68H14.04v5.53H2.7v-5.53Zm.74-4.91H13.72l-.32,4.03H2.9l.54-4.03Zm.13,5.58v.95H13.16v-.95H3.56Zm0,1.58v1.01H13.16v-1.01H3.56Zm0,1.62v1.03H13.16v-1.03H3.56Zm.59-8.14l-.36,2.74H12.64l.2-2.74H4.16Zm2.93-3.91l.76-.27c.26,.3,.52,.64,.77,1.02,.25,.38,.42,.72,.53,1.02l-.79,.31c-.1-.29-.26-.63-.5-1.02-.24-.39-.49-.74-.76-1.05Zm.97,3.58h.77c-.04,.55-.08,1.15-.13,1.79-.05,.64-.11,1.18-.17,1.61h-.79c.07-.46,.14-1,.2-1.64,.06-.64,.1-1.22,.13-1.76Zm1.62,10.89l.45-.56c.71,.18,1.41,.37,2.1,.57,.69,.2,1.34,.39,1.95,.58,.61,.19,1.15,.38,1.62,.56l-.56,.61c-.44-.17-.96-.35-1.56-.55-.59-.2-1.23-.4-1.92-.61-.68-.21-1.38-.41-2.09-.6Z" fill="#333"/>
        <path d="M1.01,132.52h.83v13.05h-.83v-13.05Zm.43,5.11H6.62v.81H1.44v-.81Zm.09-5.11H6.97v11.56H1.53v-.83H6.14v-9.94H1.53v-.79Zm2.34-2.93l.94,.22c-.17,.52-.36,1.06-.57,1.63-.21,.57-.41,1.05-.58,1.43l-.7-.2c.11-.29,.22-.61,.33-.97,.11-.36,.22-.73,.33-1.11,.11-.38,.19-.71,.25-1Zm6.34-.07l.83,.18c-.2,.9-.45,1.78-.75,2.63-.29,.85-.62,1.65-.97,2.39-.35,.74-.74,1.4-1.16,1.98-.04-.05-.1-.1-.2-.16-.1-.06-.19-.12-.29-.18-.1-.06-.18-.11-.25-.14,.42-.55,.8-1.18,1.15-1.9,.35-.71,.66-1.48,.94-2.29,.28-.82,.51-1.65,.7-2.5Zm-.81,7.36l.68-.4c.37,.42,.75,.88,1.12,1.39,.38,.51,.73,1,1.06,1.47,.33,.47,.59,.88,.78,1.24l-.74,.5c-.19-.37-.45-.8-.76-1.29-.32-.49-.67-.99-1.04-1.5-.38-.52-.75-.99-1.11-1.42Zm.25-4.37h5.69v.83h-5.69v-.83Zm5.36,0h.83v.52c-.07,2.09-.15,3.85-.22,5.28-.08,1.43-.17,2.6-.26,3.51-.1,.91-.21,1.61-.33,2.1-.13,.49-.28,.85-.46,1.06-.18,.22-.36,.36-.55,.44-.19,.08-.43,.13-.73,.15-.28,.02-.65,.03-1.13,0-.48-.02-.97-.04-1.46-.08-.01-.13-.04-.28-.09-.44s-.11-.3-.2-.41c.59,.05,1.13,.08,1.62,.09s.83,.02,1.03,.02c.18,0,.33-.02,.45-.04,.12-.03,.22-.11,.31-.23,.16-.17,.29-.5,.41-.98,.12-.49,.23-1.18,.32-2.09,.09-.91,.17-2.07,.25-3.5,.08-1.43,.15-3.16,.22-5.2v-.22Z" fill="#333"/>
        <path d="M4.54,156.06h.18l.18-.05,.54,.23c-.24,1.5-.59,2.87-1.04,4.11-.46,1.24-.98,2.33-1.58,3.27-.6,.94-1.25,1.71-1.94,2.32-.06-.06-.13-.13-.22-.21s-.17-.15-.26-.23c-.09-.07-.18-.13-.26-.16,.71-.59,1.35-1.33,1.93-2.21,.58-.89,1.09-1.91,1.51-3.07,.43-1.16,.75-2.42,.96-3.79v-.22Zm-3.85,0H4.77v.83H.68v-.83Zm2.34-3.89H13.12v.81H3.02v-.81Zm1.4,10.75h7.88v.79H4.43v-.79Zm3.58-7.45h.88v10.6c0,.34-.05,.58-.15,.75-.1,.16-.29,.28-.55,.37-.26,.06-.64,.1-1.14,.13-.5,.02-1.15,.04-1.95,.04-.02-.13-.07-.28-.13-.45-.07-.17-.13-.31-.21-.43,.68,.01,1.29,.02,1.81,.03,.52,0,.87,0,1.04,0,.16-.01,.26-.05,.32-.11,.06-.06,.09-.16,.09-.31v-10.6Zm-2.74,4.61h6.23v.79H5.27v-.79Zm.31-2.79h5.63v.79H5.58v-.79Zm7.34-5.11h.2l.2-.05,.63,.43c-.44,.46-.97,.9-1.57,1.33-.6,.43-1.23,.83-1.89,1.21-.66,.37-1.31,.69-1.94,.95-.06-.08-.14-.18-.25-.3s-.2-.21-.29-.28c.6-.23,1.21-.52,1.84-.87,.62-.35,1.21-.73,1.75-1.12,.54-.39,.98-.76,1.33-1.12v-.18Zm2.14,2.92l.7,.59c-.48,.47-1.02,.95-1.61,1.44-.59,.49-1.14,.91-1.65,1.26l-.52-.5c.32-.24,.67-.52,1.05-.85s.74-.66,1.1-1.01c.35-.35,.66-.66,.93-.94Zm-2.29,2.61c.19,1.09,.46,2.13,.82,3.11,.35,.98,.79,1.86,1.3,2.63,.51,.77,1.09,1.38,1.74,1.84-.07,.06-.15,.13-.23,.22s-.16,.17-.23,.26-.14,.18-.2,.26c-.67-.52-1.27-1.19-1.79-2.02-.52-.83-.96-1.77-1.32-2.82-.36-1.05-.65-2.15-.86-3.3l.79-.18Z" fill="#333"/>
        <path d="M.18,175.93H6.19v.77H.18v-.77Zm.63,2.3H5.74v.76H.81v-.76Zm0,2.32H5.74v.76H.81v-.76Zm.05,2.36h.79v6.03H.86v-6.03Zm.38,0H5.92v5.13H1.24v-.79h3.87v-3.56H1.24v-.77Zm.85-9.77l.65-.38c.28,.35,.55,.73,.81,1.15s.47,.79,.63,1.12l-.72,.45c-.13-.32-.33-.71-.59-1.15-.26-.44-.52-.84-.77-1.19Zm8.39,4.1l.85,.16c-.4,1.84-.98,3.46-1.76,4.87-.78,1.41-1.75,2.58-2.92,3.52-.04-.05-.09-.11-.16-.2-.07-.08-.15-.17-.23-.24s-.16-.14-.23-.19c1.14-.85,2.08-1.96,2.82-3.31,.74-1.36,1.29-2.89,1.65-4.61Zm-4.3,2.12h10.33v.83H6.17v-.83Zm.27-4.5h4.81v.83H6.44v-.83Zm2.25,8.17h6.91v6.07h-.85v-5.26h-5.26v5.31h-.81v-6.12Zm.07-10.21h.86v4.91h-.86v-4.91Zm.36,14.72h5.99v.79h-5.99v-.79Zm2.66-12.69h4.64v.81h-4.64v-.81Zm1.66-2.03h.85v4.91h-.85v-4.91Z" fill="#333"/>
        <path d="M8.35,195.48c.49,0,.94,.12,1.33,.36,.4,.24,.71,.56,.95,.95,.24,.4,.36,.84,.36,1.33s-.12,.92-.36,1.32-.56,.72-.95,.96c-.4,.24-.84,.36-1.33,.36s-.92-.12-1.32-.36c-.4-.24-.72-.56-.96-.96s-.36-.84-.36-1.32,.12-.94,.36-1.33c.24-.4,.56-.71,.96-.95,.4-.24,.84-.36,1.32-.36Zm0,4.59c.54,0,1-.19,1.38-.57s.57-.84,.57-1.38c0-.36-.09-.69-.26-.98-.17-.29-.41-.53-.69-.7s-.62-.26-.99-.26-.68,.09-.97,.26-.52,.41-.7,.7-.27,.62-.27,.98,.09,.69,.27,.98,.41,.53,.7,.7,.61,.26,.97,.26Z" fill="#333"/>
      </g>
      <g>
        <path d="M125.63,8.71h1.26v3.76c0,.6-.03,1.26-.1,1.97-.07,.71-.2,1.42-.39,2.13-.19,.71-.49,1.34-.89,1.9-.07-.08-.16-.17-.29-.28-.13-.11-.26-.21-.4-.3-.14-.09-.26-.17-.37-.22,.36-.51,.62-1.06,.79-1.67,.17-.61,.27-1.22,.32-1.83,.05-.61,.07-1.19,.07-1.72v-3.74Zm-.98-2.44h7.62v2.9h-1.2v-1.78h-5.28v1.78h-1.14v-2.9Zm.82-5.56h5.94V6.79h-1.28V1.85h-3.44V6.79h-1.22V.71Zm.74,8h4.62v1.06h-4.62v-1.06Zm.6,6.08c.49-.21,1.08-.49,1.75-.83,.67-.34,1.37-.7,2.09-1.07l.26,.82c-.61,.37-1.22,.75-1.82,1.12-.6,.37-1.17,.72-1.72,1.04l-.56-1.08Zm.22-3.56l.68-.72c.41,.27,.82,.55,1.23,.85,.41,.3,.73,.57,.97,.81l-.76,.82c-.21-.24-.53-.53-.94-.87s-.81-.64-1.18-.89Zm.9-8.08h3.02v.96h-2.12v2.6h-.9V3.15Zm2.14,5.56h1.28v8.16c0,.32-.04,.57-.12,.76s-.23,.33-.46,.44c-.21,.11-.5,.17-.86,.19-.36,.02-.83,.03-1.4,.03-.03-.16-.08-.35-.16-.58s-.17-.42-.26-.58c.4,.01,.76,.02,1.07,.02s.52,0,.61-.02c.2,0,.3-.09,.3-.28V8.71Zm2.28,8.14h10.44v1.16h-10.44v-1.16Zm.24-8.16h10.02v1.14h-10.02v-1.14Zm.42-7.14h9.08V7.63h-9.08V1.55Zm.54,9.24h8.08v3.72h-8.08v-3.72Zm.64-8.16v1.44h6.68v-1.44h-6.68Zm0,2.46v1.46h6.68v-1.46h-6.68Zm.36,9.86l1.16-.34c.17,.39,.35,.81,.52,1.26,.17,.45,.31,.84,.4,1.16l-1.22,.42c-.08-.33-.2-.74-.37-1.21-.17-.47-.33-.9-.49-1.29Zm.34-3.14v1.68h5.34v-1.68h-5.34ZM135.51,0h1.22V2.35h-1.22V0Zm.2,2.08h1.02V7.17h-1.02V2.09ZM138.19,0h1.24V2.35h-1.24V0Zm.06,2.08h1.02V7.17h-1.02V2.09Zm1.14,12.46l1.36,.4c-.23,.45-.46,.91-.71,1.37-.25,.46-.47,.85-.67,1.17l-1-.36c.17-.36,.36-.79,.55-1.29s.35-.93,.47-1.29Z" fill="#333"/>
        <path d="M126.53,37.79l1.42,.34c-.27,.8-.62,1.58-1.07,2.35-.45,.77-.92,1.42-1.43,1.95-.08-.09-.19-.19-.34-.3-.15-.11-.3-.21-.45-.32-.15-.11-.29-.19-.41-.26,.49-.47,.94-1.03,1.34-1.7s.71-1.35,.94-2.06Zm-1.22-13h6.52v12.56h-6.52v-12.56Zm1.38,1.24v2.56h3.72v-2.56h-3.72Zm0,3.74v2.56h3.72v-2.56h-3.72Zm0,3.74v2.6h3.72v-2.6h-3.72Zm2.58,4.8l1.2-.56c.4,.49,.78,1.03,1.15,1.62,.37,.59,.64,1.1,.83,1.54l-1.28,.66c-.16-.45-.42-.98-.79-1.59-.37-.61-.74-1.16-1.11-1.67Zm3.92-4.68h8.64v8.7h-1.46v-7.36h-5.76v7.44h-1.42v-8.78Zm.76,6.46h7.22v1.38h-7.22v-1.38Zm2.52-16.08h1.48v10.24h-1.48v-10.24Zm.78,4.4h5.56v1.38h-5.56v-1.38Z" fill="#333"/>
        <path d="M132.47,53.15l1.7,.3c-.48,2.03-1.1,3.85-1.87,5.48s-1.69,3.06-2.78,4.29-2.37,2.28-3.85,3.15c-.08-.11-.2-.23-.37-.38s-.34-.3-.52-.45c-.18-.15-.34-.28-.47-.37,2.23-1.17,3.99-2.76,5.3-4.77s2.26-4.42,2.86-7.25Zm-4.32-3.92h5.66v1.52h-5.66v-1.52Zm4.9,0h1.52c0,.59,.03,1.28,.08,2.08,.05,.8,.17,1.66,.34,2.57,.17,.91,.44,1.86,.8,2.85,.36,.99,.85,1.97,1.46,2.95,.61,.98,1.38,1.93,2.31,2.85s2.05,1.77,3.37,2.54c-.11,.09-.24,.22-.41,.37s-.32,.31-.46,.48c-.14,.17-.26,.31-.35,.43-1.33-.81-2.48-1.71-3.43-2.69-.95-.98-1.75-2-2.38-3.07-.63-1.07-1.14-2.14-1.52-3.21s-.67-2.11-.86-3.12-.32-1.94-.38-2.81c-.06-.87-.09-1.61-.09-2.22Z" fill="#333"/>
        <path d="M126.29,79.09l1.44,.28c-.09,.79-.23,1.66-.4,2.62-.17,.96-.37,1.9-.6,2.83s-.47,1.75-.74,2.47l-1.52-.64c.29-.68,.56-1.46,.8-2.33,.24-.87,.45-1.77,.62-2.68s.31-1.76,.4-2.55Zm3.2-1.5h1.56v9.92c0,.47,.08,.77,.25,.91,.17,.14,.54,.21,1.11,.21h3.86c.41,0,.72-.11,.93-.33,.21-.22,.35-.63,.44-1.23,.09-.6,.15-1.47,.19-2.62,.13,.09,.28,.19,.45,.28,.17,.09,.34,.17,.52,.24s.34,.12,.47,.16c-.07,1.27-.19,2.26-.36,2.97-.17,.71-.46,1.22-.85,1.51s-.97,.44-1.73,.44h-4.04c-.72,0-1.28-.07-1.69-.22-.41-.15-.69-.41-.86-.78-.17-.37-.25-.89-.25-1.54v-9.92Zm.94-3.9l1.02-.98c.63,.43,1.29,.9,1.98,1.43s1.35,1.05,1.96,1.58,1.11,1,1.5,1.41l-1.08,1.14c-.37-.43-.86-.91-1.46-1.44-.6-.53-1.24-1.08-1.93-1.64-.69-.56-1.35-1.06-1.99-1.5Zm8.38,5.42l1.4-.54c.39,.8,.76,1.65,1.12,2.55,.36,.9,.68,1.78,.96,2.65,.28,.87,.49,1.65,.62,2.34l-1.48,.6c-.13-.69-.33-1.48-.6-2.36-.27-.88-.57-1.78-.92-2.69-.35-.91-.71-1.76-1.1-2.55Z" fill="#333"/>
        <path d="M132.93,106.13h1.56v7.76c0,.77-.06,1.52-.18,2.25-.12,.73-.35,1.42-.7,2.09-.35,.67-.85,1.29-1.52,1.88s-1.54,1.11-2.63,1.58c-1.09,.47-2.43,.87-4.03,1.22-.05-.12-.13-.26-.24-.42-.11-.16-.22-.32-.33-.49s-.22-.3-.33-.41c1.56-.29,2.85-.64,3.88-1.04,1.03-.4,1.84-.85,2.45-1.35,.61-.5,1.06-1.03,1.35-1.6,.29-.57,.49-1.16,.58-1.79,.09-.63,.14-1.27,.14-1.94v-7.74Zm-8.04-.58h17.4v1.36h-17.4v-1.36Zm1.82,3.06h14.34v7.74h-14.34v-7.74Zm1.92,7.92c.64,.99,1.41,1.79,2.3,2.4,.89,.61,1.93,1.09,3.11,1.42,1.18,.33,2.51,.57,3.99,.71,1.48,.14,3.13,.24,4.94,.29-.13,.17-.26,.4-.39,.68-.13,.28-.21,.55-.25,.8-1.85-.08-3.55-.22-5.08-.41s-2.92-.49-4.16-.9c-1.24-.41-2.34-.97-3.3-1.69s-1.77-1.65-2.44-2.78l1.28-.52Zm-.48-6.66v2h11.4v-2h-11.4Zm0,3.2v2.04h11.4v-2.04h-11.4Z" fill="#333"/>
        <path d="M125.59,129.45h1.32v7.12c0,.76-.02,1.59-.05,2.49-.03,.9-.1,1.82-.19,2.75-.09,.93-.23,1.84-.4,2.72-.17,.88-.41,1.69-.72,2.42-.08-.08-.19-.16-.34-.25-.15-.09-.29-.17-.44-.24s-.27-.13-.38-.17c.37-.95,.64-1.99,.81-3.12,.17-1.13,.27-2.27,.32-3.42s.07-2.2,.07-3.16v-7.14Zm.54,4.28h3.78v1.34h-3.78v-1.34Zm.06,4.26h3.76v1.32h-3.76v-1.32Zm.06-8.54h4.02v1.36h-4.02v-1.36Zm3.06,0h1.36v15.62c0,.37-.04,.67-.13,.9-.09,.23-.25,.4-.49,.52-.23,.13-.53,.21-.9,.24-.37,.03-.85,.04-1.42,.04-.01-.13-.04-.28-.09-.45-.05-.17-.09-.34-.14-.51-.05-.17-.1-.32-.17-.44,.37,.01,.72,.02,1.04,.02h.62c.21-.01,.32-.12,.32-.32v-15.62Zm7.02-.94l1.4,.1c-.17,2.05-.49,3.84-.95,5.37-.46,1.53-1.12,2.83-1.99,3.92-.87,1.09-1.99,2-3.38,2.75-.05-.09-.14-.21-.27-.35-.13-.14-.25-.28-.38-.41-.13-.13-.24-.24-.35-.32,1.36-.64,2.45-1.46,3.27-2.45s1.43-2.2,1.84-3.62c.41-1.42,.68-3.08,.81-4.99Zm-.66,9.22h1.4c-.07,1.09-.18,2.11-.35,3.04-.17,.93-.43,1.78-.79,2.55-.36,.77-.86,1.45-1.5,2.04-.64,.59-1.47,1.1-2.48,1.51-.08-.16-.21-.36-.38-.59-.17-.23-.34-.42-.5-.55,.95-.35,1.71-.78,2.29-1.3,.58-.52,1.03-1.12,1.34-1.79,.31-.67,.54-1.42,.68-2.24,.14-.82,.24-1.71,.29-2.67Zm-4.54-2.36h11.56v1.28h-11.56v-1.28Zm.78-3.16h9.9v1.28h-9.9v-1.28Zm.08-2.6l1.04-.62c.39,.33,.77,.72,1.14,1.15,.37,.43,.65,.82,.84,1.17l-1.12,.7c-.17-.35-.44-.75-.79-1.2-.35-.45-.72-.85-1.11-1.2Zm.52,10.28h7.44v1.28h-7.44v-1.28Zm7.1,0h1.42c0,.31,0,.51-.02,.62-.08,1.23-.16,2.22-.23,2.99-.07,.77-.16,1.36-.27,1.77-.11,.41-.25,.71-.42,.9-.15,.17-.31,.3-.5,.37s-.41,.12-.68,.13c-.23,.03-.54,.04-.95,.04s-.84-.01-1.29-.04c-.01-.2-.05-.42-.12-.66-.07-.24-.15-.45-.26-.64,.43,.05,.83,.08,1.2,.09,.37,0,.63,0,.78,0,.16,.01,.29,0,.39-.02,.1-.03,.18-.08,.25-.16,.12-.12,.22-.36,.3-.73,.08-.37,.15-.91,.22-1.62,.07-.71,.13-1.66,.18-2.83v-.22Zm-.78-4.06c.29,.48,.66,.95,1.11,1.4,.45,.45,.94,.86,1.47,1.23,.53,.37,1.07,.66,1.62,.89-.15,.12-.31,.29-.5,.5-.19,.21-.33,.4-.44,.56-.56-.27-1.12-.62-1.68-1.06-.56-.44-1.07-.93-1.54-1.46-.47-.53-.86-1.07-1.18-1.62l1.14-.44Zm1.38-6.86l1.24,.36c-.28,.56-.6,1.11-.95,1.64-.35,.53-.72,.99-1.11,1.38-.08-.07-.18-.15-.31-.24-.13-.09-.25-.19-.38-.28-.13-.09-.24-.17-.35-.22,.37-.36,.73-.78,1.06-1.27,.33-.49,.6-.94,.8-1.37Z" fill="#333"/>
        <path d="M126.61,156.51h1.46c-.01,2.05-.08,3.98-.2,5.77s-.37,3.41-.74,4.85c-.37,1.44-.97,2.67-1.8,3.68-.11-.17-.27-.37-.5-.58-.23-.21-.43-.38-.62-.5,.56-.68,1-1.48,1.32-2.4,.32-.92,.55-1.94,.69-3.06,.14-1.12,.24-2.33,.29-3.64,.05-1.31,.09-2.68,.1-4.12Zm-2.02-.72h8.14v1.4h-8.14v-1.4Zm2.4-2.86l1.32-.52c.35,.43,.68,.9,1.01,1.42,.33,.52,.56,.97,.71,1.36l-1.4,.6c-.13-.4-.36-.87-.67-1.4-.31-.53-.64-1.02-.97-1.46Zm3.58,7.04h1.42v.41c0,.11,0,.2-.02,.25-.05,1.59-.11,2.93-.17,4.02-.06,1.09-.13,1.99-.2,2.7-.07,.71-.16,1.25-.27,1.64-.11,.39-.23,.67-.38,.86-.15,.23-.31,.38-.49,.47-.18,.09-.4,.14-.65,.17-.21,.03-.49,.04-.82,.04s-.67,0-1.02-.02c-.01-.21-.05-.45-.12-.71s-.15-.48-.26-.67c.35,.03,.66,.04,.93,.05,.27,0,.48,.01,.61,.01,.25,.01,.45-.07,.58-.24,.13-.19,.25-.58,.35-1.17,.1-.59,.19-1.49,.28-2.7s.16-2.81,.23-4.81v-.3Zm-2.98,0h3.52v1.38h-3.52v-1.38Zm9.48-7.58l1.4,.42c-.51,1.67-1.21,3.19-2.11,4.56-.9,1.37-1.98,2.5-3.25,3.38-.12-.2-.28-.41-.48-.63s-.39-.4-.58-.55c1.17-.75,2.19-1.75,3.06-3,.87-1.25,1.52-2.65,1.96-4.18Zm-2.96,14.5l.96-1.14c.45,.23,.94,.48,1.46,.76,.52,.28,1.03,.57,1.54,.88,.51,.31,.98,.61,1.41,.91,.43,.3,.8,.58,1.11,.83l-1.02,1.32c-.39-.36-.89-.75-1.51-1.18-.62-.43-1.28-.85-1.97-1.27s-1.35-.79-1.98-1.11Zm1.22-5.7l.98-.98c.4,.25,.82,.54,1.27,.86,.45,.32,.87,.63,1.27,.94,.4,.31,.73,.59,.98,.84l-1.02,1.14c-.25-.27-.58-.56-.97-.89-.39-.33-.81-.66-1.25-.99s-.86-.64-1.26-.92Zm2.66-7.54c.35,.73,.79,1.47,1.32,2.21,.53,.74,1.12,1.42,1.77,2.04,.65,.62,1.3,1.11,1.95,1.47-.11,.09-.23,.21-.38,.36s-.28,.29-.4,.44c-.12,.15-.23,.29-.32,.42-.67-.43-1.32-.99-1.97-1.69-.65-.7-1.24-1.47-1.78-2.31s-1-1.68-1.37-2.52l1.18-.42Z" fill="#333"/>
        <path d="M134.03,188.11l1.06,.78c-.55,.51-1.19,1-1.94,1.49-.75,.49-1.54,.95-2.39,1.4-.85,.45-1.71,.85-2.6,1.22s-1.74,.68-2.57,.93c-.08-.2-.19-.42-.34-.66-.15-.24-.29-.45-.44-.62,.81-.19,1.66-.44,2.53-.76,.87-.32,1.73-.69,2.57-1.1s1.62-.85,2.33-1.3c.71-.45,1.31-.91,1.79-1.38Zm-1.12-2.4l1,.72c-.48,.36-1.04,.73-1.68,1.1-.64,.37-1.32,.74-2.05,1.09s-1.46,.68-2.19,.97c-.73,.29-1.43,.54-2.08,.74-.08-.17-.19-.37-.33-.6-.14-.23-.28-.42-.43-.58,.64-.16,1.32-.37,2.05-.62,.73-.25,1.45-.54,2.16-.85,.71-.31,1.38-.64,1.99-.97,.61-.33,1.13-.67,1.56-1Zm.6-3.74l1.26,.52c-.69,.68-1.52,1.3-2.49,1.87-.97,.57-1.99,1.07-3.08,1.51-1.09,.44-2.15,.81-3.19,1.12-.05-.09-.13-.22-.22-.37-.09-.15-.19-.31-.3-.46-.11-.15-.21-.28-.3-.37,1.03-.25,2.07-.57,3.12-.94,1.05-.37,2.03-.81,2.94-1.3,.91-.49,1.66-1.02,2.26-1.58Zm-8.24-3.7h16.78v4.14h-1.54v-2.76h-13.78v2.76h-1.46v-4.14Zm2.5,3.3h11.6v1.32h-11.6v-1.32Zm3.7,2.72l1.12-.64c.76,.67,1.37,1.41,1.84,2.23s.8,1.66,1.01,2.51c.21,.85,.3,1.67,.28,2.44-.02,.77-.14,1.45-.35,2.03-.21,.58-.51,1.01-.88,1.29-.32,.27-.63,.45-.94,.55-.31,.1-.69,.15-1.14,.15-.21,0-.47,0-.77,0s-.61-.02-.93-.03c0-.2-.04-.43-.11-.7-.07-.27-.17-.51-.29-.72,.36,.04,.7,.07,1.02,.08,.32,.01,.59,.02,.8,.02,.27,0,.5-.02,.71-.07s.4-.16,.57-.33c.24-.2,.44-.53,.59-.99s.23-1.01,.24-1.64c0-.63-.08-1.31-.26-2.04-.18-.73-.47-1.45-.88-2.16-.41-.71-.95-1.37-1.63-1.97Zm.58-7.48l1.56-.46c.21,.36,.43,.76,.66,1.19s.38,.8,.46,1.11l-1.6,.52c-.09-.32-.24-.7-.44-1.15-.2-.45-.41-.85-.64-1.21Zm7.34,6.86l1.24,.98c-.56,.44-1.17,.9-1.84,1.38-.67,.48-1.33,.93-2,1.36-.67,.43-1.29,.8-1.88,1.12l-.96-.84c.59-.33,1.21-.73,1.88-1.19,.67-.46,1.31-.94,1.94-1.43,.63-.49,1.17-.95,1.62-1.38Zm-1.9,3.12c.31,.89,.72,1.74,1.24,2.53,.52,.79,1.13,1.49,1.84,2.1,.71,.61,1.49,1.08,2.34,1.41-.11,.08-.22,.19-.35,.34s-.25,.3-.36,.45c-.11,.15-.21,.3-.29,.43-.91-.41-1.73-.96-2.46-1.64-.73-.68-1.38-1.47-1.93-2.37-.55-.9-1-1.88-1.33-2.93l1.3-.32Z" fill="#333"/>
      </g>
    </g>
  </g>
</svg>