<?xml version="1.0" encoding="UTF-8"?>
<svg id="_圖層_2" data-name="圖層 2" xmlns="http://www.w3.org/2000/svg" xmlns:xlink="http://www.w3.org/1999/xlink" viewBox="0 0 308.96 220.21">
  <defs>
    <linearGradient id="_未命名漸層_6" data-name="未命名漸層 6" x1="109.97" y1="219.15" x2="164.16" y2="219.15" gradientUnits="userSpaceOnUse">
      <stop offset="0" stop-color="#fff"/>
      <stop offset=".35" stop-color="#d2d2d2"/>
      <stop offset="1" stop-color="#969697"/>
    </linearGradient>
  </defs>
  <g id="pic">
    <g>
      <g>
        <path d="M21.4,76.48c-.49,.81-1.04,1.62-1.67,2.38v10.17h-.83v-9.2c-.77,.86-1.6,1.66-2.39,2.29-.11-.16-.41-.54-.56-.7,1.73-1.3,3.53-3.26,4.66-5.22l.79,.29Zm-.47-3.53c-1.01,1.49-2.68,3.13-4.23,4.2-.11-.16-.36-.49-.52-.63,1.48-.97,3.13-2.54,3.96-3.87l.79,.31Zm6.61,14.89c.54,.11,1.12,.14,1.73,.14,.31,0,2.92,0,3.42-.02-.14,.22-.29,.61-.32,.83h-3.15c-2.84,0-4.68-.7-5.78-3.71-.45,1.58-1.19,2.83-2.3,3.82-.13-.13-.49-.43-.68-.56,1.93-1.55,2.59-4.02,2.75-7.44l.86,.05c-.05,.99-.16,1.91-.31,2.74,.58,2.27,1.57,3.4,2.94,3.91v-8.07h.85v3.31h4.29v.77h-4.29v4.21Zm-1.4-9.51c-.43-.54-1.26-1.35-2.02-1.98-.63,1.4-1.46,2.59-2.45,3.51-.14-.14-.49-.45-.68-.59,1.75-1.48,2.86-3.82,3.4-6.63l.86,.14c-.22,1.01-.49,1.96-.83,2.84,.79,.63,1.73,1.49,2.18,2.03l-.47,.67Zm5.96,1.26c-.65-.85-1.89-2.14-3.04-3.17-.61,1.26-1.4,2.27-2.41,3.06-.13-.14-.5-.43-.7-.58,1.85-1.31,2.9-3.42,3.31-6.25l.88,.11c-.16,1.06-.41,2.02-.76,2.88,1.22,1.03,2.67,2.45,3.37,3.35l-.65,.59Z" fill="#fff"/>
        <path d="M51.27,79.61c-.86,.74-1.98,1.55-3.04,2.25,.9,2.57,2.81,4.74,5.19,5.65-.2,.16-.45,.47-.58,.7-2.4-1.04-4.29-3.24-5.29-5.92-.36,.23-.72,.45-1.06,.65,.68,2.39,.25,4.75-.79,5.46-.5,.41-.94,.52-1.67,.52-.38,0-.99-.02-1.57-.05-.02-.23-.11-.58-.23-.81,.63,.05,1.28,.09,1.62,.09,.52,0,.88-.04,1.26-.34,.68-.45,1.08-2.03,.79-3.84-2.02,1.64-5.26,3.28-7.96,4.07-.09-.23-.31-.56-.47-.76,2.88-.7,6.43-2.45,8.23-4.16-.14-.54-.32-1.08-.61-1.62-1.75,1.26-4.61,2.61-6.81,3.31-.11-.2-.31-.52-.47-.72,2.27-.58,5.33-1.98,6.91-3.21-.29-.47-.65-.92-1.06-1.35-1.66,.95-3.6,1.75-5.37,2.29-.07-.18-.32-.54-.5-.7,2.34-.65,4.97-1.67,6.72-2.99h-4.61v-.79h10.57v.79h-4.83c-.4,.36-.86,.7-1.35,1.03,.94,.92,1.58,2,2,3.08,1.44-.9,3.21-2.18,4.29-3.17l.7,.54Zm-12.57-1.78h-.85v-3.48h6.93c-.22-.49-.52-1.08-.83-1.53l.85-.25c.38,.54,.77,1.26,.99,1.78h6.84v3.48h-.86v-2.66h-13.07v2.66Z" fill="#fff"/>
        <path d="M72.83,81.59v7.33h-.92v-1.06h-12.93v-6.28h.94v5.44h5.51v-6.68h-5.71v-5.98h.88v5.13h4.83v-6.81h.9v6.81h4.88v-5.13h.9v5.98h-5.78v6.68h5.58v-5.42h.92Z" fill="#fff"/>
        <path d="M84.96,84.08s-.02,.29-.05,.4c-.25,2.56-.45,3.58-.9,3.96-.27,.25-.54,.34-1.04,.34-.43,.04-1.4,.02-2.38-.04-.02-.25-.13-.56-.27-.77,1.04,.09,2.07,.11,2.39,.11,.34,0,.52-.02,.65-.16,.31-.27,.52-1.1,.72-3.1h-4.38c.2-1.01,.45-2.54,.59-3.71h3.8v-2.29h-3.22v-.18c-.74,.4-1.48,.72-2.21,.95-.11-.2-.32-.5-.5-.67,1.28-.4,2.63-1.04,3.82-1.87-.52-.59-1.4-1.33-2.21-1.85l.54-.49c.81,.5,1.76,1.26,2.3,1.87,.85-.7,1.57-1.48,2.07-2.34h-4.5v-.77h5.01l.16-.04,.52,.29c-.83,1.84-2.3,3.28-4.01,4.36h3.06v3.76h-3.96c-.09,.76-.22,1.57-.32,2.23h4.34Zm9.25-9.04c-.79,.77-1.87,1.58-2.77,2.18,1.03,.63,2.16,1.13,3.37,1.44-.18,.18-.4,.49-.52,.68-1.03-.31-2-.74-2.92-1.26v2.92c0,.4,.05,.5,.32,.5h1.62c.22,0,.61-.02,.83-.05,0,.2,.04,.45,.05,.65-.18,.04-.54,.04-.86,.04h-1.71c-.85,0-1.03-.31-1.03-1.15v-2.2h-2.93v.76c0,1.08-.38,2.3-1.96,3.17-.13-.14-.4-.43-.58-.54,1.48-.77,1.76-1.76,1.76-2.65v-1.48h4.07v.02h.4c-2.11-1.24-3.82-3.04-4.83-5.17l.72-.23c.4,.86,.94,1.67,1.6,2.39,.88-.63,2.02-1.58,2.65-2.29l.67,.47c-.83,.81-1.94,1.69-2.84,2.32,.47,.45,.95,.88,1.51,1.24,.92-.61,2.05-1.55,2.74-2.21l.65,.45Zm-1.33,8.39c-.56,1.33-1.46,2.4-2.54,3.26,1.03,.67,1.98,1.28,2.65,1.76l-.45,.58c-.7-.52-1.67-1.19-2.79-1.91-1.26,.86-2.72,1.46-4.2,1.87-.07-.22-.25-.5-.41-.67,1.35-.32,2.74-.86,3.94-1.64-1.03-.65-2.09-1.28-3.03-1.84l.43-.45c.99,.56,2.11,1.21,3.19,1.87,.86-.65,1.58-1.44,2.11-2.34h-5.89v-.7h6.34l.14-.04,.5,.23Z" fill="#fff"/>
        <path d="M101.04,83.3c1.39-.65,2.16-1.53,2.23-2.95-.13,.04-.25,.05-.38,.05-.65,0-1.12-.36-1.12-1.1s.52-1.1,1.12-1.1c.85,0,1.3,.72,1.3,1.84,0,1.89-1.15,3.26-2.84,3.91l-.31-.65Z" fill="#fff"/>
        <path d="M112.55,79.3v9.67h-.85v-15.5h6.32v5.83h-5.47Zm0-5.11v1.78h4.64v-1.78h-4.64Zm4.64,4.39v-1.91h-4.64v1.91h4.64Zm4.02,5.83v4.2h-.81v-4.2h-3.02c-.09,1.17-.63,3.17-2.49,4.39-.14-.16-.41-.41-.61-.54,1.73-1.06,2.21-2.75,2.3-3.85h-2.5v-.79h2.52v-2.3h-2.16v-.76h9.04v.76h-2.27v2.3h2.7v.79h-2.7Zm-.81-.79v-2.3h-3.01v2.3h3.01Zm5.94,4.02c0,.67-.16,.99-.63,1.13-.47,.14-1.35,.16-2.72,.16-.04-.23-.14-.65-.29-.9,1.12,.02,2.09,.02,2.39,0,.31,0,.4-.11,.4-.38v-8.34h-5.64v-5.85h6.48v14.17Zm-5.65-13.45v1.78h4.81v-1.78h-4.81Zm4.81,4.39v-1.91h-4.81v1.91h4.81Z" fill="#fff"/>
        <path d="M133.92,80.1c-.13,2.47-.56,5.4-1.89,7.58-.14-.16-.45-.43-.67-.54,1.6-2.68,1.78-6.3,1.78-8.93v-4.16c2.18-.27,4.81-.7,6.21-1.21l.68,.67c-1.55,.5-3.96,.92-6.07,1.15v1.22h5.94v4.21h-6Zm.05-3.46v1.57c0,.36,0,.72-.02,1.12h5.17v-2.68h-5.15Zm5.13,11.06v-.86h-4.32v1.17h-.77v-6.03h5.91v5.73h-.81Zm0-1.62v-3.35h-4.32v3.35h4.32Zm7.74-9.02c-.4,2.85-1.12,5.4-2.2,7.49,.86,1.6,1.94,2.88,3.26,3.67-.22,.16-.5,.5-.67,.74-1.22-.83-2.25-2.07-3.08-3.56-.97,1.55-2.18,2.77-3.73,3.56-.13-.23-.4-.52-.63-.7,1.64-.77,2.92-2.07,3.91-3.75-.83-1.71-1.46-3.71-1.91-5.89-.36,.94-.76,1.78-1.22,2.48-.14-.16-.5-.47-.72-.59,1.33-1.87,2.07-4.77,2.49-7.87l.88,.13c-.18,1.21-.4,2.36-.68,3.46h5.31v.83h-1.01Zm-4.57,.16c.41,2.32,1.04,4.54,1.91,6.41,.92-1.85,1.51-4.11,1.89-6.57h-3.75l-.05,.16Z" fill="#fff"/>
        <path d="M168.58,80.13v.95h-16.31v-.95h16.31Z" fill="#fff"/>
        <path d="M175.09,75.54v4.2c0,2.68-.22,6.54-1.64,9.2-.16-.14-.54-.38-.72-.49,1.37-2.57,1.51-6.12,1.51-8.71v-5.02h7.83c-.31-.59-.74-1.3-1.13-1.85l.76-.29c.5,.67,1.01,1.49,1.33,2.14h6.05v.83h-13.99Zm14.01,12.12v.81h-13.79v-.81h6.43v-3.19h-5.24v-.79h5.24v-7.35h.85v7.35h5.33v.79h-5.33v3.19h6.52Zm-9.81-10.84c-.16,.83-.36,1.58-.61,2.29,.9,.79,1.94,1.87,2.47,2.54l-.58,.56c-.47-.63-1.37-1.6-2.2-2.38-.54,1.21-1.24,2.2-2.12,2.95-.14-.14-.49-.4-.68-.5,1.55-1.24,2.49-3.19,2.9-5.56l.83,.11Zm7.24,0c-.14,.83-.36,1.58-.65,2.27,1.15,.95,2.48,2.2,3.19,2.99l-.59,.54c-.61-.74-1.8-1.89-2.9-2.83-.54,1.08-1.24,1.98-2.11,2.66-.13-.13-.45-.4-.65-.52,1.53-1.13,2.5-2.95,2.88-5.22l.83,.11Z" fill="#fff"/>
        <path d="M198.65,79.12c-.29,2.45-.86,4.48-1.6,6.1,1.8,1.94,4.43,2.41,7.71,2.43,.54,0,4.5,0,5.22-.02-.14,.22-.31,.59-.36,.81h-4.88c-3.46,0-6.16-.49-8.07-2.47-.67,1.26-1.51,2.23-2.43,2.95-.11-.16-.43-.47-.65-.59,.97-.72,1.82-1.75,2.5-3.04-.68-.9-1.22-2.05-1.67-3.49l.7-.31c.34,1.22,.81,2.21,1.35,3.01,.58-1.31,1.01-2.9,1.28-4.74h-2.59c-.18,.09-.54,.29-.54,.45-.07-.2-.27-.59-.38-.77,.29-.05,.7-.47,1.04-1.01,.34-.47,1.4-2.11,2.18-3.8h-3.44v-.79h3.78l.29-.16,.59,.4c-.9,1.82-1.87,3.56-2.85,4.9h2.14l.16-.02,.5,.16Zm4.84-4.09h-3.55v-.74h3.55v-1.66h.83v1.66h4.03v2.39h1.39v.74h-1.39v2.45h-4.03v1.69h4.56v.72h-4.56v1.75h5.29v.74h-5.29v2.14h-.83v-2.14h-4.65v-.74h4.65v-1.75h-3.85v-.72h3.85v-1.69h-3.69v-.74h3.69v-1.71h-4.83v-.74h4.83v-1.66Zm.83,0v1.66h3.22v-1.66h-3.22Zm3.22,2.4h-3.22v1.71h3.22v-1.71Z" fill="#fff"/>
        <path d="M216.95,74.52c-.59,.81-1.24,1.53-1.89,2.11-.13-.16-.47-.43-.65-.58,1.12-.88,2.18-2.18,2.81-3.53l.79,.22c-.16,.36-.36,.68-.58,1.03h5.01v.76h-5.49Zm-2.39,7.24c.81-.13,1.85-.29,2.99-.45v-3.13h-2.72v-.72h6.09v.72h-2.56v3.01c.86-.14,1.78-.29,2.68-.45l.04,.76c-2.3,.38-4.65,.77-6.37,1.04l-.14-.77Zm8.34,2.03h7.56v.76h-7.56v4.39h-.83v-4.39h-7.49v-.76h7.49v-1.22h.83v1.22Zm-2.49,1.62c-1.19,1.33-3.4,2.54-5.22,3.12-.14-.2-.4-.52-.61-.7,1.82-.49,4-1.58,5.11-2.74l.72,.32Zm-1.73-10.69c.52,.49,1.22,1.21,1.55,1.64l-.61,.49c-.34-.47-1.01-1.21-1.57-1.75l.63-.38Zm2.95,2.61h6.23v3.96c0,.34,.02,.58,.11,.65,.09,.04,.2,.05,.34,.05h.61c.18,0,.34-.02,.43-.07,.09-.05,.18-.18,.23-.4,.04-.23,.05-.77,.07-1.48,.18,.16,.43,.29,.65,.34-.02,.67-.07,1.42-.14,1.67-.09,.25-.23,.41-.43,.5-.18,.09-.5,.13-.74,.13h-.81c-.31,0-.65-.05-.86-.23-.23-.16-.29-.4-.29-1.3v-3.13h-2.3v.61c0,.47-.09,.94-.31,1.42,.83,.38,1.55,.7,2.05,.99l-.34,.68c-.52-.27-1.26-.65-2.05-1.04-.52,.76-1.4,1.46-2.84,2.02-.09-.2-.36-.49-.54-.59,1.35-.5,2.18-1.12,2.67-1.75-.65-.31-1.35-.61-1.94-.86l.38-.58c.59,.25,1.26,.54,1.93,.83,.16-.38,.23-.76,.23-1.12v-.61h-2.32v-.7Zm8.97-3.55v.74h-6.39c-.54,.77-1.13,1.48-1.76,2.02-.14-.14-.49-.41-.7-.54,1.12-.86,2.05-2.09,2.56-3.46l.83,.2c-.13,.36-.29,.7-.49,1.04h5.96Zm-5.64,11.22c1.75,.77,3.91,1.89,5.02,2.7l-.52,.72c-1.12-.83-3.28-2.03-5.02-2.81l.52-.61Zm2.5-8.17c-.34-.47-1.01-1.17-1.57-1.69l.59-.4c.56,.45,1.24,1.15,1.58,1.57l-.61,.52Z" fill="#fff"/>
        <path d="M239.69,72.8c-.31,.9-.67,1.94-.97,2.72h3.13v11.52h-5.13v1.48h-.81v-13h2c.31-.85,.68-2.09,.86-2.93l.92,.22Zm1.33,3.51h-4.3v4.3h4.3v-4.3Zm0,9.92v-4.83h-4.3v4.83h4.3Zm9.67-10.21c-.31,8.35-.56,11.09-1.28,11.94-.34,.4-.7,.52-1.26,.56-.56,.04-1.6,.02-2.59-.05-.04-.27-.13-.61-.29-.85,1.19,.09,2.25,.11,2.65,.11,.36,0,.58-.04,.76-.27,.59-.65,.9-3.44,1.17-11.13h-5.04c-.52,1.28-1.12,2.43-1.76,3.35-.14-.13-.52-.34-.74-.47,1.26-1.64,2.2-4.14,2.75-6.7l.85,.2c-.22,.95-.49,1.91-.81,2.81h5.6v.5Zm-3.51,8.03c-.58-1.1-1.84-2.9-2.92-4.2l.7-.4c1.06,1.3,2.36,3.04,2.93,4.12l-.72,.47Z" fill="#fff"/>
        <path d="M261.47,74.71h-5.4v-.77h5.4v-1.3h.85v3.22h-.85v-1.15Zm-5.26,6.25h15.39v2.88h-.85v-2.14h-13.72v2.14h-.83v-2.88Zm12.01,1.98l.58,.38c-2.12,3.42-7.33,4.99-11.96,5.55-.07-.23-.25-.61-.4-.81,2.25-.23,4.66-.7,6.75-1.51-.74-.67-1.89-1.51-2.92-2.12-.52,.29-1.12,.56-1.75,.79-.14-.2-.4-.47-.58-.59,2.09-.7,3.55-1.75,4.27-2.74l.92,.16c-.25,.34-.52,.65-.85,.95h5.74l.18-.05Zm-10.48-6.68h12.58v3.64h-12.58v-3.64Zm.81,2.94h3.04v-2.23h-3.04v2.23Zm2.9,4.5c-.16,.11-.32,.23-.49,.34,1.1,.63,2.34,1.49,3.02,2.16,1.42-.65,2.65-1.48,3.48-2.5h-6.01Zm.92-4.5h3.15v-2.23h-3.15v2.23Zm9.31-5.26v.77h-5.33v1.17h-.85v-3.24h.85v1.3h5.33Zm-5.38,5.26h3.21v-2.23h-3.21v2.23Z" fill="#fff"/>
        <path d="M280.15,82.98v-5.53c-.86,1.76-2.11,3.44-3.28,4.38-.14-.2-.41-.49-.59-.61,1.39-.97,2.84-3.02,3.67-5.02h-3.28v-.79h3.47v-2.7h.83v2.7h3.04v.79h-3.04v1.22c.68,.45,2.59,1.91,3.08,2.29l-.5,.72c-.47-.47-1.73-1.53-2.58-2.2v4.75h-.83Zm-3.55,4.68c.77-.94,1.4-2.52,1.78-3.67l.72,.31c-.38,1.17-1.01,2.79-1.78,3.76l-.72-.4Zm10.41,.09c.9,0,1.03-.25,1.12-2.11,.2,.18,.54,.29,.81,.34-.14,2.11-.43,2.58-1.87,2.58h-4.03c-1.69,0-2.12-.23-2.12-1.33v-3.11h.85v3.11c0,.43,.2,.52,1.28,.52h3.98Zm-3.26-4.88c.86,.81,1.96,1.96,2.52,2.65l-.63,.49c-.56-.68-1.64-1.87-2.5-2.74l.61-.4Zm7.92-.05h-6.82v-9.2h6.82v9.2Zm-.83-8.43h-5.19v2.03h5.19v-2.03Zm0,2.77h-5.19v2.07h5.19v-2.07Zm0,2.81h-5.19v2.09h5.19v-2.09Zm-.49,3.64c.76,1.13,1.67,2.72,2.12,3.62l-.81,.36c-.43-.92-1.33-2.5-2.07-3.69l.76-.29Z" fill="#fff"/>
        <path d="M7.22,123.71c-.45-.45-1.66-1.53-2.52-2.23v5.35h-.85v-5.26c-.92,1.53-2.2,2.97-3.4,3.76-.09-.2-.31-.54-.45-.74,1.37-.85,2.84-2.5,3.69-4.16H.72v-.79H3.85v-2.02h.85v2.02h3.13v.79h-3.13v.22c.74,.52,2.65,2.05,3.13,2.48l-.61,.58Zm.61-9.97c-1.71,1.96-4.59,3.62-7.11,4.47-.14-.23-.4-.56-.58-.72,2.47-.7,5.2-2.21,6.86-3.98H.88v-.79H7.83v-2.09h.85v2.09h6.97v.79h-6.32c1.82,.97,5.47,3.04,6.39,3.6l-.36,.81c-1.15-.76-4.93-3.08-6.68-4.02v4.5h-.85v-4.66Zm4.74,6.73c1.01,1.62,2.68,3.29,4.05,4.12-.2,.18-.45,.47-.61,.7-1.19-.85-2.57-2.32-3.6-3.82v5.51h-.85v-5.42c-1.06,1.55-2.52,2.97-3.89,3.76-.13-.18-.36-.47-.56-.61,1.57-.83,3.29-2.5,4.3-4.25h-2.97v-.79h3.11v-2.05h.85v2.05h3.51v.79h-3.35Z" fill="#fff"/>
        <path d="M26.26,123.91c-1.22,1.01-3.12,2.05-4.65,2.7-.14-.16-.47-.5-.65-.65,1.57-.58,3.38-1.46,4.48-2.38l.81,.32Zm10.64-6.39v.76h-15.86v-.76h7.56c-.18-.34-.42-.7-.63-1.01l.74-.29c.31,.4,.63,.86,.83,1.3h7.36Zm-2.11-1.39h-11.6v-4.77h11.6v4.77Zm-5.4,6.82v3.04c0,.5-.11,.72-.52,.83-.43,.14-1.19,.14-2.47,.14-.04-.23-.18-.5-.31-.72,1.04,.04,1.89,.04,2.12,.02,.25-.02,.32-.09,.32-.29v-3.02h-4.95v-3.55h10.82v3.55h-5.02Zm4.54-10.91h-9.9v1.33h9.9v-1.33Zm0,2.02h-9.9v1.39h9.9v-1.39Zm-9.51,8.17h9.13v-2.11h-9.13v2.11Zm7.51,1.44c1.67,.61,3.78,1.64,4.86,2.38l-.56,.63c-1.06-.76-3.13-1.82-4.83-2.47l.52-.54Z" fill="#fff"/>
        <path d="M45.67,114.57h2.75v.85h-2.75v1.93c.63,.65,2.34,2.56,2.74,3.06l-.59,.72c-.36-.58-1.39-1.87-2.14-2.75v8.55h-.85v-9.52c-.77,2.34-1.89,4.7-2.97,6.05-.11-.22-.36-.56-.52-.74,1.31-1.57,2.72-4.61,3.38-7.29h-2.99v-.85h3.1v-3.93h.85v3.93Zm11.52-2.81v15.05h-.86v-1.1h-6.19v1.12h-.85v-15.07h7.9Zm-7.06,.83v3.47h6.19v-3.47h-6.19Zm0,7.89h6.19v-3.6h-6.19v3.6Zm6.19,4.43v-3.62h-6.19v3.62h6.19Z" fill="#fff"/>
        <path d="M67.01,110.93c-.45,1.31-1.01,2.61-1.64,3.82v12.26h-.81v-10.82c-.61,1.01-1.28,1.93-1.94,2.7-.09-.18-.36-.59-.54-.76,1.67-1.82,3.21-4.61,4.14-7.42l.79,.22Zm11.25,2.79v.77h-11.33v-.77h11.33Zm-10.23,7.6h8.91v5.62h-.81v-.76h-7.31v.81h-.79v-5.67Zm8.75-4.34h-8.52v-.76h8.52v.76Zm-8.52,1.75h8.52v.76h-8.52v-.76Zm.56,3.35v3.35h7.31v-3.35h-7.31Zm3.58-8.73c-.23-.63-.77-1.62-1.28-2.36l.77-.32c.52,.76,1.06,1.71,1.33,2.32l-.83,.36Z" fill="#fff"/>
        <path d="M84.83,121.3c1.39-.65,2.16-1.53,2.23-2.95-.13,.04-.25,.05-.38,.05-.65,0-1.12-.36-1.12-1.1s.52-1.1,1.12-1.1c.85,0,1.3,.72,1.3,1.84,0,1.89-1.15,3.26-2.84,3.91l-.31-.65Z" fill="#fff"/>
        <path d="M99.47,122.62h-3.37v1.37h-.83v-11.65h4.2v10.28Zm-3.37-9.43v8.59h2.54v-8.59h-2.54Zm14.64,12.41h-8.01v1.37h-.83v-11.2c-.5,.77-1.06,1.49-1.64,2.11-.13-.14-.42-.45-.58-.61,1.64-1.69,2.99-4.32,3.67-6.46l.86,.22c-.32,.94-.76,1.94-1.26,2.92h7.45v.81h-3.49v2.7h3.12v.81h-3.12v2.77h3.12v.81h-3.12v2.95h3.82v.81Zm-4.65-10.86h-3.37v2.7h3.37v-2.7Zm0,3.51h-3.37v2.77h3.37v-2.77Zm-3.37,6.54h3.37v-2.95h-3.37v2.95Zm4.03-11c-.23-.74-.77-1.85-1.22-2.68l.74-.29c.47,.83,1.04,1.93,1.26,2.63l-.77,.34Z" fill="#fff"/>
        <path d="M121.5,113.9c-.38,.85-.83,1.69-1.33,2.48h8.95v9.27c0,.65-.14,.94-.65,1.08-.52,.16-1.51,.16-3.1,.16-.05-.25-.2-.59-.31-.86,1.33,.05,2.45,.04,2.79,.02,.32,0,.41-.11,.41-.41v-2.32h-8.3c-.22,1.33-.7,2.66-1.76,3.71-.11-.2-.4-.54-.59-.68,1.48-1.49,1.66-3.53,1.66-5.26v-3.39c-.95,1.26-2.05,2.38-3.33,3.28-.11-.18-.38-.49-.52-.67,2.27-1.58,4-3.91,5.17-6.41h-4.84v-.83h5.22c.34-.79,.61-1.6,.85-2.41l.85,.2c-.23,.76-.49,1.49-.79,2.21h9.45v.83h-9.81Zm6.77,8.62v-2.3h-8.14v.88c0,.45-.02,.92-.05,1.42h8.19Zm0-5.35h-8.14v2.27h8.14v-2.27Z" fill="#fff"/>
        <path d="M137.68,122.15c-.25,1.57-.63,3.26-.99,4.39-.18-.09-.56-.23-.76-.31,.43-1.13,.74-2.74,.96-4.21l.79,.13Zm3.73-.81c-.05-.31-.14-.68-.25-1.08-3.98,.59-4.46,.7-4.77,.86-.05-.2-.2-.65-.31-.86,.34-.07,.77-.56,1.28-1.21,.31-.34,.99-1.24,1.73-2.36-2.18,.23-2.59,.32-2.83,.43-.04-.2-.18-.61-.27-.85,.27-.05,.59-.45,.97-1.01,.4-.54,1.73-2.65,2.52-4.65l.81,.36c-.86,1.84-1.91,3.69-2.97,5.11l2.27-.23c.49-.76,.95-1.58,1.37-2.4l.79,.41c-1.26,2.21-2.72,4.43-4.2,6.12l3.38-.47c-.22-.67-.47-1.37-.72-1.98l.74-.18c.5,1.21,1.04,2.77,1.24,3.71l-.79,.25Zm-2.03,.67c.22,1.21,.43,2.77,.49,3.84l-.74,.14c-.05-1.06-.27-2.66-.47-3.87l.72-.11Zm1.58-.43c.4,1.03,.85,2.34,1.01,3.21l-.72,.23c-.16-.88-.58-2.21-.95-3.24l.67-.2Zm11.25,4.16v.81h-10.32v-.81h4.9v-4h-3.8v-.79h8.5v.79h-3.83v4h4.56Zm-7.54-5.58c-.38-.94-1.24-2.38-2.2-3.62,.72-1.08,1.5-2.48,1.91-3.33l.81,.23c-.47,.9-1.19,2.14-1.8,3.08,.81,1.1,1.66,2.43,2.05,3.28l-.77,.36Zm7.38-7.72h-9.43v-.81h9.43v.81Zm-3.67,1.03c-.49,.9-1.24,2.12-1.87,3.06,.83,1.08,1.73,2.41,2.14,3.26l-.76,.36c-.41-.94-1.33-2.38-2.32-3.6,.77-1.08,1.58-2.48,2-3.33l.81,.25Zm3.13,0c-.5,.9-1.28,2.12-1.91,3.06,.86,1.06,1.82,2.41,2.25,3.24l-.76,.4c-.43-.94-1.4-2.39-2.43-3.62,.77-1.08,1.6-2.48,2.05-3.33l.79,.25Z" fill="#fff"/>
        <path d="M173.06,121.88v.83h-16.37v-.83h1.84v-9h3.94v-2.23h.81v2.23h3.19v-2.25h.83v2.25h4.11v9h1.66Zm-10.06,1.91c-1.37,1.21-3.57,2.43-5.4,3.22-.14-.2-.43-.49-.61-.65,1.84-.74,4.05-1.98,5.15-3.04l.86,.47Zm-3.62-10.08v3.48h3.1v-3.48h-3.1Zm0,8.17h3.1v-3.87h-3.1v3.87Zm3.91-8.17v3.48h3.19v-3.48h-3.19Zm3.19,4.3h-3.19v3.87h3.19v-3.87Zm.95,5.28c1.95,.94,4,2.12,5.28,3.02l-.74,.59c-1.21-.88-3.17-2.05-5.11-3.04l.58-.58Zm-.13-9.58v3.48h3.24v-3.48h-3.24Zm0,8.17h3.24v-3.87h-3.24v3.87Z" fill="#fff"/>
        <path d="M179.33,121.3c1.39-.65,2.16-1.53,2.23-2.95-.13,.04-.25,.05-.38,.05-.65,0-1.12-.36-1.12-1.1s.52-1.1,1.12-1.1c.85,0,1.3,.72,1.3,1.84,0,1.89-1.15,3.26-2.84,3.91l-.31-.65Z" fill="#fff"/>
        <path d="M205.08,115.23h-5.26v10.07c0,.77-.25,1.04-.76,1.21-.52,.16-1.46,.16-3.24,.14-.04-.22-.2-.59-.34-.86,1.39,.04,2.59,.04,2.93,.02,.36-.02,.5-.13,.5-.49v-9.7c-2.14,3.46-5.85,7.11-9.27,9.02-.13-.23-.4-.56-.61-.76,3.37-1.71,7.04-5.29,9.11-8.64h-8.57v-.86h9.34v-3.75h.9v3.75h5.26v.86Z" fill="#fff"/>
        <path d="M217.1,125.82c0,.54-.13,.79-.52,.94-.41,.14-1.19,.14-2.34,.14-.05-.22-.16-.54-.31-.77,.99,.04,1.78,.02,2.04,0,.25,0,.31-.07,.31-.31v-3.35c-1.39,.77-2.79,1.53-3.92,2.12l-.41-.79c1.13-.47,2.74-1.26,4.34-2.07v-3.96h-4.3v3.87c0,1.67-.2,3.83-1.4,5.33-.11-.2-.42-.5-.59-.61,1.06-1.37,1.19-3.22,1.19-4.72v-4.66h5.94v8.84Zm-1.26-13.88c.99,1.21,2.05,2.84,2.5,3.91l-.74,.38c-.14-.38-.36-.81-.65-1.28-5.1,.4-5.65,.47-6.01,.61-.05-.2-.2-.67-.29-.88,.27-.05,.56-.31,.9-.7,.38-.38,1.64-1.89,2.43-3.35l.86,.34c-.83,1.3-1.76,2.57-2.7,3.55l4.39-.31c-.45-.67-.92-1.37-1.39-1.98l.68-.29Zm-3.06,7.17c1.12,.59,2.54,1.4,3.28,1.93l-.45,.58c-.74-.56-2.16-1.4-3.26-2l.43-.5Zm7.8-.81c-1.26,0-1.64-.41-1.64-1.66v-6.01h.86v2.72h5.13v.79h-5.13v2.54c0,.65,.16,.86,.77,.86h3.73c.4,0,1.06-.02,1.4-.09,.02,.25,.05,.58,.11,.77-.27,.05-.85,.07-1.49,.07h-3.75Zm3.85,7.71c.83,0,.97-.38,1.04-2.47,.22,.14,.56,.27,.81,.32-.14,2.34-.41,2.92-1.8,2.92h-3.58c-1.53,0-1.96-.29-1.96-1.48v-6.32h.86v2.36h5.35v.83h-5.35v3.13c0,.56,.18,.7,1.13,.7h3.49Z" fill="#fff"/>
        <path d="M235.06,124.94c1.13,.52,2.63,.7,4.63,.7,.61,0,6.52,0,7.33-.02-.16,.22-.34,.61-.4,.86h-6.9c-4.18,0-6.27-.72-7.53-3.49-.2,1.57-.56,2.93-1.17,4-.14-.09-.5-.36-.68-.47,1.08-1.8,1.26-4.59,1.33-7.83l.83,.05c-.04,.9-.07,1.76-.13,2.59,.43,1.44,1.01,2.43,1.87,3.1v-7.26h-3.53v-.81h3.35v-2.56h-3.01v-.79h3.01v-2.38h.83v2.38h2.99v.79h-2.99v2.56h3.38v.81h-3.22v2.92h3.08v.81h-3.08v4.03Zm7.09-12.69c-.29,2.94-1.46,4.7-3.56,5.87-.13-.14-.49-.45-.67-.58,2.07-.99,3.1-2.63,3.37-5.29h-2.83v-.79h7.83s0,.29-.02,.43c-.18,3.37-.36,4.61-.74,5.02-.25,.25-.5,.36-.95,.36-.38,.04-1.15,.02-1.94-.04-.02-.23-.11-.54-.23-.77,.83,.09,1.6,.09,1.85,.09,.29,0,.47-.02,.58-.16,.27-.29,.45-1.33,.59-4.14h-3.28Zm-3.02,6.18h6.79v5.51h-6.79v-5.51Zm.83,4.74h5.11v-3.96h-5.11v3.96Z" fill="#fff"/>
        <path d="M255.92,124.92c1.17,.54,2.7,.72,4.7,.72,.56,0,6.28,0,7.08-.02-.16,.22-.32,.61-.38,.86h-6.68c-4.25,0-6.39-.74-7.67-3.66-.2,1.44-.61,2.88-1.33,4.09-.14-.2-.43-.43-.59-.52,1.3-2.21,1.44-5.33,1.42-7.67l.76,.04c0,.77-.02,1.6-.07,2.45,.45,1.49,1.06,2.52,1.96,3.2v-7.02h-3.85v-.81h3.62v-2.74h-2.88v-.79h2.88v-2.39h.83v2.39h2.86v.79h-2.86v2.74h3.28v.81h-3.06v2.77h2.81v.79h-2.81v3.96Zm6.82-4.9c.04,.23,.14,.54,.22,.68-3.21,1.8-3.62,2.05-3.87,2.34-.07-.23-.27-.58-.41-.79,.27-.14,.77-.47,.77-1.17v-7.15h3.64c-.05-1.04-.09-2.16-.11-3.28h.83c0,1.13,.02,2.25,.07,3.28h3.73v.77h-3.69c.13,2.23,.36,4.1,.65,5.58,.79-1.26,1.4-2.68,1.85-4.18l.68,.18c-.54,1.85-1.31,3.56-2.29,5.01,.43,1.55,.95,2.4,1.55,2.4,.32,0,.5-.88,.58-2.86,.18,.16,.47,.34,.67,.4-.14,2.47-.41,3.29-1.33,3.28-.85,0-1.53-.88-2.02-2.41-.92,1.19-1.98,2.14-3.13,2.84-.14-.22-.38-.5-.56-.65,1.28-.68,2.45-1.78,3.42-3.11-.43-1.67-.7-3.91-.85-6.46h-2.88v6.63l2.49-1.31Zm3.75-6.55c-.41-.59-1.24-1.57-1.91-2.25l.63-.38c.65,.72,1.48,1.64,1.91,2.18l-.63,.45Z" fill="#fff"/>
        <path d="M273.58,122.15c-.25,1.57-.63,3.26-.99,4.39-.18-.09-.56-.23-.76-.31,.43-1.13,.74-2.74,.96-4.21l.79,.13Zm3.73-.81c-.05-.31-.14-.68-.25-1.08-3.98,.59-4.46,.7-4.77,.86-.05-.2-.2-.65-.31-.86,.34-.07,.77-.56,1.28-1.21,.31-.34,.99-1.24,1.73-2.36-2.18,.23-2.59,.32-2.83,.43-.04-.2-.18-.61-.27-.85,.27-.05,.59-.45,.97-1.01,.4-.54,1.73-2.65,2.52-4.65l.81,.36c-.86,1.84-1.91,3.69-2.97,5.11l2.27-.23c.49-.76,.95-1.58,1.37-2.4l.79,.41c-1.26,2.21-2.72,4.43-4.2,6.12l3.38-.47c-.22-.67-.47-1.37-.72-1.98l.74-.18c.5,1.21,1.04,2.77,1.24,3.71l-.79,.25Zm-2.03,.67c.22,1.21,.43,2.77,.49,3.84l-.74,.14c-.05-1.06-.27-2.66-.47-3.87l.72-.11Zm1.58-.43c.4,1.03,.85,2.34,1.01,3.21l-.72,.23c-.16-.88-.58-2.21-.95-3.24l.67-.2Zm11.25,4.16v.81h-10.32v-.81h4.9v-4h-3.8v-.79h8.5v.79h-3.83v4h4.56Zm-7.54-5.58c-.38-.94-1.24-2.38-2.2-3.62,.72-1.08,1.49-2.48,1.91-3.33l.81,.23c-.47,.9-1.19,2.14-1.8,3.08,.81,1.1,1.66,2.43,2.05,3.28l-.77,.36Zm7.38-7.72h-9.43v-.81h9.43v.81Zm-3.67,1.03c-.49,.9-1.24,2.12-1.87,3.06,.83,1.08,1.73,2.41,2.14,3.26l-.76,.36c-.41-.94-1.33-2.38-2.32-3.6,.77-1.08,1.58-2.48,2-3.33l.81,.25Zm3.13,0c-.5,.9-1.28,2.12-1.91,3.06,.86,1.06,1.82,2.41,2.25,3.24l-.76,.4c-.43-.94-1.4-2.39-2.43-3.62,.77-1.08,1.6-2.48,2.05-3.33l.79,.25Z" fill="#fff"/>
        <path d="M308.96,121.88v.83h-16.37v-.83h1.84v-9h3.94v-2.23h.81v2.23h3.19v-2.25h.83v2.25h4.11v9h1.66Zm-10.06,1.91c-1.37,1.21-3.57,2.43-5.4,3.22-.14-.2-.43-.49-.61-.65,1.84-.74,4.05-1.98,5.15-3.04l.86,.47Zm-3.62-10.08v3.48h3.1v-3.48h-3.1Zm0,8.17h3.1v-3.87h-3.1v3.87Zm3.91-8.17v3.48h3.19v-3.48h-3.19Zm3.19,4.3h-3.19v3.87h3.19v-3.87Zm.95,5.28c1.95,.94,4,2.12,5.28,3.02l-.74,.59c-1.21-.88-3.17-2.05-5.11-3.04l.58-.58Zm-.13-9.58v3.48h3.24v-3.48h-3.24Zm0,8.17h3.24v-3.87h-3.24v3.87Z" fill="#fff"/>
      </g>
      <g>
        <path d="M21.75,22.41c-.66-.6-2.1-1.83-3.36-2.85v7.83h-2.13v-7.41c-1.44,2.16-3.3,4.14-5.13,5.31-.18-.57-.63-1.44-.96-1.98,2.16-1.26,4.44-3.66,5.85-6.06h-4.77v-1.98h5.01v-3.15h2.13v3.15h4.83v1.98h-4.83v.24c1.2,.81,4.23,3.09,5.01,3.69l-1.65,1.23Zm1.11-16.35c-2.79,3.09-7.08,5.67-11.13,7.05-.33-.57-.93-1.38-1.41-1.77,3.87-1.08,7.95-3.36,10.56-5.97H11.61V3.36h11.25V.21h2.22V3.36h11.28v2.01h-9.48c3.18,1.62,8.49,4.44,9.9,5.28l-.75,2.1c-2.1-1.38-7.89-4.89-10.95-6.54v7.08h-2.22V6.06Zm8.67,11.25c1.68,2.43,4.29,4.95,6.51,6.24-.48,.39-1.17,1.17-1.56,1.74-1.68-1.29-3.72-3.39-5.28-5.61v7.98h-2.1v-7.83c-1.74,2.31-3.96,4.32-6.06,5.55-.3-.51-.93-1.23-1.38-1.59,2.61-1.32,5.43-3.87,7.08-6.48h-4.53v-1.98h4.89v-3.21h2.1v3.21h5.7v1.98h-5.37Z" fill="#fff"/>
        <path d="M49.53,3.75c-.93,1.29-2.01,2.46-3.06,3.36-.3-.39-1.11-1.14-1.56-1.5,1.83-1.38,3.57-3.48,4.59-5.61l1.98,.57c-.24,.48-.48,.93-.75,1.41h7.65v1.77h-5.79c.9,.84,1.98,1.98,2.49,2.7l-1.5,1.17c-.54-.78-1.65-2.01-2.58-2.94l1.41-.93h-2.88Zm5.73,18.15c-1.92,2.19-5.43,4.2-8.52,5.16-.33-.54-.99-1.38-1.5-1.8,3.03-.75,6.45-2.34,8.19-4.14l1.83,.78Zm4.35-3.21h12.27v1.8h-12.27v7.11h-2.16v-7.11h-12.18v-1.8h12.18v-1.59l-.36,.15c-.3-.42-1.02-1.11-1.44-1.38,1.98-.72,3.21-1.59,3.96-2.49-1.05-.48-2.04-.93-2.94-1.32l.84-1.35c.9,.36,1.86,.78,2.82,1.2,.15-.42,.21-.9,.21-1.35v-.99h-3.45v-1.59h10.65v6.24c0,.54,0,.87,.15,.99,.09,.09,.24,.12,.45,.12h.81c.24,0,.45-.03,.57-.12,.15-.06,.24-.27,.33-.6,.06-.36,.09-1.23,.12-2.31,.39,.33,1.02,.63,1.53,.81-.03,1.11-.15,2.34-.3,2.82-.15,.42-.45,.75-.81,.93s-.9,.24-1.35,.24h-1.41c-.6,0-1.23-.12-1.62-.51-.45-.36-.57-.81-.57-2.46v-4.56h-3.21v1.05c0,.69-.09,1.38-.33,2.1,1.14,.54,2.22,1.02,2.97,1.44l-.81,1.56c-.75-.42-1.8-.93-2.91-1.5-.69,.93-1.65,1.83-3.18,2.55h1.44v1.92Zm-14.28-3.6c1.26-.12,2.85-.36,4.59-.6v-4.65h-4.17v-1.65h10.23v1.65h-3.99v4.35l4.05-.63,.09,1.77c-3.72,.6-7.62,1.17-10.47,1.62l-.33-1.86ZM72.12,2.01v1.77h-6.45c.9,.75,1.95,1.83,2.46,2.49l-1.59,1.2c-.54-.75-1.62-1.92-2.52-2.79l1.32-.9h-3.6c-.84,1.26-1.8,2.37-2.79,3.24-.36-.36-1.17-1.02-1.68-1.32,1.8-1.38,3.3-3.45,4.14-5.7l2.04,.54c-.21,.51-.39,.99-.66,1.47h9.33Zm-8.94,18.93c2.73,1.2,6.27,2.97,8.1,4.29l-1.5,1.59c-1.77-1.29-5.28-3.21-8.07-4.44l1.47-1.44Z" fill="#fff"/>
        <path d="M95.43,14.67c2.73,3.84,7.29,7.59,11.46,9.42-.51,.42-1.23,1.29-1.62,1.86-3.96-1.95-8.22-5.67-11.13-9.66v11.34h-2.31v-11.22c-2.91,3.99-7.11,7.56-11.04,9.54-.39-.54-1.11-1.41-1.62-1.83,4.17-1.86,8.7-5.58,11.4-9.45h-10.59v-2.19h11.85V7.32h-9.69v-2.19h9.69V.24h2.31V5.13h9.99v2.19h-9.99v5.16h12.06v2.19h-10.77Z" fill="#fff"/>
        <path d="M128.58,13.68c2.67,4.5,7.68,8.73,12.78,10.65-.57,.48-1.32,1.38-1.65,1.98-4.14-1.83-8.22-5.19-11.13-9.09v10.38h-2.28v-10.29c-2.97,3.81-6.99,7.05-10.98,8.91-.33-.54-1.05-1.41-1.56-1.86,4.83-1.98,9.78-6.12,12.54-10.47V6.57h-11.49v-2.19h11.49V.24h2.28V4.38h11.91v2.19h-11.91v7.11Zm-6.39-6.03c-.3,1.26-.72,2.43-1.17,3.54,1.26,1.11,2.64,2.43,3.39,3.3l-1.53,1.53c-.6-.75-1.71-1.86-2.79-2.91-1.02,1.89-2.31,3.48-3.78,4.71-.39-.39-1.26-1.11-1.77-1.44,2.73-2.04,4.59-5.25,5.46-9.12l2.19,.39Zm14.07-.03c-.24,1.26-.6,2.43-1.02,3.54,1.89,1.47,4.2,3.39,5.4,4.62l-1.59,1.53c-1.02-1.14-2.91-2.82-4.68-4.29-.75,1.38-1.62,2.58-2.64,3.54-.42-.33-1.32-.96-1.86-1.2,2.16-1.86,3.6-4.77,4.26-8.1l2.13,.36Z" fill="#fff"/>
        <path d="M151.41,18.09c2.31-.96,3.63-2.37,3.78-4.41-.18,.03-.33,.03-.51,.03-1.23,0-2.25-.72-2.25-2.13s1.05-2.16,2.28-2.16c1.65,0,2.55,1.35,2.55,3.45,0,3.24-2.04,5.7-5.19,6.81l-.66-1.59Z" fill="#fff"/>
        <path d="M177.33,22.65c-2.04,1.71-5.19,3.42-7.77,4.47-.33-.42-1.14-1.23-1.59-1.62,2.58-.84,5.55-2.22,7.32-3.63l2.04,.78Zm17.31-11.1v1.83h-26.34v-1.83h12.15c-.27-.48-.6-.96-.9-1.35l1.68-.57h-9.54V1.32h19.65V9.63h-9.75c.45,.57,.9,1.29,1.23,1.92h11.82Zm-12,9.51v4.41c0,1.11-.27,1.59-1.14,1.86-.84,.3-2.22,.3-4.35,.3-.09-.57-.39-1.26-.63-1.8,1.53,.06,2.97,.06,3.39,.06,.42-.03,.51-.15,.51-.48v-4.35h-8.04v-6.12h18.39v6.12h-8.13Zm-8.82-16.35h15.33v-1.86h-15.33v1.86Zm0,3.39h15.33v-1.92h-15.33v1.92Zm.72,11.31h14.01v-2.82h-14.01v2.82Zm12.06,2.55c2.7,.96,6.15,2.58,7.95,3.78l-1.5,1.47c-1.68-1.2-5.13-2.91-7.86-3.96l1.41-1.29Z" fill="#fff"/>
        <path d="M211.23,21.99h-5.79v2.4h-2.04V2.4h7.83V21.99Zm-5.79-17.55v6.63h3.75V4.44h-3.75Zm3.75,15.51v-6.9h-3.75v6.9h3.75Zm12.51-3.57c-.69,4.29-2.7,8.25-8.01,11.25-.33-.45-.99-1.26-1.47-1.62,4.71-2.61,6.6-5.97,7.35-9.63h-7.47v-2.13h1.95V5.19h5.97V.27h2.07V5.19h5.7V14.25h1.62v2.13h-7.71Zm-1.83-2.13c.12-1.14,.15-2.28,.15-3.45v-3.51h-3.96v6.96h3.81Zm3.42,3.69c2.19,2.55,4.95,6.09,6.24,8.16l-1.68,1.41c-1.23-2.13-3.93-5.79-6.12-8.4l1.56-1.17Zm-1.2-10.65v3.54c0,1.17-.03,2.31-.12,3.42h3.78V7.29h-3.66Z" fill="#fff"/>
        <path d="M261.78,4.35c-.72,2.13-1.8,3.93-3.21,5.4,1.59,1.38,3.51,2.4,5.73,3-.45,.42-.99,1.14-1.29,1.68-2.25-.75-4.17-1.89-5.79-3.39-1.47,1.2-3.21,2.16-5.13,2.91-.24-.39-.81-1.11-1.23-1.47v.36h-1.77c-.15,.54-.33,.84-.54,1.05-.15,.18-.3,.3-.48,.39,.72-.33,1.41-.66,2.07-1.02l1.35,1.23c-1.68,.78-3.42,1.47-5.16,2.01l5.28-.15c1.32-.6,2.64-1.2,3.87-1.86l1.23,1.38c-3.48,1.74-7.11,3.12-10.74,4.29l11.43-.66c-.66-.54-1.38-1.05-2.01-1.5l1.47-.87c2.01,1.35,4.68,3.36,6.06,4.65l-1.53,1.02c-.54-.54-1.35-1.2-2.22-1.95l-7.38,.48v4.14c0,1.11-.24,1.62-1.14,1.92-.93,.3-2.31,.33-4.44,.33-.12-.6-.45-1.32-.78-1.86,1.74,.09,3.21,.09,3.63,.03,.45-.03,.57-.12,.57-.45v-3.96c-8.4,.57-9.51,.69-10.23,.93-.09-.36-.33-1.29-.51-1.77,.93-.09,2.25-.42,3.93-.96,.84-.27,2.7-.87,4.92-1.74-5.13,.18-5.91,.3-6.39,.45-.06-.39-.33-1.26-.51-1.77,.66-.03,1.41-.21,2.31-.48,.75-.21,2.61-.81,4.53-1.71-.21,.06-.39,.12-.66,.12-.48,0-1.32,0-2.16-.06-.03-.36-.18-.9-.36-1.23,.84,.06,1.56,.09,1.89,.09s.54-.03,.78-.27c.06-.06,.09-.15,.15-.24h-8.58c.18-.99,.36-2.31,.54-3.69h-2.25v-1.35h2.4c.12-1.08,.24-2.19,.33-3.15-.48,.57-.96,1.02-1.47,1.44-.36-.3-1.14-.81-1.62-1.05,1.68-1.23,3.12-3.03,3.96-4.92l1.83,.42c-.18,.39-.36,.75-.57,1.14h9.15v1.44h-10.08c-.27,.42-.6,.84-.93,1.23h10.05s-.03,.51-.06,.75c-.06,1.02-.12,1.92-.18,2.7h1.83v1.35h-1.95c-.09,.96-.21,1.71-.3,2.34h1.44v.96c1.95-.69,3.66-1.59,5.1-2.73-.9-1.05-1.65-2.25-2.28-3.54-.48,.63-.99,1.23-1.53,1.74-.3-.36-1.02-1.08-1.47-1.41,1.74-1.47,3.03-3.78,3.75-6.3l1.92,.36c-.21,.72-.45,1.41-.72,2.1h8.25v1.68h-2.1Zm-15.39,18.9c-1.98,1.5-5.04,2.97-7.53,3.87-.33-.36-1.14-1.14-1.65-1.5,2.61-.75,5.46-1.95,7.23-3.18l1.95,.81Zm-5.43-14.19c-.09,.87-.21,1.68-.3,2.43h4.77c-.72-.51-1.86-1.26-2.76-1.83l.57-.6h-2.28Zm.36-3.42c-.06,.72-.15,1.5-.24,2.25h4.77c-.63-.51-1.8-1.17-2.73-1.68l.57-.57h-2.37Zm6.36,5.85c.12-.63,.24-1.38,.33-2.43h-4.26c.9,.51,2.01,1.2,2.61,1.65l-.66,.78h1.98Zm.45-3.6c.06-.66,.12-1.41,.18-2.25h-4.05c.9,.45,1.86,.99,2.43,1.38l-.69,.87h2.13Zm7.92,14.4c2.46,.84,5.7,2.28,7.41,3.36l-1.68,1.29c-1.59-1.08-4.8-2.58-7.32-3.48l1.59-1.17Zm-1.26-17.85c.6,1.5,1.44,2.85,2.49,4.02,1.08-1.17,1.92-2.49,2.46-4.11h-4.92l-.03,.09Z" fill="#fff"/>
        <path d="M286.02,19.26v2.52h10.77v1.89h-10.77v3.99h-2.19v-3.99h-10.68v-1.89h10.68v-2.52h-12.18v-1.98h12.18v-7.92h-11.43v-1.89h25.32v1.89h-11.7v7.92h12.42v1.98h-12.42Zm-7.29-14.88h-6.81v-1.98h6.81V.24h2.16V2.4h3.54v1.98h-3.54v2.28h-2.16v-2.28Zm.06,5.79v2.13h3.63v1.95h-3.63v2.28h-2.07v-2.28h-4.29v-1.95h4.29v-2.13h2.07Zm10.2-5.79h-3.45v-1.98h3.45V.24h2.16V2.4h6.93v1.98h-6.93v2.28h-2.16v-2.28Zm2.34,12.15v-2.37h-3.72v-1.95h3.72v-2.04h2.07v2.04h4.17v1.95h-4.17v2.37h-2.07Z" fill="#fff"/>
      </g>
      <g>
        <text transform="translate(107.93 206.48)" fill="#fff" font-size="20" letter-spacing=".05em"><tspan x="0" y="0">MORE</tspan></text>
        <rect x="109.97" y="218.08" width="54.19" height="2.13" fill="url(#_未命名漸層_6)"/>
      </g>
    </g>
  </g>
</svg>