<?xml version="1.0" encoding="UTF-8"?>
<svg id="_圖層_2" data-name="圖層 2" xmlns="http://www.w3.org/2000/svg" viewBox="0 0 1114.23 205.63">
  <g id="pic">
    <g>
      <path d="M25.51,128.54c3.8,4.6,8.07,8.18,12.81,10.77,4.74,2.58,10.12,3.88,16.15,3.88,8.04,0,14.5-2.22,19.38-6.67,4.88-4.45,7.32-10.12,7.32-17.01s-1.58-12.13-4.74-16.15c-3.16-4.02-7.29-7.28-12.38-9.8-5.1-2.51-10.52-4.77-16.26-6.78-3.73-1.29-7.9-2.98-12.49-5.06-4.6-2.08-8.97-4.74-13.13-7.97-4.17-3.23-7.57-7.21-10.23-11.95-2.66-4.74-3.98-10.55-3.98-17.44,0-7.46,1.86-14.14,5.6-20.02,3.73-5.88,8.9-10.51,15.5-13.89,6.6-3.37,14.14-5.06,22.61-5.06s15.32,1.54,21.42,4.63c6.1,3.09,11.3,7.03,15.61,11.84,4.31,4.81,7.68,9.87,10.12,15.18l-15.72,9.04c-1.87-3.73-4.24-7.39-7.11-10.98-2.87-3.59-6.35-6.53-10.44-8.83-4.09-2.29-9.08-3.45-14.96-3.45-8.18,0-14.14,1.97-17.87,5.92-3.73,3.95-5.6,8.36-5.6,13.24,0,4.17,1.08,8,3.23,11.52,2.15,3.52,5.78,6.82,10.87,9.9,5.09,3.09,12.02,6.14,20.78,9.15,4.02,1.44,8.25,3.3,12.7,5.6,4.45,2.3,8.58,5.2,12.38,8.72,3.8,3.52,6.92,7.75,9.37,12.7,2.44,4.95,3.66,10.87,3.66,17.76s-1.26,12.56-3.77,17.87c-2.51,5.31-5.96,9.83-10.33,13.56-4.38,3.73-9.33,6.6-14.86,8.61-5.53,2.01-11.3,3.01-17.33,3.01-8.18,0-15.75-1.76-22.72-5.28-6.96-3.52-13.06-8.18-18.3-14-5.24-5.81-9.51-12.02-12.81-18.62l14.64-9.9c3.45,6.03,7.07,11.34,10.87,15.93Z" fill="#e6e6e6"/>
      <path d="M156.1,7.54V158.26h-18.3V7.54h18.3Zm-8.18,0h76.01V24.76h-76.01V7.54Zm0,60.29h71.7v17.23h-71.7v-17.23Zm0,73.21h76.01v17.23h-76.01v-17.23Z" fill="#e6e6e6"/>
      <path d="M399.4,7.54V165.79l-114.12-119.71v112.18h-18.3V0l114.12,119.71V7.54h18.3Z" fill="#e6e6e6"/>
      <path d="M645.82,186.35c2.94,1.36,6.35,2.05,10.23,2.05,3.3,0,6.57-1.47,9.8-4.41,3.23-2.94,4.84-7.93,4.84-14.96V7.54h17.22V171.18c0,5.88-.75,10.98-2.26,15.29s-3.7,7.89-6.57,10.77c-2.87,2.87-6.35,4.99-10.44,6.35-4.09,1.36-8.65,2.05-13.67,2.05-3.73,0-7.35-.61-10.87-1.83-3.52-1.22-6.53-2.66-9.04-4.31-2.51-1.65-4.34-3.2-5.49-4.63l9.47-14.21c1.58,2.44,3.84,4.34,6.78,5.71Z" fill="#e6e6e6"/>
      <path d="M751.43,7.54V158.26h-18.3V7.54h18.3Z" fill="#e6e6e6"/>
      <path d="M929.06,7.54V165.79l-114.12-119.71v112.18h-18.3V0l114.12,119.71V7.54h18.3Z" fill="#e6e6e6"/>
      <path d="M1044.26,81.82h69.98c0,10.48-1.58,20.42-4.74,29.82-3.16,9.4-7.83,17.76-14,25.08-6.17,7.32-13.75,13.1-22.72,17.33-8.97,4.23-19.2,6.35-30.68,6.35s-21.03-1.9-30.36-5.71c-9.33-3.8-17.44-9.18-24.33-16.15-6.89-6.96-12.24-15.18-16.04-24.65-3.8-9.47-5.71-19.81-5.71-31.01s1.9-21.53,5.71-31.01c3.8-9.47,9.15-17.69,16.04-24.65,6.89-6.96,15-12.34,24.33-16.15,9.33-3.8,19.45-5.71,30.36-5.71,9.33,0,17.91,1.22,25.73,3.66,7.82,2.44,14.86,6.03,21.1,10.77s11.52,10.62,15.83,17.66l-12.92,11.84c-4.74-8.04-11.34-14.32-19.81-18.84-8.47-4.52-18.45-6.78-29.93-6.78-10.62,0-20.24,2.51-28.85,7.54-8.61,5.03-15.47,11.95-20.56,20.78-5.1,8.83-7.64,19.13-7.64,30.9s2.55,21.89,7.64,30.79c5.09,8.9,11.95,15.86,20.56,20.89,8.61,5.03,18.23,7.54,28.85,7.54,7.46,0,14.17-1.11,20.13-3.34,5.95-2.22,11.09-5.35,15.39-9.37,4.31-4.02,7.86-8.61,10.66-13.78,2.8-5.17,4.84-10.69,6.14-16.58h-50.17v-17.23Z" fill="#e6e6e6"/>
    </g>
  </g>
</svg>