<?xml version="1.0" encoding="UTF-8"?>
<svg id="_圖層_2" data-name="圖層 2" xmlns="http://www.w3.org/2000/svg" viewBox="0 0 318.02 106.69">
  <g id="pic">
    <g>
      <g>
        <path d="M123.88,10.9l.94,.5c-.32,.69-.72,1.39-1.21,2.09-.49,.7-1.01,1.34-1.58,1.93-.57,.59-1.14,1.06-1.71,1.42-.07-.19-.17-.41-.3-.67-.13-.26-.26-.48-.38-.65,.55-.32,1.09-.73,1.63-1.22,.54-.49,1.04-1.04,1.49-1.63s.83-1.18,1.12-1.77Zm3.74-8.34l1.24,.52c-.6,.81-1.34,1.58-2.22,2.3-.88,.72-1.83,1.36-2.85,1.92-1.02,.56-2.05,1.01-3.09,1.36-.07-.12-.15-.25-.26-.4-.11-.15-.22-.29-.34-.44-.12-.15-.23-.27-.34-.36,1.01-.28,2.02-.67,3.01-1.16,.99-.49,1.92-1.06,2.77-1.7,.85-.64,1.55-1.32,2.08-2.04Zm-7.24,7.56h8.02v1.34h-8.02v-1.34Zm.24-8h16.64v1.36h-16.64v-1.36Zm3.12,5.86h1.42v10.3h-1.42V7.98Zm1.26,3.54c.17,.11,.42,.27,.75,.5,.33,.23,.68,.48,1.06,.76,.38,.28,.73,.54,1.04,.78,.31,.24,.54,.42,.69,.54l-1.12,.84c-.17-.17-.41-.39-.71-.65-.3-.26-.63-.53-.98-.82-.35-.29-.69-.55-1.01-.8-.32-.25-.58-.44-.78-.57l1.06-.58Zm7.42-.54l1.08,.44c-.37,.73-.84,1.45-1.41,2.15s-1.18,1.34-1.83,1.92-1.31,1.06-1.96,1.43c-.11-.16-.25-.35-.44-.57-.19-.22-.35-.39-.5-.51,.64-.32,1.28-.73,1.92-1.24,.64-.51,1.24-1.07,1.79-1.7,.55-.63,1-1.27,1.35-1.92Zm-4.26-10.98h1.52V8.8h-1.52V0Zm.92,10.16h8.52v1.34h-8.52v-1.34Zm.56-7.3c.31,.15,.73,.36,1.28,.63,.55,.27,1.15,.58,1.81,.93,.66,.35,1.31,.69,1.96,1.03,.65,.34,1.23,.65,1.74,.93,.51,.28,.89,.49,1.13,.62l-.54,1.42c-.31-.2-.72-.46-1.23-.78-.51-.32-1.08-.66-1.7-1.03s-1.25-.73-1.88-1.1c-.63-.37-1.22-.7-1.76-1.01s-.99-.55-1.35-.74l.54-.9Zm2.72,5.12h1.42v10.46h-1.42V7.98Zm1.36,3.04c.35,.59,.78,1.18,1.3,1.78,.52,.6,1.08,1.15,1.67,1.65,.59,.5,1.16,.9,1.71,1.21-.17,.15-.36,.33-.57,.56-.21,.23-.38,.43-.51,.62-.52-.39-1.07-.88-1.64-1.47-.57-.59-1.12-1.23-1.63-1.91-.51-.68-.94-1.35-1.29-2.02l.96-.42Z" fill="#333"/>
        <path d="M148.78,14.54l1.36,.56c-.44,.37-.96,.74-1.55,1.11-.59,.37-1.2,.71-1.83,1.03-.63,.32-1.23,.6-1.8,.84-.08-.09-.19-.21-.33-.35-.14-.14-.28-.28-.41-.41-.13-.13-.26-.24-.38-.32,.59-.2,1.18-.43,1.79-.69,.61-.26,1.18-.54,1.73-.84,.55-.3,1.02-.61,1.42-.93Zm-4.7-6.94h17.7v1.24h-17.7v-1.24Zm2.28-6.86h13.2V6.34h-13.2V.74Zm.46,9.16h12.36v4.12h-12.36v-4.12Zm.98-8.14v1.26h10.26V1.76h-10.26Zm0,2.26v1.28h10.26v-1.28h-10.26Zm.46,7v1.9h9.42v-1.9h-9.42Zm3.94,2.38h1.52v3.58c0,.36-.05,.64-.16,.83-.11,.19-.31,.33-.62,.41-.28,.09-.66,.15-1.14,.17-.48,.02-1.07,.03-1.78,.03-.03-.19-.08-.39-.17-.61-.09-.22-.18-.42-.29-.59,.35,.01,.68,.02,.99,.03,.31,0,.59,0,.83,0,.24,0,.4-.01,.48-.01,.15-.01,.24-.04,.28-.08s.06-.11,.06-.22v-3.54Zm-.58-6.7l1.32-.44c.23,.25,.44,.54,.63,.87,.19,.33,.34,.62,.43,.87l-1.4,.52c-.07-.25-.19-.55-.38-.9-.19-.35-.39-.65-.6-.92Zm3.8,8.8l.96-.88c.61,.21,1.25,.47,1.92,.76,.67,.29,1.3,.59,1.91,.9,.61,.31,1.12,.6,1.53,.88l-1.02,.98c-.39-.27-.88-.56-1.47-.88-.59-.32-1.23-.64-1.9-.95-.67-.31-1.32-.58-1.93-.81Z" fill="#333"/>
        <path d="M168.98,16.82V2.16h2.22l2.8,7.84c.19,.49,.37,1,.54,1.52,.17,.52,.35,1.03,.52,1.54h.08c.19-.51,.36-1.02,.53-1.54s.33-1.03,.49-1.52l2.8-7.84h2.22v14.66h-1.72V8.7c0-.43,.01-.89,.04-1.39,.03-.5,.06-1.01,.1-1.52s.07-.98,.1-1.41h-.08l-1.18,3.34-2.76,7.62h-1.24l-2.78-7.62-1.18-3.34h-.08c.05,.43,.1,.9,.13,1.41,.03,.51,.06,1.02,.08,1.52,.02,.5,.03,.96,.03,1.39v8.12h-1.66Z" fill="#333"/>
        <path d="M188.96,16.82v-1.52h3.28V4.78h-2.62v-1.16c.65-.12,1.22-.27,1.71-.44,.49-.17,.93-.38,1.33-.62h1.4V15.3h2.94v1.52h-8.04Z" fill="#333"/>
      </g>
      <g>
        <path d="M39.05,61.64l.61,.29c-.29,.66-.65,1.31-1.1,1.96-.44,.65-.92,1.24-1.43,1.78-.51,.54-1.02,.98-1.54,1.31-.05-.11-.12-.23-.21-.38s-.17-.26-.24-.36c.49-.3,.99-.7,1.49-1.19s.97-1.03,1.39-1.62,.76-1.19,1.03-1.8Zm3.56-7.06l.72,.34c-.55,.71-1.24,1.38-2.06,2.02-.82,.64-1.7,1.2-2.65,1.69-.94,.49-1.87,.89-2.78,1.19-.04-.07-.09-.15-.16-.23s-.14-.17-.21-.25c-.07-.08-.13-.16-.21-.22,.91-.26,1.83-.62,2.76-1.08s1.8-.98,2.6-1.58c.8-.59,1.46-1.22,1.98-1.88Zm-6.75,6.7h7.11v.81h-7.11v-.81Zm.16-6.97h14.81v.81h-14.81v-.81Zm2.99,4.95h.85v9.23h-.85v-9.23Zm.7,2.92c.14,.11,.37,.28,.67,.51,.31,.23,.64,.49,.99,.77,.35,.28,.68,.54,.97,.78,.29,.25,.51,.43,.64,.55l-.63,.56c-.14-.14-.36-.35-.64-.6-.28-.26-.59-.53-.93-.82s-.65-.55-.95-.8c-.3-.25-.53-.43-.7-.55l.58-.4Zm7.09-.5l.65,.29c-.32,.67-.74,1.33-1.25,1.97s-1.06,1.23-1.64,1.76c-.58,.53-1.16,.97-1.74,1.31-.07-.1-.16-.21-.27-.33-.11-.13-.21-.23-.31-.3,.58-.3,1.15-.7,1.73-1.19s1.11-1.04,1.6-1.65,.9-1.23,1.22-1.86Zm-3.83-9.43h.86v7.79h-.86v-7.79Zm.81,2.5c.26,.13,.64,.33,1.13,.59,.49,.26,1.04,.56,1.63,.9,.59,.34,1.18,.67,1.77,.99,.59,.32,1.11,.62,1.58,.89s.8,.47,1.02,.6l-.36,.83c-.26-.17-.63-.4-1.09-.68-.46-.29-.98-.6-1.54-.95-.56-.34-1.13-.69-1.71-1.04-.58-.35-1.11-.66-1.6-.94-.49-.28-.89-.5-1.19-.64l.36-.56Zm-.18,6.57h7.49v.79h-7.49v-.79Zm3.13-2.05h.83v9.38h-.83v-9.38Zm.76,2.43c.32,.59,.73,1.18,1.21,1.76,.49,.59,1,1.12,1.54,1.61s1.06,.88,1.57,1.18c-.1,.08-.2,.19-.32,.32-.11,.13-.21,.25-.3,.36-.49-.35-1.01-.79-1.55-1.33s-1.06-1.12-1.55-1.76c-.49-.63-.9-1.26-1.22-1.88l.61-.27Z" fill="#333"/>
        <path d="M60.6,65.24l.79,.32c-.4,.34-.86,.67-1.39,1-.53,.33-1.07,.64-1.64,.94-.56,.29-1.1,.55-1.62,.77-.04-.06-.1-.13-.18-.22s-.17-.17-.24-.25-.15-.15-.22-.2c.53-.19,1.06-.41,1.61-.67,.55-.25,1.07-.52,1.57-.81s.94-.58,1.31-.88Zm-4.41-6.1h15.91v.76h-15.91v-.76Zm2.14-6.17h11.65v4.79h-11.65v-4.79Zm.41,8.08h10.85v3.56h-10.85v-3.56Zm.43-7.4v1.35h9.94v-1.35h-9.94Zm0,2.03v1.37h9.94v-1.37h-9.94Zm.41,6.08v2.12h9.14v-2.12h-9.14Zm4.1,2.38h.86v3.49c0,.25-.04,.44-.11,.58-.07,.13-.22,.22-.43,.27-.22,.06-.52,.1-.92,.12-.4,.02-.91,.03-1.55,.03-.02-.12-.06-.24-.12-.37s-.11-.25-.17-.37c.35,.01,.67,.02,.95,.03,.29,0,.53,0,.74,0,.2,0,.35,0,.43,0,.12-.01,.2-.04,.24-.08,.04-.04,.06-.11,.06-.21v-3.47Zm-.58-6.01l.76-.29c.19,.23,.37,.48,.55,.77,.17,.28,.3,.54,.37,.78l-.81,.31c-.07-.22-.19-.47-.34-.77-.16-.3-.33-.56-.52-.79Zm3.44,7.74l.56-.54c.56,.19,1.15,.43,1.75,.71,.61,.28,1.19,.57,1.74,.85s1.01,.56,1.37,.81l-.56,.63c-.36-.25-.81-.52-1.35-.82s-1.12-.59-1.74-.88c-.62-.29-1.21-.55-1.77-.76Z" fill="#333"/>
        <path d="M80.85,58.61h.18l.18-.04,.5,.14c-.31,2.48-.85,4.54-1.61,6.17s-1.7,2.86-2.8,3.72c-.04-.06-.1-.13-.18-.2-.08-.07-.17-.15-.25-.22-.08-.08-.16-.14-.23-.19,1.09-.8,2-1.97,2.74-3.49,.73-1.52,1.22-3.43,1.48-5.71v-.18Zm-3.78-5.17h4.12v.81h-4.12v-.81Zm.58,6.39c-.01-.06-.04-.14-.09-.23-.05-.1-.1-.19-.14-.29-.05-.1-.1-.17-.14-.23,.16-.04,.33-.15,.52-.33,.19-.19,.37-.42,.54-.69,.13-.17,.34-.49,.64-.96,.29-.47,.61-1.02,.95-1.65,.34-.62,.63-1.25,.88-1.89v-.07l.36-.2,.61,.38c-.54,1.09-1.1,2.13-1.69,3.12-.59,.99-1.17,1.84-1.73,2.55v.02c-.13,.06-.25,.11-.34,.16-.1,.05-.18,.1-.25,.16-.07,.06-.11,.11-.11,.16Zm.52,1.3c.37,1.3,.86,2.35,1.46,3.16,.6,.81,1.31,1.43,2.12,1.87,.82,.44,1.73,.74,2.75,.9,1.02,.16,2.12,.24,3.31,.24h4.5c.36,0,.61,0,.76-.02-.05,.06-.1,.14-.14,.24-.05,.1-.09,.2-.13,.31s-.07,.19-.08,.28h-4.9c-1.31,0-2.5-.09-3.59-.27-1.09-.18-2.06-.51-2.92-.99s-1.61-1.15-2.25-2.02c-.64-.87-1.16-2.01-1.58-3.41l.7-.29Zm.09-2.52h2.88v.79h-3.08l.2-.79Zm3.47-2.32h11.11v.76h-11.11v-.76Zm.16,7.38h10.82v.76h-10.82v-.76Zm.79-2.47h9.29v.74h-9.29v-.74Zm.32-7.29h8.44v5.6h-8.6v-.76h7.78v-4.1h-7.61v-.74Zm3.55-1.67h.85v14.31h-.85v-14.31Z" fill="#333"/>
        <path d="M97.48,55.35h6.75v.77h-6.75v-.77Zm.74,6.98h.81v6.03h-.81v-6.03Zm.02-4.68h5.22v.76h-5.22v-.76Zm0,2.32h5.24v.76h-5.24v-.76Zm.36,2.36h4.86v5.13h-4.86v-.79h4.05v-3.56h-4.05v-.77Zm.94-9.77l.68-.38c.28,.35,.55,.73,.82,1.15,.27,.42,.48,.79,.62,1.12l-.74,.45c-.14-.32-.35-.71-.61-1.15-.26-.44-.52-.84-.77-1.19Zm12.2,7.72h.18l.16-.05,.54,.27c-.35,1.1-.82,2.09-1.42,2.97-.6,.88-1.29,1.65-2.07,2.32-.78,.67-1.61,1.24-2.49,1.71-.88,.47-1.79,.85-2.71,1.13-.02-.07-.07-.16-.13-.26-.06-.1-.12-.2-.18-.29-.06-.09-.13-.17-.2-.22,.88-.25,1.74-.59,2.59-1.03,.85-.43,1.65-.96,2.4-1.57s1.41-1.33,1.98-2.14c.57-.81,1.02-1.7,1.34-2.67v-.16Zm-5.78-7.34h.83v2.02c0,.52-.07,1.06-.2,1.62s-.38,1.12-.75,1.66-.89,1.03-1.58,1.46c-.05-.06-.1-.13-.17-.21-.07-.08-.14-.16-.22-.24s-.14-.14-.19-.18c.64-.41,1.12-.84,1.45-1.31,.33-.46,.55-.94,.66-1.42s.16-.94,.16-1.38v-2.02Zm-1.85,7.34h7.94v.83h-7.94v-.83Zm1.64,.76c.44,1.12,1.05,2.13,1.82,3.04,.77,.91,1.68,1.69,2.74,2.32,1.06,.64,2.23,1.11,3.51,1.42-.06,.06-.13,.13-.2,.23-.07,.09-.14,.18-.2,.28-.06,.1-.12,.19-.18,.27-1.94-.52-3.62-1.41-5.03-2.67-1.41-1.27-2.48-2.81-3.2-4.64l.74-.25Zm.4-8.1h4.59v.83h-4.59v-.83Zm4.16,0h.83v4.32c0,.25,.02,.42,.05,.51,.04,.09,.11,.14,.23,.14h1.3c.11,0,.23,0,.36-.02,.13-.01,.26-.03,.38-.05,.01,.12,.02,.26,.04,.41,.01,.16,.02,.29,.04,.4-.08,.01-.2,.03-.35,.04-.15,.02-.3,.03-.44,.03h-1.35c-.3,0-.53-.05-.67-.14-.15-.09-.25-.24-.32-.46-.06-.22-.09-.51-.09-.88v-4.3Z" fill="#333"/>
        <path d="M120.3,63.58l-.31-.65c.73-.35,1.29-.77,1.67-1.26,.38-.49,.57-1.13,.57-1.91l-.45-1.37,.97,1.22c-.13,.17-.28,.28-.43,.33-.16,.05-.31,.08-.47,.08-.32,0-.59-.09-.8-.27-.21-.18-.31-.46-.31-.83s.11-.66,.34-.84c.23-.17,.49-.26,.77-.26,.42,0,.74,.17,.96,.5,.22,.34,.33,.78,.33,1.33,0,.95-.26,1.76-.78,2.42-.52,.67-1.21,1.16-2.06,1.48Z" fill="#333"/>
        <path d="M129.97,54.78h15.98v.83h-15.98v-.83Zm2.21,2.83h11.59v11h-.9v-10.19h-9.81v10.19h-.88v-11Zm.67,2.99h10.3v.77h-10.3v-.77Zm0,3.02h10.3v.74h-10.3v-.74Zm0,3.04h10.37v.81h-10.37v-.81Zm.45-14.11l.74-.32c.34,.32,.66,.69,.97,1.09,.31,.4,.55,.75,.72,1.05l-.81,.41c-.16-.31-.39-.68-.69-1.1-.31-.42-.62-.8-.93-1.13Zm4.25,2.57l1.03,.14c-.16,.49-.31,1.01-.47,1.55-.16,.54-.31,1-.45,1.39l-.85-.16c.1-.26,.19-.57,.29-.92,.1-.35,.18-.7,.26-1.05,.08-.35,.14-.67,.19-.94Zm4.34-2.88l.92,.31c-.31,.46-.65,.92-1.03,1.4s-.73,.9-1.06,1.26l-.72-.31c.2-.24,.43-.52,.67-.83s.47-.63,.68-.95c.22-.32,.4-.62,.54-.88Z" fill="#333"/>
        <path d="M151.39,54.85h.79v5.56c0,.58-.02,1.2-.04,1.86-.03,.67-.08,1.35-.16,2.04-.08,.7-.2,1.37-.35,2.03-.16,.65-.36,1.26-.61,1.83-.04-.05-.1-.1-.18-.16-.08-.06-.17-.12-.25-.18-.08-.06-.16-.1-.23-.13,.32-.71,.56-1.49,.7-2.34,.14-.85,.24-1.71,.28-2.57,.04-.86,.06-1.66,.06-2.38v-5.56Zm.43,0h7.38v.7h-7.38v-.7Zm.81,1.93l5.22-.5,.07,.59-5.2,.52-.09-.61Zm0,2.47h6.55v.63h-6.55v-.63Zm.02,4.14h6.08v.67h-5.36v4.32h-.72v-4.99Zm.76-2.83h4.95v2.18h-4.95v-2.18Zm.43,4.95h4.03v.61h-4.03v-.61Zm.2-1.17l.52-.27c.2,.24,.41,.51,.6,.81,.2,.3,.34,.56,.42,.79l-.52,.34c-.1-.24-.24-.52-.42-.83-.19-.31-.39-.59-.6-.85Zm.07-3.19v.97h3.55v-.97h-3.55Zm.49-8.91h.83v2.95h-.83v-2.95Zm0,3.2h.68v2.02c0,.22,.02,.36,.07,.43,.05,.07,.15,.11,.31,.11h2.16c.14,0,.31,0,.5,0,.19,0,.34-.02,.48-.05,.01,.1,.02,.2,.03,.32,0,.12,.01,.22,.03,.31-.08,.02-.22,.04-.41,.04-.19,0-.39,0-.59,0h-2.21c-.43,0-.71-.09-.84-.26s-.19-.48-.19-.91v-2.02Zm.4-2.18h4.1v.67h-4.1v-.67Zm.49,12.4h.68v2.57h-.68v-2.57Zm1.62-1.58l.58,.27c-.19,.3-.4,.59-.62,.87-.22,.28-.43,.52-.62,.73l-.5-.23c.2-.23,.42-.5,.64-.83s.4-.59,.53-.81Zm1.3-.7h.74v4.1c0,.19-.02,.34-.07,.44-.05,.1-.14,.19-.29,.26-.16,.06-.36,.1-.62,.12s-.58,.03-.96,.03c-.02-.11-.06-.22-.11-.34-.05-.12-.1-.23-.16-.32,.32,.01,.6,.02,.82,.02h.46c.13-.01,.2-.08,.2-.2v-4.1Zm.58-8.53h.14l.14-.05,.52,.18c-.11,.32-.22,.66-.34,1.01-.12,.35-.23,.65-.34,.9l-.68-.14c.1-.25,.2-.54,.3-.85,.1-.32,.19-.62,.26-.91v-.13Zm3.37-2.52h.85v4.32c0,.84-.03,1.76-.09,2.76-.06,1-.2,2.04-.42,3.1-.22,1.07-.56,2.12-1.03,3.17s-1.1,2.02-1.92,2.93c-.04-.06-.09-.13-.17-.2-.08-.07-.16-.14-.24-.22-.08-.07-.16-.13-.23-.18,.79-.85,1.41-1.77,1.85-2.76,.44-.99,.76-2,.96-3.02,.2-1.03,.32-2.02,.37-2.97s.07-1.83,.07-2.62v-4.32Zm-2.92,4.99h7.33v.83h-7.33v-.83Zm3.91,.38c.16,1.49,.38,2.89,.66,4.21,.28,1.32,.65,2.5,1.11,3.53,.46,1.03,1.03,1.87,1.71,2.5-.06,.06-.13,.13-.22,.21-.08,.08-.16,.16-.23,.24-.07,.08-.14,.16-.2,.23-.68-.72-1.27-1.62-1.75-2.71-.48-1.09-.86-2.32-1.15-3.69s-.52-2.85-.68-4.42l.76-.11Zm.7-4.48l.67-.32c.4,.37,.79,.8,1.18,1.28,.39,.48,.68,.91,.86,1.28l-.7,.4c-.17-.37-.44-.81-.82-1.3-.38-.5-.77-.94-1.18-1.32Z" fill="#333"/>
        <path d="M171.33,65.11h16.02v.68h-16.02v-.68Zm2.59-7.29h.68c-.06,.42-.19,.78-.4,1.08-.2,.3-.49,.54-.86,.73-.37,.19-.84,.35-1.41,.48-.04-.07-.1-.16-.18-.28s-.17-.2-.25-.26c.54-.11,.97-.23,1.3-.37,.32-.14,.58-.32,.76-.55,.18-.23,.3-.5,.36-.83Zm-2.39-4.25h7.52v.72h-7.52v-.72Zm.09,8.62c.62-.04,1.35-.08,2.17-.13,.82-.05,1.7-.11,2.64-.18,.94-.07,1.88-.13,2.84-.21v.63c-.91,.07-1.82,.14-2.74,.22-.91,.07-1.78,.14-2.6,.21s-1.56,.12-2.21,.17l-.11-.7Zm.05-4.72h7.61v.65h-7.61v-.65Zm.68,2.83h6.44v.63h-6.44v-.63Zm.43,8.35c-.02-.1-.06-.22-.11-.38s-.1-.29-.14-.4c.16-.02,.34-.07,.55-.14,.21-.07,.44-.17,.69-.29,.19-.08,.49-.24,.91-.47,.41-.23,.88-.5,1.39-.83,.51-.32,.99-.67,1.45-1.03l.85,.36c-.82,.6-1.64,1.13-2.46,1.58-.82,.46-1.63,.84-2.42,1.15v.04c-.14,.05-.26,.09-.36,.13-.1,.04-.18,.08-.24,.13-.07,.05-.1,.1-.1,.14Zm-.22-12.67h5.89v.65h-5.89v-.65Zm.22,12.67v-.56l.7-.34,11.18-.56c.02,.11,.05,.22,.07,.35,.02,.13,.05,.23,.09,.3-1.78,.11-3.29,.19-4.54,.26-1.25,.07-2.31,.12-3.16,.17-.85,.05-1.54,.09-2.08,.13-.53,.04-.95,.07-1.24,.1s-.51,.06-.66,.08c-.14,.02-.26,.05-.36,.07Zm.81-5.33h11.57v.68h-11.57v-.68Zm1.57-8.01h.77v2.57h-.77v-2.57Zm0,4.03h.77v2.97h-.77v-2.97Zm.72-7.11h.85v3.02h-.85v-3.02Zm.29,5.49h.67v.88c0,.2,.01,.34,.04,.41s.1,.1,.22,.1h1.31c.1,0,.21,0,.35-.02,.14-.01,.26-.03,.37-.05,.01,.1,.02,.2,.04,.31,.01,.11,.02,.21,.04,.3-.08,.02-.2,.04-.35,.04-.15,0-.3,0-.44,0h-1.39c-.37,0-.61-.08-.71-.24-.1-.16-.15-.45-.15-.87v-.86Zm5.83-2.25h.74v1.64c0,.46-.03,.94-.1,1.44-.07,.5-.21,1.02-.42,1.54s-.54,1.03-.97,1.53c-.43,.5-1.01,.96-1.73,1.4-.05-.08-.13-.18-.24-.28-.11-.1-.22-.19-.31-.26,.68-.41,1.23-.84,1.64-1.3s.71-.92,.91-1.4,.33-.95,.4-1.4c.07-.46,.1-.88,.1-1.28v-1.62Zm-2.3-1.91h7.52v.72h-7.52v-.72Zm.02,5.26l.49-.52c.46,.18,.92,.41,1.39,.68s.92,.56,1.32,.85,.74,.57,.99,.85l-.52,.59c-.24-.28-.56-.56-.96-.86s-.84-.59-1.31-.86c-.47-.28-.94-.52-1.4-.72Zm.07-2.05h5.2v.72h-5.2v-.72Zm1.91,9.67l.59-.45c.53,.2,1.07,.45,1.62,.74,.55,.29,1.08,.58,1.58,.89,.5,.31,.9,.59,1.21,.85l-.59,.5c-.32-.26-.73-.55-1.22-.86-.49-.31-1.02-.62-1.58-.92-.56-.3-1.09-.55-1.61-.76Zm.22-14.2h.85v3.02h-.85v-3.02Zm2.66,4.54h.76v4.5c0,.37,.03,.58,.09,.63,.06,.05,.16,.07,.31,.07h.5c.08,0,.16,0,.23-.02,.07-.01,.13-.02,.16-.04,.08-.06,.14-.19,.18-.4,.02-.13,.04-.32,.04-.58s.02-.55,.03-.9c.08,.06,.18,.12,.29,.18s.22,.1,.32,.13c-.01,.32-.03,.65-.05,.98-.02,.33-.05,.56-.09,.68-.02,.13-.07,.24-.14,.31s-.16,.14-.25,.19c-.06,.05-.15,.08-.28,.11-.13,.02-.25,.04-.37,.04h-.7c-.14,0-.29-.02-.42-.05s-.25-.1-.35-.18c-.1-.1-.16-.22-.2-.38-.04-.16-.05-.46-.05-.9v-4.37Z" fill="#333"/>
        <path d="M204.43,55.9l.9,.27c-.79,2.17-1.78,4.05-2.97,5.62-1.19,1.58-2.61,2.92-4.26,4.01-1.65,1.1-3.56,2.01-5.73,2.74-.04-.06-.09-.14-.15-.24-.07-.1-.13-.21-.21-.31-.07-.11-.14-.19-.2-.25,2.15-.67,4.03-1.53,5.65-2.58,1.62-1.05,3-2.34,4.15-3.86,1.15-1.52,2.08-3.32,2.82-5.4Zm-12.42-.38h16.15v.85h-16.15v-.85Zm3.51,.41c.72,1.92,1.68,3.67,2.89,5.24,1.21,1.57,2.64,2.92,4.29,4.03,1.66,1.12,3.53,1.95,5.62,2.5-.06,.06-.13,.14-.21,.23-.08,.1-.15,.19-.23,.29-.07,.1-.13,.19-.18,.27-2.12-.59-4.02-1.46-5.69-2.62-1.67-1.16-3.11-2.56-4.32-4.19-1.21-1.64-2.2-3.47-2.97-5.48l.79-.27Zm3.26-3.49l.86-.27c.3,.43,.59,.91,.88,1.44,.29,.53,.5,.98,.65,1.35l-.92,.31c-.13-.37-.34-.83-.62-1.36-.28-.53-.57-1.02-.85-1.47Z" fill="#333"/>
        <path d="M213.4,67.27v-.92h2.99v-10.28h-2.32v-.7c.54-.1,1.02-.22,1.43-.36s.78-.31,1.09-.49h.85v11.83h2.74v.92h-6.77Z" fill="#333"/>
        <path d="M224.9,59.3h6.37v.79h-6.37v-.79Zm.88-6.19h5.02v4.52h-5.02v-4.52Zm.9,6.48h.81c-.11,.58-.23,1.19-.37,1.84s-.27,1.19-.4,1.62h-.81c.13-.47,.27-1.02,.41-1.67,.14-.64,.26-1.24,.36-1.79Zm-.09,2.68h3.4v.77h-3.64l.23-.77Zm-.05-8.44v3.06h3.51v-3.06h-3.51Zm3.17,8.44h.79c-.01,.23-.02,.38-.04,.45-.08,1.18-.17,2.13-.27,2.86-.1,.73-.2,1.29-.32,1.67s-.26,.65-.43,.81c-.12,.13-.25,.23-.39,.28-.14,.05-.32,.09-.55,.1-.17,.01-.41,.01-.72,0-.31-.01-.64-.02-.99-.04-.01-.12-.03-.25-.06-.4-.03-.15-.08-.28-.15-.39,.37,.04,.71,.06,1.03,.06,.31,0,.53,0,.65,0,.13,.01,.24,0,.33-.02,.09-.02,.17-.07,.23-.14,.13-.12,.25-.36,.35-.72,.1-.36,.2-.89,.28-1.6s.17-1.63,.27-2.77v-.16Zm2.48-6.39h.79v4.55c0,.6-.02,1.26-.06,1.97-.04,.71-.13,1.44-.25,2.17-.13,.73-.31,1.45-.57,2.14s-.58,1.34-.99,1.93c-.04-.05-.09-.11-.17-.17s-.16-.13-.25-.18c-.09-.05-.17-.1-.23-.14,.52-.76,.9-1.59,1.14-2.49s.41-1.81,.48-2.72c.07-.91,.11-1.74,.11-2.51v-4.55Zm2.56,6.8h.79c-.05,.95-.15,1.8-.31,2.55-.16,.75-.41,1.4-.77,1.94-.35,.55-.85,1-1.48,1.38-.06-.1-.14-.2-.24-.31-.1-.11-.2-.2-.28-.26,.59-.32,1.04-.73,1.35-1.22,.31-.49,.54-1.08,.67-1.75s.22-1.45,.26-2.31Zm-2.16-6.8h8.14v.76h-8.14v-.76Zm.85,2.92l5.67-.61,.09,.68-5.67,.63-.09-.7Zm2.18-1.91h.79v3.33c0,.24,.02,.4,.07,.49,.05,.08,.17,.13,.36,.13h2.23c.13,0,.3,0,.5,0,.2,0,.37-.02,.49-.04,.01,.11,.03,.23,.04,.35,.02,.13,.03,.24,.04,.33-.11,.04-.26,.06-.45,.06-.19,0-.4,0-.61,0h-2.34c-.31,0-.55-.04-.71-.13-.16-.08-.27-.22-.33-.42-.06-.2-.09-.46-.09-.78v-3.31Zm.16-4.64h.83v4.09h-.83v-4.09Zm.41,1.4h4.18v.77h-4.18v-.77Zm1.24,9.04h.77v4.3c0,.07,0,.14,.03,.19,.02,.05,.06,.09,.13,.12,.1,.05,.26,.07,.49,.07h.77c.12,0,.24,0,.35-.02,.11-.01,.19-.03,.24-.05,.16-.08,.25-.22,.29-.41,.02-.16,.04-.4,.05-.75,.01-.34,.02-.72,.02-1.14,.08,.07,.2,.15,.33,.23,.14,.08,.27,.14,.39,.17-.01,.42-.03,.83-.04,1.22-.02,.4-.06,.67-.12,.81-.05,.16-.11,.28-.2,.38-.08,.1-.19,.17-.31,.23-.11,.05-.25,.08-.42,.11s-.34,.04-.5,.04h-.99c-.17,0-.34-.02-.52-.04-.18-.03-.33-.09-.45-.17-.13-.1-.22-.22-.26-.38-.04-.16-.06-.4-.06-.74v-4.16Zm3.04-6.8h.14l.16-.04,.54,.16c-.12,.49-.25,1.01-.4,1.54-.14,.53-.28,.99-.41,1.36l-.7-.16c.12-.36,.24-.79,.37-1.3s.23-.98,.3-1.44v-.13Z" fill="#333"/>
        <path d="M250.26,52.31l.83,.25c-.4,1.01-.86,2-1.38,2.98-.52,.98-1.09,1.89-1.69,2.75-.61,.85-1.24,1.61-1.9,2.27-.02-.06-.07-.14-.14-.25-.07-.11-.14-.22-.21-.32-.07-.11-.13-.19-.21-.23,.64-.61,1.24-1.31,1.82-2.11,.58-.79,1.11-1.64,1.6-2.56,.49-.91,.92-1.84,1.28-2.77Zm-1.98,4.45l.85-.86,.04,.04v12.64h-.88v-11.81Zm6.07-4.27l.85,.22c-.34,.94-.73,1.85-1.18,2.75s-.93,1.74-1.44,2.53-1.04,1.48-1.59,2.1c-.05-.04-.11-.09-.2-.17-.08-.08-.17-.15-.26-.23-.09-.07-.17-.13-.24-.18,.56-.58,1.09-1.24,1.59-1.99,.5-.75,.96-1.55,1.38-2.41,.42-.86,.79-1.73,1.1-2.62Zm-.86,2.81h8.48v.86h-8.89l.41-.86Zm1.75,.27h.9v13.01h-.9v-13.01Zm.43,3.62h5.92v.81h-5.92v-.81Zm0,3.96h6.17v.85h-6.17v-.85Z" fill="#333"/>
        <path d="M267.11,60.9h6.12v7.52h-.86v-6.7h-4.41v6.88h-.85v-7.7Zm.4,5.83h5.2v.86h-5.2v-.86Zm2.3-13.68h9.43v5.69h-9.43v-5.69Zm.86,.83v4.01h7.69v-4.01h-7.69Zm4.79,7.02h6.57v7.58h-.88v-6.75h-4.84v6.88h-.85v-7.7Zm.47,5.83h5.53v.86h-5.53v-.86Z" fill="#333"/>
        <path d="M0,104.75c.55-.13,1.19-.29,1.92-.48,.73-.19,1.5-.39,2.32-.61,.82-.22,1.64-.44,2.46-.66l.11,.79c-1.16,.32-2.33,.64-3.49,.96-1.16,.32-2.19,.6-3.08,.84l-.23-.85Zm.86-13.66H5.99v5.22H.86v-5.22Zm.11,7.18h.76v6.52H.97v-6.52Zm.68-6.39v3.65h3.53v-3.65H1.66Zm1.66,4h.81v8.32h-.81v-8.32Zm.29,3.31h2.61v.79H3.6v-.79Zm7.6-8.68l.81,.2c-.47,1.56-1.16,2.91-2.09,4.05-.92,1.14-2,2.08-3.24,2.81-.02-.06-.07-.13-.14-.23-.07-.09-.14-.18-.22-.28-.07-.1-.14-.17-.2-.22,1.22-.65,2.27-1.5,3.14-2.56s1.51-2.32,1.94-3.77Zm-4.48,8.24h9.36v.79H6.71v-.79Zm.25-6.14h9.25v.79H6.97v-.79Zm2.21,6.68h.83c-.16,.55-.32,1.12-.5,1.7s-.35,1.08-.5,1.48h-.85c.18-.43,.36-.94,.54-1.52,.18-.58,.34-1.14,.49-1.67Zm-.38,2.41h5.53v.77h-5.8l.27-.77Zm.04-5.54h4.9v.77h-4.9v-.77Zm5.26,5.54h.85c-.01,.22-.02,.35-.04,.41-.1,.89-.2,1.61-.3,2.17-.1,.56-.21,1-.33,1.31-.12,.32-.26,.55-.41,.69-.14,.12-.31,.21-.49,.26s-.41,.08-.7,.08c-.25,.01-.64,.01-1.15,0-.52,0-1.07-.03-1.66-.08-.01-.12-.04-.25-.1-.4-.05-.14-.12-.27-.21-.38,.42,.04,.83,.06,1.22,.08,.39,.02,.73,.03,1.03,.04s.51,0,.64,0c.2,0,.36,0,.47-.03,.11-.02,.21-.06,.31-.12,.19-.17,.36-.55,.5-1.13s.27-1.52,.39-2.81v-.13Zm-1.51-8.73c.28,.55,.63,1.09,1.06,1.62,.43,.53,.91,1.01,1.43,1.44,.52,.43,1.05,.78,1.58,1.04-.06,.05-.13,.11-.22,.2-.08,.08-.16,.17-.22,.24-.07,.08-.12,.15-.17,.23-.53-.31-1.06-.7-1.58-1.17-.53-.47-1.01-.99-1.46-1.57-.44-.58-.82-1.16-1.12-1.75l.7-.29Z" fill="#333"/>
        <path d="M27.32,97.26l.74,.34c-.48,.65-1.08,1.26-1.81,1.84-.73,.58-1.51,1.1-2.34,1.56-.83,.46-1.66,.83-2.47,1.12-.04-.08-.09-.17-.16-.25s-.14-.17-.22-.26c-.07-.09-.14-.16-.22-.23,.82-.24,1.63-.57,2.45-.99s1.58-.9,2.29-1.43c.71-.53,1.29-1.1,1.75-1.7Zm-1.62,3.11h.86v1.03c0,.43-.04,.88-.12,1.35-.08,.47-.25,.93-.5,1.39s-.64,.91-1.14,1.35c-.5,.44-1.19,.84-2.05,1.2-.04-.07-.09-.15-.17-.23-.08-.08-.15-.16-.22-.23-.07-.07-.14-.14-.22-.2,.82-.32,1.46-.68,1.94-1.07,.48-.39,.83-.79,1.06-1.2,.23-.41,.38-.82,.45-1.22,.07-.41,.11-.79,.11-1.15v-1.01Zm-2.84-9.56h12.08v6.95h-12.08v-6.95Zm.86,.79v2.3h10.33v-2.3h-10.33Zm0,3.04v2.34h10.33v-2.34h-10.33Zm4.7-3.4h.88v6.21h-.88v-6.21Zm2.18,5.99c.44,.61,1.01,1.18,1.7,1.71,.69,.53,1.45,.99,2.29,1.4s1.67,.72,2.51,.94c-.06,.06-.13,.14-.21,.23-.08,.09-.15,.18-.22,.27-.07,.09-.12,.18-.17,.26-.84-.28-1.68-.64-2.53-1.08-.85-.44-1.63-.96-2.34-1.54s-1.3-1.2-1.77-1.86l.74-.32Zm.95,3.11h.88v6.23h-.88v-6.23Z" fill="#333"/>
        <path d="M54,93.9l.9,.27c-.79,2.17-1.78,4.05-2.97,5.62-1.19,1.58-2.61,2.92-4.26,4.01-1.65,1.1-3.56,2.01-5.73,2.75-.04-.06-.09-.14-.15-.24-.07-.1-.13-.21-.21-.32-.07-.11-.14-.19-.2-.25,2.15-.67,4.03-1.53,5.65-2.58,1.62-1.05,3-2.34,4.15-3.86,1.15-1.52,2.08-3.32,2.82-5.4Zm-12.42-.38h16.15v.85h-16.15v-.85Zm3.51,.41c.72,1.92,1.68,3.67,2.89,5.24,1.21,1.57,2.64,2.92,4.29,4.03,1.66,1.12,3.53,1.95,5.62,2.5-.06,.06-.13,.14-.21,.23-.08,.1-.15,.19-.23,.29-.07,.1-.13,.19-.18,.27-2.12-.59-4.02-1.46-5.69-2.62-1.67-1.16-3.11-2.56-4.32-4.19-1.21-1.64-2.2-3.47-2.97-5.48l.79-.27Zm3.26-3.49l.86-.27c.3,.43,.59,.91,.88,1.44,.29,.53,.5,.98,.65,1.35l-.92,.31c-.13-.37-.34-.83-.62-1.36-.28-.53-.57-1.02-.85-1.47Z" fill="#333"/>
        <path d="M64.42,93.75h.81v3.37c0,1.01-.06,2.05-.17,3.12-.11,1.07-.35,2.14-.71,3.2-.36,1.06-.92,2.09-1.69,3.09-.07-.08-.17-.17-.3-.27-.13-.1-.25-.18-.37-.25,.73-.92,1.27-1.9,1.61-2.92,.34-1.03,.56-2.05,.67-3.07s.15-1.99,.15-2.9v-3.37Zm-2.09-.4h6.95v.83h-6.95v-.83Zm2.5,3.51h3.19v.83h-3.19v-.83Zm.05-6.34l.76-.27c.23,.38,.44,.81,.64,1.27,.2,.46,.35,.85,.46,1.18l-.79,.32c-.11-.35-.26-.75-.46-1.21-.2-.46-.4-.89-.6-1.29Zm2.86,6.34h.83v.3c0,.08,0,.14-.02,.19-.04,1.52-.08,2.8-.12,3.83-.04,1.03-.09,1.87-.13,2.5s-.11,1.13-.18,1.48c-.07,.35-.17,.59-.29,.74-.12,.17-.25,.29-.4,.35-.14,.07-.32,.1-.54,.12-.19,.01-.43,.02-.72,0-.29,0-.59-.02-.9-.03-.01-.12-.04-.26-.07-.41s-.09-.29-.16-.41c.35,.04,.67,.06,.95,.06,.29,0,.49,0,.61,0,.13,0,.23-.01,.31-.04,.07-.02,.14-.08,.2-.18,.08-.11,.16-.33,.22-.67,.06-.34,.12-.83,.17-1.47,.05-.64,.1-1.47,.13-2.47s.07-2.24,.11-3.71v-.2Zm3.91-6.62l.85,.16c-.32,1.15-.74,2.24-1.24,3.28s-1.07,1.91-1.69,2.63c-.04-.06-.1-.12-.2-.18-.1-.06-.19-.12-.27-.19s-.16-.12-.23-.15c.62-.68,1.17-1.52,1.65-2.49,.47-.98,.85-2,1.14-3.05Zm-1.06,16.27c-.02-.07-.07-.16-.13-.25-.06-.1-.12-.19-.18-.28-.06-.09-.11-.16-.16-.21,.1-.08,.21-.22,.33-.41,.13-.19,.19-.48,.19-.86v-8.24h.83v9.14c-.11,.1-.21,.19-.3,.28s-.18,.18-.27,.28c-.09,.1-.17,.19-.22,.29-.06,.1-.09,.19-.09,.27Zm0,0l-.04-.83,.4-.43,3.51-1.67c.01,.11,.04,.24,.07,.4,.04,.16,.07,.28,.09,.38l-1.98,.99c-.5,.25-.89,.45-1.16,.58-.27,.14-.47,.25-.59,.33s-.22,.17-.3,.25Zm6.48-12.22l.79,.61c-.6,.26-1.29,.52-2.06,.77-.77,.25-1.58,.48-2.42,.68-.84,.2-1.66,.4-2.47,.58-.02-.1-.07-.21-.13-.35-.06-.14-.11-.25-.14-.33,.78-.17,1.57-.36,2.38-.58,.8-.22,1.56-.44,2.28-.68s1.3-.47,1.77-.7Zm-6.1-1.49h7.29v.81h-7.29v-.81Zm3.11,3.15c.22,1.42,.51,2.77,.89,4.05s.86,2.41,1.44,3.39,1.29,1.74,2.11,2.28c-.07,.05-.15,.11-.23,.19s-.16,.16-.23,.25c-.07,.09-.12,.18-.17,.26-.85-.62-1.58-1.45-2.18-2.48-.6-1.03-1.09-2.21-1.48-3.55-.38-1.33-.69-2.76-.92-4.28l.76-.11Zm3.46,1.48l.65,.52c-.48,.48-1.03,.95-1.64,1.42-.61,.47-1.17,.88-1.67,1.22l-.56-.49c.34-.23,.7-.5,1.1-.81,.4-.31,.78-.64,1.16-.97,.38-.34,.7-.64,.96-.9Z" fill="#333"/>
        <path d="M85.07,101.58l-.31-.65c.73-.35,1.29-.77,1.67-1.26,.38-.49,.57-1.13,.57-1.91l-.45-1.37,.97,1.22c-.13,.17-.28,.28-.43,.33-.16,.05-.31,.08-.47,.08-.32,0-.59-.09-.8-.27-.21-.18-.31-.46-.31-.83s.11-.66,.34-.84c.23-.17,.49-.26,.77-.26,.42,0,.74,.17,.96,.5,.22,.34,.33,.78,.33,1.33,0,.95-.26,1.76-.78,2.42-.52,.67-1.21,1.16-2.06,1.48Z" fill="#333"/>
        <path d="M105.64,97.53l.88,.27c-.64,1.67-1.49,3.08-2.57,4.22-1.08,1.15-2.36,2.09-3.83,2.83-1.48,.74-3.14,1.35-4.99,1.82-.02-.07-.07-.16-.13-.26-.07-.1-.13-.2-.21-.3-.07-.1-.14-.18-.22-.25,1.85-.41,3.5-.96,4.95-1.66,1.45-.7,2.69-1.59,3.73-2.68s1.83-2.42,2.39-4Zm-10.64-4.66h15.37v.85h-15.37v-.85Zm4.66,1.66l.83,.32c-.41,.5-.88,1.01-1.4,1.53-.53,.52-1.07,1-1.63,1.45-.56,.45-1.1,.85-1.63,1.2-.04-.06-.1-.13-.19-.22-.09-.08-.17-.17-.25-.25s-.16-.15-.24-.2c.54-.32,1.09-.69,1.64-1.11s1.08-.85,1.58-1.32c.5-.47,.94-.94,1.3-1.4Zm.16,3.11c.86,2.16,2.24,3.92,4.12,5.28,1.88,1.36,4.21,2.28,6.98,2.75-.06,.06-.13,.14-.2,.23-.07,.1-.14,.2-.21,.3-.07,.1-.12,.2-.17,.28-1.87-.36-3.54-.92-5.01-1.67s-2.73-1.7-3.78-2.85c-1.05-1.15-1.89-2.5-2.51-4.05l.77-.27Zm1.58-7.24l.81-.29c.26,.35,.52,.74,.77,1.17,.25,.43,.44,.8,.56,1.1l-.83,.34c-.11-.31-.29-.69-.54-1.12-.25-.44-.51-.84-.77-1.2Zm3.65,4.64l.68-.49c.56,.37,1.14,.79,1.74,1.26,.59,.47,1.15,.94,1.67,1.4,.52,.47,.94,.89,1.26,1.28l-.7,.58c-.31-.4-.72-.83-1.23-1.31-.51-.47-1.06-.95-1.66-1.43-.59-.48-1.18-.91-1.75-1.3Z" fill="#333"/>
        <path d="M115.51,91.11h8.23v.79h-8.23v-.79Zm.25,6.79h7.36v.76h-6.61v7.9h-.76v-8.66Zm.63-4.73h6.46v3.51h-6.46v-3.51Zm.72,8.53h4.95v.68h-4.95v-.68Zm.05-7.81v2.07h4.86v-2.07h-4.86Zm.38,5.42l.58-.22c.24,.36,.47,.75,.68,1.17,.22,.42,.37,.78,.45,1.08l-.61,.23c-.07-.3-.22-.67-.44-1.1-.22-.43-.44-.82-.66-1.17Zm1.76,2.61h.74v4.27h-.74v-4.27Zm1.89-2.9l.67,.31c-.24,.48-.5,.98-.79,1.48-.29,.51-.55,.96-.79,1.34l-.54-.27c.16-.26,.33-.56,.51-.9,.19-.34,.36-.68,.53-1.03,.17-.35,.31-.66,.41-.94Zm1.57-1.12h.76v7.54c0,.23-.03,.41-.08,.54-.05,.13-.18,.23-.37,.31-.16,.07-.39,.11-.7,.13-.31,.01-.71,.02-1.19,.02-.02-.11-.06-.23-.11-.37-.05-.14-.1-.27-.16-.39,.38,.01,.72,.02,1.02,.02h.57c.18-.01,.27-.1,.27-.25v-7.54Zm1.44,7.45c.84-.12,1.85-.28,3.02-.47,1.18-.19,2.38-.39,3.62-.59l.07,.77c-1.15,.22-2.29,.42-3.43,.62-1.13,.2-2.14,.38-3.02,.53l-.27-.86Zm.34-11.43h6.37v6.46h-6.37v-6.46Zm.72,.79v4.88h4.9v-4.88h-4.9Zm2.11-4.41h.81v4.18h-.81v-4.18Zm.04,3.92h.74v5.76h.04v5.26h-.81v-5.26h.04v-5.76Zm1.94,7.54l.7-.18c.26,.5,.51,1.05,.73,1.64,.22,.59,.42,1.16,.58,1.71s.28,1.03,.34,1.44l-.76,.25c-.06-.42-.17-.91-.33-1.47-.16-.56-.35-1.13-.57-1.73-.22-.59-.45-1.15-.7-1.67Z" fill="#333"/>
        <path d="M138.24,90.21l.77,.18c-.29,.64-.65,1.24-1.1,1.82-.44,.58-.9,1.07-1.37,1.48-.04-.05-.1-.1-.19-.16s-.18-.12-.26-.18-.16-.1-.23-.13c.49-.38,.95-.84,1.36-1.36s.75-1.07,1.02-1.65Zm-2.2,4.64h1.67v.02h5.26v-.02h1.76v.65h-1.76v-.04h-5.26v.04h-1.67v-.65Zm4.63,8.75l.77,.31c-.41,.3-.87,.6-1.39,.89-.52,.29-1.05,.57-1.6,.83-.55,.26-1.08,.48-1.58,.68-.04-.05-.1-.11-.18-.19s-.17-.15-.25-.22c-.08-.07-.16-.13-.23-.18,.78-.25,1.58-.56,2.39-.94,.81-.37,1.5-.76,2.08-1.17Zm-3.37-.18c0-.07-.01-.16-.04-.25-.02-.1-.05-.19-.09-.3-.04-.1-.07-.19-.09-.26,.25-.01,.58-.07,.99-.17,.41-.1,.86-.23,1.35-.39,.28-.08,.69-.22,1.24-.41,.55-.19,1.19-.43,1.91-.71,.72-.28,1.47-.59,2.25-.94,.78-.34,1.54-.7,2.27-1.07l.52,.58c-1.6,.82-3.2,1.51-4.81,2.08-1.61,.57-3.22,1.06-4.82,1.47v.04c-.14,.04-.26,.07-.35,.1-.09,.03-.17,.07-.23,.11-.07,.04-.1,.09-.1,.14Zm.45-10.76h.74c-.05,.54-.11,1.13-.19,1.76-.08,.64-.16,1.25-.23,1.85-.08,.59-.15,1.1-.22,1.52h-.72c.08-.43,.17-.95,.24-1.55,.08-.6,.15-1.21,.22-1.84,.07-.63,.12-1.21,.17-1.74Zm-.45,10.76v-.56l.65-.32,11.54-.7c.02,.1,.06,.21,.11,.33,.05,.13,.09,.23,.13,.3-1.84,.12-3.41,.22-4.73,.31-1.31,.08-2.41,.16-3.29,.22-.88,.06-1.6,.11-2.14,.15s-.97,.08-1.27,.11c-.3,.03-.52,.06-.66,.09-.14,.03-.25,.06-.33,.08Zm.2-6.26h6.79v.63h-6.79v-.63Zm.52-5.99h6.39v.67h-6.73l.34-.67Zm-.02,1.49h5.22v.65h-5.22v-.65Zm.61,8.37c-.01-.1-.04-.23-.09-.4s-.1-.31-.14-.42c.19-.01,.4-.04,.62-.07,.22-.04,.46-.1,.71-.18,.19-.06,.51-.17,.94-.34,.44-.17,.93-.38,1.49-.62,.55-.25,1.08-.51,1.58-.8l.61,.52c-.85,.43-1.7,.8-2.55,1.12-.85,.31-1.68,.57-2.49,.77v.02c-.14,.05-.26,.09-.34,.13-.08,.04-.16,.08-.23,.13-.07,.05-.11,.1-.11,.16Zm0,0v-.58l.56-.25,5.78-.18c-.05,.1-.1,.21-.14,.33s-.08,.23-.11,.31c-1.31,.04-2.35,.08-3.12,.12-.77,.04-1.36,.08-1.75,.1-.4,.02-.67,.04-.84,.06s-.29,.04-.37,.08Zm.81-5.18l.41-.36c.3,.18,.61,.39,.94,.62s.6,.44,.8,.6l-.43,.43c-.19-.18-.45-.39-.78-.64s-.64-.46-.94-.66Zm.32-2.2l.38-.38c.29,.16,.59,.34,.92,.54,.32,.2,.58,.38,.77,.54l-.4,.45c-.2-.16-.46-.34-.77-.56-.31-.22-.61-.41-.9-.59Zm3.22-.99h.76c0,.2,0,.34-.02,.4-.07,1.21-.15,2.18-.23,2.91s-.17,1.27-.27,1.64c-.1,.37-.21,.62-.34,.76-.1,.12-.21,.2-.34,.25-.13,.05-.29,.07-.47,.07-.12,.01-.29,.02-.5,0-.22,0-.43-.01-.65-.03-.01-.08-.03-.19-.05-.31-.02-.12-.06-.22-.11-.31,.25,.01,.48,.02,.67,.04,.2,.01,.34,.02,.42,.02,.1,0,.18,0,.25-.03,.07-.02,.13-.06,.18-.14,.1-.12,.18-.36,.26-.71,.08-.35,.16-.89,.23-1.61,.08-.72,.15-1.66,.21-2.83v-.14Zm.86,9.76h.85v3.19c0,.26-.04,.46-.11,.59-.07,.13-.22,.23-.45,.31-.23,.06-.55,.1-.98,.12-.43,.02-.96,.03-1.61,.03-.02-.12-.07-.25-.13-.39-.07-.14-.13-.26-.21-.37,.4,.01,.75,.02,1.07,.03,.32,0,.58,0,.79,0s.36-.01,.44-.03c.13-.01,.22-.04,.27-.07s.07-.1,.07-.2v-3.2Zm6.19-10.3l.81,.14c-.29,1.06-.72,1.97-1.31,2.75-.58,.78-1.27,1.45-2.07,2.02-.8,.56-1.68,1.04-2.66,1.44-.04-.06-.09-.13-.15-.21-.07-.08-.14-.16-.22-.23-.08-.08-.15-.15-.21-.21,1.46-.5,2.7-1.22,3.7-2.14,1-.92,1.7-2.11,2.1-3.56Zm-3.47-1.87l.81,.16c-.25,.83-.59,1.61-1.02,2.35-.43,.74-.9,1.37-1.41,1.88-.04-.06-.09-.12-.17-.19-.08-.07-.16-.13-.24-.21-.08-.07-.16-.13-.22-.16,.52-.47,.97-1.04,1.35-1.7s.68-1.38,.9-2.13Zm-.18,2.25c.48,1.34,1.23,2.5,2.24,3.48s2.23,1.67,3.65,2.08c-.08,.07-.18,.17-.28,.31-.1,.13-.19,.26-.26,.38-1.43-.48-2.67-1.24-3.72-2.29-1.05-1.04-1.83-2.3-2.33-3.76l.7-.2Zm-.04-.65h5.72v.72h-6.16l.43-.72Zm.23,12.15l.61-.49c.54,.16,1.1,.35,1.68,.58,.58,.23,1.13,.48,1.65,.74,.52,.26,.95,.51,1.3,.75l-.63,.58c-.32-.24-.74-.49-1.26-.76-.52-.26-1.07-.52-1.65-.76s-1.15-.46-1.7-.64Zm.56-3.13l.58-.4c.43,.25,.89,.54,1.37,.87,.48,.33,.94,.66,1.37,.98,.43,.32,.79,.61,1.08,.85l-.59,.49c-.28-.24-.63-.52-1.05-.85s-.88-.67-1.36-1.01c-.48-.34-.94-.65-1.39-.93Z" fill="#333"/>
        <path d="M156.78,100.63h16.06v.79h-16.06v-.79Zm.2-8.93h7.45v.81h-7.45v-.81Zm.27,2.95h15.16v.77h-15.16v-.77Zm.02,2.95h6.1v.79h-6.1v-.79Zm.32,5.69h14.35v.77h-14.35v-.77Zm2.47-7.27h.83v4.09h-.83v-4.09Zm1.19-5.76h.85v3.83h-.85v-3.83Zm3.08,4.68h.86v11.7h-.86v-11.7Zm.83-3.24h7.47v.81h-7.47v-.81Zm1.12,5.87h6.07v.81h-6.07v-.81Zm1.15-7.31h.85v3.83h-.85v-3.83Zm1.37,5.76h.83v4.09h-.83v-4.09Z" fill="#333"/>
        <path d="M177.43,101.49h16.18v.83h-16.18v-.83Zm5.36,1.35l.83,.49c-.47,.4-1.01,.79-1.61,1.19-.61,.4-1.23,.77-1.86,1.12-.64,.35-1.25,.66-1.84,.93-.06-.08-.14-.2-.25-.33-.11-.14-.2-.25-.29-.33,.59-.25,1.2-.55,1.83-.89s1.23-.7,1.79-1.08,1.03-.74,1.4-1.09Zm-.52-12.47l.5,.72c-.5,.24-1.07,.48-1.71,.71-.64,.23-1.24,.45-1.8,.64-.02-.1-.06-.21-.12-.33-.05-.13-.1-.24-.15-.33,.55-.2,1.13-.43,1.75-.68,.61-.25,1.12-.49,1.53-.72Zm-3.28,1.4l.85,.25,.34,9.81h-.81l-.38-10.06Zm.5,2.88h3.08v.77h-3.08v-.77Zm.11,3.4h3.02v.77h-3.02v-.77Zm4.84-.95l.74,.13c-.12,.65-.29,1.28-.5,1.91-.22,.62-.47,1.16-.76,1.6-.06-.05-.16-.11-.31-.2-.14-.08-.26-.15-.36-.2,.31-.43,.56-.93,.75-1.49,.19-.56,.33-1.15,.44-1.75Zm-.77-6.73h.79v4.99h2.61v.76h-3.4v-5.74Zm.41,1.91h3.46v.79h-3.46v-.79Zm2.57,3.1h.77v4.91c0,.22-.03,.38-.08,.49-.05,.11-.17,.21-.35,.28-.17,.06-.4,.1-.7,.11-.3,.01-.67,.02-1.12,.02-.02-.11-.06-.22-.11-.34-.05-.12-.1-.23-.16-.34,.38,.01,.7,.02,.96,.02s.44,0,.55-.02c.1,0,.16-.01,.19-.04,.03-.03,.04-.09,.04-.17v-4.91Zm.76,8.03l.49-.58c.65,.3,1.3,.63,1.95,.99s1.27,.71,1.85,1.06c.58,.35,1.07,.68,1.49,1.01l-.58,.63c-.41-.31-.89-.65-1.46-1-.56-.35-1.17-.71-1.81-1.08s-1.29-.71-1.93-1.04Zm.92-12.17h3.35v.79h-3.35v-.79Zm.07,6.93h3.08v.77h-3.08v-.77Zm.07-3.44h3.15v.77h-3.15v-.77Zm2.77-3.49h.81c-.01,.83-.02,1.73-.04,2.69-.01,.97-.03,1.93-.06,2.9-.03,.97-.06,1.88-.1,2.75-.04,.87-.07,1.63-.11,2.28h-.85c.05-.65,.09-1.41,.13-2.29s.08-1.8,.11-2.78c.03-.98,.05-1.94,.07-2.9,.02-.95,.03-1.84,.03-2.66Z" fill="#333"/>
        <path d="M198.85,101.65l.77,.16c-.13,.73-.29,1.49-.46,2.28s-.35,1.46-.51,2.02c-.07-.05-.19-.1-.35-.14s-.29-.08-.39-.11c.2-.58,.38-1.24,.54-2,.16-.76,.29-1.49,.4-2.21Zm-.59-4.91c-.01-.06-.04-.14-.07-.25-.04-.11-.07-.22-.11-.32s-.07-.2-.11-.27c.14-.04,.3-.14,.46-.32,.16-.18,.33-.41,.51-.7,.14-.18,.36-.51,.65-.98s.6-1.03,.94-1.67c.34-.64,.64-1.3,.9-1.97l.83,.36c-.32,.68-.67,1.37-1.03,2.04-.36,.68-.74,1.32-1.13,1.94-.4,.61-.79,1.16-1.19,1.64v.02c-.13,.06-.24,.12-.32,.17-.08,.05-.16,.11-.23,.17-.07,.06-.1,.11-.1,.16Zm.11,4c-.01-.06-.03-.14-.06-.24s-.07-.21-.11-.32c-.04-.11-.08-.21-.1-.28,.17-.02,.36-.15,.57-.38s.45-.51,.71-.85c.14-.17,.36-.44,.65-.81,.29-.37,.61-.82,.96-1.35,.35-.53,.72-1.09,1.09-1.7,.37-.61,.71-1.21,1.01-1.81l.79,.41c-.48,.84-.99,1.67-1.52,2.48s-1.08,1.6-1.65,2.34c-.56,.74-1.13,1.41-1.69,2v.02c-.12,.06-.22,.11-.31,.16-.09,.05-.17,.1-.23,.16-.07,.06-.1,.11-.1,.16Zm-.11-4v-.68l.5-.29,3.22-.31c-.02,.11-.04,.23-.04,.38s0,.26,0,.34c-.74,.1-1.34,.17-1.8,.23s-.81,.11-1.05,.14c-.25,.04-.43,.07-.54,.1-.11,.03-.21,.06-.28,.08Zm.11,4l-.02-.68,.5-.32,4.7-.65c-.01,.11-.02,.23-.03,.37,0,.14,0,.26,0,.35-1.08,.16-1.95,.29-2.6,.4-.65,.11-1.15,.2-1.49,.26-.34,.07-.58,.12-.73,.16-.14,.04-.26,.08-.34,.12Zm2.23,.99l.72-.13c.11,.59,.21,1.23,.31,1.93,.1,.7,.16,1.3,.18,1.8l-.74,.16c-.01-.52-.06-1.12-.15-1.83s-.2-1.35-.32-1.93Zm1.67-4.54l.7-.18c.16,.38,.32,.8,.48,1.23s.31,.85,.46,1.25c.14,.4,.25,.74,.32,1.04l-.72,.27c-.08-.3-.19-.66-.32-1.08s-.28-.85-.44-1.3-.32-.86-.48-1.24Zm.16,4.19l.67-.2c.19,.5,.38,1.05,.58,1.64,.19,.59,.33,1.09,.41,1.51l-.7,.23c-.08-.43-.22-.95-.4-1.54-.18-.59-.37-1.14-.56-1.65Zm1.67,3.02c.44-.28,.97-.61,1.58-1.01,.61-.4,1.23-.81,1.85-1.24l.29,.67c-.55,.4-1.1,.78-1.66,1.16s-1.07,.73-1.57,1.05l-.5-.63Zm.05-7.33h10.15v.81h-10.15v-.81Zm.63,1.96l.59-.41c.41,.37,.83,.79,1.27,1.25,.44,.46,.77,.86,1,1.2l-.63,.5c-.23-.35-.55-.77-.98-1.25s-.84-.92-1.25-1.29Zm1.69-8.8l.83,.11c-.12,.54-.26,1.12-.42,1.74-.16,.62-.32,1.22-.47,1.8-.15,.58-.29,1.09-.42,1.52h-.9c.16-.44,.32-.97,.48-1.57,.16-.6,.32-1.22,.49-1.85,.16-.64,.3-1.22,.42-1.75Zm-.77,4.41h5.4v.76h-5.4v-.76Zm.72-2.81h5.15v.74h-5.15v-.74Zm2.3,5.65h.83v8.06c0,.26-.03,.46-.1,.6-.07,.14-.2,.24-.39,.3-.19,.07-.46,.12-.79,.13-.34,.02-.76,.02-1.28,0-.02-.1-.06-.22-.12-.38-.05-.16-.12-.29-.19-.41,.43,.01,.81,.02,1.12,.02h.64c.18-.01,.27-.1,.27-.27v-8.06Zm2.57-5.65h.09l.16-.07,.61,.11c-.08,.52-.2,1.1-.33,1.76-.14,.66-.28,1.33-.42,2-.14,.67-.29,1.3-.43,1.87l-.81-.11c.14-.58,.29-1.21,.43-1.89,.14-.68,.28-1.34,.41-1.98s.23-1.16,.3-1.57v-.13Zm-1.04,10.78l.47-.56c.41,.25,.83,.53,1.27,.84,.44,.31,.85,.61,1.23,.91,.38,.3,.7,.57,.94,.81l-.49,.68c-.24-.26-.55-.55-.94-.86-.38-.31-.79-.63-1.22-.95-.43-.32-.85-.61-1.26-.87Zm2.83-4.01l.68,.49c-.4,.42-.83,.84-1.31,1.27-.48,.43-.92,.79-1.31,1.11l-.58-.43c.26-.22,.55-.46,.87-.75,.32-.28,.62-.57,.91-.87,.29-.3,.53-.57,.74-.81Z" fill="#333"/>
        <path d="M221.36,102.54l.72,.32c-.25,.53-.55,1.1-.9,1.71-.35,.61-.76,1.13-1.22,1.55l-.72-.41c.46-.4,.87-.89,1.23-1.49,.37-.6,.66-1.16,.89-1.67Zm-2.09-7.87h15.37v.76h-15.37v-.76Zm.77-2.9h13.7v.76h-13.7v-.76Zm1.37,4.72h11.07v5.09h-11.07v-5.09Zm.85,.68v1.51h9.36v-1.51h-9.36Zm0,2.2v1.53h9.36v-1.53h-9.36Zm.61-6.59l.79-.22c.2,.3,.39,.64,.56,1.01,.17,.37,.29,.7,.38,.97l-.86,.25c-.05-.28-.16-.6-.32-.98s-.35-.72-.54-1.04Zm.52,9.83h.85v2.59c0,.2,.07,.34,.22,.4,.14,.06,.46,.09,.95,.09h3.6c.29,0,.5-.04,.63-.13,.13-.08,.22-.27,.28-.56,.05-.29,.09-.73,.12-1.33,.11,.07,.24,.13,.39,.19,.15,.05,.29,.1,.42,.13-.04,.67-.11,1.19-.22,1.54-.11,.35-.28,.6-.51,.73-.23,.13-.58,.2-1.04,.2h-3.69c-.53,0-.94-.03-1.22-.1s-.49-.19-.6-.38c-.11-.19-.17-.45-.17-.8v-2.57Zm2-.5l.52-.49c.34,.19,.69,.41,1.05,.66,.37,.25,.7,.5,1.02,.75,.31,.25,.57,.48,.77,.68l-.58,.56c-.19-.22-.44-.45-.76-.71-.31-.26-.65-.52-1-.77-.35-.26-.7-.48-1.04-.67Zm.68-11.74l.81-.23c.23,.28,.45,.59,.66,.95s.37,.67,.48,.94l-.85,.27c-.11-.26-.26-.58-.47-.94s-.41-.69-.63-.98Zm4.09,2.14l.85,.23c-.19,.43-.4,.85-.61,1.27-.22,.41-.44,.78-.67,1.11l-.76-.25c.19-.34,.4-.73,.63-1.18,.23-.45,.41-.84,.56-1.18Zm1.21,10.17l.68-.34c.32,.3,.65,.63,.97,1s.62,.73,.88,1.09c.26,.36,.47,.68,.63,.97l-.72,.4c-.16-.3-.36-.63-.62-.99-.26-.36-.55-.73-.86-1.1-.32-.37-.64-.71-.96-1.03Z" fill="#333"/>
        <path d="M243.41,90.21l.79,.23c-.34,.66-.72,1.31-1.16,1.94-.44,.63-.91,1.22-1.4,1.77-.5,.55-1.01,1.04-1.52,1.48-.04-.06-.09-.13-.16-.22-.07-.08-.15-.17-.22-.25-.08-.08-.15-.15-.22-.2,.77-.59,1.5-1.3,2.2-2.12,.7-.83,1.27-1.7,1.71-2.63Zm-3.74,10.85h15.86v.83h-15.86v-.83Zm2.27,1.78l.79,.2c-.13,.37-.29,.77-.49,1.21-.19,.43-.39,.85-.6,1.25-.21,.4-.42,.76-.64,1.07l-.81-.29c.22-.3,.43-.64,.65-1.04,.22-.39,.42-.79,.61-1.21,.19-.41,.35-.81,.49-1.2Zm-1.62-6.12h14.87v.83h-14.87v-.83Zm2.21-4.3h12.4v.83h-12.82l.41-.83Zm.09,2.07h.81v7.06h-.81v-7.06Zm2.32,8.73l.81-.05c.12,.52,.22,1.07,.3,1.67,.08,.6,.12,1.1,.13,1.49l-.85,.13c0-.29-.02-.62-.05-.98s-.08-.75-.13-1.14c-.05-.4-.12-.77-.21-1.12Zm.74-8.73h.79v6.98h-.79v-6.98Zm3.01,8.69l.81-.16c.17,.35,.34,.72,.5,1.11,.17,.39,.32,.77,.44,1.14s.22,.7,.28,.97l-.85,.22c-.1-.43-.25-.95-.48-1.57-.22-.61-.46-1.18-.71-1.71Zm.29-8.69h.79v7.06h-.79v-7.06Zm3.17,0h.83v7.06h-.83v-7.06Zm.29,8.57l.81-.25c.23,.36,.46,.74,.68,1.15,.23,.41,.44,.81,.64,1.21,.2,.4,.36,.74,.48,1.03l-.85,.36c-.11-.3-.26-.65-.46-1.05-.2-.4-.41-.82-.63-1.24-.22-.43-.45-.83-.67-1.2Z" fill="#333"/>
        <path d="M261.13,91.02h4.34v.81h-3.55v14.76h-.79v-15.57Zm4.18,0h.14l.16-.04,.58,.36c-.29,.72-.6,1.49-.94,2.31-.34,.82-.67,1.6-.99,2.33,.71,.78,1.18,1.5,1.42,2.16,.24,.66,.36,1.28,.36,1.87,0,.43-.05,.82-.15,1.17-.1,.35-.27,.61-.51,.77-.11,.08-.24,.15-.4,.2-.16,.05-.32,.08-.49,.11-.19,.01-.4,.02-.61,.02s-.42,0-.61-.02c-.01-.1-.04-.22-.09-.38-.05-.16-.11-.29-.18-.41,.23,.01,.45,.02,.66,.03,.21,0,.39,0,.55,0,.24-.01,.44-.07,.61-.16,.16-.12,.26-.31,.32-.56,.05-.25,.08-.52,.08-.79,0-.54-.12-1.13-.37-1.77s-.73-1.35-1.45-2.12c.18-.42,.36-.85,.54-1.28s.35-.86,.51-1.29c.16-.43,.32-.83,.47-1.22,.15-.39,.28-.74,.39-1.05v-.23Zm1.85,15.57c-.02-.07-.06-.15-.11-.24s-.1-.19-.15-.29c-.05-.1-.11-.18-.15-.24,.11-.06,.23-.17,.36-.33s.2-.42,.2-.78v-13.61h.86v14.54c-.13,.08-.25,.16-.35,.23-.1,.07-.2,.15-.31,.23-.1,.08-.19,.17-.25,.25-.07,.08-.1,.16-.1,.23Zm0,0l-.05-.79,.5-.41,4.12-1.04c0,.12,0,.26,0,.41,0,.16,.02,.28,.04,.38-.96,.28-1.73,.5-2.3,.67-.58,.17-1.02,.3-1.33,.4s-.53,.17-.67,.23c-.13,.06-.24,.11-.32,.16Zm.65-15.5h7.29v7.69h-7.29v-.79h6.44v-6.08h-6.44v-.81Zm.05,3.44h6.8v.77h-6.8v-.77Zm3.1,3.78c.28,1.16,.67,2.23,1.17,3.21,.5,.98,1.13,1.82,1.87,2.53,.74,.71,1.6,1.25,2.57,1.64-.06,.05-.13,.12-.21,.22s-.15,.19-.22,.28-.13,.18-.18,.26c-1-.44-1.87-1.05-2.62-1.82-.75-.77-1.39-1.67-1.91-2.72-.52-1.04-.93-2.19-1.23-3.44l.76-.16Zm4.63,1.3l.59,.59c-.35,.3-.74,.61-1.19,.92-.44,.31-.89,.6-1.33,.87-.44,.27-.86,.51-1.24,.73l-.5-.58c.38-.22,.8-.47,1.25-.76,.45-.29,.89-.59,1.32-.9,.43-.31,.8-.61,1.1-.88Z" fill="#333"/>
        <path d="M281.09,91.57h15.91v.86h-15.91v-.86Zm1.96,3.89h.85v8.03h-.85v-8.03Zm.34,0h6.86v6.55h-6.86v-.85h5.98v-4.88h-5.98v-.83Zm10.42-3.6h.9v13.27c0,.4-.06,.69-.18,.88-.12,.19-.34,.33-.65,.41-.3,.08-.75,.13-1.36,.13-.61,0-1.34,0-2.2,0-.02-.08-.06-.18-.1-.3s-.09-.23-.13-.35c-.05-.12-.1-.22-.14-.31,.52,.01,1,.02,1.47,.03,.46,0,.86,0,1.2,0s.58,0,.72,0c.18-.01,.31-.05,.38-.12,.07-.07,.11-.2,.11-.39v-13.27Z" fill="#333"/>
        <path d="M302.85,96.61h.83v4.66c0,.55-.03,1.15-.1,1.78-.07,.64-.2,1.26-.4,1.87-.2,.61-.51,1.18-.93,1.69-.02-.07-.07-.15-.14-.22-.07-.08-.15-.16-.23-.23s-.15-.13-.22-.17c.36-.46,.62-.95,.79-1.49s.28-1.09,.32-1.65c.05-.56,.07-1.09,.07-1.59v-4.64Zm-.2-1.46c-.02-.06-.05-.14-.09-.25-.04-.11-.07-.22-.11-.33-.04-.11-.07-.21-.11-.28,.14-.02,.29-.1,.43-.23,.14-.13,.31-.28,.49-.48,.13-.13,.34-.37,.62-.72s.58-.75,.91-1.22c.32-.46,.62-.94,.88-1.43l.9,.36c-.34,.52-.68,1.02-1.04,1.51-.36,.49-.73,.96-1.11,1.4s-.75,.82-1.12,1.16v.02c-.13,.07-.24,.13-.32,.18s-.16,.1-.22,.15c-.07,.05-.1,.11-.1,.15Zm0,0l-.02-.68,.58-.31,5.67-.36c.01,.12,.04,.25,.07,.39,.04,.14,.07,.26,.11,.35-1.37,.1-2.46,.18-3.27,.24s-1.43,.12-1.85,.17c-.43,.05-.73,.09-.9,.12-.17,.03-.3,.06-.39,.08Zm.63,1.46h5.11v.77h-5.11v-.77Zm.36,6.84c.59-.26,1.3-.59,2.12-.99,.83-.4,1.66-.81,2.5-1.24l.18,.65c-.76,.42-1.52,.84-2.29,1.25-.77,.41-1.47,.78-2.11,1.11l-.41-.77Zm.4-4.21l.45-.5c.37,.19,.77,.41,1.19,.64s.82,.47,1.19,.69c.37,.23,.68,.43,.92,.59l-.47,.59c-.24-.19-.55-.4-.92-.64-.37-.23-.77-.47-1.18-.72-.41-.25-.81-.46-1.18-.66Zm3.96-2.63h.83v8.84c0,.28-.04,.49-.11,.63-.07,.14-.21,.26-.41,.34-.22,.06-.52,.1-.9,.11-.38,.01-.87,.02-1.46,.02-.01-.11-.05-.24-.11-.39-.06-.15-.12-.29-.18-.4,.48,.01,.9,.02,1.27,.02h.77c.13,0,.22-.02,.25-.06,.04-.04,.05-.12,.05-.24v-8.86Zm-1.13-4.77l.72-.31c.32,.4,.65,.83,.97,1.31,.32,.48,.62,.95,.89,1.4,.27,.46,.48,.86,.62,1.21l-.74,.4c-.14-.37-.35-.79-.61-1.25s-.55-.94-.87-1.42c-.32-.49-.64-.93-.98-1.34Zm3.82-1.6h.85v6.05c0,.32,.05,.55,.16,.68,.11,.13,.31,.2,.61,.2h3.74c.19,0,.43,0,.72-.03s.51-.04,.67-.06c.01,.12,.03,.25,.05,.4,.02,.15,.04,.27,.05,.37-.13,.02-.33,.04-.59,.05-.26,.01-.56,.02-.88,.02h-3.76c-.41,0-.73-.05-.97-.15-.24-.1-.41-.27-.5-.51-.1-.24-.14-.57-.14-.99v-6.03Zm0,8.37h.85v6.32c0,.28,.07,.46,.21,.56,.14,.1,.45,.14,.93,.14h3.51c.28,0,.49-.06,.63-.17,.14-.11,.24-.35,.3-.7,.05-.35,.09-.88,.12-1.59,.11,.07,.24,.14,.39,.21,.15,.07,.29,.11,.42,.14-.05,.78-.12,1.38-.23,1.8s-.28,.71-.52,.88c-.25,.17-.6,.25-1.05,.25h-3.6c-.5,0-.9-.04-1.19-.13-.29-.08-.49-.23-.59-.45-.11-.22-.16-.52-.16-.92v-6.34Zm.43-5.65h5.54v.81h-5.54v-.81Zm.02,8.01h5.76v.83h-5.76v-.83Z" fill="#333"/>
      </g>
    </g>
  </g>
</svg>