<?xml version="1.0" encoding="UTF-8"?>
<svg id="_圖層_2" data-name="圖層 2" xmlns="http://www.w3.org/2000/svg" viewBox="0 0 89.46 18.6">
  <defs>
    <style>
      .cls-1 {
        fill: #333;
      }
    </style>
  </defs>
  <g id="pic">
    <g>
      <path class="cls-1" d="M0,9.82h7.12v8.56h-1.5v-7.14H1.44v7.32H0v-8.74ZM.66,16.02h5.58v1.46H.66v-1.46ZM2.92,1.02h10.98v6.66H2.92V1.02ZM4.38,2.44v3.8h7.98v-3.8h-7.98ZM9.32,9.82h7.52v8.62h-1.52v-7.2h-4.56v7.32h-1.44v-8.74ZM10.04,16.02h5.94v1.46h-5.94v-1.46Z"/>
      <path class="cls-1" d="M24.28,11.88h1.12v1.74c0,.48-.03,1.01-.1,1.59s-.2,1.16-.41,1.75-.52,1.12-.93,1.6c-.12-.11-.27-.22-.46-.34-.19-.12-.35-.22-.48-.3.36-.44.63-.92.81-1.43.18-.51.3-1.02.36-1.53.06-.51.09-.97.09-1.38v-1.7ZM23.16,11.42h4.2v1.28h-4.2v-1.28ZM23.54,1.54h8.2v1.3h-8.2v-1.3ZM24.06,5.1h1.16v3.44h2.2v1.24h-3.36v-4.68ZM26.88,5h1.3v5.54c0,.81-.03,1.7-.1,2.66-.07.96-.2,1.91-.41,2.85-.21.94-.52,1.79-.95,2.55-.07-.07-.17-.14-.31-.23-.14-.09-.28-.17-.43-.25s-.27-.13-.38-.16c.39-.73.67-1.53.86-2.39.19-.86.3-1.73.35-2.6.05-.87.07-1.68.07-2.43v-5.54ZM27.56,5h13.82v1.3h-13.82v-1.3ZM27.8.14h1.48v4.14h-1.48V.14ZM29.2,7.56h5.96v1.04h-4.84v7.64h-1.12V7.56ZM29.72,15.2h5.62v1.04h-5.62v-1.04ZM29.86,10h5.3v3.74h-5.3v-1h4.18v-1.76h-4.18v-.98ZM31.98,8.12h1.1v2.42h-1.1v-2.42ZM31.98,13.2h1.1v2.46h-1.1v-2.46ZM32.74,1.54h8.5v1.3h-8.5v-1.3ZM39.02,7.54l1.36.24c-.49,2.39-1.22,4.49-2.17,6.31-.95,1.82-2.17,3.32-3.65,4.51-.07-.09-.17-.2-.3-.31-.13-.11-.27-.23-.42-.34-.15-.11-.27-.2-.38-.27,1.48-1.08,2.67-2.48,3.58-4.21.91-1.73,1.57-3.7,1.98-5.93ZM35.26.16h1.48v4.02h-1.48V.16ZM35.76,3.7h1.34c.03,2.29.13,4.29.3,5.99.17,1.7.4,3.11.68,4.23.28,1.12.58,1.96.89,2.51.31.55.62.83.93.83.19-.01.33-.19.43-.54.1-.35.18-1.01.23-1.98.15.13.32.26.52.39.2.13.38.22.54.27-.07.89-.17,1.57-.31,2.03-.14.46-.33.77-.58.92-.25.15-.56.23-.93.23-.59,0-1.12-.33-1.59-.98-.47-.65-.88-1.61-1.23-2.87-.35-1.26-.62-2.82-.83-4.67-.21-1.85-.34-3.97-.39-6.36ZM37.76,3.72l.9-.68c.36.2.73.44,1.11.73s.66.56.85.81l-.94.76c-.19-.25-.46-.53-.83-.84-.37-.31-.73-.57-1.09-.78Z"/>
      <path class="cls-1" d="M51.62,7.12h.28l.28-.02.84.2c-.31,2.84-.88,5.19-1.71,7.04-.83,1.85-1.88,3.26-3.13,4.22-.07-.11-.17-.22-.3-.35-.13-.13-.27-.25-.42-.38-.15-.13-.27-.22-.38-.27,1.23-.88,2.23-2.16,3-3.84.77-1.68,1.29-3.78,1.54-6.3v-.3ZM47.62,1.4h4.56v1.34h-4.56v-1.34ZM48.28,9.1c-.03-.11-.08-.23-.16-.38-.08-.15-.16-.3-.24-.46-.08-.16-.15-.29-.22-.38.19-.04.39-.17.62-.4.23-.23.44-.5.64-.82.15-.2.38-.57.69-1.1.31-.53.65-1.16,1.01-1.87.36-.71.68-1.43.96-2.15v-.1l.56-.26.96.62c-.59,1.24-1.2,2.43-1.85,3.57-.65,1.14-1.28,2.12-1.89,2.93v.02c-.21.11-.39.2-.54.28-.15.08-.27.16-.38.25-.11.09-.16.17-.16.25ZM49.02,10.1c.41,1.4.95,2.53,1.6,3.4s1.42,1.53,2.3,2,1.87.78,2.96.95c1.09.17,2.27.25,3.54.25h5.22c.43,0,.74,0,.94-.02-.08.11-.16.24-.23.41s-.14.34-.21.51c-.07.17-.11.33-.14.46h-5.6c-1.45,0-2.78-.1-3.98-.3-1.2-.2-2.28-.57-3.24-1.1-.96-.53-1.8-1.29-2.51-2.28-.71-.99-1.3-2.27-1.77-3.86l1.12-.42ZM49.08,7.12h3.06v1.34h-3.24l.18-1.34ZM52.94,4.56h12.3v1.18h-12.3v-1.18ZM53.08,12.78h12v1.2h-12v-1.2ZM53.92,10.06h10.4v1.14h-10.4v-1.14ZM54.22,1.86h9.64v6.66h-9.78v-1.22h8.44V3.06h-8.3v-1.2ZM57.96.16h1.42v15.82h-1.42V.16Z"/>
      <path class="cls-1" d="M74.26,0l1.34.4c-.4.83-.9,1.63-1.51,2.4-.61.77-1.22,1.43-1.85,1.98-.07-.08-.16-.19-.29-.32-.13-.13-.26-.26-.4-.39-.14-.13-.26-.23-.37-.31.63-.45,1.21-1.01,1.76-1.68.55-.67.99-1.36,1.32-2.08ZM71.42,12.54h17.88v1.24h-17.88v-1.24ZM76.9,14.2l1.24.5c-.43.51-.95.98-1.58,1.43-.63.45-1.3.85-2.02,1.2-.72.35-1.43.64-2.12.85-.07-.12-.16-.26-.28-.41-.12-.15-.24-.3-.36-.45-.12-.15-.24-.27-.36-.36.68-.17,1.36-.4,2.05-.67s1.33-.59,1.94-.96c.61-.37,1.1-.74,1.49-1.13ZM71.48,10.14c.91-.11,2-.25,3.28-.44,1.28-.19,2.59-.38,3.92-.58l.04,1.18c-1.25.2-2.5.4-3.74.59-1.24.19-2.34.36-3.3.51l-.2-1.26ZM71.74,5.48h6.88v1.14h-6.88v-1.14ZM73.86,1.34h6.36v1.2h-6.36v-1.2ZM74.54,5.84h1.4v4.28h-1.4v-4.28ZM75.28,3.16l1-.7c.31.28.63.6.97.96s.6.67.79.92l-1.04.8c-.17-.27-.43-.59-.76-.97-.33-.38-.65-.72-.96-1.01ZM81.68,5.72h1.3v1.42c0,.52-.1,1.05-.31,1.6-.21.55-.57,1.06-1.08,1.55-.51.49-1.25.92-2.21,1.29-.07-.08-.16-.18-.27-.31-.11-.13-.23-.25-.36-.36-.13-.11-.24-.2-.35-.25.89-.33,1.58-.69,2.05-1.08.47-.39.8-.79.97-1.22.17-.43.26-.85.26-1.26v-1.38ZM79.08,8.1l.56-.9c.56.21,1.16.46,1.8.74.64.28,1.25.56,1.84.84.59.28,1.07.53,1.46.74l-.56,1.06c-.39-.23-.87-.49-1.46-.78-.59-.29-1.2-.59-1.84-.89-.64-.3-1.24-.57-1.8-.81ZM79.38,5.36h6.2v1.08h-6.2v-1.08ZM82.28.02l1.38.36c-.32.84-.76,1.64-1.31,2.41-.55.77-1.13,1.42-1.73,1.95-.08-.09-.19-.2-.32-.31-.13-.11-.27-.23-.42-.34-.15-.11-.28-.2-.4-.27.6-.47,1.15-1.03,1.64-1.7.49-.67.88-1.37,1.16-2.1ZM79.6,11.28h1.46v7.26h-1.46v-7.26ZM81.98,1.34h7.48v1.2h-7.48v-1.2ZM82.5,15.04l.96-.96c.61.27,1.26.57,1.95.9.69.33,1.34.67,1.97,1.01.63.34,1.14.66,1.54.95l-1.02,1.1c-.4-.29-.9-.62-1.51-.98s-1.25-.72-1.93-1.07c-.68-.35-1.33-.67-1.96-.95ZM84.02,3.16l1.04-.7c.31.25.63.55.96.89.33.34.59.63.76.87l-1.08.8c-.16-.25-.4-.56-.73-.91-.33-.35-.64-.67-.95-.95ZM85.1,5.36h1.42v4.2c0,.17,0,.32.02.43.01.11.04.19.08.23.07.05.17.08.3.08h.56c.07,0,.14,0,.21-.02.07-.01.13-.03.17-.06.05-.03.1-.07.14-.14s.07-.15.08-.26c.03-.13.04-.34.05-.61,0-.27.02-.59.03-.95.13.11.3.21.49.31s.38.18.55.23c-.01.37-.04.74-.07,1.1s-.08.63-.13.8c-.12.31-.31.52-.56.64-.12.05-.26.09-.43.12-.17.03-.32.04-.47.04h-.96c-.19,0-.38-.03-.59-.08-.21-.05-.38-.14-.51-.26-.13-.12-.23-.29-.29-.52-.06-.23-.09-.61-.09-1.16v-4.12Z"/>
    </g>
  </g>
</svg>