<?xml version="1.0" encoding="UTF-8"?>
<svg id="_圖層_2" data-name="圖層 2" xmlns="http://www.w3.org/2000/svg" viewBox="0 0 434.93 76.56">
  <defs>
    <style>
      .cls-1 {
        fill: #333;
      }
    </style>
  </defs>
  <g id="pic">
    <g>
      <path class="cls-1" d="M0,2.09C4.62,1.32,10.67.66,18.37.66c9.46,0,16.39,2.2,20.79,6.16,4.07,3.52,6.49,8.91,6.49,15.51s-1.98,11.99-5.72,15.84c-5.06,5.39-13.31,8.14-22.66,8.14-2.86,0-5.5-.11-7.7-.66v29.7H0V2.09ZM9.57,37.84c2.09.55,4.73.77,7.92.77,11.55,0,18.59-5.61,18.59-15.84s-6.93-14.52-17.49-14.52c-4.18,0-7.37.33-9.02.77v28.82Z"/>
      <path class="cls-1" d="M64.02,2.2c4.84-.99,11.77-1.54,18.37-1.54,10.23,0,16.83,1.87,21.45,6.05,3.74,3.3,5.83,8.36,5.83,14.08,0,9.79-6.16,16.28-13.97,18.92v.33c5.72,1.98,9.13,7.26,10.89,14.96,2.42,10.34,4.18,17.49,5.72,20.35h-9.9c-1.21-2.09-2.86-8.47-4.95-17.71-2.2-10.23-6.16-14.08-14.85-14.41h-9.02v32.12h-9.57V2.2ZM73.59,35.97h9.79c10.23,0,16.72-5.61,16.72-14.08,0-9.57-6.93-13.75-17.05-13.86-4.62,0-7.92.44-9.46.88v27.06Z"/>
      <path class="cls-1" d="M192.39,37.51c0,25.52-15.51,39.05-34.43,39.05s-33.33-15.18-33.33-37.62c0-23.54,14.63-38.94,34.43-38.94s33.33,15.51,33.33,37.51ZM134.86,38.72c0,15.84,8.58,30.03,23.65,30.03s23.76-13.97,23.76-30.8c0-14.74-7.7-30.14-23.65-30.14s-23.76,14.63-23.76,30.91Z"/>
      <path class="cls-1" d="M225.5,1.21h9.57v49.61c0,19.69-9.68,25.74-22.44,25.74-3.52,0-7.81-.77-10.23-1.76l1.43-7.81c1.98.77,4.84,1.43,8.03,1.43,8.58,0,13.64-3.85,13.64-18.37V1.21Z"/>
      <path class="cls-1" d="M294.91,40.59h-28.82v26.73h32.12v8.03h-41.69V1.21h40.04v8.03h-30.47v23.43h28.82v7.92Z"/>
      <path class="cls-1" d="M367.95,72.93c-3.52,1.76-10.56,3.52-19.58,3.52-20.9,0-36.63-13.2-36.63-37.51S327.47,0,350.46,0c9.24,0,15.07,1.98,17.6,3.3l-2.31,7.81c-3.63-1.76-8.8-3.08-14.96-3.08-17.38,0-28.93,11.11-28.93,30.58,0,18.15,10.45,29.81,28.49,29.81,5.83,0,11.77-1.21,15.62-3.08l1.98,7.59Z"/>
      <path class="cls-1" d="M402.59,9.35h-22.55V1.21h54.89v8.14h-22.66v66h-9.68V9.35Z"/>
    </g>
  </g>
</svg>