<?xml version="1.0" encoding="UTF-8"?>
<svg id="_圖層_2" data-name="圖層 2" xmlns="http://www.w3.org/2000/svg" viewBox="0 0 18.7 89.42">
  <g id="pic">
    <g>
      <path d="M8.06,9.3c.4,.7,.88,1.62,1.08,2.18l-.72,.28h.2v1.78c0,1.5-.36,2.86-2.84,3.74-.14-.26-.48-.68-.72-.88,1.28-.4,1.92-.94,2.22-1.54h-2.66v-2.8h1.02v1.86h1.88c.02-.14,.02-.26,.02-.4v-1.76h.76c-.06-.16-.16-.38-.24-.62-3.16,.3-3.64,.4-3.94,.5-.02-.2-.18-.72-.3-.98,.3-.02,.66-.24,1.08-.56,.22-.16,.68-.52,1.2-1.04-1.34,.1-1.68,.16-1.86,.24-.08-.24-.2-.74-.34-1.02,.22-.04,.42-.14,.66-.36,.2-.2,.96-1,1.42-1.82H2.54v11.32H1.12V0h7.28V6.1h-2.08l.68,.36c-.46,.68-1.02,1.32-1.56,1.82l1.48-.06c.32-.34,.62-.68,.88-1.04l.88,.58c-.96,1.02-2,2-3.02,2.76l2.02-.16c-.14-.28-.28-.56-.42-.8l.8-.26ZM2.54,1.08v1.5H7V1.08H2.54Zm0,3.92H7v-1.42H2.54v1.42Zm15.1,10.54c0,.82-.16,1.28-.7,1.52-.52,.26-1.36,.3-2.6,.3-.08-.4-.26-1.1-.46-1.48,.88,.04,1.72,.04,1.98,.02,.26,0,.34-.1,.34-.36V6.1h-4.48l.74,.38c-.48,.68-1.04,1.3-1.56,1.82l1.48-.08c.32-.34,.6-.68,.88-1.04l.86,.56c-.94,1.04-1.98,2.02-3.02,2.78l2-.16c-.14-.28-.28-.56-.42-.8l.76-.26c.44,.68,.92,1.62,1.16,2.16l-.8,.36c-.08-.2-.18-.42-.32-.68-3.14,.32-3.64,.38-3.9,.52-.04-.22-.2-.72-.3-1,.3-.04,.64-.22,1.06-.54,.22-.16,.66-.56,1.22-1.06-1.38,.1-1.7,.16-1.88,.26-.06-.24-.22-.74-.36-1.02,.24-.04,.44-.14,.66-.36,.22-.22,.96-1,1.44-1.84h-1.24V0h7.46V15.54Zm-4.7-.06v-.62h-1.92v2.26h-1.12v-5.36h1.12v2.16h1.92v-1.84h1.06v3.4h-1.06ZM11.6,1.08v1.5h4.6V1.08h-4.6Zm4.6,3.92v-1.42h-4.6v1.42h4.6Z" fill="#fff"/>
      <path d="M7.74,30.58s0,.48-.02,.68c-.24,6.26-.46,8.4-1.02,9.12-.32,.44-.64,.58-1.14,.62-.42,.06-1.1,.06-1.82,.02-.02-.4-.16-.98-.38-1.36,.7,.06,1.26,.06,1.54,.06,.26,.02,.42-.04,.58-.26,.38-.44,.6-2.34,.8-7.52H3.72c-.22,3.96-.8,7.24-2.6,9.4-.22-.36-.74-.86-1.12-1.08,2.14-2.58,2.32-7.02,2.38-12.44H.4v-1.38H8.44v1.38H3.84c-.02,.94-.04,1.88-.08,2.76h3.98Zm-3.36-4.16c-.24-.76-.96-1.96-1.62-2.84l1.3-.5c.68,.86,1.42,2,1.72,2.78l-1.4,.56Zm9.78-2.96c-.1,.38-.22,.74-.36,1.1,1.06,2.12,3.04,4.4,4.9,5.44-.36,.28-.84,.82-1.1,1.22-1.62-1.1-3.3-3.08-4.44-5.2-1.02,2.22-2.5,4.06-4.32,5.32-.24-.36-.64-.86-1.04-1.18,2.34-1.44,4.12-4.06,5-7.12l1.36,.42Zm-3.38,12.86c1.84,.9,4.28,2.32,5.46,3.34l-1,1.3c-1.14-1.06-3.52-2.56-5.4-3.52l.94-1.12Zm3.72-1.76c-.74-.76-2.26-1.94-3.44-2.76l.96-.96c1.18,.76,2.74,1.86,3.5,2.62l-1.02,1.1Z" fill="#fff"/>
      <path d="M7.8,61.94c-.44-.4-1.4-1.22-2.24-1.9v5.22h-1.42v-4.94c-.96,1.44-2.2,2.76-3.42,3.54-.12-.38-.42-.96-.64-1.32,1.44-.84,2.96-2.44,3.9-4.04H.8v-1.32h3.34v-2.1h1.42v2.1h3.22v1.32h-3.22v.16c.8,.54,2.82,2.06,3.34,2.46l-1.1,.82Zm.74-10.9c-1.86,2.06-4.72,3.78-7.42,4.7-.22-.38-.62-.92-.94-1.18,2.58-.72,5.3-2.24,7.04-3.98H1.04v-1.34h7.5v-2.1h1.48v2.1h7.52v1.34h-6.32c2.12,1.08,5.66,2.96,6.6,3.52l-.5,1.4c-1.4-.92-5.26-3.26-7.3-4.36v4.72h-1.48v-4.82Zm5.78,7.5c1.12,1.62,2.86,3.3,4.34,4.16-.32,.26-.78,.78-1.04,1.16-1.12-.86-2.48-2.26-3.52-3.74v5.32h-1.4v-5.22c-1.16,1.54-2.64,2.88-4.04,3.7-.2-.34-.62-.82-.92-1.06,1.74-.88,3.62-2.58,4.72-4.32h-3.02v-1.32h3.26v-2.14h1.4v2.14h3.8v1.32h-3.58Z" fill="#fff"/>
      <path d="M6.52,86.1c-1.36,1.14-3.46,2.28-5.18,2.98-.22-.28-.76-.82-1.06-1.08,1.72-.56,3.7-1.48,4.88-2.42l1.36,.52Zm11.54-7.4v1.22H.5v-1.22H8.6c-.18-.32-.4-.64-.6-.9l1.12-.38H2.76v-5.54H15.86v5.54h-6.5c.3,.38,.6,.86,.82,1.28h7.88Zm-8,6.34v2.94c0,.74-.18,1.06-.76,1.24-.56,.2-1.48,.2-2.9,.2-.06-.38-.26-.84-.42-1.2,1.02,.04,1.98,.04,2.26,.04,.28-.02,.34-.1,.34-.32v-2.9H3.22v-4.08H15.48v4.08h-5.42Zm-5.88-10.9H14.4v-1.24H4.18v1.24Zm0,2.26H14.4v-1.28H4.18v1.28Zm.48,7.54H14v-1.88H4.66v1.88Zm8.04,1.7c1.8,.64,4.1,1.72,5.3,2.52l-1,.98c-1.12-.8-3.42-1.94-5.24-2.64l.94-.86Z" fill="#fff"/>
    </g>
  </g>
</svg>