<?xml version="1.0" encoding="UTF-8"?>
<svg id="_圖層_2" data-name="圖層 2" xmlns="http://www.w3.org/2000/svg" viewBox="0 0 18.56 90.38">
  <g id="pic">
    <g>
      <path d="M0,5.28H6.1v1.4H0v-1.4ZM2.46,0h1.48V18.38h-1.48V0Zm3.14,12.52h12.8v1.24H5.6v-1.24Zm.62-10.34h11.94v1.22H6.22v-1.22Zm.9,2.22h9.48v1.08H8.4v5.9h-1.28V4.4Zm.48,10.14l.92-.9c.33,.23,.69,.48,1.07,.75,.38,.27,.75,.55,1.11,.83,.36,.28,.65,.52,.88,.72l-.96,1.02c-.21-.21-.5-.46-.85-.74-.35-.28-.72-.57-1.1-.87-.38-.3-.74-.57-1.07-.81Zm.34-7.96h8.6v.96H7.94v-.96Zm0,2h8.6v.94H7.94v-.94Zm6.16,2.9h1.36v5.34c0,.37-.05,.66-.15,.87-.1,.21-.3,.37-.59,.49-.29,.09-.68,.15-1.16,.17-.48,.02-1.09,.03-1.82,.03-.03-.19-.08-.4-.17-.64-.09-.24-.18-.45-.27-.64,.57,.01,1.08,.02,1.53,.02s.74,0,.89-.02c.16,0,.26-.02,.31-.07,.05-.05,.07-.12,.07-.23v-5.32ZM11.48,0h1.4V11.06h-1.4V0Zm2.34,.86L14.52,.02c.32,.13,.67,.29,1.05,.48s.74,.37,1.09,.54l.88,.44-.7,.98c-.24-.13-.53-.29-.88-.48s-.71-.38-1.08-.58c-.37-.2-.73-.38-1.06-.54Zm2.18,3.54h1.36v5.8c0,.31-.04,.53-.13,.68-.09,.15-.24,.27-.45,.36-.23,.08-.51,.13-.86,.15s-.77,.03-1.28,.03c-.03-.16-.08-.33-.17-.52-.09-.19-.17-.35-.25-.48,.36,.01,.68,.02,.96,.02s.47,0,.56-.02c.11,0,.18-.02,.21-.05,.03-.03,.05-.1,.05-.19V4.4Z" fill="#333"/>
      <path d="M6.12,38.56h1.48c-.13,.59-.35,1.1-.65,1.53s-.72,.8-1.25,1.1c-.53,.3-1.2,.55-2.01,.74s-1.8,.35-2.99,.47c-.04-.17-.13-.38-.27-.61-.14-.23-.28-.42-.41-.55,1.07-.08,1.96-.19,2.69-.32s1.32-.3,1.78-.51c.46-.21,.82-.46,1.08-.76,.26-.3,.44-.66,.55-1.09Zm2.86-13.88v.96H2.3v5.12h6.84v.96H.98v-7.04H8.98Zm-7.22,1.96h6.64v2.96H1.76v-.9H7.1v-1.14H1.76v-.92Zm1.32,5.92H15.32v6.48H3.08v-6.48Zm1.3-7.48h1.24v1.88h-1.24v-1.88Zm0,4.04h1.24v1.92h-1.24v-1.92Zm.12,4.36v.94H13.84v-.94H4.5Zm0,1.82v.96H13.84v-.96H4.5Zm0,1.84v.98H13.84v-.98H4.5Zm6.58-13.14l1.34,.22c-.25,.71-.6,1.41-1.03,2.1-.43,.69-1,1.33-1.69,1.92-.13-.15-.3-.31-.5-.48-.2-.17-.38-.29-.54-.36,.63-.49,1.14-1.04,1.53-1.65,.39-.61,.69-1.19,.89-1.75Zm-1.02,4.72h7.74v3.14h-7.74v-3.14Zm.34,9.76h1.46v1.96c0,.21,.07,.35,.2,.41,.13,.06,.43,.09,.9,.09h3.16c.27,0,.46-.04,.58-.12,.12-.08,.21-.25,.26-.51,.05-.26,.09-.66,.12-1.19,.15,.09,.35,.18,.6,.27,.25,.09,.47,.15,.66,.19-.05,.69-.15,1.22-.28,1.59-.13,.37-.34,.62-.62,.76-.28,.14-.67,.21-1.16,.21h-3.46c-.64,0-1.14-.05-1.49-.14-.35-.09-.6-.26-.73-.5-.13-.24-.2-.59-.2-1.04v-1.98Zm.58-13.32h7.14v1.04h-7.14v-1.04Zm.16,1.84h5.98v.94h-5.98v-.94Zm0,2.58v1.44h1.22v-1.44h-1.22Zm2.08,0v1.44h1.28v-1.44h-1.28Zm2.16,0v1.44h1.3v-1.44h-1.3Z" fill="#333"/>
      <path d="M2,60.38l1.2,.34c-.24,.72-.55,1.44-.92,2.17s-.75,1.35-1.14,1.87c-.12-.11-.29-.24-.5-.39-.21-.15-.4-.26-.56-.33,.4-.48,.76-1.05,1.09-1.7,.33-.65,.6-1.31,.83-1.96ZM.12,54.66H9.58v1.28H.12v-1.28Zm.08,3.36H9.34v1.32H.2v-1.32Zm.22-7.92H9.26v1.26H.42v-1.26Zm1.3,1.68l1.22-.28c.2,.43,.38,.9,.53,1.41,.15,.51,.26,.95,.31,1.31l-1.28,.36c-.05-.37-.15-.82-.29-1.35-.14-.53-.3-1.01-.49-1.45Zm1.76-3.52l1.5-.38c.23,.4,.46,.85,.7,1.34,.24,.49,.41,.91,.52,1.26l-1.54,.46c-.09-.36-.26-.79-.49-1.3s-.46-.97-.69-1.38Zm.74,7.08h1.46v10.98h-1.46v-10.98Zm2.52-3.88l1.4,.3c-.21,.6-.44,1.21-.68,1.83s-.47,1.15-.68,1.59l-1.22-.28c.13-.32,.27-.68,.42-1.08,.15-.4,.29-.81,.43-1.23s.25-.8,.33-1.13Zm-.14,9.34l1.04-.54c.32,.49,.64,1.04,.96,1.64,.32,.6,.56,1.11,.72,1.52l-1.08,.64c-.16-.44-.4-.97-.71-1.59s-.62-1.18-.93-1.67Zm3.96-10.88h1.4v6.94c0,.72-.02,1.49-.07,2.32-.05,.83-.14,1.66-.29,2.51-.15,.85-.36,1.66-.64,2.45-.28,.79-.65,1.51-1.1,2.16-.08-.09-.19-.2-.34-.32-.15-.12-.29-.23-.44-.34s-.27-.19-.38-.24c.57-.81,.99-1.71,1.25-2.7,.26-.99,.43-1.99,.5-3,.07-1.01,.11-1.96,.11-2.84v-6.94Zm6.26-1.56l1.22,1.1c-.64,.24-1.35,.46-2.14,.66-.79,.2-1.6,.38-2.43,.54-.83,.16-1.65,.29-2.45,.4-.03-.16-.09-.35-.18-.57-.09-.22-.19-.41-.28-.57,.75-.12,1.51-.26,2.29-.43,.78-.17,1.52-.35,2.21-.54,.69-.19,1.28-.39,1.76-.59Zm-5.68,6.4h7.24v1.4h-7.24v-1.4Zm3.56,.58h1.46v10.96h-1.46v-10.96Z" fill="#333"/>
      <path d="M.14,75.4H7.38v1.24H.14v-1.24Zm.8,7.94h1.2v6.8H.94v-6.8Zm.02-5.3H6.62v1.2H.96v-1.2Zm0,2.64H6.64v1.18H.96v-1.18Zm.58,2.66H6.64v5.84H1.54v-1.26h3.86v-3.32H1.54v-1.26Zm.74-10.82l1.08-.6c.28,.4,.55,.84,.82,1.32,.27,.48,.48,.9,.64,1.26l-1.14,.7c-.13-.36-.34-.8-.61-1.31-.27-.51-.54-.97-.79-1.37Zm5.08,8h6.8v1.4H7.36v-1.4Zm.24-7.38h7.94v1.42H7.6v-1.42Zm2.48,.9h1.42v16.34h-1.42v-16.34Zm4.78-.9h1.48c-.01,1.36-.03,2.67-.04,3.94-.01,1.27-.01,2.47,0,3.6,.01,1.13,.04,2.17,.08,3.1,.04,.93,.1,1.75,.17,2.44s.17,1.24,.3,1.64c.13,.4,.28,.63,.47,.68,.05,0,.1-.12,.14-.37s.08-.57,.12-.98c.04-.41,.07-.85,.08-1.33,.09,.11,.19,.23,.3,.38,.11,.15,.21,.28,.32,.4,.11,.12,.2,.22,.28,.3-.08,.95-.2,1.66-.37,2.15-.17,.49-.37,.8-.62,.93-.25,.13-.52,.14-.83,.02-.43-.13-.76-.52-1-1.15s-.43-1.47-.56-2.52c-.13-1.05-.22-2.26-.26-3.63-.04-1.37-.06-2.87-.06-4.5v-5.1Z" fill="#333"/>
    </g>
  </g>
</svg>