<?xml version="1.0" encoding="UTF-8"?>
<svg id="_圖層_2" data-name="圖層 2" xmlns="http://www.w3.org/2000/svg" viewBox="0 0 18.3 89.14">
  <g id="pic">
    <g>
      <path d="M8.48,8.12v9.36h-1.44v-2.04c-2.46,.28-4.9,.58-6.72,.78l-.16-1.3c.56-.04,1.2-.1,1.9-.18v-6.62H.4v-1.24H17.92v1.24H8.48Zm-4.46-2.04h-1.42V0H15.86V6.08h-1.48V1.12H4.02V6.08Zm3.02,2.04H3.44v1.3h3.6v-1.3Zm0,2.4H3.44v1.34h3.6v-1.34Zm-3.6,4.1c1.14-.12,2.36-.24,3.6-.38v-1.26H3.44v1.64ZM13.5,3.32H4.9v-1H13.5v1Zm-8.6,1.22H13.46v1H4.9v-1Zm12.36,5.14c-.62,1.92-1.66,3.5-2.94,4.74,1.12,.86,2.46,1.5,3.98,1.88-.3,.28-.7,.82-.88,1.16-1.58-.46-2.96-1.18-4.12-2.14-1.2,.92-2.56,1.62-3.96,2.1-.18-.32-.54-.88-.82-1.14,1.32-.4,2.62-1.04,3.78-1.9-.96-1.02-1.72-2.22-2.26-3.58l.86-.26h-1.88v-1.18h7.08l.26-.04,.9,.36Zm-5.98,.86c.46,1.12,1.16,2.14,2.02,3,.88-.86,1.64-1.86,2.16-3h-4.18Z" fill="#333"/>
      <path d="M3.26,35.88c-.48,1.42-1.32,2.98-2.06,3.98-.24-.18-.74-.56-1.04-.72,.78-.94,1.48-2.3,1.88-3.6l1.22,.34Zm2.46-1.4v6.94h-1.46v-6.94H.28v-1.28h3.98v-2.1H.18v-1.26H5.7c.38-.92,.84-2.24,1.08-3.16l1.36,.28c-.36,.96-.74,2.04-1.12,2.88h2.54v1.26h-3.84v2.1h3.62v1.28h-3.62Zm3.54-7.92H.5v-1.24h3.92c-.26-.6-.6-1.28-.88-1.82l1.44-.38c.42,.68,.86,1.54,1.14,2.2h3.14v1.24Zm-6.7,3.2c-.1-.74-.42-1.9-.76-2.78l1.18-.28c.4,.86,.74,1.98,.82,2.72l-1.24,.34Zm5.08,5.66c.64,.98,1.34,2.28,1.68,3.14l-1.06,.6c-.32-.86-1.04-2.24-1.64-3.2l1.02-.54Zm10.64-4.1h-2.18v10.08h-1.44v-10.08h-2.74v.7c0,2.86-.26,6.78-2.08,9.38-.24-.28-.82-.74-1.14-.9,1.68-2.4,1.84-5.82,1.84-8.48v-6.88c2.24-.36,4.78-.96,6.22-1.56l1.18,1.1c-1.64,.62-3.92,1.12-6.02,1.44v3.8h6.36v1.4Z" fill="#333"/>
      <path d="M3.66,56.16c-.8-.56-2.46-1.52-3.66-2.16l.8-1.08c1.18,.58,2.84,1.46,3.68,2.02l-.82,1.22Zm-3,8.06c1.06-1.52,2.64-4.14,3.78-6.4l1.08,.98c-1.06,2.1-2.44,4.58-3.62,6.42l-1.24-1Zm1.28-16.72c1.18,.66,2.8,1.6,3.64,2.18l-.9,1.18c-.8-.6-2.4-1.62-3.6-2.34l.86-1.02Zm15.18,16.12c0,.84-.18,1.28-.78,1.52-.6,.24-1.6,.24-3.12,.24-.04-.4-.26-1-.46-1.42,1.14,.06,2.18,.06,2.48,.04,.32-.02,.42-.1,.42-.4v-3.74c-2.38,.62-4.86,1.22-6.74,1.66l-.5-1.28c1.84-.38,4.58-.98,7.24-1.62v-4.36h-7.5v4.14c0,2.2-.2,5.16-1.38,7.18-.24-.26-.82-.72-1.14-.88,1.02-1.82,1.12-4.32,1.12-6.3v-5.5h4.5v-5.68h1.46v5.68h4.4v10.72Zm-8.88-11.42c-.3-1.02-1.16-2.6-2-3.74l1.24-.58c.88,1.12,1.78,2.64,2.1,3.66l-1.34,.66Zm1.1,3.38c1.78,.34,4,1.06,5.18,1.66l-.58,1.08c-1.16-.64-3.38-1.4-5.18-1.78l.58-.96Zm8.48-7.22c-.68,1.3-1.54,2.76-2.26,3.74l-1.28-.54c.72-1.02,1.64-2.62,2.12-3.78l1.42,.58Z" fill="#333"/>
      <path d="M.18,87.9c.78-1.1,1.56-2.8,2.04-4.04l1.28,.56c-.54,1.22-1.24,2.98-1.96,4.12l-1.36-.64Zm8.48-5.36H3.12v-9.46H7.76c.3-.64,.6-1.48,.76-2.06l1.72,.3c-.28,.62-.62,1.26-.94,1.76h5.96v9.46h-6.48c1.02,.88,2.16,2.16,2.68,3l-1.2,.74c-.5-.88-1.64-2.2-2.66-3.14l1.06-.6Zm3.2,5.22c1.06,0,1.24-.3,1.34-2.32,.34,.26,.96,.48,1.38,.56-.2,2.54-.68,3.14-2.62,3.14H7.4c-2.32,0-2.92-.42-2.92-2v-3.26h1.48v3.24c0,.54,.22,.64,1.52,.64h4.38Zm-7.3-11.9H13.78v-1.6H4.56v1.6Zm0,2.74H13.78v-1.6H4.56v1.6Zm0,2.74H13.78v-1.6H4.56v1.6Zm11.18,2.2c.94,1.2,1.92,2.86,2.28,3.96l-1.38,.64c-.34-1.1-1.3-2.8-2.22-4.04l1.32-.56Z" fill="#333"/>
    </g>
  </g>
</svg>