<?xml version="1.0" encoding="UTF-8"?>
<svg id="_圖層_2" data-name="圖層 2" xmlns="http://www.w3.org/2000/svg" viewBox="0 0 81.95 358.38">
  <g id="pic">
    <g>
      <path d="M78.1,9.35H9.9v30.25H1.1V0H78.1V9.35Z" fill="#333"/>
      <path d="M30.14,72.82l-1.98-.88L1.1,60.5v-10.45l80.85,35.75L1.1,121.55v-10.45l26.4-11.22,2.2-.88,31.02-13.2-30.58-12.98Zm2.86-3.85v34.1l-8.8,3.3v-40.7l8.8,3.3Z" fill="#333"/>
      <path d="M78.1,121v48.95h-8.8v-19.8H1.1v-9.35H69.3v-19.8h8.8Z" fill="#333"/>
      <path d="M78.1,194.7H1.1v-9.35H78.1v9.35Zm0-4.18v38.83h-8.8v-38.83h8.8Zm-30.8,0v36.63h-8.8v-36.63h8.8Zm-37.4,0v38.83H1.1v-38.83H9.9Z" fill="#333"/>
      <path d="M16.28,259.76c-2.35,1.94-4.18,4.12-5.5,6.54-1.32,2.42-1.98,5.17-1.98,8.25,0,4.11,1.14,7.41,3.41,9.9,2.27,2.49,5.17,3.74,8.69,3.74s6.2-.81,8.25-2.42c2.05-1.61,3.72-3.72,5-6.33,1.28-2.6,2.44-5.37,3.47-8.31,.66-1.91,1.52-4.03,2.58-6.38,1.06-2.35,2.42-4.58,4.07-6.71,1.65-2.13,3.69-3.87,6.1-5.22,2.42-1.36,5.39-2.04,8.91-2.04,3.81,0,7.22,.95,10.23,2.86,3.01,1.91,5.37,4.55,7.09,7.92,1.72,3.37,2.59,7.22,2.59,11.55s-.79,7.83-2.36,10.95c-1.58,3.12-3.59,5.77-6.05,7.97-2.46,2.2-5.04,3.92-7.76,5.17l-4.62-8.03c1.91-.95,3.78-2.16,5.61-3.63,1.83-1.47,3.34-3.25,4.51-5.33,1.17-2.09,1.76-4.64,1.76-7.64,0-4.18-1.01-7.22-3.02-9.13-2.02-1.91-4.27-2.86-6.77-2.86-2.13,0-4.09,.55-5.89,1.65-1.8,1.1-3.48,2.95-5.06,5.55-1.58,2.6-3.14,6.14-4.68,10.62-.73,2.05-1.69,4.22-2.86,6.49-1.17,2.27-2.66,4.38-4.45,6.33-1.8,1.94-3.96,3.54-6.49,4.79-2.53,1.25-5.56,1.87-9.08,1.87s-6.42-.64-9.13-1.92c-2.71-1.28-5.02-3.04-6.93-5.28-1.91-2.24-3.37-4.77-4.4-7.59-1.03-2.82-1.54-5.78-1.54-8.86,0-4.18,.9-8.05,2.7-11.6,1.8-3.56,4.18-6.67,7.15-9.35,2.97-2.68,6.14-4.86,9.51-6.54l5.06,7.48c-3.08,1.76-5.79,3.61-8.14,5.55Z" fill="#333"/>
      <path d="M78.1,309.43v48.95h-8.8v-19.8H1.1v-9.35H69.3v-19.8h8.8Z" fill="#333"/>
    </g>
  </g>
</svg>