<?xml version="1.0" encoding="UTF-8"?>
<svg id="_圖層_2" data-name="圖層_2" xmlns="http://www.w3.org/2000/svg" xmlns:xlink="http://www.w3.org/1999/xlink" viewBox="0 0 138.97 35.02">
  <defs>
    <style>
      .cls-1 {
        fill: #231815;
      }

      .cls-2 {
        mask: url(#mask-1);
      }

      .cls-3 {
        mask: url(#mask);
      }

      .cls-4 {
        filter: url(#luminosity-noclip-2);
      }

      .cls-5 {
        fill: #333;
      }

      .cls-6 {
        fill: #1a4a2c;
      }

      .cls-7 {
        filter: url(#luminosity-noclip);
      }

      .cls-8 {
        fill: #937e28;
      }
    </style>
    <filter id="luminosity-noclip" x="0" y="-.85" width="40.71" height="37.64" color-interpolation-filters="sRGB" filterUnits="userSpaceOnUse">
      <feFlood flood-color="#fff" result="bg"/>
      <feBlend in="SourceGraphic" in2="bg"/>
    </filter>
    <mask id="mask" x="0" y="-.85" width="40.71" height="37.64" maskUnits="userSpaceOnUse">
      <g class="cls-7">
        <rect class="cls-1" x="19.29" y="-.85" width="21.43" height="37.64"/>
      </g>
    </mask>
    <filter id="luminosity-noclip-2" x="-2.2" y="-.85" width="40.74" height="37.64" color-interpolation-filters="sRGB" filterUnits="userSpaceOnUse">
      <feFlood flood-color="#fff" result="bg"/>
      <feBlend in="SourceGraphic" in2="bg"/>
    </filter>
    <mask id="mask-1" x="-2.2" y="-.85" width="40.74" height="37.64" maskUnits="userSpaceOnUse">
      <g class="cls-4">
        <rect class="cls-1" x="-2.2" y="-.85" width="21.43" height="37.64"/>
      </g>
    </mask>
  </defs>
  <g id="pic">
    <g>
      <g>
        <path class="cls-5" d="M54.04,19.46v-1.61h3.3v-1.98h1.76v1.98h2.64v1.61h-2.64v1.17l.59-.51c.83.54,1.56,1.1,2.2,1.69l-1.25,1.1c-.15-.15-.39-.37-.73-.66-.34-.34-.61-.61-.81-.81v4.54h-1.76v-4.69c-.59,1.22-1.56,2.35-2.93,3.37-.2-.25-.51-.64-.95-1.17-.05-.05-.1-.1-.15-.15,1.66-1.27,2.86-2.57,3.59-3.88h-2.86ZM54.34,12.05v-1.61h7.11v-1.98h1.91v1.98h7.18v1.61h-6.23c1.76,1.17,4.06,2,6.89,2.49-.15.29-.34.78-.59,1.47-.05.15-.1.27-.15.37-3.23-.83-5.6-1.95-7.11-3.37v3.37h-1.91v-3.37c-1.76,1.47-4.13,2.61-7.11,3.44-.05-.15-.15-.37-.29-.66-.2-.49-.34-.85-.44-1.1,2.88-.63,5.16-1.51,6.82-2.64h-6.08ZM62.69,19.46v-1.61h2.64v-1.98h1.69v1.98h3.59v1.61h-3.23c1.03,1.61,2.37,2.86,4.03,3.74-.1.15-.22.34-.37.59-.29.39-.49.71-.59.95-1.47-.88-2.61-1.98-3.44-3.3v4.54h-1.69v-4.62c-.83,1.42-2,2.64-3.52,3.66-.39-.59-.76-1.03-1.1-1.32,1.71-1.07,3.13-2.49,4.25-4.25h-2.27Z"/>
        <path class="cls-5" d="M76.93,25.83l-.88-1.54c1.51-.39,3.32-1.07,5.42-2.05l.95,1.32c-.29.1-.68.25-1.17.44-1.81.83-3.25,1.44-4.32,1.83ZM77.73,14.69v-5.5h14.37v5.5h-5.86v1.17h7.48v1.39h-17.59v-1.39h8.21v-1.17h-6.6ZM78.25,22.02v-3.74h13.34v3.74h-5.35v1.69c.05,1.37-.68,2.08-2.2,2.13l-2.13.07c-.05-.44-.17-1.03-.37-1.76.54.05,1.1.07,1.69.07.73,0,1.1-.27,1.1-.81v-1.39h-6.08ZM79.64,10.44v1.03h10.55v-1.03h-10.55ZM79.64,12.49v1.03h10.55v-1.03h-10.55ZM80.15,19.46v1.32h9.53v-1.32h-9.53ZM92.83,25.69c-1.42-.68-3.2-1.34-5.35-1.98l.88-1.32c2.3.78,4.11,1.37,5.42,1.76l-.95,1.54Z"/>
        <path class="cls-5" d="M104.21,14.03v-1.39h4.32v-1.32h-3.52v-1.39h3.52v-1.47h1.83v1.47h4.4v2.71h1.47v1.39h-1.47v2.71h-4.4v1.32h4.69v1.39h-4.69v1.25h5.2v1.47h-5.2v1.69h5.94c-.2.39-.37.93-.51,1.61-3.23,0-5.79-.02-7.7-.07-2.88-.05-4.98-.61-6.3-1.69-.64.68-1.42,1.47-2.35,2.35-.39-.83-.71-1.39-.95-1.69.78-.63,1.47-1.32,2.05-2.05-.73-.93-1.37-2.13-1.91-3.59l1.47-.73c.49,1.27.93,2.17,1.32,2.71.44-1.07.73-2.35.88-3.81h-1.47l-.29.51-2.05-.07,3.52-5.94h-3.15v-1.69h5.28v1.76l-2.27,3.74h2.2v.81c-.2,2.74-.66,4.79-1.39,6.16,1.07,1.12,2.91,1.69,5.5,1.69h.37v-1.69h-4.32v-1.47h4.32v-1.25h-3.74v-1.39h3.74v-1.32h-3.59v-1.32h3.59v-1.39h-4.32ZM113.01,11.32h-2.64v1.32h2.64v-1.32ZM110.37,14.03v1.39h2.64v-1.39h-2.64Z"/>
        <path class="cls-5" d="M121.08,13.23v-1.54h6.96v1.54h-6.96ZM121.6,15.79v-1.39h5.86v1.39h-5.86ZM121.6,18.36v-1.39h5.86v1.39h-5.86ZM128.34,26.05c-.1-.2-.29-.54-.59-1.03-.15-.25-.25-.42-.29-.51v1.25h-1.61v-1.03h-2.57v.95h-1.61v-6.08h5.79v4.69c1.56-.34,2.96-.88,4.18-1.61-.98-.93-1.88-2.25-2.71-3.96l1.03-.44h-1.54v-1.69h9.31v1.76c-.93,1.81-1.93,3.25-3.01,4.32,1.07.64,2.47,1.15,4.18,1.54-.1.15-.24.41-.44.81-.29.44-.49.73-.59.88-1.91-.64-3.47-1.3-4.69-1.98-1.42.83-3.03,1.54-4.84,2.13ZM122.04,10.52v-1.39h5.06v1.39h-5.06ZM123.28,21.07v2.35h2.57v-2.35h-2.57ZM129,16.16c-.2-.49-.56-1-1.1-1.54,1.51-.59,2.2-1.78,2.05-3.59v-1.76h5.94v3.52c-.05.68.17,1,.66.95h.22c.34,0,.54-.27.59-.81.15-.59.19-1.07.15-1.47.29.2.73.39,1.32.59.05.05.1.07.15.07v.22c-.05.34-.15.86-.29,1.54-.15,1.08-.73,1.59-1.76,1.54h-.95c-1.22.05-1.81-.66-1.76-2.13v-2.35h-2.57c.15,2.49-.73,4.23-2.64,5.2ZM135.67,18.28h-4.98c.68,1.32,1.51,2.42,2.49,3.3.98-.88,1.81-1.98,2.49-3.3Z"/>
      </g>
      <g>
        <g class="cls-3">
          <g>
            <polygon class="cls-6" points="38.54 34.95 35.31 34.95 35.31 14.23 24.22 6.28 24.22 26.29 19.24 34.01 14.32 26.28 14.32 6.28 3.23 14.23 3.23 34.95 0 34.95 0 12.57 17.55 0 17.55 25.38 19.26 27.83 20.99 25.37 20.99 0 38.54 12.57 38.54 34.95"/>
            <polygon class="cls-6" points="10.84 35.02 7.61 35.02 7.61 16.44 10.84 13.77 10.84 35.02"/>
            <polygon class="cls-6" points="27.86 35.02 31.08 35.02 31.08 16.44 27.86 13.77 27.86 35.02"/>
          </g>
        </g>
        <g class="cls-2">
          <g>
            <polygon class="cls-8" points="38.54 34.95 35.31 34.95 35.31 14.23 24.22 6.28 24.22 26.29 19.24 34.01 14.32 26.28 14.32 6.28 3.23 14.23 3.23 34.95 0 34.95 0 12.57 17.55 0 17.55 25.38 19.26 27.83 20.99 25.37 20.99 0 38.54 12.57 38.54 34.95"/>
            <polygon class="cls-8" points="10.84 35.02 7.61 35.02 7.61 16.44 10.84 13.77 10.84 35.02"/>
            <polygon class="cls-8" points="27.86 35.02 31.08 35.02 31.08 16.44 27.86 13.77 27.86 35.02"/>
          </g>
        </g>
      </g>
    </g>
  </g>
</svg>