<?xml version="1.0" encoding="UTF-8"?>
<svg id="_圖層_2" data-name="圖層 2" xmlns="http://www.w3.org/2000/svg" viewBox="0 0 138.97 35.01">
  <g id="pic">
    <g>
      <g>
        <path d="M21.52,12.86c0-3.72-.01-7.44,.01-11.16,0-.57-.28-1.33,.39-1.64,.56-.25,.96,.37,1.37,.68,4.62,3.64,9.22,7.32,13.86,10.94,.93,.73,1.4,1.5,1.39,2.72-.05,6.22-.05,12.45-.02,18.67,0,1.2-.21,1.89-1.65,1.89-1.43,0-1.87-.51-1.85-1.9,.07-5.61,0-11.23,.07-16.84,.01-1.28-.37-2.15-1.39-2.93-2.43-1.84-4.78-3.77-7.18-5.64-.4-.31-.81-.9-1.39-.55-.44,.27-.23,.87-.23,1.32-.01,5.21-.06,10.42,.02,15.63,.03,1.72-.34,3.13-1.5,4.44-1.21,1.36-2.27,2.86-3.33,4.34-.7,.98-1.18,.88-1.76-.1-1.13-1.92-2.31-3.82-3.48-5.72-.49-.8-.48-1.67-.48-2.55,0-5.14,0-10.28-.01-15.42,0-.65,.31-1.51-.32-1.9-.69-.43-1.21,.37-1.74,.73-2.4,1.65-4.73,3.4-7.15,5-1.27,.84-1.75,1.86-1.74,3.37,.05,5.55-.02,11.09,0,16.64,0,1.16,.06,2.08-1.61,2.1C.08,35-.01,34.13,0,32.82c.06-6.22,.09-12.45,.06-18.67,0-1.28,.38-2.14,1.44-2.88C6.34,7.91,11.12,4.48,15.93,1.1c.42-.3,.86-.89,1.4-.6,.63,.33,.38,1.09,.38,1.66,.02,7.04,.04,14.07,.01,21.11,0,1.69,.25,4.01,1.78,4.01,1.61,0,2.09-2.22,2.04-4.06-.09-3.45-.03-6.9-.03-10.35Z" fill="#333"/>
        <path d="M27.82,23.99c0-3.04,0-6.07,0-9.11,0-.45-.15-1.01,.34-1.29,.52-.29,.84,.23,1.23,.45,1.42,.81,1.97,1.93,1.93,3.64-.14,5.06-.09,10.12-.1,15.18,0,1.15,.04,2.11-1.62,2.11-1.61,0-1.9-.68-1.86-2.09,.08-2.97,.03-5.94,.03-8.91h.05Z" fill="#333"/>
        <path d="M11.08,24.3c0,2.97-.04,5.95,.02,8.92,.03,1.31-.47,1.8-1.78,1.79-1.26,0-1.61-.54-1.61-1.72,.04-5.47,.08-10.94-.01-16.41-.03-1.79,1.24-2.31,2.41-2.85,1.14-.53,.95,.58,.96,1.16,.03,3.04,.02,6.08,.01,9.12Z" fill="#333"/>
      </g>
      <g>
        <path d="M54.04,19.44v-1.61h3.3v-1.98h1.76v1.98h2.64v1.61h-2.64v1.17l.59-.51c.83,.54,1.56,1.1,2.2,1.69l-1.25,1.1c-.15-.15-.39-.37-.73-.66-.34-.34-.61-.61-.81-.81v4.54h-1.76v-4.69c-.59,1.22-1.56,2.35-2.93,3.37-.2-.25-.51-.64-.95-1.17-.05-.05-.1-.1-.15-.15,1.66-1.27,2.86-2.57,3.59-3.88h-2.86Zm.29-7.4v-1.61h7.11v-1.98h1.91v1.98h7.18v1.61h-6.23c1.76,1.17,4.06,2,6.89,2.49-.15,.29-.34,.78-.59,1.47-.05,.15-.1,.27-.15,.37-3.23-.83-5.6-1.95-7.11-3.37v3.37h-1.91v-3.37c-1.76,1.47-4.13,2.61-7.11,3.44-.05-.15-.15-.37-.29-.66-.2-.49-.34-.85-.44-1.1,2.88-.63,5.16-1.51,6.82-2.64h-6.08Zm8.36,7.4v-1.61h2.64v-1.98h1.69v1.98h3.59v1.61h-3.23c1.03,1.61,2.37,2.86,4.03,3.74-.1,.15-.22,.34-.37,.59-.29,.39-.49,.71-.59,.95-1.47-.88-2.61-1.98-3.44-3.3v4.54h-1.69v-4.62c-.83,1.42-2,2.64-3.52,3.66-.39-.59-.76-1.03-1.1-1.32,1.71-1.07,3.13-2.49,4.25-4.25h-2.27Z" fill="#333"/>
        <path d="M76.93,25.81l-.88-1.54c1.51-.39,3.32-1.07,5.42-2.05l.95,1.32c-.29,.1-.68,.25-1.17,.44-1.81,.83-3.25,1.44-4.32,1.83Zm.81-11.14v-5.5h14.37v5.5h-5.86v1.17h7.48v1.39h-17.59v-1.39h8.21v-1.17h-6.6Zm.51,7.33v-3.74h13.34v3.74h-5.35v1.69c.05,1.37-.68,2.08-2.2,2.13l-2.13,.07c-.05-.44-.17-1.03-.37-1.76,.54,.05,1.1,.07,1.69,.07,.73,0,1.1-.27,1.1-.81v-1.39h-6.08Zm1.39-11.58v1.03h10.55v-1.03h-10.55Zm0,2.05v1.03h10.55v-1.03h-10.55Zm.51,6.96v1.32h9.53v-1.32h-9.53Zm12.68,6.23c-1.42-.68-3.2-1.34-5.35-1.98l.88-1.32c2.3,.78,4.11,1.37,5.42,1.76l-.95,1.54Z" fill="#333"/>
        <path d="M104.21,14.01v-1.39h4.32v-1.32h-3.52v-1.39h3.52v-1.47h1.83v1.47h4.4v2.71h1.47v1.39h-1.47v2.71h-4.4v1.32h4.69v1.39h-4.69v1.25h5.2v1.47h-5.2v1.69h5.94c-.2,.39-.37,.93-.51,1.61-3.23,0-5.79-.02-7.7-.07-2.88-.05-4.98-.61-6.3-1.69-.64,.68-1.42,1.47-2.35,2.35-.39-.83-.71-1.39-.95-1.69,.78-.63,1.47-1.32,2.05-2.05-.73-.93-1.37-2.13-1.91-3.59l1.47-.73c.49,1.27,.93,2.17,1.32,2.71,.44-1.07,.73-2.35,.88-3.81h-1.47l-.29,.51-2.05-.07,3.52-5.94h-3.15v-1.69h5.28v1.76l-2.27,3.74h2.2v.81c-.2,2.74-.66,4.79-1.39,6.16,1.07,1.12,2.91,1.69,5.5,1.69h.37v-1.69h-4.32v-1.47h4.32v-1.25h-3.74v-1.39h3.74v-1.32h-3.59v-1.32h3.59v-1.39h-4.32Zm8.8-2.71h-2.64v1.32h2.64v-1.32Zm-2.64,2.71v1.39h2.64v-1.39h-2.64Z" fill="#333"/>
        <path d="M121.08,13.21v-1.54h6.96v1.54h-6.96Zm.51,2.57v-1.39h5.86v1.39h-5.86Zm0,2.57v-1.39h5.86v1.39h-5.86Zm6.74,7.7c-.1-.2-.29-.54-.59-1.03-.15-.25-.25-.42-.29-.51v1.25h-1.61v-1.03h-2.57v.95h-1.61v-6.08h5.79v4.69c1.56-.34,2.96-.88,4.18-1.61-.98-.93-1.88-2.25-2.71-3.96l1.03-.44h-1.54v-1.69h9.31v1.76c-.93,1.81-1.93,3.25-3.01,4.32,1.07,.64,2.47,1.15,4.18,1.54-.1,.15-.24,.41-.44,.81-.29,.44-.49,.73-.59,.88-1.91-.64-3.47-1.3-4.69-1.98-1.42,.83-3.03,1.54-4.84,2.13Zm-6.3-15.54v-1.39h5.06v1.39h-5.06Zm1.25,10.55v2.35h2.57v-2.35h-2.57Zm5.72-4.91c-.2-.49-.56-1-1.1-1.54,1.51-.59,2.2-1.78,2.05-3.59v-1.76h5.94v3.52c-.05,.68,.17,1,.66,.95h.22c.34,0,.54-.27,.59-.81,.15-.59,.19-1.07,.15-1.47,.29,.2,.73,.39,1.32,.59,.05,.05,.1,.07,.15,.07v.22c-.05,.34-.15,.86-.29,1.54-.15,1.08-.73,1.59-1.76,1.54h-.95c-1.22,.05-1.81-.66-1.76-2.13v-2.35h-2.57c.15,2.49-.73,4.23-2.64,5.2Zm6.67,2.13h-4.98c.68,1.32,1.51,2.42,2.49,3.3,.98-.88,1.81-1.98,2.49-3.3Z" fill="#333"/>
      </g>
    </g>
  </g>
</svg>