<?xml version="1.0" encoding="UTF-8"?>
<svg id="_圖層_2" data-name="圖層 2" xmlns="http://www.w3.org/2000/svg" xmlns:xlink="http://www.w3.org/1999/xlink" viewBox="0 0 28.43 55.43">
  <defs>
    <linearGradient id="_未命名漸層_70" data-name="未命名漸層 70" x1="-2425.45" y1="-4323.98" x2="-2371.25" y2="-4323.98" gradientTransform="translate(2399.42 4352.32)" gradientUnits="userSpaceOnUse">
      <stop offset="0" stop-color="#c6c6c6"/>
      <stop offset=".4" stop-color="#969697"/>
      <stop offset="1" stop-color="#000"/>
    </linearGradient>
  </defs>
  <g id="pic">
    <g>
      <g>
        <path d="M13.73,1.7V0l14.7,1.7-10.14,5.6,10.14,5.6-14.7,1.7v-1.7l9.46-1.04L15.03,7.3,23.19,2.74,13.73,1.7Z" fill="#333"/>
        <path d="M23.58,17.73c.87,.35,1.63,.85,2.28,1.49,.65,.64,1.15,1.39,1.52,2.26,.37,.87,.55,1.81,.55,2.82s-.18,1.97-.55,2.83c-.37,.86-.87,1.61-1.52,2.25-.65,.64-1.41,1.14-2.28,1.49-.87,.35-1.82,.53-2.85,.53s-1.96-.18-2.84-.53c-.88-.35-1.64-.85-2.29-1.49-.65-.64-1.15-1.39-1.52-2.25-.37-.86-.55-1.8-.55-2.83s.18-1.95,.55-2.82c.37-.87,.87-1.62,1.52-2.26,.65-.64,1.41-1.14,2.29-1.49,.88-.35,1.83-.53,2.84-.53s1.98,.18,2.85,.53Zm-5.67,1.96c-.83,.46-1.48,1.09-1.96,1.89-.48,.8-.72,1.71-.72,2.72s.24,1.94,.72,2.73c.48,.79,1.13,1.42,1.96,1.88,.83,.46,1.77,.69,2.82,.69s1.99-.23,2.82-.69c.83-.46,1.48-1.09,1.96-1.88,.48-.79,.72-1.7,.72-2.73s-.24-1.92-.72-2.72c-.48-.8-1.13-1.43-1.96-1.89-.83-.46-1.77-.69-2.82-.69s-1.99,.23-2.82,.69Z" fill="#333"/>
        <path d="M27.73,36.5H13.73v-1.7h14v1.7Zm-7.1,2.7l-6.9,5v-2.1l6.9-4.8v1.9Zm7.1-3.46v2.86c0,.91-.17,1.72-.51,2.43-.34,.71-.82,1.28-1.45,1.7s-1.37,.63-2.24,.63-1.6-.21-2.23-.63c-.63-.42-1.12-.99-1.46-1.7-.34-.71-.51-1.52-.51-2.43v-2.86h1.5v2.86c0,.6,.11,1.13,.32,1.59,.21,.46,.52,.82,.92,1.08,.4,.26,.89,.39,1.46,.39s1.06-.13,1.46-.39c.4-.26,.71-.62,.92-1.08,.21-.46,.32-.99,.32-1.59v-2.86h1.5Z" fill="#333"/>
        <path d="M27.73,48.7H13.73v-1.7h14v1.7Zm-12.4-.76v7.06h-1.6v-7.06h1.6Zm6.8,0v6.66h-1.6v-6.66h1.6Zm5.6,0v7.06h-1.6v-7.06h1.6Z" fill="#333"/>
      </g>
      <rect x="-26.03" y="27.27" width="54.19" height="2.13" transform="translate(29.4 27.27) rotate(90)" fill="url(#_未命名漸層_70)"/>
    </g>
  </g>
</svg>