<?xml version="1.0" encoding="UTF-8"?>
<svg id="_圖層_2" data-name="圖層 2" xmlns="http://www.w3.org/2000/svg" viewBox="0 0 84.7 317.68">
  <g id="pic">
    <g>
      <path d="M80.85,67.65H0L61.16,9.35H3.85V0H84.7L23.54,58.3h57.31v9.35Z" fill="#333"/>
      <path d="M80.85,100.1H3.85v-9.35H80.85v9.35Zm-68.2-4.18v38.83H3.85v-38.83H12.65Zm37.4,0v36.63h-8.8v-36.63h8.8Zm30.8,0v38.83h-8.8v-38.83h8.8Z" fill="#333"/>
      <path d="M80.85,245.3v10.45L0,225.5l59.84-23.1L0,179.3l80.85-30.25v10.45l-56.65,20.46,60.5,22.44-60.5,22.88,56.65,20.02Z" fill="#333"/>
      <path d="M19.03,279.56c-2.35,1.94-4.18,4.12-5.5,6.54-1.32,2.42-1.98,5.17-1.98,8.25,0,4.11,1.14,7.41,3.41,9.9,2.27,2.49,5.17,3.74,8.69,3.74s6.2-.81,8.25-2.42c2.05-1.61,3.72-3.72,5-6.33,1.28-2.6,2.44-5.37,3.46-8.3,.66-1.91,1.52-4.03,2.59-6.38,1.06-2.35,2.42-4.58,4.07-6.71,1.65-2.13,3.69-3.87,6.11-5.22,2.42-1.36,5.39-2.04,8.91-2.04,3.81,0,7.22,.95,10.23,2.86,3.01,1.91,5.37,4.55,7.09,7.92,1.72,3.37,2.58,7.22,2.58,11.55s-.79,7.83-2.36,10.94c-1.58,3.12-3.59,5.77-6.05,7.98-2.46,2.2-5.04,3.92-7.76,5.17l-4.62-8.03c1.91-.95,3.78-2.16,5.61-3.63,1.83-1.47,3.34-3.24,4.51-5.33,1.17-2.09,1.76-4.64,1.76-7.65,0-4.18-1.01-7.22-3.02-9.13-2.02-1.91-4.27-2.86-6.76-2.86-2.13,0-4.09,.55-5.89,1.65-1.8,1.1-3.48,2.95-5.06,5.56-1.58,2.6-3.13,6.14-4.67,10.61-.73,2.05-1.69,4.22-2.86,6.49-1.17,2.27-2.66,4.38-4.46,6.32-1.8,1.94-3.96,3.54-6.49,4.79-2.53,1.25-5.55,1.87-9.07,1.87s-6.42-.64-9.13-1.93c-2.71-1.28-5.02-3.04-6.93-5.28-1.91-2.24-3.37-4.77-4.4-7.59-1.03-2.82-1.54-5.78-1.54-8.85,0-4.18,.9-8.05,2.69-11.6,1.8-3.56,4.18-6.67,7.15-9.35,2.97-2.68,6.14-4.86,9.51-6.54l5.06,7.48c-3.08,1.76-5.79,3.61-8.14,5.55Z" fill="#333"/>
    </g>
  </g>
</svg>