<?xml version="1.0" encoding="UTF-8"?>
<svg id="_圖層_2" data-name="圖層 2" xmlns="http://www.w3.org/2000/svg" viewBox="0 0 143 287.24">
  <g id="pic">
    <g>
      <g>
        <path d="M80.5,3.65l.81,.29c-.42,.71-.9,1.41-1.44,2.1-.54,.69-1.11,1.34-1.71,1.94-.6,.61-1.19,1.15-1.78,1.63-.04-.06-.09-.14-.15-.23-.07-.09-.13-.18-.21-.28-.07-.1-.14-.17-.2-.22,.58-.44,1.15-.94,1.73-1.5s1.12-1.16,1.63-1.8,.95-1.29,1.32-1.94Zm-.47-3.55l.81,.31c-.34,.49-.74,.99-1.21,1.5-.47,.51-.96,1-1.49,1.46-.52,.46-1.05,.88-1.57,1.25-.04-.06-.08-.13-.14-.21-.06-.08-.12-.16-.19-.24-.07-.08-.12-.15-.17-.2,.49-.32,.99-.7,1.49-1.13,.5-.43,.97-.88,1.4-1.36,.44-.47,.79-.93,1.07-1.38Zm-1.24,6.57l.67-.68,.18,.09v10.44h-.85V6.68Zm4.32,1.71l.88,.05c-.12,1.85-.4,3.42-.83,4.71-.43,1.29-1.14,2.37-2.12,3.25-.04-.04-.1-.09-.19-.16-.09-.07-.18-.14-.27-.22-.09-.07-.17-.13-.24-.18,.97-.78,1.66-1.79,2.05-3.02,.4-1.24,.64-2.71,.72-4.43ZM84.3,.11l.86,.14c-.31,1.5-.77,2.86-1.37,4.07-.6,1.21-1.34,2.22-2.23,3.02-.04-.05-.09-.11-.17-.19s-.17-.16-.26-.23c-.1-.08-.18-.13-.25-.17,.88-.74,1.6-1.69,2.16-2.83,.56-1.15,.98-2.41,1.26-3.81Zm-.68,10.85c.29,1.25,.69,2.2,1.21,2.84,.52,.65,1.14,1.09,1.87,1.32,.73,.23,1.57,.35,2.5,.35h3.42c-.05,.07-.09,.16-.13,.25s-.08,.2-.11,.31c-.03,.11-.05,.2-.06,.27h-3.17c-.8,0-1.53-.07-2.19-.22-.65-.14-1.24-.4-1.75-.77-.51-.37-.95-.88-1.33-1.54-.38-.66-.69-1.51-.95-2.54l.68-.29Zm.09-7.42l.47-.59c.28,.23,.56,.47,.86,.73,.3,.26,.58,.52,.85,.77,.26,.26,.47,.49,.63,.69l-.47,.67c-.17-.2-.38-.44-.64-.71-.26-.27-.54-.54-.84-.82-.3-.28-.59-.52-.86-.74ZM89.16,.13l.9,.11c-.24,1.51-.65,2.83-1.22,3.95s-1.33,2.05-2.27,2.78c-.05-.05-.12-.11-.21-.19s-.18-.15-.27-.23c-.09-.07-.17-.13-.24-.16,.94-.66,1.67-1.51,2.21-2.56,.54-1.05,.91-2.28,1.1-3.7Zm-2.54,6.88h.85V15.79l-.85-.27V7Zm.38,3.33h4.75v.79h-4.75v-.79Zm1.55-6.8l.63-.52c.42,.34,.85,.71,1.3,1.13,.44,.42,.86,.83,1.26,1.24,.4,.41,.71,.77,.94,1.08l-.65,.61c-.23-.32-.54-.69-.93-1.11-.39-.41-.81-.83-1.25-1.26-.44-.43-.88-.82-1.3-1.18Z" fill="#333"/>
        <path d="M80.52,21.67l.81,.27c-.38,.73-.82,1.46-1.31,2.17s-1.01,1.38-1.57,2.01c-.55,.62-1.11,1.18-1.67,1.66-.05-.06-.11-.13-.19-.21l-.24-.24c-.08-.08-.16-.14-.22-.18,.84-.67,1.65-1.49,2.43-2.47s1.43-1.97,1.96-3.01Zm-2.21,11.41l.76,.32c-.16,.37-.33,.79-.52,1.27-.19,.47-.4,.95-.62,1.41-.22,.47-.45,.89-.69,1.26l-.83-.4c.25-.35,.5-.75,.73-1.22,.23-.46,.45-.93,.66-1.39,.2-.47,.38-.89,.52-1.26Zm.49-8.24l.85-.83v7.81h-.85v-6.98Zm1.42,8.06h.86v3.37c0,.25,.09,.42,.28,.5,.19,.08,.6,.12,1.23,.12h4.79c.36,0,.63-.05,.8-.15s.3-.31,.37-.61c.07-.31,.12-.78,.14-1.41,.08,.05,.17,.1,.27,.15,.1,.05,.19,.1,.3,.13,.1,.03,.19,.05,.26,.06-.05,.72-.13,1.27-.24,1.66-.11,.38-.31,.65-.6,.79-.29,.14-.7,.22-1.24,.22h-4.81c-.64,0-1.13-.04-1.48-.11s-.59-.21-.73-.42c-.14-.21-.21-.51-.21-.91v-3.37Zm3.76-11.16l.83,.2c-.36,.96-.83,1.88-1.4,2.75-.57,.88-1.17,1.63-1.79,2.25-.05-.06-.11-.13-.2-.2-.08-.07-.17-.14-.25-.21-.08-.07-.16-.12-.23-.15,.64-.56,1.22-1.25,1.76-2.07s.97-1.67,1.28-2.57Zm0,4.86l.83,.22c-.29,.72-.65,1.42-1.08,2.11s-.88,1.27-1.35,1.75c-.05-.05-.11-.1-.2-.16s-.17-.12-.26-.18c-.09-.06-.17-.11-.23-.14,.48-.47,.92-1.01,1.31-1.64,.4-.62,.72-1.27,.97-1.94Zm-1.12,5.36l.68-.38c.35,.31,.7,.66,1.06,1.03,.36,.38,.69,.76,1,1.13,.31,.38,.54,.72,.71,1.02l-.72,.45c-.17-.3-.4-.64-.7-1.03-.3-.38-.63-.77-.98-1.16-.35-.39-.71-.75-1.05-1.07Zm.59-8.42h8.19v.77h-8.5l.31-.77Zm3.24,1.6h.85v6.62h-.85v-6.62Zm2.18,1.75l.7-.34c.32,.38,.64,.8,.95,1.24,.31,.44,.58,.88,.84,1.31,.25,.43,.44,.82,.58,1.15l-.77,.41c-.12-.36-.3-.76-.55-1.2-.25-.44-.52-.88-.82-1.33-.3-.45-.61-.87-.92-1.25Zm.56,6.21l.79-.29c.29,.42,.57,.87,.84,1.36,.27,.49,.51,.96,.72,1.42s.36,.87,.46,1.23l-.83,.32c-.1-.36-.25-.77-.45-1.24-.2-.47-.44-.95-.7-1.44-.26-.49-.54-.95-.83-1.37Zm1.93-9.56h.16l.16-.05,.58,.18c-.24,.49-.49,1-.76,1.53-.26,.53-.51,.97-.74,1.31l-.77-.16c.23-.35,.46-.77,.71-1.27,.25-.5,.46-.97,.66-1.41v-.13Z" fill="#333"/>
        <path d="M77.1,46.19h.83v13.05h-.83v-13.05Zm.43,5.11h5.18v.81h-5.18v-.81Zm.09-5.11h5.44v11.56h-5.44v-.83h4.61v-9.94h-4.61v-.79Zm2.34-2.93l.94,.22c-.17,.52-.36,1.06-.57,1.63-.21,.57-.41,1.05-.58,1.43l-.7-.2c.11-.29,.22-.61,.33-.97,.11-.36,.22-.73,.33-1.11,.11-.38,.19-.71,.25-1Zm6.34-.07l.83,.18c-.2,.9-.45,1.78-.75,2.63-.29,.85-.62,1.65-.97,2.39-.35,.74-.74,1.4-1.16,1.98-.04-.05-.1-.1-.2-.16-.1-.06-.19-.12-.29-.18-.1-.06-.18-.11-.25-.14,.42-.55,.8-1.18,1.15-1.9,.35-.71,.66-1.48,.94-2.29,.28-.82,.51-1.65,.7-2.5Zm-.81,7.36l.68-.4c.37,.42,.75,.88,1.12,1.39,.38,.51,.73,1,1.06,1.47,.33,.47,.59,.88,.78,1.24l-.74,.5c-.19-.37-.45-.8-.76-1.29-.32-.49-.67-.99-1.04-1.5-.38-.52-.75-.99-1.11-1.42Zm.25-4.37h5.69v.83h-5.69v-.83Zm5.36,0h.83v.52c-.07,2.09-.15,3.85-.22,5.28-.08,1.43-.17,2.6-.26,3.51-.1,.91-.21,1.61-.33,2.1-.13,.49-.28,.85-.46,1.06-.18,.22-.36,.36-.55,.44-.19,.08-.43,.13-.73,.15-.28,.02-.65,.03-1.13,0-.48-.02-.97-.04-1.46-.08-.01-.13-.04-.28-.09-.44s-.11-.3-.2-.41c.59,.05,1.13,.08,1.62,.09s.83,.02,1.03,.02c.18,0,.33-.02,.45-.04,.12-.03,.22-.11,.31-.23,.16-.17,.29-.5,.41-.98,.12-.49,.23-1.18,.32-2.09,.09-.91,.17-2.07,.25-3.5,.08-1.43,.15-3.16,.22-5.2v-.22Z" fill="#333"/>
        <path d="M76.65,73.62h15.53v.76h-15.53v-.76Zm.29-5.6h14.92v3.78h-.86v-3.02h-13.21v3.02h-.85v-3.78Zm.77-2.34h13.36v.72h-13.36v-.72Zm.4,10.22h12.46v.77h-11.63v4.55h-.83v-5.33Zm.27-3.71c.58-.06,1.23-.15,1.97-.26,.74-.11,1.51-.23,2.31-.35l.04,.67c-.72,.12-1.42,.25-2.1,.38s-1.31,.25-1.9,.36l-.32-.79Zm.38-2.38l.31-.54c.42,.08,.86,.19,1.32,.31s.9,.24,1.32,.37c.42,.13,.77,.25,1.04,.39l-.29,.61c-.28-.13-.62-.27-1.04-.41-.42-.14-.86-.27-1.33-.41-.47-.13-.91-.24-1.33-.32Zm3.33,6.5h.83v4.81h-.83v-4.81Zm1.84-2.45l.94,.09c-.14,.43-.3,.87-.48,1.31-.17,.44-.33,.83-.48,1.15l-.77-.13c.14-.34,.29-.74,.44-1.21,.15-.47,.27-.88,.35-1.22Zm-.04-7.96h.86v7.11h-.86v-7.11Zm1.87,6.23l.27-.61c.48,.05,.98,.12,1.5,.22,.52,.1,1.02,.2,1.5,.32,.48,.12,.89,.24,1.22,.36l-.23,.67c-.34-.12-.75-.24-1.23-.37-.49-.13-.99-.24-1.51-.34-.52-.1-1.03-.18-1.52-.24Zm3.83-2.9l.47,.58c-.36,.14-.76,.29-1.2,.42-.44,.14-.88,.26-1.32,.38-.44,.11-.85,.21-1.21,.3l-.38-.49c.37-.1,.78-.22,1.23-.36,.45-.14,.89-.29,1.31-.44,.43-.15,.79-.28,1.09-.39Zm-3.44,7.07h.81v4.81h-.81v-4.81Zm4.14-.41h.85v4.37c0,.24-.03,.42-.09,.55-.06,.13-.19,.22-.38,.3-.18,.07-.44,.11-.77,.13s-.74,.02-1.23,.02c-.01-.1-.05-.22-.12-.36-.07-.14-.13-.28-.19-.4,.42,.01,.78,.02,1.07,.02s.5,0,.6-.02c.11-.01,.18-.04,.21-.07,.03-.04,.04-.1,.04-.18v-4.36Z" fill="#333"/>
        <path d="M76.32,100.21c.64-.33,1.39-.74,2.25-1.21,.86-.47,1.78-.99,2.75-1.54,.97-.55,1.92-1.1,2.85-1.64l.27,.76c-.88,.52-1.77,1.04-2.67,1.58s-1.78,1.04-2.62,1.52c-.84,.48-1.6,.92-2.29,1.31l-.54-.77Zm.31-10.51h15.59v.85h-15.59v-.85Zm1.12,2.61l.68-.43c.38,.32,.78,.69,1.18,1.09,.4,.4,.77,.8,1.11,1.2,.34,.4,.6,.76,.79,1.08l-.7,.54c-.18-.34-.44-.71-.77-1.12-.34-.41-.7-.82-1.1-1.23-.4-.41-.79-.79-1.19-1.12Zm6.17-5.74h.88v14.94c0,.4-.06,.68-.18,.85-.12,.17-.31,.3-.56,.37-.26,.07-.66,.12-1.18,.14-.52,.02-1.17,.04-1.95,.04-.02-.13-.07-.29-.13-.47-.07-.18-.14-.34-.23-.47,.68,.01,1.29,.02,1.83,.02h1.07c.17-.01,.29-.05,.35-.11,.07-.06,.1-.18,.1-.36v-14.96Zm.81,3.91c.35,1.12,.78,2.2,1.3,3.25,.52,1.05,1.11,2.02,1.79,2.92s1.43,1.7,2.25,2.38c.82,.69,1.7,1.23,2.64,1.63-.06,.06-.13,.13-.22,.22-.08,.08-.16,.17-.23,.27s-.13,.18-.18,.25c-1.27-.59-2.42-1.42-3.46-2.49-1.03-1.07-1.93-2.32-2.7-3.73-.77-1.41-1.39-2.91-1.87-4.49l.68-.22Zm5.83,1.1l.74,.52c-.4,.46-.83,.93-1.31,1.43-.48,.5-.97,.97-1.47,1.43s-.96,.86-1.39,1.21l-.59-.47c.42-.35,.88-.76,1.38-1.24,.5-.48,.98-.97,1.46-1.48,.47-.5,.87-.97,1.2-1.4Zm-3.78-4.32l.54-.54c.4,.19,.8,.41,1.22,.67s.8,.5,1.17,.76c.37,.25,.67,.49,.93,.7l-.56,.65c-.24-.23-.55-.47-.92-.74-.37-.26-.76-.53-1.18-.79-.41-.26-.81-.5-1.2-.7Z" fill="#333"/>
        <path d="M77.48,117.05h.92v5.44h12.51v.86h-13.43v-6.3Zm.74-7.25h.88v5.15h10.62v-5.15h.92v5.99h-12.42v-5.99Zm5.71-1.69h.92v14.72h-.92v-14.72Zm6.52,8.95h.92v7.34h-.92v-7.34Z" fill="#333"/>
        <path d="M82.8,130.54h.16l.16-.04,.54,.29c-.44,.97-1.05,1.84-1.83,2.61-.77,.77-1.63,1.43-2.57,1.97-.94,.55-1.88,.98-2.83,1.3-.06-.11-.13-.23-.22-.36-.09-.13-.18-.23-.28-.31,.68-.2,1.37-.48,2.04-.82,.68-.34,1.33-.74,1.95-1.19s1.19-.95,1.68-1.5c.5-.55,.89-1.15,1.18-1.78v-.18Zm-4.72,7.63h.77c-.08,.61-.18,1.27-.28,1.96-.1,.7-.2,1.28-.3,1.76h-.79c.07-.34,.14-.72,.22-1.14,.07-.43,.14-.86,.21-1.31,.07-.45,.12-.87,.17-1.27Zm-.54-5.9l.54-.49c.44,.28,.9,.6,1.37,.98,.47,.38,.82,.72,1.06,1.04l-.54,.56c-.25-.31-.61-.67-1.06-1.06-.46-.4-.91-.74-1.37-1.03Zm.34,8.89h4.27v.74h-4.39l.13-.74Zm.07-10.62h5.11v.76h-5.11v-.76Zm3.96,10.62h.83c-.01,.21-.02,.34-.04,.41-.07,.85-.15,1.54-.24,2.07-.09,.53-.19,.94-.29,1.24s-.22,.52-.37,.65c-.14,.13-.29,.23-.44,.28-.15,.05-.35,.08-.6,.08-.23,.01-.56,.01-1,0s-.9-.03-1.39-.06c-.01-.13-.04-.27-.09-.41-.05-.14-.11-.27-.18-.38,.52,.05,1,.08,1.46,.09s.77,.02,.94,.02,.3,0,.4-.03c.1-.02,.19-.06,.26-.12,.16-.14,.29-.49,.41-1.04,.12-.55,.23-1.44,.34-2.66v-.14Zm-3.47-2.99h3.8v.76h-3.92l.13-.76Zm.22-3.02h4.05v3.78h-.81v-3.02h-3.24v-.76Zm6.03-.02h.77v1.49c0,.36-.05,.73-.16,1.12-.11,.38-.3,.75-.58,1.11-.28,.35-.69,.67-1.21,.96-.04-.06-.09-.12-.16-.19-.07-.07-.15-.14-.22-.21-.08-.07-.15-.12-.21-.14,.5-.26,.88-.55,1.13-.85s.42-.61,.51-.92c.09-.31,.13-.61,.13-.9v-1.48Zm5.18,5.18h.16l.14-.04,.52,.25c-.42,1-1.01,1.86-1.78,2.59-.77,.73-1.63,1.34-2.58,1.82-.95,.48-1.95,.86-2.98,1.15-.04-.1-.1-.21-.18-.34-.08-.13-.17-.24-.25-.32,.96-.23,1.9-.56,2.83-1.01,.92-.44,1.75-1,2.47-1.66,.73-.66,1.28-1.42,1.65-2.29v-.16Zm-6.17,0h6.39v.72h-6.39v-.72Zm.16,1.64l.43-.47c.55,.31,1.13,.65,1.74,1.01,.61,.36,1.2,.72,1.79,1.09,.59,.37,1.14,.72,1.66,1.05,.52,.34,.96,.64,1.32,.92l-.47,.56c-.36-.26-.79-.57-1.3-.91-.51-.34-1.06-.7-1.65-1.08-.59-.38-1.18-.75-1.79-1.12-.61-.37-1.18-.72-1.74-1.04Zm1.19-12.24c.46,.96,1.06,1.84,1.82,2.64,.76,.8,1.63,1.49,2.62,2.07,.99,.58,2.04,1.02,3.16,1.32-.1,.08-.2,.19-.3,.32-.1,.13-.19,.25-.26,.36-1.13-.34-2.19-.82-3.19-1.44-1-.62-1.89-1.36-2.67-2.21-.79-.85-1.42-1.79-1.9-2.81l.72-.25Zm-.07,5.42h3.78v.74h-3.78v-.74Zm4.32-5.29l.68,.47c-.44,.43-.95,.87-1.51,1.31-.56,.44-1.08,.82-1.55,1.13l-.54-.43c.31-.22,.65-.47,1.01-.76,.36-.29,.71-.59,1.05-.89,.34-.3,.63-.58,.86-.83Zm2.07,1.82l.67,.45c-.44,.43-.95,.86-1.53,1.3-.58,.43-1.11,.8-1.6,1.1l-.54-.43c.31-.2,.66-.45,1.04-.74,.38-.29,.74-.58,1.09-.87,.35-.29,.64-.56,.88-.8Zm-2.97,3.47h.79v2.93c0,.2,.02,.34,.06,.41s.12,.11,.24,.11h1.62c.11,0,.25,0,.42-.02,.17-.01,.31-.02,.4-.04,.01,.1,.02,.2,.03,.32s.01,.23,.03,.32c-.08,.01-.2,.02-.36,.04s-.32,.02-.5,.02h-1.71c-.28,0-.49-.04-.64-.12-.15-.08-.25-.2-.31-.38-.05-.17-.08-.4-.08-.69v-2.92Z" fill="#333"/>
        <path d="M82.95,158.13l-.31-.65c.73-.35,1.29-.77,1.67-1.26s.57-1.13,.57-1.91l-.45-1.37,.97,1.22c-.13,.17-.28,.28-.43,.33-.16,.05-.31,.08-.47,.08-.32,0-.59-.09-.8-.27s-.31-.46-.31-.83,.11-.66,.34-.84c.23-.17,.49-.26,.77-.26,.42,0,.74,.17,.96,.5,.22,.34,.33,.78,.33,1.33,0,.95-.26,1.75-.78,2.42-.52,.67-1.21,1.16-2.06,1.48Z" fill="#333"/>
        <path d="M42.39,0l.86,.23c-.36,.83-.77,1.63-1.23,2.41-.46,.78-.95,1.51-1.46,2.2-.51,.68-1.04,1.29-1.58,1.82-.06-.04-.14-.09-.23-.15-.1-.07-.19-.14-.29-.21-.1-.07-.18-.13-.25-.16,.55-.5,1.09-1.08,1.61-1.74,.52-.65,1-1.36,1.43-2.11s.81-1.52,1.13-2.29Zm-4.14,9.07h3.11v.02h10.28v-.02h2.93v.81h-2.93v-.02h-10.28v.02h-3.11v-.81Zm3.26-4.18h.86c-.08,.73-.18,1.52-.3,2.35-.11,.83-.23,1.67-.36,2.51s-.25,1.63-.37,2.38-.23,1.4-.34,1.95h-.9c.12-.58,.25-1.24,.38-2s.26-1.55,.39-2.39,.24-1.67,.35-2.5,.2-1.6,.29-2.3Zm-.88,8.42h13.41v.79h-13.41v-.79Zm.92-11.29h12.46v.81h-12.46v-.81Zm.4,2.86h9.77v.83h-9.77v-.83Zm1.89,5.76l.52-.52c.44,.2,.9,.45,1.38,.74,.47,.29,.92,.58,1.33,.87s.75,.57,1,.84l-.5,.63c-.26-.26-.6-.55-1.01-.85-.41-.31-.85-.61-1.32-.91s-.94-.56-1.39-.79Zm.59-4.07l.52-.54c.43,.18,.87,.39,1.31,.63,.44,.24,.85,.49,1.24,.75,.39,.26,.7,.51,.94,.75l-.54,.59c-.24-.24-.55-.49-.94-.76-.38-.26-.8-.52-1.24-.77-.44-.25-.88-.47-1.3-.65Zm6.93-1.69h.85c0,.13,0,.24,0,.32s0,.14,0,.18c-.05,1.85-.11,3.41-.17,4.68-.07,1.27-.14,2.3-.22,3.1-.08,.79-.18,1.4-.29,1.83-.11,.43-.23,.73-.38,.93-.16,.18-.32,.31-.5,.38-.18,.07-.4,.12-.65,.14-.25,0-.58,0-1,0-.41,0-.84-.03-1.29-.06-.01-.11-.03-.23-.06-.37-.03-.14-.08-.26-.15-.37,.49,.04,.94,.06,1.35,.07,.41,.01,.7,.02,.86,.02s.3-.02,.4-.05c.1-.04,.19-.1,.27-.2,.13-.14,.25-.43,.34-.85,.1-.43,.18-1.04,.26-1.84,.08-.8,.15-1.83,.22-3.09,.07-1.26,.13-2.79,.19-4.59v-.22Z" fill="#333"/>
        <path d="M41.91,21.8l.81,.23c-.34,1.01-.74,2-1.21,2.97-.47,.97-.98,1.89-1.52,2.75-.55,.86-1.11,1.63-1.7,2.3-.02-.06-.07-.14-.14-.24-.07-.1-.13-.21-.2-.31-.07-.11-.13-.19-.19-.25,.56-.61,1.1-1.32,1.62-2.11,.52-.8,.99-1.65,1.41-2.56,.43-.91,.79-1.83,1.11-2.78Zm-1.51,4.1l.81-.83,.02,.02v13h-.83v-12.19Zm3.17-3.02h10.37v15.05h-.86v-14.22h-8.68v14.35h-.83v-15.17Zm.5,13.27h9.56v.81h-9.56v-.81Zm1.24-9.59h7.04v.76h-7.04v-.76Zm.92,2.97h5.24v4.81h-5.24v-4.81Zm.74,.74v3.35h3.76v-3.35h-3.76Zm1.46-5.87h.76v5.67h-.76v-5.67Z" fill="#333"/>
        <path d="M38.85,58.41h15.17v.85h-15.17v-.85Zm.05-12.91h14.9v3.37h-.9v-2.54h-13.14v3.02h-.86v-3.85Zm5.35,.59h.9c-.07,.86-.2,1.61-.4,2.24-.19,.63-.48,1.17-.87,1.63-.39,.46-.92,.83-1.59,1.13-.67,.3-1.52,.55-2.54,.76-.02-.07-.06-.15-.11-.22s-.1-.16-.16-.24c-.06-.08-.11-.16-.16-.22,.96-.17,1.75-.38,2.37-.65s1.1-.6,1.46-1c.35-.4,.61-.88,.77-1.45,.16-.56,.27-1.22,.33-1.98Zm-4.01,7h12.11v.83h-12.11v-.83Zm4.9-9.61l.88-.25c.25,.4,.51,.84,.77,1.32,.26,.49,.46,.89,.58,1.21l-.9,.32c-.12-.35-.31-.77-.56-1.26-.25-.49-.51-.94-.77-1.35Zm.83,10.04h.9v5.29h-.9v-5.29Zm1.94-7.4h.86v3.51c0,.25,.04,.43,.12,.54,.08,.11,.24,.16,.5,.16h3.33c.19,0,.42,0,.69-.03,.27-.02,.48-.04,.62-.06,.01,.12,.03,.26,.04,.41,.02,.15,.03,.28,.04,.39-.12,.02-.31,.04-.56,.05s-.52,.02-.79,.02h-3.4c-.37,0-.67-.05-.88-.14s-.37-.25-.45-.47c-.08-.22-.13-.51-.13-.88v-3.49Z" fill="#333"/>
        <path d="M39.13,65.72h.86v15.57h-.86v-15.57Zm.43,2.59h5.27v.72h-5.27v-.72Zm.05-2.59h5.81v5.98h-5.81v-.72h4.99v-4.52h-4.99v-.74Zm3.44,7.49h.81v7.29h-.81v-7.29Zm.41,0h6.17v6.37h-6.17v-.74h5.35v-4.88h-5.35v-.76Zm.02,2.75h5.76v.74h-5.76v-.74Zm9.77-10.24v.74h-5.13v4.52h5.13v.74h-5.98v-5.99h5.98Zm-5.44,2.59h5.42v.72h-5.42v-.72Zm5.04-2.59h.88v14.2c0,.35-.05,.61-.15,.78-.1,.17-.28,.3-.53,.39s-.61,.13-1.08,.14c-.47,.01-1.07,.02-1.82,.02-.01-.08-.04-.18-.07-.29s-.08-.22-.12-.32c-.04-.11-.09-.21-.13-.31,.4,.02,.77,.04,1.12,.04s.66,0,.93,0c.26,0,.45,0,.56,0,.16-.01,.26-.05,.32-.11s.09-.17,.09-.32v-14.2Z" fill="#333"/>
        <path d="M46.89,87.01l.79,.25c-1.03,2.18-2.33,4.11-3.91,5.77-1.57,1.66-3.34,3.03-5.29,4.11-.04-.06-.09-.13-.17-.22s-.16-.17-.23-.26c-.08-.09-.15-.16-.21-.21,1.97-1.01,3.73-2.32,5.27-3.92,1.55-1.61,2.8-3.45,3.74-5.53Zm-8.66,5.06h9.36v.83h-9.36v-.83Zm.85-3.37h6.34v.81h-6.34v-.81Zm2,6.17h5.06v.77h-5.06v7.09h-.83v-7.34l.5-.52h.32Zm-.27,2.9h5.36v.74h-5.36v-.74Zm.02,3.04h5.36v.79h-5.36v-.79Zm1.26-14.17h.83v5.9h-.83v-5.9Zm3.71,8.23h.86v7.61h-.86v-7.61Zm2.66-7.33h5.42v.83h-4.54v14.49h-.88v-15.32Zm5.2,0h.16l.16-.05,.61,.41c-.41,.85-.87,1.77-1.38,2.75-.51,.98-1.01,1.89-1.5,2.73,.72,.58,1.27,1.12,1.66,1.64,.38,.52,.66,1.01,.82,1.48,.16,.47,.24,.93,.24,1.39,.01,.48-.05,.91-.19,1.3-.14,.38-.36,.68-.68,.88-.3,.18-.7,.31-1.19,.38-.25,.02-.54,.03-.86,.03-.32,0-.62-.02-.91-.03-.01-.13-.04-.28-.09-.44-.05-.16-.11-.31-.2-.44,.32,.04,.64,.06,.95,.06,.31,0,.58,0,.79-.03,.18,0,.35-.02,.5-.06,.16-.04,.29-.1,.4-.17,.24-.13,.4-.34,.49-.61,.08-.28,.12-.58,.11-.92,0-.62-.2-1.29-.6-1.99-.4-.7-1.14-1.47-2.21-2.31,.28-.48,.55-.98,.82-1.49,.27-.52,.53-1.02,.78-1.52s.49-.98,.7-1.46,.41-.9,.59-1.27v-.23Z" fill="#333"/>
        <path d="M40.16,120.46l.83,.22c-.23,.71-.53,1.4-.92,2.06s-.79,1.24-1.22,1.72c-.05-.05-.11-.11-.2-.17-.08-.07-.17-.13-.27-.21-.1-.07-.18-.13-.25-.16,.43-.44,.82-.97,1.18-1.57,.35-.6,.64-1.23,.86-1.89Zm-1.19-11.66h5.67v11.14h-5.67v-11.14Zm.83,.77v2.68h4.01v-2.68h-4.01Zm0,3.42v2.7h4.01v-2.7h-4.01Zm0,3.44v2.74h4.01v-2.74h-4.01Zm2.84,4.37l.7-.36c.36,.43,.7,.91,1.03,1.44,.32,.53,.57,.98,.74,1.35l-.76,.41c-.14-.4-.38-.86-.71-1.39-.33-.53-.66-1.01-1-1.46Zm3.38-4.07h7.6v7.65h-.85v-6.84h-5.9v6.91h-.85v-7.72Zm.45,6.01h6.75v.81h-6.75v-.81Zm2.63-14.65h.85v9.04h-.85v-9.04Zm.43,4h5.06v.83h-5.06v-.83Z" fill="#333"/>
        <path d="M46.78,129.67l.74,.38c-.62,.96-1.39,1.88-2.29,2.77-.91,.89-1.91,1.7-3,2.42-1.09,.73-2.22,1.33-3.38,1.81-.07-.11-.17-.23-.28-.37-.11-.14-.23-.25-.35-.35,1.16-.46,2.29-1.03,3.37-1.71,1.08-.68,2.07-1.45,2.96-2.29,.89-.85,1.64-1.73,2.24-2.66Zm-5.74,9.29h10.89v7h-.9v-6.17h-9.13v6.23h-.86v-7.06Zm.4,5.08h9.86v.85h-9.86v-.85Zm.4-8.41h9.13v.81h-9.13v-.81Zm4.93-5c1.01,1.19,2.18,2.23,3.51,3.11,1.33,.89,2.81,1.7,4.43,2.45-.11,.08-.22,.2-.34,.35-.12,.15-.22,.29-.29,.42-1.09-.54-2.11-1.11-3.07-1.7s-1.84-1.24-2.67-1.94-1.6-1.48-2.3-2.33l.74-.36Z" fill="#333"/>
        <path d="M38.43,166.19h15.97v.85h-15.97v-.85Zm3.58-14.56l.86,.2c-.25,.92-.56,1.82-.92,2.69-.36,.87-.76,1.68-1.19,2.43-.43,.75-.89,1.41-1.37,1.99-.06-.05-.14-.11-.23-.17-.1-.07-.2-.13-.3-.2-.1-.07-.19-.11-.26-.13,.5-.55,.97-1.19,1.4-1.91s.81-1.5,1.14-2.33,.62-1.69,.86-2.57Zm-1.67,8.57h12.62v.85h-12.62v-.85Zm.83-5.26h12.42v.85h-12.42v-.85Zm4.81-3.64h.9v15.32h-.9v-15.32Z" fill="#333"/>
        <path d="M38.22,178.67l.5-.63c.36,.18,.75,.38,1.16,.61,.41,.23,.81,.45,1.19,.67,.38,.22,.69,.42,.93,.6l-.49,.7c-.24-.17-.55-.37-.93-.59s-.77-.46-1.19-.71-.81-.46-1.18-.66Zm.52,9.74c.32-.47,.69-1.03,1.09-1.68,.4-.65,.81-1.35,1.21-2.08,.41-.73,.78-1.43,1.12-2.11l.63,.56c-.31,.64-.66,1.31-1.04,2.02-.38,.71-.77,1.4-1.16,2.07-.39,.67-.77,1.28-1.12,1.82l-.72-.59Zm.36-14.67l.49-.61c.38,.18,.79,.38,1.23,.61,.44,.23,.85,.46,1.24,.68,.39,.23,.71,.43,.96,.61l-.5,.72c-.25-.19-.57-.41-.96-.64-.39-.23-.8-.47-1.23-.72-.43-.25-.84-.46-1.22-.66Zm3.94,4.46h11.45v.85h-11.45v-.85Zm9.9-5.18l.72,.67c-.79,.25-1.72,.48-2.77,.68s-2.16,.38-3.31,.54c-1.15,.16-2.26,.29-3.33,.4-.02-.1-.06-.22-.12-.36-.05-.14-.11-.27-.15-.38,.78-.08,1.59-.18,2.44-.29,.85-.11,1.67-.23,2.47-.37s1.55-.28,2.25-.43c.7-.15,1.3-.3,1.8-.46Zm-8.5,9.41h8.71v6.71h-.85v-5.9h-7.04v6.01h-.83v-6.82Zm.54,5.2h7.78v.83h-7.78v-.83Zm3.47-13.34h.85v8.62h-.85v-8.62Z" fill="#333"/>
        <path d="M44.95,201.33l-.31-.65c.73-.35,1.29-.77,1.67-1.26s.57-1.13,.57-1.91l-.45-1.37,.97,1.22c-.13,.17-.28,.28-.43,.33-.16,.05-.31,.08-.47,.08-.32,0-.59-.09-.8-.27s-.31-.46-.31-.83,.11-.66,.34-.84c.23-.17,.49-.26,.77-.26,.42,0,.74,.17,.96,.5,.22,.34,.33,.78,.33,1.33,0,.95-.26,1.75-.78,2.42-.52,.67-1.21,1.16-2.06,1.48Z" fill="#333"/>
        <path d="M4,9.49l.61,.29c-.29,.66-.65,1.31-1.1,1.96-.44,.65-.92,1.24-1.43,1.78-.51,.54-1.02,.98-1.54,1.31-.05-.11-.12-.23-.21-.38s-.17-.26-.24-.36c.49-.3,.99-.7,1.49-1.19s.97-1.03,1.39-1.62,.76-1.19,1.03-1.8ZM7.56,2.43l.72,.34c-.55,.71-1.24,1.38-2.06,2.02-.82,.64-1.7,1.2-2.65,1.69-.94,.49-1.87,.89-2.78,1.19-.04-.07-.09-.15-.16-.23s-.14-.17-.21-.25c-.07-.08-.13-.16-.21-.22,.91-.26,1.83-.62,2.76-1.08s1.8-.98,2.6-1.58c.8-.59,1.46-1.22,1.98-1.88ZM.81,9.13H7.92v.81H.81v-.81Zm.16-6.97H15.79v.81H.97v-.81ZM3.96,7.11h.85v9.23h-.85V7.11Zm.7,2.92c.14,.11,.37,.28,.67,.51,.31,.23,.64,.49,.99,.77,.35,.28,.68,.54,.97,.78,.29,.25,.51,.43,.64,.55l-.63,.56c-.14-.14-.36-.35-.64-.6-.28-.26-.59-.53-.93-.82s-.65-.55-.95-.8c-.3-.25-.53-.43-.7-.55l.58-.4Zm7.09-.5l.65,.29c-.32,.67-.74,1.33-1.25,1.97s-1.06,1.23-1.64,1.76c-.58,.53-1.16,.97-1.74,1.31-.07-.1-.16-.21-.27-.33-.11-.13-.21-.23-.31-.3,.58-.3,1.15-.7,1.73-1.19s1.11-1.04,1.6-1.65,.9-1.23,1.22-1.86ZM7.92,.09h.86V7.88h-.86V.09Zm.81,2.5c.26,.13,.64,.33,1.13,.59,.49,.26,1.04,.56,1.63,.9,.59,.34,1.18,.67,1.77,.99,.59,.32,1.11,.62,1.58,.89s.8,.47,1.02,.6l-.36,.83c-.26-.17-.63-.4-1.09-.68-.46-.29-.98-.6-1.54-.95-.56-.34-1.13-.69-1.71-1.04-.58-.35-1.11-.66-1.6-.94-.49-.28-.89-.5-1.19-.64l.36-.56Zm-.18,6.57h7.49v.79h-7.49v-.79Zm3.13-2.05h.83v9.38h-.83V7.11Zm.76,2.43c.32,.59,.73,1.18,1.21,1.76,.49,.59,1,1.12,1.54,1.61s1.06,.88,1.57,1.18c-.1,.08-.2,.19-.32,.32-.11,.13-.21,.25-.3,.36-.49-.35-1.01-.79-1.55-1.33s-1.06-1.12-1.55-1.76c-.49-.63-.9-1.26-1.22-1.88l.61-.27Z" fill="#333"/>
        <path d="M4.84,34.69l.79,.32c-.4,.34-.86,.67-1.39,1-.53,.33-1.07,.64-1.64,.94-.56,.29-1.1,.55-1.62,.77-.04-.06-.1-.13-.18-.22-.08-.08-.17-.17-.24-.25-.08-.08-.15-.15-.22-.2,.53-.19,1.06-.41,1.61-.67,.55-.25,1.07-.52,1.57-.81s.94-.58,1.31-.88ZM.43,28.58h15.91v.76H.43v-.76Zm2.14-6.17H14.22v4.79H2.57v-4.79Zm.41,8.08H13.84v3.56H2.99v-3.56Zm.43-7.4v1.35H13.36v-1.35H3.42Zm0,2.03v1.37H13.36v-1.37H3.42Zm.41,6.08v2.12H12.98v-2.12H3.83Zm4.1,2.38h.86v3.49c0,.25-.04,.44-.11,.58-.07,.13-.22,.22-.43,.27-.22,.06-.52,.1-.92,.12-.4,.02-.91,.03-1.55,.03-.02-.12-.06-.24-.12-.37s-.11-.25-.17-.37c.35,.01,.67,.02,.95,.03s.53,0,.74,0,.35,0,.43,0c.12-.01,.2-.04,.24-.08,.04-.04,.06-.11,.06-.21v-3.47Zm-.58-6.01l.76-.29c.19,.23,.37,.48,.55,.77,.17,.28,.3,.54,.37,.78l-.81,.31c-.07-.22-.19-.47-.34-.77-.16-.3-.33-.56-.52-.79Zm3.44,7.74l.56-.54c.56,.19,1.15,.43,1.75,.71,.61,.28,1.19,.57,1.74,.86s1.01,.56,1.37,.81l-.56,.63c-.36-.25-.81-.52-1.35-.82s-1.12-.59-1.74-.88-1.21-.55-1.77-.77Z" fill="#333"/>
        <path d="M.16,53.05c.56-.16,1.21-.34,1.93-.55,.73-.21,1.5-.44,2.32-.69,.82-.25,1.63-.5,2.44-.74l.13,.79c-1.15,.36-2.3,.73-3.46,1.1-1.15,.37-2.17,.7-3.06,.97l-.31-.88Zm.14-5.99H6.84v.85H.31v-.85Zm2.93-3.74h.85v14.98c0,.29-.04,.51-.13,.66-.09,.15-.23,.26-.42,.33-.2,.08-.49,.13-.85,.15-.36,.02-.85,.03-1.46,.03-.01-.12-.05-.26-.12-.41-.07-.16-.13-.29-.21-.41,.47,.01,.88,.02,1.25,.02s.61,0,.73-.02c.24,0,.36-.11,.36-.34v-14.98Zm3.6,1.6h9.77v.85H6.84v-.85Zm5.45,.31h.92v12.94c0,.37-.06,.65-.18,.84-.12,.19-.31,.32-.58,.41-.29,.07-.71,.12-1.27,.13-.56,.02-1.26,.03-2.12,.03-.02-.08-.06-.18-.1-.3l-.13-.34c-.04-.11-.09-.21-.13-.3,.48,.01,.93,.02,1.36,.03s.79,0,1.1,0c.31,0,.52-.02,.66-.03,.18-.01,.3-.05,.37-.12s.1-.18,.1-.35v-12.94Z" fill="#333"/>
        <path d="M3.85,73.58h.22l.16-.02,.45,.18c-.3,1.87-.81,3.43-1.53,4.68-.72,1.25-1.57,2.21-2.54,2.88-.04-.06-.09-.13-.17-.22s-.15-.16-.22-.23c-.07-.07-.14-.13-.22-.16,.95-.64,1.76-1.53,2.44-2.68,.68-1.15,1.15-2.57,1.41-4.25v-.18Zm-3.37,1.01c-.01-.08-.04-.18-.1-.29-.05-.11-.11-.22-.15-.34s-.09-.21-.13-.27c.12-.04,.25-.09,.39-.16,.14-.07,.28-.2,.44-.38,.14-.13,.35-.37,.62-.72,.27-.35,.56-.73,.87-1.15,.31-.42,.6-.83,.87-1.22,.27-.39,.48-.7,.64-.93v-.05l.32-.14,.63,.31c-.22,.3-.48,.66-.78,1.08-.31,.42-.63,.85-.97,1.3s-.67,.87-1,1.28c-.32,.41-.62,.76-.9,1.04-.14,.08-.27,.16-.37,.22-.1,.07-.19,.13-.27,.21s-.12,.14-.12,.22Zm-.2-5.56h3.98v.79H.29v-.79Zm.2,5.56v-.74l.58-.27h3.13v.77H1.53c-.24,0-.46,.02-.66,.07-.2,.05-.33,.1-.39,.16Zm.58-9.29l.67-.36c.26,.29,.54,.6,.83,.94s.56,.67,.82,.99c.26,.32,.46,.6,.6,.84l-.68,.47c-.16-.25-.36-.55-.61-.88s-.52-.68-.8-1.04c-.28-.35-.56-.67-.82-.96Zm2.18,12.22c.41,.78,.95,1.36,1.63,1.74,.68,.38,1.5,.63,2.47,.75s2.08,.18,3.33,.18c.64,0,1.31,0,2.02-.02s1.42-.04,2.12-.07c.7-.04,1.33-.07,1.9-.11-.05,.06-.09,.14-.13,.25-.04,.11-.08,.22-.11,.32-.03,.11-.05,.21-.06,.31-.53,.02-1.12,.05-1.76,.07-.65,.02-1.31,.04-1.99,.04-.68,0-1.34,0-1.97,0-1.06,0-2.01-.04-2.85-.12s-1.59-.22-2.24-.44c-.65-.22-1.21-.53-1.7-.95-.49-.41-.9-.96-1.25-1.63l.59-.34Zm1.73-6.64h11.25v.77H4.97v-.77Zm2.77-5.71l.83,.18c-.32,.92-.73,1.81-1.21,2.66-.48,.85-.98,1.58-1.51,2.18-.06-.05-.13-.1-.22-.15s-.17-.11-.27-.16c-.1-.05-.19-.1-.27-.13,.56-.58,1.08-1.27,1.54-2.08s.83-1.64,1.11-2.49Zm-1.21,8.15H14.89v5.04H6.53v-5.04Zm.54-6.03H15.53v.79H7.07v-.79Zm.31,6.82v3.47h6.62v-3.47H7.38Zm2.95-9.22h.85v6.46h-.85v-6.46Z" fill="#333"/>
        <path d="M.16,89.59H5.72v.77H.16v-.77Zm.7,7.07h.72v6.03H.86v-6.03Zm.05-4.75H5.26v.74H.92v-.74Zm0,2.38H5.26v.76H.92v-.76Zm.52,2.38h3.78v5.13H1.44v-.77h3.04v-3.58H1.44v-.77Zm.58-9.83l.68-.18c.23,.37,.44,.78,.64,1.21,.2,.44,.33,.81,.39,1.12l-.7,.25c-.06-.31-.19-.7-.38-1.15s-.4-.88-.63-1.26Zm8.62,10.75l.72,.23c-.38,.43-.86,.84-1.43,1.21-.57,.38-1.18,.72-1.83,1.02-.65,.3-1.28,.55-1.89,.76-.04-.05-.08-.11-.14-.2-.06-.08-.12-.17-.19-.24-.07-.08-.13-.15-.19-.21,.61-.18,1.24-.4,1.87-.65s1.22-.54,1.75-.86,.97-.68,1.32-1.06Zm-4.72-.18h10.64v.74H5.92v-.74Zm.23-9.43h10.26v.72H6.16v-.72Zm.32,5.69h9.68v.68H6.48v-.68Zm.38,1.87H15.77v.68H6.86v-.68Zm.05-5.94h3.83v2.97h-3.83v-2.97Zm.72,.65v1.69h2.36v-1.69h-2.36Zm.61,12.6c-.04-.1-.1-.21-.19-.35s-.18-.25-.26-.33c.12-.07,.25-.2,.4-.4,.15-.19,.23-.47,.23-.85v-1.62l.76,.05v2.47c-.19,.14-.35,.27-.48,.38s-.23,.22-.32,.34-.13,.22-.13,.31Zm0,0l-.04-.72,.47-.34,3.56-.76c-.01,.11-.01,.24,0,.39,0,.15,.01,.27,.03,.35-.83,.2-1.49,.37-2,.49s-.89,.22-1.15,.29-.46,.13-.58,.18c-.13,.05-.22,.09-.28,.13Zm.56-10.42h.83v5.18h-.83v-5.18Zm1.6-5.74l.7-.25c.2,.28,.39,.58,.55,.91,.16,.33,.27,.62,.33,.87l-.72,.31c-.07-.26-.19-.57-.35-.91s-.33-.65-.51-.93Zm1.49,10.94c.38,1.06,.99,1.99,1.83,2.79,.83,.8,1.82,1.36,2.96,1.67-.08,.1-.18,.21-.28,.34-.1,.13-.18,.25-.24,.34-1.19-.4-2.21-1.03-3.05-1.9-.85-.87-1.48-1.89-1.9-3.07l.68-.18Zm-.02-8.03h3.91v2.97h-3.91v-2.97Zm.74,.65v1.69h2.41v-1.69h-2.41Zm2.99,8.26l.54,.49c-.42,.32-.89,.62-1.42,.9s-1.01,.51-1.44,.7l-.49-.47c.29-.13,.61-.29,.95-.49,.35-.19,.69-.39,1.02-.59,.33-.2,.61-.38,.84-.54Zm-2.79-6.08h.81v5.18h-.81v-5.18Z" fill="#333"/>
        <path d="M4.52,108.07l.81,.27c-.38,.73-.82,1.46-1.31,2.17-.49,.71-1.01,1.38-1.57,2.01s-1.11,1.18-1.67,1.66c-.05-.06-.11-.13-.19-.21-.08-.08-.16-.16-.24-.24-.08-.08-.16-.14-.22-.18,.84-.67,1.65-1.49,2.43-2.47s1.43-1.97,1.96-3.01Zm-2.21,11.41l.76,.32c-.16,.37-.33,.79-.52,1.27-.19,.47-.4,.95-.62,1.41-.22,.47-.45,.89-.69,1.26l-.83-.4c.25-.35,.5-.75,.73-1.22,.23-.46,.45-.93,.66-1.39s.38-.89,.52-1.26Zm.49-8.24l.85-.83v7.81h-.85v-6.98Zm1.42,8.06h.86v3.37c0,.25,.09,.42,.28,.5,.19,.08,.6,.12,1.23,.12h4.79c.36,0,.63-.05,.8-.15s.3-.31,.37-.61c.07-.31,.12-.78,.14-1.41,.08,.05,.17,.1,.27,.15,.1,.05,.19,.1,.3,.13,.1,.03,.19,.05,.26,.06-.05,.72-.13,1.27-.24,1.66-.11,.38-.31,.65-.6,.79-.29,.14-.7,.22-1.24,.22H6.62c-.64,0-1.13-.04-1.48-.11s-.59-.21-.73-.42c-.14-.21-.21-.51-.21-.91v-3.37Zm3.76-11.16l.83,.2c-.36,.96-.83,1.88-1.4,2.75-.57,.88-1.17,1.63-1.79,2.25-.05-.06-.11-.13-.2-.2-.08-.07-.17-.14-.25-.21-.08-.07-.16-.12-.23-.15,.64-.56,1.22-1.25,1.76-2.07,.54-.82,.97-1.67,1.28-2.57Zm0,4.86l.83,.22c-.29,.72-.65,1.42-1.08,2.11s-.88,1.27-1.35,1.75c-.05-.05-.11-.1-.2-.16-.08-.06-.17-.12-.26-.18-.09-.06-.17-.11-.23-.14,.48-.47,.92-1.01,1.31-1.64,.4-.62,.72-1.27,.97-1.94Zm-1.12,5.36l.68-.38c.35,.31,.7,.66,1.06,1.04,.36,.38,.69,.76,1,1.13,.31,.38,.54,.72,.71,1.02l-.72,.45c-.17-.3-.4-.64-.7-1.03-.3-.38-.63-.77-.98-1.16-.35-.39-.71-.75-1.05-1.07Zm.59-8.42H15.64v.77H7.15l.31-.77Zm3.24,1.6h.85v6.62h-.85v-6.62Zm2.18,1.75l.7-.34c.32,.38,.64,.8,.95,1.24,.31,.44,.58,.88,.84,1.31,.25,.43,.44,.82,.58,1.15l-.77,.41c-.12-.36-.3-.76-.55-1.2-.25-.44-.52-.88-.82-1.33-.3-.45-.61-.87-.92-1.25Zm.56,6.21l.79-.29c.29,.42,.57,.87,.84,1.36,.27,.49,.51,.96,.72,1.42s.36,.87,.46,1.23l-.83,.32c-.1-.36-.25-.77-.45-1.24-.2-.47-.44-.95-.7-1.44-.26-.49-.54-.95-.83-1.37Zm1.93-9.56h.16l.16-.05,.58,.18c-.24,.49-.49,1-.76,1.53-.26,.53-.51,.97-.74,1.31l-.77-.16c.23-.35,.46-.77,.71-1.27s.46-.97,.66-1.41v-.13Z" fill="#333"/>
        <path d="M.74,137h15.39v.85H.74v-.85Zm11.18-1.85l.97,.11c-.29,1.73-.72,3.2-1.3,4.43s-1.32,2.25-2.23,3.08-2.02,1.51-3.31,2.03c-1.3,.53-2.81,.95-4.55,1.28-.02-.06-.07-.14-.14-.25-.07-.11-.15-.21-.22-.31-.08-.1-.15-.18-.23-.24,1.73-.29,3.23-.67,4.5-1.15,1.27-.48,2.35-1.11,3.23-1.89s1.59-1.75,2.12-2.91c.53-1.16,.92-2.55,1.17-4.17Zm-10.69-3.29H15.53v3.44h-.88v-2.59H2.09v2.59h-.86v-3.44Zm1.84,8.75c.34-.44,.69-.95,1.06-1.52,.37-.57,.74-1.17,1.1-1.8s.7-1.26,1.02-1.88c.32-.62,.59-1.22,.82-1.78l.92,.18c-.23,.58-.5,1.18-.82,1.8-.32,.62-.66,1.25-1.02,1.86s-.71,1.2-1.05,1.75-.67,1.02-.98,1.43l-1.04-.04Zm0,0l.61-.68c1.04,.32,2.13,.69,3.27,1.11s2.25,.86,3.34,1.34c1.09,.48,2.12,.97,3.07,1.47s1.77,.97,2.44,1.43l-.68,.77c-.66-.46-1.45-.93-2.38-1.43s-1.93-.99-3.02-1.48c-1.09-.49-2.21-.95-3.34-1.39-1.13-.43-2.23-.81-3.3-1.13Zm4.07-10.71l.85-.25c.24,.38,.49,.81,.75,1.27,.26,.46,.45,.84,.58,1.12l-.88,.34c-.14-.32-.34-.72-.58-1.2s-.48-.9-.72-1.29Z" fill="#333"/>
        <path d="M2.05,157.75l.83,.2c-.1,.66-.23,1.4-.41,2.23s-.38,1.65-.6,2.47c-.23,.82-.47,1.54-.74,2.17l-.86-.38c.29-.61,.55-1.31,.78-2.1s.44-1.58,.61-2.38c.17-.8,.3-1.54,.39-2.21Zm2.66-1.49h.88v9.25c0,.41,.09,.67,.26,.8s.54,.19,1.09,.19h4c.42,0,.73-.1,.94-.31s.34-.59,.42-1.16c.08-.57,.14-1.4,.19-2.49,.08,.05,.17,.1,.27,.16,.1,.06,.2,.11,.31,.14,.11,.04,.2,.07,.27,.11-.05,1.14-.14,2.03-.27,2.67-.13,.64-.36,1.09-.67,1.34s-.8,.38-1.45,.38h-4c-.58,0-1.03-.05-1.35-.15-.32-.1-.55-.29-.68-.56-.13-.27-.2-.65-.2-1.14v-9.23Zm.97-3.58l.59-.52c.58,.41,1.17,.86,1.78,1.34,.61,.49,1.19,.98,1.72,1.47,.53,.49,.97,.93,1.31,1.31l-.59,.61c-.34-.38-.77-.82-1.31-1.31s-1.11-1-1.72-1.51-1.21-.98-1.78-1.39Zm7.67,4.97l.79-.27c.36,.72,.71,1.49,1.04,2.3,.33,.82,.62,1.62,.88,2.4,.26,.79,.45,1.49,.58,2.12l-.85,.31c-.12-.62-.31-1.33-.57-2.12s-.55-1.6-.87-2.43c-.32-.83-.66-1.6-1.01-2.3Z" fill="#333"/>
        <path d="M1.1,175.79h.83v13.05h-.83v-13.05Zm.43,5.11H6.71v.81H1.53v-.81Zm.09-5.11H7.06v11.56H1.62v-.83H6.23v-9.94H1.62v-.79Zm2.34-2.93l.94,.22c-.17,.52-.36,1.06-.57,1.63-.21,.57-.41,1.05-.58,1.43l-.7-.2c.11-.29,.22-.61,.33-.97,.11-.36,.22-.73,.33-1.11,.11-.38,.19-.71,.25-1Zm6.34-.07l.83,.18c-.2,.9-.45,1.78-.75,2.63-.29,.85-.62,1.65-.97,2.39-.35,.74-.74,1.4-1.16,1.98-.04-.05-.1-.1-.2-.16-.1-.06-.19-.12-.29-.18-.1-.06-.18-.11-.25-.14,.42-.55,.8-1.18,1.15-1.9,.35-.71,.66-1.48,.94-2.29,.28-.82,.51-1.65,.7-2.5Zm-.81,7.36l.68-.4c.37,.42,.75,.88,1.12,1.39,.38,.51,.73,1,1.06,1.47,.33,.47,.59,.88,.78,1.24l-.74,.5c-.19-.37-.45-.8-.76-1.29-.32-.49-.67-.99-1.04-1.5-.38-.52-.75-.99-1.11-1.42Zm.25-4.37h5.69v.83h-5.69v-.83Zm5.36,0h.83v.52c-.07,2.09-.15,3.85-.22,5.28-.08,1.43-.17,2.6-.26,3.51-.1,.91-.21,1.61-.33,2.1-.13,.49-.28,.85-.46,1.06-.18,.22-.36,.36-.55,.44-.19,.08-.43,.13-.73,.15-.28,.02-.65,.03-1.13,0-.48-.02-.97-.04-1.46-.08-.01-.13-.04-.28-.09-.44s-.11-.3-.2-.41c.59,.05,1.13,.08,1.62,.09s.83,.02,1.03,.02c.18,0,.33-.02,.45-.04,.12-.03,.22-.11,.31-.23,.16-.17,.29-.5,.41-.98,.12-.49,.23-1.18,.32-2.09,.09-.91,.17-2.07,.25-3.5,.08-1.43,.15-3.16,.22-5.2v-.22Z" fill="#333"/>
        <path d="M.18,200.18l.5-.65c.37,.16,.76,.34,1.15,.55,.4,.21,.77,.43,1.12,.67,.35,.23,.63,.45,.85,.66l-.5,.72c-.22-.22-.5-.44-.85-.67-.35-.23-.72-.46-1.11-.69-.39-.23-.78-.42-1.16-.58Zm.47,9.86c.29-.47,.61-1.03,.95-1.67,.35-.65,.7-1.33,1.04-2.05s.67-1.41,.95-2.07l.68,.52c-.26,.62-.56,1.28-.89,1.98-.33,.7-.67,1.38-1.01,2.04-.34,.67-.67,1.27-.98,1.81l-.76-.56Zm.43-14.72l.52-.61c.37,.17,.75,.37,1.14,.61,.39,.24,.75,.48,1.09,.72,.34,.24,.61,.47,.81,.7l-.5,.7c-.22-.22-.5-.45-.84-.71s-.71-.51-1.09-.76c-.38-.25-.76-.46-1.13-.66Zm2.72,14.22h12.8v.79H3.8v-.79Zm1.71-5.65H15.28v6.05h-.83v-5.27h-2.23v5.27h-.76v-5.27h-2.21v5.27h-.74v-5.27h-2.18v5.27h-.83v-6.05Zm.67-8.5H14.65v6.89H6.17v-6.89Zm.81,.74v5.42h6.84v-5.42H6.98Zm3.28,.43l.76,.09c-.16,.84-.49,1.67-1,2.48-.51,.81-1.17,1.44-1.99,1.9-.05-.08-.12-.18-.21-.28-.09-.1-.17-.18-.24-.24,.76-.42,1.36-.99,1.82-1.72,.46-.73,.74-1.47,.86-2.22Zm-.5,1.87l.52-.36c.34,.24,.68,.51,1.04,.82,.35,.31,.69,.6,1.01,.89,.32,.29,.57,.55,.77,.77l-.52,.45c-.19-.23-.45-.49-.76-.79-.32-.3-.65-.61-1.01-.93-.35-.32-.7-.6-1.04-.85Z" fill="#333"/>
        <path d="M.86,217.44h.81v12.89H.86v-12.89Zm.41,0h3.96v11.45H1.28v-.81h3.15v-9.83H1.28v-.81Zm.07,5.22h3.53v.81H1.35v-.81Zm7.29-1.22h.85c-.06,.7-.14,1.44-.25,2.23-.11,.79-.26,1.6-.47,2.42-.2,.82-.48,1.63-.82,2.41-.34,.79-.77,1.52-1.29,2.2-.52,.68-1.15,1.26-1.91,1.75-.07-.1-.17-.2-.3-.32s-.24-.21-.35-.27c.73-.46,1.35-1.01,1.85-1.66s.92-1.35,1.25-2.1,.59-1.52,.77-2.31c.19-.79,.33-1.56,.42-2.3,.1-.74,.17-1.43,.23-2.05Zm-2.99,2.03h10.82v.79H5.65v-.79Zm9.36-7.24l.58,.67c-.58,.14-1.24,.27-1.99,.37-.75,.1-1.54,.19-2.38,.28s-1.68,.15-2.54,.21c-.86,.05-1.68,.09-2.46,.1-.02-.1-.06-.21-.11-.35-.05-.14-.1-.25-.14-.35,.78-.02,1.59-.07,2.43-.13,.84-.06,1.67-.13,2.49-.21s1.59-.17,2.29-.26c.71-.1,1.31-.2,1.82-.32Zm-8.8,4.7h9.86v.77H6.21v-.77Zm.59-2.5l.7-.2c.19,.36,.38,.76,.56,1.2,.18,.44,.31,.8,.4,1.07l-.74,.29c-.08-.31-.21-.69-.39-1.14-.17-.45-.35-.86-.53-1.22Zm7.38,7.36h.2l.18-.05,.5,.25c-.41,1.26-.99,2.32-1.75,3.18-.76,.86-1.63,1.55-2.64,2.08s-2.09,.95-3.27,1.26c-.02-.07-.07-.15-.13-.23-.06-.08-.12-.17-.19-.25-.07-.08-.13-.15-.19-.2,1.13-.26,2.18-.64,3.15-1.12,.97-.49,1.82-1.12,2.53-1.89,.71-.77,1.25-1.73,1.59-2.87v-.14Zm-5.38,.41c.43,.94,1.03,1.78,1.8,2.53s1.67,1.38,2.71,1.89,2.17,.88,3.41,1.11c-.1,.1-.2,.22-.32,.37-.11,.15-.2,.29-.26,.42-1.88-.43-3.53-1.16-4.94-2.2-1.41-1.03-2.48-2.32-3.2-3.87l.79-.25Zm-.59-.41h6.23v.72h-6.23v-.72Zm1.87-7.78l.72-.13c.13,.41,.25,.85,.37,1.31,.11,.47,.19,.85,.24,1.15l-.79,.22c-.04-.32-.11-.73-.21-1.21-.1-.49-.21-.93-.33-1.34Zm4.45-.22l.86,.32c-.32,.54-.67,1.12-1.05,1.74s-.74,1.14-1.07,1.58l-.74-.29c.23-.3,.46-.65,.71-1.04,.25-.4,.48-.8,.71-1.21,.23-.41,.42-.77,.58-1.1Z" fill="#333"/>
        <path d="M2.09,238.72h.86v5.22c0,.73-.02,1.53-.06,2.4s-.13,1.76-.28,2.66c-.14,.91-.36,1.79-.64,2.66-.28,.86-.66,1.67-1.12,2.41-.05-.06-.12-.12-.22-.17-.1-.05-.19-.11-.29-.16-.1-.05-.18-.1-.25-.13,.46-.71,.82-1.48,1.08-2.3,.26-.83,.46-1.67,.59-2.52,.13-.85,.22-1.69,.26-2.52s.06-1.6,.06-2.32v-5.22Zm.47,6.35h13.68v.81H2.56v-.81Zm.05-6.35H15.12v4.05H2.61v-.81H14.26v-2.43H2.61v-.81Zm2.02,9.65H14.78v5.63h-.86v-4.82H5.47v4.88h-.85v-5.69Zm.49,4.19H14.38v.79H5.11v-.79Zm4.07-9.86h.86v5.94h-.86v-5.94Z" fill="#333"/>
        <path d="M1.3,261.16h.85v6.16c0,.62-.01,1.3-.04,2.02-.03,.72-.09,1.45-.19,2.19-.1,.74-.24,1.46-.42,2.17-.19,.71-.43,1.36-.75,1.96-.05-.06-.11-.13-.2-.2-.08-.07-.17-.14-.26-.21-.09-.07-.17-.11-.24-.13,.38-.77,.67-1.6,.85-2.51s.29-1.82,.34-2.74,.07-1.77,.07-2.55v-6.16Zm6.17-1.48l.58,.72c-.5,.26-1.12,.49-1.85,.68-.73,.19-1.5,.35-2.3,.49-.8,.13-1.58,.24-2.32,.32-.01-.11-.04-.23-.1-.37s-.11-.26-.17-.37c.72-.08,1.47-.2,2.25-.34,.78-.14,1.52-.31,2.22-.5s1.27-.4,1.7-.63Zm-5.69,4.12H7.15v4.91H1.78v-.81H6.28v-3.29H1.78v-.81Zm7.25-2.61h.88v6.23c0,.64-.03,1.32-.08,2.04-.05,.73-.16,1.46-.32,2.2-.16,.74-.4,1.45-.71,2.13-.31,.68-.73,1.31-1.24,1.87-.04-.05-.1-.11-.18-.18s-.17-.14-.25-.22-.16-.13-.22-.16c.48-.55,.86-1.15,1.14-1.78,.28-.64,.5-1.29,.64-1.97,.14-.68,.24-1.35,.28-2.02s.06-1.31,.06-1.92v-6.23Zm6.46-1.67l.61,.72c-.54,.25-1.19,.49-1.96,.7s-1.57,.41-2.4,.57c-.83,.16-1.64,.3-2.42,.42-.02-.1-.07-.22-.13-.36-.06-.14-.11-.27-.16-.38,.76-.12,1.54-.26,2.36-.43s1.59-.36,2.31-.57c.73-.21,1.32-.43,1.79-.67Zm-6.05,5.92h7.06v.83h-7.06v-.83Zm3.82,.47h.86v9.72h-.86v-9.72Z" fill="#333"/>
        <path d="M8.44,281.95c.49,0,.94,.12,1.33,.36,.4,.24,.71,.56,.95,.95,.24,.4,.36,.84,.36,1.33s-.12,.92-.36,1.32-.56,.72-.95,.96c-.4,.24-.84,.36-1.33,.36s-.92-.12-1.32-.36c-.4-.24-.72-.56-.96-.96s-.36-.84-.36-1.32,.12-.94,.36-1.33c.24-.4,.56-.71,.96-.95,.4-.24,.84-.36,1.32-.36Zm0,4.59c.54,0,1-.19,1.38-.57s.57-.84,.57-1.38c0-.36-.09-.69-.26-.98-.17-.29-.41-.53-.69-.7s-.62-.26-.99-.26-.68,.09-.97,.26-.52,.41-.7,.7-.27,.62-.27,.98,.09,.69,.27,.98,.41,.53,.7,.7,.61,.26,.97,.26Z" fill="#333"/>
      </g>
      <g>
        <path d="M132.82,.14h1.68c-.01,.6-.05,1.35-.1,2.26-.05,.91-.16,1.92-.32,3.03-.16,1.11-.42,2.27-.79,3.47-.37,1.2-.87,2.38-1.51,3.55-.64,1.17-1.45,2.26-2.43,3.29-.98,1.03-2.18,1.91-3.59,2.66-.13-.19-.31-.39-.54-.61-.23-.22-.45-.41-.68-.57,1.39-.71,2.56-1.54,3.51-2.51s1.73-2,2.33-3.11c.6-1.11,1.07-2.22,1.4-3.35,.33-1.13,.57-2.21,.71-3.25,.14-1.04,.23-1.98,.27-2.82,.04-.84,.06-1.52,.06-2.04Zm1.48,2.48c.04,.23,.1,.66,.18,1.3s.23,1.41,.44,2.3c.21,.89,.52,1.85,.91,2.86,.39,1.01,.9,2.02,1.53,3.02s1.4,1.93,2.33,2.8,2.02,1.59,3.29,2.16c-.21,.16-.42,.36-.62,.6-.2,.24-.36,.46-.48,.66-1.31-.61-2.44-1.38-3.39-2.3s-1.75-1.91-2.4-2.98c-.65-1.07-1.17-2.14-1.57-3.23-.4-1.09-.71-2.11-.93-3.07s-.38-1.79-.49-2.49c-.11-.7-.18-1.2-.22-1.49l1.42-.14Z" fill="#333"/>
        <path d="M125.28,27.88l1.14,.16c-.04,.55-.1,1.15-.19,1.8s-.2,1.29-.34,1.92c-.14,.63-.3,1.19-.47,1.68l-1.18-.4c.19-.45,.35-.98,.48-1.57,.13-.59,.25-1.21,.35-1.84,.1-.63,.17-1.22,.21-1.75Zm1.84-3.8h1.5v18.38h-1.5V24.08Zm1.64,3.68l1.06-.46c.31,.53,.6,1.12,.87,1.75,.27,.63,.46,1.16,.57,1.59l-1.12,.58c-.07-.31-.17-.66-.32-1.05-.15-.39-.31-.8-.49-1.23-.18-.43-.37-.82-.57-1.18Zm1.6,12.58h12.3v1.42h-12.3v-1.42Zm2.5-15.34l1.46,.24c-.17,.97-.39,1.93-.65,2.86s-.55,1.81-.86,2.62c-.31,.81-.66,1.53-1.03,2.16-.09-.07-.22-.15-.39-.24-.17-.09-.34-.18-.51-.26-.17-.08-.32-.15-.44-.2,.39-.59,.73-1.26,1.04-2.03,.31-.77,.58-1.59,.81-2.48,.23-.89,.42-1.78,.57-2.67Zm-1,8.92h9.88v1.4h-9.88v-1.4Zm1-5.6h9.32v1.44h-9.78l.46-1.44Zm3.24-4.16h1.52v16.98h-1.52V24.16Z" fill="#333"/>
        <path d="M124.62,51.48h7.62v1.24h-7.62v-1.24Zm.84,2.64h5.94v1.2h-5.94v-1.2Zm0,2.64h5.96v1.18h-5.96v-1.18Zm0,2.66h1.32v6.8h-1.32v-6.8Zm.66,0h5.28v5.84h-5.28v-1.26h3.94v-3.32h-3.94v-1.26Zm.68-10.82l1.18-.6c.28,.4,.57,.84,.86,1.32,.29,.48,.52,.9,.68,1.26l-1.22,.7c-.16-.36-.38-.8-.66-1.31-.28-.51-.56-.97-.84-1.37Zm13.52,8.32h.28l.26-.06,.94,.4c-.39,1.28-.9,2.42-1.55,3.42-.65,1-1.4,1.88-2.25,2.63-.85,.75-1.78,1.39-2.79,1.91-1.01,.52-2.05,.94-3.13,1.26-.05-.12-.13-.27-.22-.44-.09-.17-.19-.34-.28-.5-.09-.16-.19-.29-.3-.4,1.01-.25,1.99-.61,2.93-1.07,.94-.46,1.81-1.02,2.62-1.69,.81-.67,1.51-1.44,2.1-2.31,.59-.87,1.06-1.84,1.39-2.91v-.24Zm-6.36-8.12h1.4v2.24c0,.6-.08,1.22-.24,1.87-.16,.65-.45,1.27-.86,1.88s-1.02,1.15-1.82,1.63c-.07-.11-.16-.23-.28-.37-.12-.14-.24-.28-.37-.42-.13-.14-.24-.24-.33-.31,.72-.41,1.26-.86,1.62-1.35,.36-.49,.6-.99,.71-1.5,.11-.51,.17-1,.17-1.47v-2.2Zm-1.94,8.12h8.82v1.4h-8.82v-1.4Zm2.14,1.26c.49,1.15,1.16,2.18,2,3.11,.84,.93,1.84,1.71,2.99,2.36,1.15,.65,2.44,1.12,3.85,1.43-.11,.11-.22,.24-.34,.4-.12,.16-.23,.33-.34,.5-.11,.17-.2,.33-.28,.46-2.16-.56-4.01-1.51-5.56-2.85s-2.75-3-3.62-4.97l1.3-.44Zm.08-9.38h5.2v1.4h-5.2v-1.4Zm4.44,0h1.42v4.64c0,.29,.02,.49,.05,.6s.11,.16,.23,.16h1.22c.12,0,.26-.01,.43-.03,.17-.02,.32-.04,.45-.07,.01,.19,.03,.41,.04,.66,.01,.25,.04,.47,.08,.64-.12,.04-.27,.07-.45,.08-.18,.01-.36,.02-.55,.02h-1.32c-.44,0-.77-.07-1-.2-.23-.13-.38-.35-.47-.66s-.13-.71-.13-1.22v-4.62Z" fill="#333"/>
        <path d="M124.96,75.48h8.28v1.24h-8.28v-1.24Zm.88,2.64h6.54v1.2h-6.54v-1.2Zm0,2.64h6.5v1.18h-6.5v-1.18Zm.16,2.66h1.3v6.8h-1.3v-6.8Zm.64,0h5.74v5.84h-5.74v-1.26h4.42v-3.32h-4.42v-1.26Zm.68-10.82l1.18-.6c.29,.4,.58,.84,.87,1.32,.29,.48,.51,.9,.67,1.26l-1.22,.7c-.15-.36-.36-.8-.65-1.31-.29-.51-.57-.97-.85-1.37Zm5.88,6.4h9.58v1.48h-9.58v-1.48Zm3.92-6.56h1.54v18.04h-1.54v-18.04Z" fill="#333"/>
        <path d="M126.74,105.96h1.48v7.26c0,.76-.03,1.57-.1,2.44-.07,.87-.19,1.74-.37,2.63-.18,.89-.45,1.74-.82,2.55-.37,.81-.85,1.55-1.45,2.22-.07-.11-.17-.22-.32-.35-.15-.13-.29-.25-.44-.37-.15-.12-.28-.21-.4-.26,.56-.63,1-1.31,1.32-2.04,.32-.73,.56-1.49,.72-2.27s.26-1.56,.31-2.33c.05-.77,.07-1.51,.07-2.22v-7.26Zm.74,9.44h13.06v1.42h-13.06v-1.42Zm.12-9.44h12.94v1.44h-12.94v-1.44Zm0,4.66h12.9v1.42h-12.9v-1.42Zm5.42-4.12h1.52v16.28h-1.52v-16.28Zm6.92-.54h1.48v14.96c0,.48-.07,.85-.21,1.1-.14,.25-.38,.45-.71,.58-.33,.12-.8,.19-1.4,.22s-1.37,.03-2.32,.02c-.04-.19-.11-.42-.21-.71-.1-.29-.2-.53-.31-.73,.47,.01,.92,.02,1.35,.03,.43,0,.81,0,1.13,0,.32,0,.54-.01,.66-.01,.2-.01,.34-.05,.42-.12,.08-.07,.12-.19,.12-.38v-14.96Z" fill="#333"/>
        <path d="M126.38,135.64l1.44,.28c-.09,.79-.23,1.66-.4,2.62-.17,.96-.37,1.9-.6,2.83s-.47,1.75-.74,2.47l-1.52-.64c.29-.68,.56-1.46,.8-2.33,.24-.87,.45-1.77,.62-2.68s.31-1.76,.4-2.55Zm3.2-1.5h1.56v9.92c0,.47,.08,.77,.25,.91,.17,.14,.54,.21,1.11,.21h3.86c.41,0,.72-.11,.93-.33,.21-.22,.35-.63,.44-1.23,.09-.6,.15-1.47,.19-2.62,.13,.09,.28,.19,.45,.28,.17,.09,.34,.17,.52,.24s.34,.12,.47,.16c-.07,1.27-.19,2.26-.36,2.97-.17,.71-.46,1.22-.85,1.51s-.97,.44-1.73,.44h-4.04c-.72,0-1.28-.07-1.69-.22-.41-.15-.69-.41-.86-.78-.17-.37-.25-.89-.25-1.54v-9.92Zm.94-3.9l1.02-.98c.63,.43,1.29,.9,1.98,1.43s1.35,1.05,1.96,1.58,1.11,1,1.5,1.41l-1.08,1.14c-.37-.43-.86-.91-1.46-1.44-.6-.53-1.24-1.08-1.93-1.64-.69-.56-1.35-1.06-1.99-1.5Zm8.38,5.42l1.4-.54c.39,.8,.76,1.65,1.12,2.55,.36,.9,.68,1.78,.96,2.65,.28,.87,.49,1.65,.62,2.34l-1.48,.6c-.13-.69-.33-1.48-.6-2.36-.27-.88-.57-1.78-.92-2.69-.35-.91-.71-1.76-1.1-2.55Z" fill="#333"/>
        <path d="M124.58,155.96h7.26v1.24h-7.26v-1.24Zm.82,7.94h1.32v6.8h-1.32v-6.8Zm.02-5.3h5.78v1.2h-5.78v-1.2Zm0,2.64h5.78v1.18h-5.78v-1.18Zm.64,2.66h5.24v5.84h-5.24v-1.26h3.9v-3.32h-3.9v-1.26Zm.74-10.82l1.14-.6c.31,.4,.6,.84,.89,1.32,.29,.48,.51,.9,.67,1.26l-1.22,.7c-.15-.36-.36-.8-.65-1.31-.29-.51-.56-.97-.83-1.37Zm9.42,.36l1.24,.38c-.36,.91-.8,1.79-1.32,2.64-.52,.85-1.1,1.63-1.73,2.32-.63,.69-1.29,1.27-1.97,1.72-.12-.17-.27-.37-.46-.58-.19-.21-.36-.39-.52-.52,.65-.39,1.28-.89,1.89-1.52,.61-.63,1.16-1.32,1.66-2.09,.5-.77,.9-1.55,1.21-2.35Zm-4.54,15.6h10.78v1.34h-10.78v-1.34Zm1.1-4.94h8.62v1.32h-8.62v-1.32Zm.18-11h4.62v1.28h-4.62v-1.28Zm.34,6.54h7.42v1.32h-7.42v-1.32Zm3.04,.34h1.46v9.96h-1.46v-9.96Zm.18-6.88h1.54c.29,.84,.69,1.65,1.18,2.43s1.05,1.48,1.68,2.1c.63,.62,1.28,1.12,1.96,1.51-.11,.08-.23,.19-.36,.32-.13,.13-.26,.27-.37,.42-.11,.15-.22,.28-.31,.4-.69-.45-1.36-1.02-2-1.69-.64-.67-1.21-1.41-1.72-2.22-.51-.81-.91-1.64-1.22-2.51h-.38v-.76Z" fill="#333"/>
        <path d="M127.6,184.46l.96,.4c-.19,.65-.41,1.34-.67,2.07s-.54,1.44-.85,2.15c-.31,.71-.63,1.37-.96,2-.33,.63-.67,1.16-1,1.6-.08-.2-.19-.43-.34-.68-.15-.25-.28-.47-.4-.64,.29-.39,.6-.86,.93-1.41,.33-.55,.64-1.14,.93-1.77,.29-.63,.56-1.26,.8-1.89,.24-.63,.44-1.24,.6-1.83Zm-3.1-.54h7.68v1.26h-7.68v-1.26Zm6.54-7.3l1.04,.98c-.59,.25-1.28,.47-2.09,.66s-1.65,.34-2.53,.46-1.72,.21-2.52,.28c-.03-.15-.08-.32-.16-.53-.08-.21-.16-.38-.24-.53,.77-.08,1.57-.18,2.39-.3s1.59-.27,2.32-.44c.73-.17,1.32-.37,1.79-.58Zm-6.02,3.28l1.08-.34c.2,.55,.39,1.14,.57,1.78,.18,.64,.3,1.2,.37,1.68l-1.14,.38c-.05-.48-.16-1.05-.33-1.7s-.35-1.25-.55-1.8Zm2.8-1.78l1.3-.36v17.22h-1.3v-16.86Zm1.18,7.82c.13,.11,.33,.28,.6,.52,.27,.24,.55,.5,.85,.79,.3,.29,.58,.55,.84,.8,.26,.25,.44,.42,.55,.53l-.8,1.08c-.15-.17-.34-.4-.59-.68-.25-.28-.51-.57-.79-.88-.28-.31-.55-.59-.8-.86-.25-.27-.46-.47-.62-.62l.76-.68Zm1.86-6.8l1.28,.52c-.16,.41-.33,.86-.5,1.34-.17,.48-.34,.94-.5,1.37-.16,.43-.32,.82-.48,1.15l-.96-.42c.13-.36,.27-.77,.42-1.24,.15-.47,.29-.94,.42-1.42,.13-.48,.24-.91,.32-1.3Zm1.12,6.16h10.88v1.12h-10.88v-1.12Zm.5,5.9h9.98v1.16h-9.98v-1.16Zm.14-13.9h9.62v4.4h-9.62v-4.4Zm.42,11.36h8.84v1.14h-8.84v-1.14Zm.22-5.82h8.36v1.14h-8.36v-1.14Zm.6-4.46v2.22h1.6v-2.22h-1.6Zm.38,8.38l1.04-.46c.19,.33,.37,.69,.54,1.08,.17,.39,.3,.73,.38,1.02l-1.1,.5c-.05-.29-.16-.64-.33-1.04s-.34-.77-.53-1.1Zm2.28-8.38v2.22h1.66v-2.22h-1.66Zm.2,3.16h1.4v4.34h-1.4v-4.34Zm0,7.54h1.4v5.88h-1.4v-5.88Zm2.94-2.84l1.2,.5c-.24,.44-.48,.89-.73,1.34-.25,.45-.48,.84-.69,1.16l-.94-.4c.2-.36,.41-.79,.63-1.28s.4-.93,.53-1.32Zm-.42-7.86v2.22h1.7v-2.22h-1.7Z" fill="#333"/>
      </g>
    </g>
  </g>
</svg>