<?xml version="1.0" encoding="UTF-8"?>
<svg id="_圖層_2" data-name="圖層 2" xmlns="http://www.w3.org/2000/svg" viewBox="0 0 143.18 244.04">
  <g id="pic">
    <g>
      <g>
        <path d="M85.63,1.67l.92,.36c-.67,1.21-1.49,2.4-2.46,3.56-.97,1.16-2.04,2.23-3.23,3.21-1.19,.98-2.46,1.84-3.82,2.56-.04-.07-.09-.15-.17-.24-.08-.09-.15-.18-.22-.26-.07-.08-.13-.16-.19-.22,.98-.52,1.93-1.11,2.83-1.77s1.76-1.39,2.56-2.17c.8-.78,1.52-1.59,2.15-2.44,.64-.85,1.18-1.71,1.62-2.58Zm-8.78-.27h15.39v.88h-15.39v-.88Zm7.22,3.42l.92-.9v12.51h-.92V4.82Zm1.67,1.37l.61-.56c.56,.35,1.14,.72,1.74,1.12s1.18,.81,1.75,1.23c.58,.43,1.11,.84,1.59,1.24,.49,.4,.9,.77,1.23,1.11l-.67,.68c-.32-.35-.73-.73-1.21-1.14-.49-.41-1.01-.84-1.58-1.27-.56-.43-1.14-.86-1.74-1.28s-1.17-.8-1.74-1.13Z" fill="#333"/>
        <path d="M77.15,22.5h14.83v15.52h-.86v-14.71h-13.14v14.71h-.83v-15.52Zm.5,13.81h13.95v.79h-13.95v-.79Zm1.51-8.86h10.76v.81h-10.76v-.81Zm5.17-3.28h.86c-.06,1.25-.16,2.45-.3,3.59-.14,1.15-.38,2.21-.74,3.2-.35,.98-.87,1.87-1.55,2.65-.68,.79-1.59,1.44-2.73,1.97-.04-.07-.09-.15-.17-.23s-.15-.17-.22-.24c-.07-.08-.14-.14-.2-.19,1.09-.48,1.97-1.09,2.63-1.84,.66-.74,1.15-1.58,1.49-2.52,.33-.94,.56-1.94,.68-3.02,.13-1.08,.21-2.2,.24-3.37Zm-.36,5.44l.59-.43c.66,.58,1.33,1.21,2.01,1.92,.68,.7,1.3,1.39,1.88,2.06,.58,.67,1.04,1.27,1.39,1.8l-.65,.52c-.28-.41-.61-.86-1-1.34-.39-.49-.82-.99-1.3-1.52-.47-.53-.96-1.05-1.46-1.57s-.99-1-1.47-1.44Z" fill="#333"/>
        <path d="M77.08,44.05h4.18v.81h-3.38v14.76h-.79v-15.57Zm3.94,0h.16l.14-.05,.54,.36c-.28,.72-.58,1.49-.91,2.31-.33,.82-.66,1.61-1,2.35,.72,.77,1.2,1.48,1.43,2.15,.23,.67,.35,1.29,.35,1.88,0,.42-.05,.81-.15,1.16-.1,.35-.27,.62-.5,.78-.11,.08-.24,.15-.39,.19-.15,.04-.31,.08-.48,.1-.19,.02-.4,.04-.61,.04s-.43,0-.63-.02c-.01-.1-.04-.22-.07-.38-.04-.16-.1-.29-.18-.41,.24,.01,.46,.02,.66,.03s.38,0,.55,0c.25-.02,.45-.08,.59-.18,.16-.11,.26-.29,.32-.54,.06-.25,.09-.52,.09-.81,0-.54-.12-1.13-.37-1.77-.25-.64-.74-1.35-1.47-2.12,.19-.41,.38-.83,.56-1.27,.18-.44,.35-.87,.51-1.3,.16-.43,.32-.83,.46-1.22,.14-.39,.27-.74,.38-1.05v-.22Zm1.94,12.01l.7,.29c-.18,.49-.4,1.03-.65,1.6s-.54,1.07-.86,1.48l-.74-.38c.34-.38,.64-.86,.91-1.44,.27-.58,.48-1.09,.64-1.55Zm-.83-3.49h10.48v.67h-10.48v-.67Zm.32-3.51h10.12v.7h-10.12v-.7Zm9.25-5.71l.59,.61c-.77,.18-1.69,.34-2.75,.48s-2.18,.25-3.33,.35c-1.15,.1-2.26,.17-3.33,.22-.01-.1-.04-.21-.08-.33s-.09-.23-.13-.31c.79-.05,1.61-.11,2.45-.17,.84-.07,1.67-.14,2.48-.23,.82-.08,1.58-.18,2.28-.29,.7-.11,1.31-.22,1.83-.32Zm-8.93,7.4h8.89v4.37h-8.98v-.68h8.17v-3.01h-8.08v-.68Zm.29-3.64h8.78v.68h-8.78v-.68Zm.31-1.66l.68-.27c.17,.22,.34,.46,.51,.73,.17,.27,.31,.51,.4,.71l-.7,.32c-.1-.19-.23-.43-.41-.72s-.34-.55-.5-.77Zm1.01,10.51h.81v2.41c0,.17,.05,.28,.15,.33,.1,.05,.34,.08,.73,.08h2.83c.28,0,.46-.06,.54-.19,.08-.13,.14-.44,.16-.93,.08,.06,.2,.11,.34,.16,.14,.05,.28,.08,.4,.11-.04,.64-.14,1.06-.32,1.28-.18,.22-.51,.32-.99,.32h-2.99c-.43,0-.77-.03-1.01-.09-.24-.06-.41-.17-.5-.34-.1-.17-.14-.41-.14-.74v-2.41Zm1.46-.34l.54-.43c.38,.3,.79,.65,1.23,1.04,.44,.39,.79,.72,1.05,.98l-.58,.5c-.17-.19-.38-.41-.65-.67-.26-.25-.54-.5-.82-.76-.28-.25-.54-.47-.78-.67Zm.54-10.49l.68-.23c.18,.29,.35,.6,.52,.93s.3,.61,.4,.84l-.72,.32c-.08-.25-.21-.55-.39-.9-.17-.35-.34-.67-.5-.95Zm.52,2.27h.85v2h-.85v-2Zm3.82-2.7l.76,.22c-.22,.44-.46,.9-.75,1.38-.28,.47-.55,.89-.8,1.23-.08-.05-.2-.11-.34-.17-.14-.07-.28-.11-.4-.14,.3-.37,.58-.78,.85-1.22,.26-.44,.49-.88,.68-1.3Zm-.65,11.59l.7-.29c.35,.46,.71,.95,1.07,1.47,.37,.52,.65,.96,.84,1.32l-.74,.38c-.12-.26-.29-.56-.5-.89-.22-.33-.44-.67-.67-1.02-.23-.35-.46-.67-.69-.97Z" fill="#333"/>
        <path d="M77.48,75.29h.74v1.58c0,.44-.03,.92-.1,1.43-.07,.51-.19,1.02-.37,1.54-.18,.52-.46,.99-.83,1.42-.08-.07-.19-.15-.31-.22-.12-.08-.22-.14-.31-.19,.34-.42,.59-.86,.76-1.32s.28-.92,.33-1.39c.05-.46,.08-.89,.08-1.29v-1.57Zm-1.06-.25h3.71v.79h-3.71v-.79Zm.31-8.78h7.2v.79h-7.2v-.79Zm.52,3.01h.76v3.29h2.18v.76h-2.93v-4.05Zm2.57-.02h.79v4.73c0,.72-.03,1.52-.1,2.39-.07,.87-.2,1.73-.4,2.58-.2,.85-.5,1.63-.89,2.34-.04-.05-.1-.1-.18-.15s-.17-.11-.25-.15-.16-.08-.23-.11c.38-.68,.66-1.43,.84-2.23,.17-.8,.29-1.61,.34-2.42,.05-.81,.08-1.56,.08-2.24v-4.73Zm.4,0h12.42v.79h-12.42v-.79Zm.63-4.36h.85v3.67h-.85v-3.67Zm.86,6.53h5.44v.68h-4.7v6.95h-.74v-7.63Zm.34,6.95h5.27v.7h-5.27v-.7Zm.07-4.77h5v3.24h-5v-.68h4.28v-1.89h-4.28v-.67Zm2.11-1.85h.72v2.27h-.72v-2.27Zm0,4.68h.72v2.3h-.72v-2.3Zm.72-10.17h7.58v.79h-7.58v-.79Zm5.76,5.17l.81,.14c-.44,2.15-1.09,4.03-1.94,5.66-.85,1.63-1.94,2.97-3.26,4.04-.05-.05-.11-.1-.19-.17-.08-.07-.16-.13-.25-.21-.09-.07-.17-.13-.24-.16,1.34-1,2.43-2.28,3.25-3.86,.82-1.58,1.43-3.39,1.83-5.45Zm-3.53-6.52h.86v3.64h-.86v-3.64Zm.74,3.08h.81c.04,2.16,.13,4.03,.3,5.61s.38,2.88,.65,3.9c.27,1.02,.56,1.77,.86,2.26,.31,.49,.61,.73,.91,.73,.19-.01,.33-.17,.42-.47,.09-.3,.16-.89,.21-1.78,.1,.07,.21,.15,.33,.23s.24,.14,.35,.18c-.06,.73-.14,1.29-.24,1.67-.1,.38-.25,.64-.43,.77-.19,.13-.42,.2-.69,.2-.48,0-.92-.28-1.32-.84-.4-.56-.75-1.39-1.05-2.49-.3-1.1-.54-2.49-.73-4.16-.19-1.67-.31-3.61-.37-5.81Zm1.39-.13l.54-.43c.35,.18,.71,.4,1.07,.67,.37,.26,.64,.52,.82,.76l-.56,.49c-.18-.23-.45-.48-.81-.76-.36-.28-.71-.52-1.06-.71Z" fill="#333"/>
        <path d="M76.59,87.61h16v.88h-16v-.88Zm.97,3.89h13.54v.83h-12.67v10.55h-.86v-11.38Zm4.27,.45h.86v10.31h-.86v-10.31Zm2.12-3.92l1.04,.13c-.17,.64-.35,1.31-.54,2.02-.19,.71-.38,1.31-.56,1.82l-.86-.14c.12-.35,.24-.75,.35-1.2s.22-.91,.32-1.38c.1-.47,.18-.88,.24-1.24Zm2.29,3.92h.86v10.31h-.86v-10.31Zm4.46-.45h.86v10.01c0,.31-.04,.55-.13,.7-.08,.16-.24,.28-.47,.36-.25,.07-.61,.12-1.06,.13-.46,.02-1.02,.03-1.69,.03-.01-.12-.05-.26-.11-.43-.06-.17-.13-.31-.22-.43,.59,.01,1.1,.02,1.55,.02s.74,0,.9-.02c.14-.01,.24-.04,.29-.09s.07-.14,.07-.27v-10.01Z" fill="#333"/>
        <path d="M76.59,116.64h15.84v.81h-15.84v-.81Zm13.99-8.26l.45,.76c-.82,.18-1.76,.35-2.84,.5-1.08,.15-2.23,.29-3.44,.41-1.21,.12-2.44,.22-3.68,.31-1.24,.08-2.43,.15-3.57,.2,0-.11-.02-.23-.06-.38s-.09-.26-.15-.36c1.14-.06,2.33-.13,3.56-.22,1.24-.09,2.46-.2,3.66-.32,1.21-.12,2.33-.25,3.38-.4,1.05-.14,1.95-.31,2.69-.49Zm-1.67,7.02l.85,.22c-.34,1.33-.81,2.5-1.41,3.5-.61,1-1.38,1.86-2.33,2.57s-2.11,1.3-3.47,1.75c-1.37,.46-2.98,.8-4.82,1.03-.04-.12-.09-.25-.17-.4-.08-.14-.16-.27-.24-.38,1.81-.2,3.38-.52,4.7-.95,1.32-.43,2.43-.97,3.34-1.64,.91-.67,1.65-1.47,2.22-2.42s1.03-2.05,1.35-3.29Zm-10.75-3.92l.77-.31c.28,.35,.54,.73,.79,1.15s.48,.83,.68,1.22c.2,.4,.35,.75,.45,1.06l-.79,.34c-.1-.31-.24-.67-.44-1.07-.2-.4-.42-.82-.67-1.24-.25-.43-.52-.81-.79-1.16Zm1.15,8.39c.42-.48,.87-1.05,1.34-1.7,.47-.65,.93-1.33,1.36-2.03,.43-.7,.8-1.35,1.1-1.96l.88,.2c-.31,.65-.69,1.31-1.12,2-.44,.68-.88,1.34-1.33,1.97-.45,.63-.87,1.17-1.27,1.63l-.95-.11Zm0,0l.68-.61c1.15,.32,2.29,.67,3.42,1.04s2.22,.75,3.27,1.15c1.05,.4,2.03,.8,2.94,1.19,.91,.39,1.72,.78,2.43,1.16l-.81,.65c-.89-.5-1.96-1.02-3.2-1.55-1.25-.53-2.61-1.05-4.09-1.56-1.48-.51-3.03-1-4.64-1.47Zm4.01-9l.81-.22c.31,.55,.58,1.15,.82,1.8,.23,.65,.39,1.2,.46,1.66l-.86,.25c-.06-.47-.2-1.03-.43-1.68-.23-.65-.49-1.26-.79-1.81Zm6.7-.54l.83,.4c-.26,.48-.55,.98-.86,1.5-.31,.52-.63,1.03-.95,1.52-.32,.49-.64,.94-.94,1.35l-.72-.4c.29-.38,.6-.83,.93-1.34,.33-.51,.65-1.03,.95-1.57s.56-1.02,.76-1.47Z" fill="#333"/>
        <path d="M76.36,134.6h5.51v.83h-5.51v-.83Zm2.38-4.9h.86v16.33h-.86v-16.33Zm4.43,7.54h.81c-.04,1.22-.13,2.39-.3,3.51s-.44,2.13-.85,3.03c-.4,.91-.98,1.67-1.74,2.28-.06-.08-.14-.18-.25-.29-.11-.11-.2-.19-.29-.25,.72-.58,1.26-1.29,1.62-2.14,.36-.85,.61-1.8,.74-2.85,.13-1.05,.22-2.15,.25-3.29Zm-2.12,1.96h4.9v.76h-4.9v-.76Zm5.56-9.54h.85c-.06,.9-.18,1.73-.36,2.48-.18,.76-.46,1.44-.83,2.06s-.86,1.16-1.47,1.64c-.61,.47-1.38,.88-2.31,1.21-.02-.1-.08-.21-.18-.33s-.19-.22-.29-.3c.89-.31,1.62-.68,2.2-1.12,.58-.43,1.03-.93,1.36-1.5,.33-.57,.57-1.2,.73-1.89,.16-.69,.26-1.44,.31-2.26Zm-3.92,2.11h8.44v.77h-8.44v-.77Zm2.99,7.43h.77c0,.22,0,.36-.02,.43-.05,1.39-.11,2.5-.18,3.32-.07,.82-.15,1.44-.23,1.85s-.18,.7-.3,.86c-.11,.12-.23,.21-.36,.27-.13,.06-.29,.09-.47,.09-.14,.02-.33,.03-.56,.02-.23-.01-.47-.02-.72-.04,0-.1-.02-.22-.05-.36-.04-.14-.08-.27-.14-.38,.26,.02,.51,.04,.73,.04,.22,0,.39,0,.5,0,.1,0,.18,0,.24-.03,.07-.02,.12-.06,.17-.13,.1-.12,.18-.38,.25-.77,.07-.4,.14-1,.2-1.8,.06-.8,.11-1.87,.16-3.2v-.18Zm3.42-1.98h.81c-.04,1.27-.14,2.47-.31,3.58-.17,1.12-.47,2.12-.88,3.02-.41,.89-1.02,1.63-1.83,2.22-.06-.08-.15-.18-.26-.29-.11-.11-.21-.19-.3-.25,.76-.55,1.33-1.25,1.71-2.09s.65-1.79,.79-2.84c.14-1.06,.23-2.17,.27-3.35Zm-2.09,1.98h4.99v.76h-4.99v-.76Zm3.92-7.43h.83c-.01,.2-.02,.34-.04,.41-.08,.91-.17,1.65-.25,2.21-.08,.56-.18,.99-.28,1.29s-.22,.52-.37,.67c-.13,.13-.27,.22-.4,.27-.14,.05-.32,.07-.53,.07-.18,.01-.44,.02-.76,0-.33,0-.68-.02-1.04-.05-.01-.12-.04-.25-.08-.4s-.1-.27-.17-.38c.38,.05,.74,.08,1.08,.08,.33,0,.57,0,.7,0,.14,0,.26,0,.34-.03,.08-.02,.15-.06,.2-.13,.17-.14,.31-.5,.43-1.08,.12-.58,.23-1.52,.34-2.83v-.13Zm.85,7.43h.77v.43c-.05,1.39-.1,2.5-.15,3.33s-.12,1.44-.2,1.84c-.08,.4-.18,.69-.3,.86-.11,.12-.23,.21-.36,.27-.13,.06-.29,.09-.49,.09-.17,.02-.38,.03-.65,.02-.26-.01-.53-.02-.81-.04-.01-.11-.03-.23-.06-.38-.03-.14-.08-.27-.15-.38,.32,.04,.61,.06,.85,.06,.25,0,.42,0,.53,0,.12,0,.21-.01,.28-.04,.07-.02,.12-.07,.17-.14,.1-.11,.18-.36,.24-.75,.07-.39,.12-.99,.17-1.8,.05-.81,.1-1.88,.14-3.21v-.18Z" fill="#333"/>
        <path d="M83.11,158.13l-.31-.65c.73-.35,1.29-.77,1.67-1.26s.57-1.13,.57-1.91l-.45-1.37,.97,1.22c-.13,.17-.28,.28-.43,.33-.16,.05-.31,.08-.47,.08-.32,0-.59-.09-.8-.27s-.31-.46-.31-.83,.11-.66,.34-.84c.23-.17,.49-.26,.77-.26,.42,0,.74,.17,.96,.5,.22,.34,.33,.78,.33,1.33,0,.95-.26,1.75-.78,2.42-.52,.67-1.21,1.16-2.06,1.48Z" fill="#333"/>
        <path d="M42.55,0l.86,.23c-.36,.83-.77,1.63-1.23,2.41-.46,.78-.95,1.51-1.46,2.2-.51,.68-1.04,1.29-1.58,1.82-.06-.04-.14-.09-.23-.15-.1-.07-.19-.14-.29-.21-.1-.07-.18-.13-.25-.16,.55-.5,1.09-1.08,1.61-1.74,.52-.65,1-1.36,1.43-2.11s.81-1.52,1.13-2.29Zm-4.14,9.07h3.11v.02h10.28v-.02h2.93v.81h-2.93v-.02h-10.28v.02h-3.11v-.81Zm3.26-4.18h.86c-.08,.73-.18,1.52-.3,2.35-.11,.83-.23,1.67-.36,2.51s-.25,1.63-.37,2.38-.23,1.4-.34,1.95h-.9c.12-.58,.25-1.24,.38-2s.26-1.55,.39-2.39,.24-1.67,.35-2.5,.2-1.6,.29-2.3Zm-.88,8.42h13.41v.79h-13.41v-.79Zm.92-11.29h12.46v.81h-12.46v-.81Zm.4,2.86h9.77v.83h-9.77v-.83Zm1.89,5.76l.52-.52c.44,.2,.9,.45,1.38,.74,.47,.29,.92,.58,1.33,.87s.75,.57,1,.84l-.5,.63c-.26-.26-.6-.55-1.01-.85-.41-.31-.85-.61-1.32-.91s-.94-.56-1.39-.79Zm.59-4.07l.52-.54c.43,.18,.87,.39,1.31,.63,.44,.24,.85,.49,1.24,.75,.39,.26,.7,.51,.94,.75l-.54,.59c-.24-.24-.55-.49-.94-.76-.38-.26-.8-.52-1.24-.77-.44-.25-.88-.47-1.3-.65Zm6.93-1.69h.85c0,.13,0,.24,0,.32s0,.14,0,.18c-.05,1.85-.11,3.41-.17,4.68-.07,1.27-.14,2.3-.22,3.1-.08,.79-.18,1.4-.29,1.83-.11,.43-.23,.73-.38,.93-.16,.18-.32,.31-.5,.38-.18,.07-.4,.12-.65,.14-.25,0-.58,0-1,0-.41,0-.84-.03-1.29-.06-.01-.11-.03-.23-.06-.37-.03-.14-.08-.26-.15-.37,.49,.04,.94,.06,1.35,.07,.41,.01,.7,.02,.86,.02s.3-.02,.4-.05c.1-.04,.19-.1,.27-.2,.13-.14,.25-.43,.34-.85,.1-.43,.18-1.04,.26-1.84,.08-.8,.15-1.83,.22-3.09,.07-1.26,.13-2.79,.19-4.59v-.22Z" fill="#333"/>
        <path d="M38.41,29.21h16.36v.95h-16.36v-.95Z" fill="#333"/>
        <path d="M39.87,46.67h.85v4.54c0,.61-.02,1.28-.07,2.01-.05,.73-.13,1.47-.24,2.23-.11,.76-.29,1.5-.51,2.22-.23,.72-.53,1.39-.9,2-.04-.05-.1-.11-.18-.18s-.17-.14-.26-.2c-.09-.06-.17-.1-.24-.13,.35-.59,.63-1.22,.84-1.91,.21-.68,.37-1.38,.47-2.08,.1-.7,.17-1.39,.21-2.07,.04-.68,.05-1.31,.05-1.9v-4.54Zm6.17,6.03h.14l.16-.04,.47,.16c-.29,1.3-.73,2.4-1.32,3.31-.59,.91-1.3,1.66-2.12,2.23-.82,.58-1.71,1.03-2.68,1.35-.04-.1-.1-.2-.19-.32s-.18-.22-.26-.29c.91-.28,1.76-.68,2.54-1.21,.78-.53,1.46-1.22,2.02-2.05,.57-.83,.98-1.83,1.23-3v-.14Zm-5.71-6.03h13.36v.76h-13.36v-.76Zm3.17,4.54l.76,.18c-.31,.96-.75,1.85-1.3,2.67-.56,.82-1.17,1.51-1.83,2.06-.04-.04-.09-.09-.16-.15-.07-.07-.15-.14-.22-.21-.08-.07-.15-.13-.21-.16,.65-.53,1.23-1.17,1.75-1.93,.52-.76,.92-1.58,1.22-2.47Zm-1.62-2.11l9.7-.67,.07,.67-9.72,.68-.05-.68Zm1.12,4.46c.29,1.08,.67,1.96,1.13,2.63s1.02,1.19,1.66,1.54c.64,.35,1.34,.59,2.12,.71,.78,.12,1.62,.18,2.52,.18h4.48c-.06,.1-.12,.23-.18,.39-.06,.16-.11,.3-.14,.4h-4.18c-1.02,0-1.95-.07-2.79-.22-.84-.14-1.6-.41-2.27-.8-.67-.39-1.25-.95-1.75-1.69-.49-.74-.89-1.7-1.21-2.89l.59-.25Zm.14-.86h3.11v.72h-3.11v-.72Zm2.75-9.4h.85v3.82h-.85v-3.82Zm0,3.96h.85v2.88c0,.26,.04,.44,.13,.53,.08,.09,.28,.13,.58,.13h4.63c.16,0,.34,0,.56,0s.42-.02,.62-.04c.2-.02,.36-.03,.48-.04,.01,.12,.02,.24,.04,.37s.03,.23,.05,.31c-.14,.04-.37,.06-.68,.06-.31,0-.64,0-1,0h-4.75c-.41,0-.72-.04-.93-.13s-.36-.23-.44-.42c-.08-.2-.13-.46-.13-.78v-2.88Zm.38-2.72h6.89v.74h-6.89v-.74Zm1.85,8.08h.77v1.57c0,.38-.04,.79-.14,1.21-.09,.43-.26,.85-.5,1.26-.25,.41-.6,.8-1.07,1.14-.02-.05-.07-.11-.14-.18-.07-.07-.13-.14-.21-.22s-.14-.13-.2-.16c.62-.47,1.03-.98,1.21-1.53,.18-.55,.27-1.07,.27-1.55v-1.55Zm.41,0h3.22v.76h-3.22v-.76Zm2.68,0h.74v3.91c0,.17,.02,.27,.05,.32s.13,.06,.27,.06h.9c.12,0,.2-.07,.24-.21,.04-.14,.08-.44,.1-.91,.08,.06,.18,.11,.3,.14,.11,.04,.22,.07,.31,.11-.02,.55-.1,.92-.22,1.12-.13,.19-.33,.29-.62,.29h-1.1c-.38,0-.64-.07-.77-.2-.13-.13-.2-.38-.2-.74v-3.89Zm2.21-5.96h.16l.16-.04,.59,.2c-.19,.48-.4,.97-.62,1.48-.22,.5-.44,.93-.66,1.28l-.74-.25c.19-.31,.39-.7,.58-1.17,.2-.47,.37-.91,.51-1.33v-.16Z" fill="#333"/>
        <path d="M47.05,65.41l.79,.25c-1.03,2.18-2.33,4.11-3.91,5.77-1.57,1.66-3.34,3.03-5.29,4.11-.04-.06-.09-.13-.17-.22s-.16-.17-.23-.26c-.08-.09-.15-.16-.21-.21,1.97-1.01,3.73-2.32,5.27-3.92,1.55-1.61,2.8-3.45,3.74-5.53Zm-8.66,5.06h9.36v.83h-9.36v-.83Zm.85-3.37h6.34v.81h-6.34v-.81Zm2,6.17h5.06v.77h-5.06v7.09h-.83v-7.34l.5-.52h.32Zm-.27,2.9h5.36v.74h-5.36v-.74Zm.02,3.04h5.36v.79h-5.36v-.79Zm1.26-14.17h.83v5.9h-.83v-5.9Zm3.71,8.23h.86v7.61h-.86v-7.61Zm2.66-7.33h5.42v.83h-4.54v14.49h-.88v-15.32Zm5.2,0h.16l.16-.05,.61,.41c-.41,.85-.87,1.77-1.38,2.75-.51,.98-1.01,1.89-1.5,2.73,.72,.58,1.27,1.12,1.66,1.64,.38,.52,.66,1.01,.82,1.48,.16,.47,.24,.93,.24,1.39,.01,.48-.05,.91-.19,1.3-.14,.38-.36,.68-.68,.88-.3,.18-.7,.31-1.19,.38-.25,.02-.54,.03-.86,.03-.32,0-.62-.02-.91-.03-.01-.13-.04-.28-.09-.44-.05-.16-.11-.31-.2-.44,.32,.04,.64,.06,.95,.06,.31,0,.58,0,.79-.03,.18,0,.35-.02,.5-.06,.16-.04,.29-.1,.4-.17,.24-.13,.4-.34,.49-.61,.08-.28,.12-.58,.11-.92,0-.62-.2-1.29-.6-1.99-.4-.7-1.14-1.47-2.21-2.31,.28-.48,.55-.98,.82-1.49,.27-.52,.53-1.02,.78-1.52s.49-.98,.7-1.46,.41-.9,.59-1.27v-.23Z" fill="#333"/>
        <path d="M45.22,86.53h.9v2.79c0,.82-.04,1.68-.11,2.6-.07,.92-.23,1.85-.47,2.81-.24,.95-.61,1.91-1.1,2.85-.49,.95-1.16,1.88-2,2.78-.84,.91-1.9,1.75-3.19,2.55-.05-.07-.11-.15-.18-.22-.07-.08-.15-.16-.23-.23s-.16-.14-.23-.19c1.24-.78,2.26-1.6,3.07-2.46,.81-.86,1.46-1.74,1.94-2.65,.48-.91,.83-1.81,1.06-2.72s.38-1.79,.44-2.66c.07-.86,.1-1.69,.1-2.47v-2.79Zm-6.1,4.01h14.08v.88h-14.08v-.88Zm13.77,0h.88c0,.14,0,.26,0,.33,0,.08,0,.14,0,.19-.12,1.9-.23,3.51-.33,4.83-.1,1.33-.22,2.42-.34,3.27-.13,.85-.26,1.52-.41,1.99-.15,.47-.33,.82-.53,1.04-.19,.23-.39,.38-.59,.44-.2,.07-.47,.11-.79,.13-.29,.02-.7,.02-1.23,0-.53-.02-1.08-.05-1.65-.07-.01-.13-.04-.28-.08-.45-.04-.17-.11-.32-.19-.45,.64,.06,1.23,.1,1.77,.12,.55,.02,.92,.03,1.12,.03s.37-.02,.5-.04c.13-.03,.25-.11,.34-.23,.18-.17,.34-.49,.49-.95,.14-.47,.28-1.12,.4-1.97,.12-.85,.23-1.92,.34-3.23,.11-1.31,.22-2.9,.32-4.77v-.2Z" fill="#333"/>
        <path d="M38.49,121.81c.64-.33,1.39-.74,2.25-1.21,.86-.47,1.78-.99,2.75-1.54,.97-.55,1.92-1.1,2.85-1.64l.27,.76c-.88,.52-1.77,1.04-2.67,1.58s-1.78,1.04-2.62,1.52c-.84,.48-1.6,.92-2.29,1.31l-.54-.77Zm.31-10.51h15.59v.85h-15.59v-.85Zm1.12,2.61l.68-.43c.38,.32,.78,.69,1.18,1.09,.4,.4,.77,.8,1.11,1.2,.34,.4,.6,.76,.79,1.08l-.7,.54c-.18-.34-.44-.71-.77-1.12-.34-.41-.7-.82-1.1-1.23-.4-.41-.79-.79-1.19-1.12Zm6.17-5.74h.88v14.94c0,.4-.06,.68-.18,.85-.12,.17-.31,.3-.56,.37-.26,.07-.66,.12-1.18,.14-.52,.02-1.17,.04-1.95,.04-.02-.13-.07-.29-.13-.47-.07-.18-.14-.34-.23-.47,.68,.01,1.29,.02,1.83,.02h1.07c.17-.01,.29-.05,.35-.11,.07-.06,.1-.18,.1-.36v-14.96Zm.81,3.91c.35,1.12,.78,2.2,1.3,3.25,.52,1.05,1.11,2.02,1.79,2.92s1.43,1.7,2.25,2.38c.82,.69,1.7,1.23,2.64,1.63-.06,.06-.13,.13-.22,.22-.08,.08-.16,.17-.23,.27s-.13,.18-.18,.25c-1.27-.59-2.42-1.42-3.46-2.49-1.03-1.07-1.93-2.32-2.7-3.73-.77-1.41-1.39-2.91-1.87-4.49l.68-.22Zm5.83,1.1l.74,.52c-.4,.46-.83,.93-1.31,1.43-.48,.5-.97,.97-1.47,1.43s-.96,.86-1.39,1.21l-.59-.47c.42-.35,.88-.76,1.38-1.24,.5-.48,.98-.97,1.46-1.48,.47-.5,.87-.97,1.2-1.4Zm-3.78-4.32l.54-.54c.4,.19,.8,.41,1.22,.67s.8,.5,1.17,.76c.37,.25,.67,.49,.93,.7l-.56,.65c-.24-.23-.55-.47-.92-.74-.37-.26-.76-.53-1.18-.79-.41-.26-.81-.5-1.2-.7Z" fill="#333"/>
        <path d="M43.71,138.8h.88c-.06,1.06-.18,1.98-.37,2.78-.19,.8-.48,1.49-.88,2.07-.4,.58-.96,1.07-1.67,1.47-.71,.4-1.63,.72-2.75,.97-.01-.08-.05-.17-.11-.25-.06-.08-.12-.17-.19-.25-.07-.08-.13-.15-.19-.2,1.07-.23,1.94-.52,2.6-.87s1.18-.79,1.55-1.31c.37-.52,.63-1.15,.8-1.87,.17-.73,.28-1.57,.32-2.53Zm-5.11-.41h15.88v.83h-15.88v-.83Zm.54-6.5h14.78v3.71h-.88v-2.84h-13.01v2.84h-.88v-3.71Zm2.39,3.13h10.06v.83h-10.06v-.83Zm3.78-5.2l.85-.27c.26,.4,.52,.83,.77,1.3,.25,.47,.44,.88,.58,1.21l-.9,.29c-.11-.32-.29-.73-.53-1.21-.25-.49-.5-.93-.77-1.32Zm2.84,9.07h.86v5.45c0,.23,.06,.38,.18,.46,.12,.08,.38,.12,.79,.12h2.95c.25,0,.44-.05,.57-.16,.13-.11,.21-.34,.26-.7s.08-.91,.09-1.64c.07,.05,.16,.1,.25,.14,.1,.05,.2,.09,.3,.13,.1,.04,.19,.07,.28,.11-.04,.78-.1,1.39-.21,1.83-.1,.44-.27,.74-.5,.9-.23,.16-.56,.24-.99,.24h-3.04c-.47,0-.83-.04-1.09-.12-.26-.08-.44-.22-.55-.43-.11-.21-.16-.5-.16-.87v-5.45Z" fill="#333"/>
        <path d="M46.06,159.66h.92c-.11,.89-.26,1.7-.45,2.43-.19,.73-.47,1.39-.83,1.97-.36,.58-.84,1.1-1.43,1.56-.59,.46-1.33,.85-2.21,1.17s-1.95,.59-3.19,.79c-.01-.06-.05-.14-.1-.23-.05-.1-.11-.19-.17-.29-.06-.1-.12-.17-.18-.23,1.21-.19,2.24-.43,3.08-.73,.84-.29,1.54-.65,2.1-1.05,.56-.41,1-.88,1.33-1.4,.33-.53,.58-1.12,.76-1.78s.3-1.39,.39-2.2Zm-7.43-.4h15.93v.79h-15.93v-.79Zm.4,2.47h15.35v.79h-15.35v-.79Zm.31-7.74h14.45v.81h-14.45v-.81Zm.95,2.61h12.62v.79h-12.62v-.79Zm1.46-4.99l.74-.34c.35,.36,.68,.76,1,1.21,.32,.44,.56,.84,.71,1.19l-.81,.4c-.14-.36-.37-.77-.68-1.22-.31-.46-.63-.86-.95-1.22Zm4.32,2.77h.9v5.36h-.9v-5.36Zm.59,9.22l.4-.61c.65,.26,1.32,.56,2.03,.89,.7,.33,1.39,.68,2.06,1.04,.67,.36,1.3,.72,1.88,1.07s1.07,.69,1.47,1l-.41,.76c-.4-.32-.88-.67-1.46-1.03-.58-.36-1.2-.73-1.87-1.1-.67-.37-1.36-.73-2.06-1.08-.7-.35-1.38-.66-2.02-.94Zm3.76-12.33l.86,.34c-.3,.49-.64,1-1.01,1.54s-.71,.99-1.03,1.36l-.7-.32c.22-.25,.44-.55,.67-.9,.23-.35,.45-.7,.67-1.05,.22-.35,.4-.67,.54-.96Z" fill="#333"/>
        <path d="M45.11,179.73l-.31-.65c.73-.35,1.29-.77,1.67-1.26s.57-1.13,.57-1.91l-.45-1.37,.97,1.22c-.13,.17-.28,.28-.43,.33-.16,.05-.31,.08-.47,.08-.32,0-.59-.09-.8-.27s-.31-.46-.31-.83,.11-.66,.34-.84c.23-.17,.49-.26,.77-.26,.42,0,.74,.17,.96,.5,.22,.34,.33,.78,.33,1.33,0,.95-.26,1.75-.78,2.42-.52,.67-1.21,1.16-2.06,1.48Z" fill="#333"/>
        <path d="M4.16,9.49l.61,.29c-.29,.66-.65,1.31-1.1,1.96-.44,.65-.92,1.24-1.43,1.78-.51,.54-1.02,.98-1.54,1.31-.05-.11-.12-.23-.21-.38s-.17-.26-.24-.36c.49-.3,.99-.7,1.49-1.19s.97-1.03,1.39-1.62,.76-1.19,1.03-1.8ZM7.72,2.43l.72,.34c-.55,.71-1.24,1.38-2.06,2.02-.82,.64-1.7,1.2-2.65,1.69-.94,.49-1.87,.89-2.78,1.19-.04-.07-.09-.15-.16-.23s-.14-.17-.21-.25c-.07-.08-.13-.16-.21-.22,.91-.26,1.83-.62,2.76-1.08s1.8-.98,2.6-1.58c.8-.59,1.46-1.22,1.98-1.88ZM.97,9.13h7.11v.81H.97v-.81Zm.16-6.97H15.95v.81H1.13v-.81Zm2.99,4.95h.85v9.23h-.85V7.11Zm.7,2.92c.14,.11,.37,.28,.67,.51,.31,.23,.64,.49,.99,.77,.35,.28,.68,.54,.97,.78,.29,.25,.51,.43,.64,.55l-.63,.56c-.14-.14-.36-.35-.64-.6-.28-.26-.59-.53-.93-.82s-.65-.55-.95-.8c-.3-.25-.53-.43-.7-.55l.58-.4Zm7.09-.5l.65,.29c-.32,.67-.74,1.33-1.25,1.97s-1.06,1.23-1.64,1.76c-.58,.53-1.16,.97-1.74,1.31-.07-.1-.16-.21-.27-.33-.11-.13-.21-.23-.31-.3,.58-.3,1.15-.7,1.73-1.19s1.11-1.04,1.6-1.65,.9-1.23,1.22-1.86ZM8.08,.09h.86V7.88h-.86V.09Zm.81,2.5c.26,.13,.64,.33,1.13,.59,.49,.26,1.04,.56,1.63,.9,.59,.34,1.18,.67,1.77,.99,.59,.32,1.11,.62,1.58,.89s.8,.47,1.02,.6l-.36,.83c-.26-.17-.63-.4-1.09-.68-.46-.29-.98-.6-1.54-.95-.56-.34-1.13-.69-1.71-1.04-.58-.35-1.11-.66-1.6-.94-.49-.28-.89-.5-1.19-.64l.36-.56Zm-.18,6.57h7.49v.79h-7.49v-.79Zm3.13-2.05h.83v9.38h-.83V7.11Zm.76,2.43c.32,.59,.73,1.18,1.21,1.76,.49,.59,1,1.12,1.54,1.61s1.06,.88,1.57,1.18c-.1,.08-.2,.19-.32,.32-.11,.13-.21,.25-.3,.36-.49-.35-1.01-.79-1.55-1.33s-1.06-1.12-1.55-1.76c-.49-.63-.9-1.26-1.22-1.88l.61-.27Z" fill="#333"/>
        <path d="M5,34.69l.79,.32c-.4,.34-.86,.67-1.39,1-.53,.33-1.07,.64-1.64,.94-.56,.29-1.1,.55-1.62,.77-.04-.06-.1-.13-.18-.22-.08-.08-.17-.17-.24-.25-.08-.08-.15-.15-.22-.2,.53-.19,1.06-.41,1.61-.67,.55-.25,1.07-.52,1.57-.81s.94-.58,1.31-.88ZM.59,28.58h15.91v.76H.59v-.76Zm2.14-6.17H14.38v4.79H2.74v-4.79Zm.41,8.08H14v3.56H3.15v-3.56Zm.43-7.4v1.35H13.52v-1.35H3.58Zm0,2.03v1.37H13.52v-1.37H3.58Zm.41,6.08v2.12H13.14v-2.12H4Zm4.1,2.38h.86v3.49c0,.25-.04,.44-.11,.58-.07,.13-.22,.22-.43,.27-.22,.06-.52,.1-.92,.12-.4,.02-.91,.03-1.55,.03-.02-.12-.06-.24-.12-.37s-.11-.25-.17-.37c.35,.01,.67,.02,.95,.03s.53,0,.74,0,.35,0,.43,0c.12-.01,.2-.04,.24-.08,.04-.04,.06-.11,.06-.21v-3.47Zm-.58-6.01l.76-.29c.19,.23,.37,.48,.55,.77,.17,.28,.3,.54,.37,.78l-.81,.31c-.07-.22-.19-.47-.34-.77-.16-.3-.33-.56-.52-.79Zm3.44,7.74l.56-.54c.56,.19,1.15,.43,1.75,.71,.61,.28,1.19,.57,1.74,.86s1.01,.56,1.37,.81l-.56,.63c-.36-.25-.81-.52-1.35-.82s-1.12-.59-1.74-.88-1.21-.55-1.77-.77Z" fill="#333"/>
        <path d="M2.43,44.6h.86v6.55c0,.67-.03,1.38-.09,2.13-.06,.75-.17,1.51-.32,2.28-.16,.77-.39,1.51-.71,2.21-.32,.71-.75,1.36-1.29,1.96-.04-.06-.1-.13-.18-.21-.08-.08-.17-.15-.25-.22-.08-.07-.16-.12-.23-.17,.5-.56,.91-1.18,1.21-1.84s.52-1.35,.67-2.05c.14-.7,.24-1.4,.28-2.1,.04-.7,.06-1.36,.06-2v-6.55Zm.36,8.55H14.87v.85H2.79v-.85Zm.13-8.55H14.9v.85H2.92v-.85Zm0,4.23H14.85v.83H2.92v-.83Zm5.24-3.94h.88v14.63h-.88v-14.63Zm6.35-.29h.85v13.63c0,.36-.05,.63-.16,.81-.11,.18-.29,.31-.56,.38-.26,.08-.66,.13-1.19,.14-.53,.01-1.23,.01-2.11,0-.02-.11-.07-.25-.13-.41-.07-.17-.13-.32-.19-.45,.47,.02,.91,.04,1.32,.04s.77,0,1.06,0c.29,0,.5,0,.62,0,.18-.01,.31-.05,.38-.12,.07-.07,.11-.18,.11-.35v-13.64Z" fill="#333"/>
        <path d="M2.21,71.35l.83,.2c-.1,.66-.23,1.4-.41,2.23s-.38,1.65-.6,2.47c-.23,.82-.47,1.54-.74,2.17l-.86-.38c.29-.61,.55-1.31,.78-2.1s.44-1.58,.61-2.38c.17-.8,.3-1.54,.39-2.21Zm2.66-1.49h.88v9.25c0,.41,.09,.67,.26,.8s.54,.19,1.09,.19h4c.42,0,.73-.1,.94-.31s.34-.59,.42-1.16c.08-.57,.14-1.4,.19-2.49,.08,.05,.17,.1,.27,.16,.1,.06,.2,.11,.31,.14,.11,.04,.2,.07,.27,.11-.05,1.14-.14,2.03-.27,2.67-.13,.64-.36,1.09-.67,1.34s-.8,.38-1.45,.38h-4c-.58,0-1.03-.05-1.35-.15-.32-.1-.55-.29-.68-.56-.13-.27-.2-.65-.2-1.14v-9.23Zm.97-3.58l.59-.52c.58,.41,1.17,.86,1.78,1.34,.61,.49,1.19,.98,1.72,1.47,.53,.49,.97,.93,1.31,1.31l-.59,.61c-.34-.38-.77-.82-1.31-1.31s-1.11-1-1.72-1.51-1.21-.98-1.78-1.39Zm7.67,4.97l.79-.27c.36,.72,.71,1.49,1.04,2.3,.33,.82,.62,1.62,.88,2.4,.26,.79,.45,1.49,.58,2.12l-.85,.31c-.12-.62-.31-1.33-.57-2.12s-.55-1.6-.87-2.43c-.32-.83-.66-1.6-1.01-2.3Z" fill="#333"/>
        <path d="M3.26,86.38l.79,.22c-.35,.73-.79,1.44-1.31,2.12-.53,.68-1.07,1.27-1.62,1.75-.05-.05-.11-.11-.19-.18-.08-.07-.16-.14-.25-.21-.09-.07-.17-.12-.22-.17,.56-.44,1.09-.97,1.59-1.59s.9-1.26,1.21-1.93Zm-2.65,9.25c.8-.12,1.78-.27,2.93-.46,1.15-.19,2.33-.38,3.55-.57l.05,.74c-1.15,.19-2.29,.38-3.42,.57-1.13,.19-2.12,.36-2.97,.51l-.14-.79Zm0,2.03h15.93v.77H.61v-.77Zm5.11,1.31l.74,.31c-.4,.44-.88,.87-1.47,1.27s-1.2,.76-1.86,1.09-1.3,.59-1.91,.79c-.05-.08-.11-.17-.17-.25-.07-.08-.13-.17-.21-.26s-.14-.17-.22-.23c.61-.17,1.24-.39,1.87-.67,.64-.28,1.24-.59,1.81-.95,.57-.36,1.04-.73,1.41-1.1Zm-4.84-7.67H6.98v.74H.88v-.74Zm1.85-3.71h5.76v.76H2.74v-.76Zm.85,3.94h.83v3.92h-.83v-3.92Zm.54-2.59l.61-.4c.28,.25,.56,.54,.86,.85,.3,.32,.53,.59,.7,.8l-.63,.47c-.16-.23-.38-.51-.68-.84s-.59-.63-.86-.89Zm5.9,2.5h.79v1.06c0,.47-.1,.95-.31,1.43-.2,.49-.56,.96-1.06,1.41s-1.21,.86-2.12,1.22c-.04-.06-.09-.13-.15-.22-.07-.08-.13-.16-.21-.22-.07-.07-.14-.12-.2-.15,.85-.33,1.51-.7,1.99-1.08,.47-.38,.8-.78,.99-1.2,.19-.41,.28-.82,.28-1.21v-1.04Zm-2.54,1.93l.38-.58c.53,.2,1.09,.43,1.67,.68s1.15,.5,1.68,.76c.53,.25,.98,.47,1.34,.67l-.34,.7c-.36-.2-.81-.44-1.35-.7-.54-.26-1.11-.53-1.7-.8-.59-.27-1.16-.51-1.68-.73Zm.22-2.21h5.71v.72H7.7v-.72Zm2.68-4.79l.81,.22c-.28,.74-.66,1.45-1.15,2.12s-1.01,1.23-1.55,1.68c-.05-.05-.11-.1-.19-.17-.08-.07-.16-.13-.25-.21s-.17-.13-.24-.16c.55-.43,1.05-.95,1.5-1.55,.45-.6,.81-1.24,1.07-1.93Zm-2.27,10.08h.85v6.37h-.85v-6.37Zm1.85-8.84h6.73v.76h-6.73v-.76Zm.54,11.86l.5-.59c.59,.25,1.2,.54,1.84,.85,.64,.32,1.24,.64,1.82,.96,.58,.32,1.05,.62,1.42,.88l-.54,.7c-.37-.28-.84-.58-1.4-.92-.56-.34-1.16-.67-1.8-1.01-.64-.34-1.25-.63-1.84-.88Zm1.48-10.49l.59-.41c.28,.24,.57,.51,.87,.81,.31,.3,.54,.56,.71,.79l-.61,.49c-.17-.23-.4-.5-.7-.81-.3-.31-.59-.6-.86-.86Zm1.13,2.18h.83v3.98c0,.18,0,.32,.03,.43,.02,.11,.04,.18,.08,.22,.08,.04,.2,.05,.34,.05h.61c.08,0,.17,0,.25-.02,.08-.01,.14-.03,.18-.05,.06-.02,.11-.07,.14-.13,.04-.07,.07-.15,.09-.24,.02-.13,.04-.32,.04-.58s.01-.56,.03-.92c.1,.08,.2,.15,.31,.21,.11,.05,.23,.1,.33,.13-.01,.34-.03,.67-.04,.99-.02,.32-.05,.56-.1,.7-.08,.25-.23,.42-.43,.5-.1,.05-.21,.08-.35,.09-.14,.01-.27,.02-.39,.02h-.83c-.14,0-.3-.01-.46-.04s-.3-.08-.41-.18c-.11-.08-.18-.21-.22-.38s-.05-.48-.05-.94v-3.85Z" fill="#333"/>
        <path d="M4.01,116.78h.22l.16-.02,.45,.18c-.3,1.87-.81,3.43-1.53,4.68-.72,1.25-1.57,2.21-2.54,2.88-.04-.06-.09-.13-.17-.22s-.15-.16-.22-.23c-.07-.07-.14-.13-.22-.16,.95-.64,1.76-1.53,2.44-2.68,.68-1.15,1.15-2.57,1.41-4.25v-.18Zm-3.37,1.01c-.01-.08-.04-.18-.1-.29-.05-.11-.11-.22-.15-.34s-.09-.21-.13-.27c.12-.04,.25-.09,.39-.16,.14-.07,.28-.2,.44-.38,.14-.13,.35-.37,.62-.72,.27-.35,.56-.73,.87-1.15,.31-.42,.6-.83,.87-1.22,.27-.39,.48-.7,.64-.93v-.05l.32-.14,.63,.31c-.22,.3-.48,.66-.78,1.08-.31,.42-.63,.85-.97,1.3s-.67,.87-1,1.28c-.32,.41-.62,.76-.9,1.04-.14,.08-.27,.16-.37,.22-.1,.07-.19,.13-.27,.21s-.12,.14-.12,.22Zm-.2-5.56h3.98v.79H.45v-.79Zm.2,5.56v-.74l.58-.27h3.13v.77H1.69c-.24,0-.46,.02-.66,.07-.2,.05-.33,.1-.39,.16Zm.58-9.29l.67-.36c.26,.29,.54,.6,.83,.94s.56,.67,.82,.99c.26,.32,.46,.6,.6,.84l-.68,.47c-.16-.25-.36-.55-.61-.88s-.52-.68-.8-1.04c-.28-.35-.56-.67-.82-.96Zm2.18,12.22c.41,.78,.95,1.36,1.63,1.74,.68,.38,1.5,.63,2.47,.75s2.08,.18,3.33,.18c.64,0,1.31,0,2.02-.02s1.42-.04,2.12-.07c.7-.04,1.33-.07,1.9-.11-.05,.06-.09,.14-.13,.25-.04,.11-.08,.22-.11,.32-.03,.11-.05,.21-.06,.31-.53,.02-1.12,.05-1.76,.07-.65,.02-1.31,.04-1.99,.04-.68,0-1.34,0-1.97,0-1.06,0-2.01-.04-2.85-.12s-1.59-.22-2.24-.44c-.65-.22-1.21-.53-1.7-.95-.49-.41-.9-.96-1.25-1.63l.59-.34Zm1.73-6.64h11.25v.77H5.13v-.77Zm2.77-5.71l.83,.18c-.32,.92-.73,1.81-1.21,2.66-.48,.85-.98,1.58-1.51,2.18-.06-.05-.13-.1-.22-.15s-.17-.11-.27-.16c-.1-.05-.19-.1-.27-.13,.56-.58,1.08-1.27,1.54-2.08s.83-1.64,1.11-2.49Zm-1.21,8.15H15.05v5.04H6.7v-5.04Zm.54-6.03H15.7v.79H7.24v-.79Zm.31,6.82v3.47h6.62v-3.47H7.54Zm2.95-9.22h.85v6.46h-.85v-6.46Z" fill="#333"/>
        <path d="M.9,137h15.39v.85H.9v-.85Zm11.18-1.85l.97,.11c-.29,1.73-.72,3.2-1.3,4.43s-1.32,2.25-2.23,3.08-2.02,1.51-3.31,2.03c-1.3,.53-2.81,.95-4.55,1.28-.02-.06-.07-.14-.14-.25-.07-.11-.15-.21-.22-.31-.08-.1-.15-.18-.23-.24,1.73-.29,3.23-.67,4.5-1.15,1.27-.48,2.35-1.11,3.23-1.89s1.59-1.75,2.12-2.91c.53-1.16,.92-2.55,1.17-4.17Zm-10.69-3.29H15.7v3.44h-.88v-2.59H2.25v2.59h-.86v-3.44Zm1.84,8.75c.34-.44,.69-.95,1.06-1.52,.37-.57,.74-1.17,1.1-1.8s.7-1.26,1.02-1.88c.32-.62,.59-1.22,.82-1.78l.92,.18c-.23,.58-.5,1.18-.82,1.8-.32,.62-.66,1.25-1.02,1.86s-.71,1.2-1.05,1.75-.67,1.02-.98,1.43l-1.04-.04Zm0,0l.61-.68c1.04,.32,2.13,.69,3.27,1.11s2.25,.86,3.34,1.34c1.09,.48,2.12,.97,3.07,1.47s1.77,.97,2.44,1.43l-.68,.77c-.66-.46-1.45-.93-2.38-1.43s-1.93-.99-3.02-1.48c-1.09-.49-2.21-.95-3.34-1.39-1.13-.43-2.23-.81-3.3-1.13Zm4.07-10.71l.85-.25c.24,.38,.49,.81,.75,1.27,.26,.46,.45,.84,.58,1.12l-.88,.34c-.14-.32-.34-.72-.58-1.2s-.48-.9-.72-1.29Z" fill="#333"/>
        <path d="M2.21,157.75l.83,.2c-.1,.66-.23,1.4-.41,2.23s-.38,1.65-.6,2.47c-.23,.82-.47,1.54-.74,2.17l-.86-.38c.29-.61,.55-1.31,.78-2.1s.44-1.58,.61-2.38c.17-.8,.3-1.54,.39-2.21Zm2.66-1.49h.88v9.25c0,.41,.09,.67,.26,.8s.54,.19,1.09,.19h4c.42,0,.73-.1,.94-.31s.34-.59,.42-1.16c.08-.57,.14-1.4,.19-2.49,.08,.05,.17,.1,.27,.16,.1,.06,.2,.11,.31,.14,.11,.04,.2,.07,.27,.11-.05,1.14-.14,2.03-.27,2.67-.13,.64-.36,1.09-.67,1.34s-.8,.38-1.45,.38h-4c-.58,0-1.03-.05-1.35-.15-.32-.1-.55-.29-.68-.56-.13-.27-.2-.65-.2-1.14v-9.23Zm.97-3.58l.59-.52c.58,.41,1.17,.86,1.78,1.34,.61,.49,1.19,.98,1.72,1.47,.53,.49,.97,.93,1.31,1.31l-.59,.61c-.34-.38-.77-.82-1.31-1.31s-1.11-1-1.72-1.51-1.21-.98-1.78-1.39Zm7.67,4.97l.79-.27c.36,.72,.71,1.49,1.04,2.3,.33,.82,.62,1.62,.88,2.4,.26,.79,.45,1.49,.58,2.12l-.85,.31c-.12-.62-.31-1.33-.57-2.12s-.55-1.6-.87-2.43c-.32-.83-.66-1.6-1.01-2.3Z" fill="#333"/>
        <path d="M.47,184.14H16.65v.83H.47v-.83Zm5.36,1.35l.83,.49c-.47,.4-1.01,.79-1.61,1.19-.61,.4-1.23,.77-1.86,1.12-.64,.35-1.25,.66-1.84,.93-.06-.08-.14-.2-.25-.33-.11-.14-.2-.25-.29-.33,.59-.25,1.2-.55,1.83-.89s1.23-.7,1.79-1.08,1.03-.74,1.4-1.09Zm-.52-12.47l.5,.72c-.5,.24-1.07,.48-1.71,.71-.64,.23-1.24,.45-1.8,.64-.02-.1-.06-.21-.12-.33-.05-.13-.1-.24-.15-.33,.55-.2,1.13-.43,1.75-.68,.61-.25,1.12-.49,1.53-.72Zm-3.28,1.4l.85,.25,.34,9.81h-.81l-.38-10.06Zm.5,2.88h3.08v.77H2.54v-.77Zm.11,3.4h3.02v.77H2.65v-.77Zm4.84-.95l.74,.13c-.12,.65-.29,1.28-.5,1.91s-.47,1.16-.76,1.6c-.06-.05-.16-.11-.31-.2-.14-.08-.26-.15-.36-.2,.31-.43,.56-.93,.75-1.49,.19-.56,.33-1.15,.44-1.75Zm-.77-6.73h.79v4.99h2.61v.76h-3.4v-5.74Zm.41,1.91h3.46v.79h-3.46v-.79Zm2.57,3.1h.77v4.91c0,.22-.03,.38-.08,.5-.05,.11-.17,.21-.35,.28-.17,.06-.4,.1-.7,.11-.3,.01-.67,.02-1.12,.02-.02-.11-.06-.22-.11-.34-.05-.12-.1-.23-.16-.34,.38,.01,.7,.02,.96,.02s.44,0,.55-.02c.1,0,.16-.02,.19-.05s.04-.09,.04-.17v-4.91Zm.76,8.03l.49-.58c.65,.3,1.3,.63,1.95,.99s1.27,.71,1.85,1.06c.58,.35,1.07,.68,1.49,1.01l-.58,.63c-.41-.31-.89-.65-1.46-1-.56-.35-1.17-.71-1.81-1.08s-1.29-.71-1.93-1.04Zm.92-12.17h3.35v.79h-3.35v-.79Zm.07,6.93h3.08v.77h-3.08v-.77Zm.07-3.44h3.15v.77h-3.15v-.77Zm2.77-3.49h.81c-.01,.83-.02,1.73-.04,2.69s-.03,1.93-.06,2.9c-.03,.97-.06,1.88-.1,2.75-.04,.87-.07,1.63-.11,2.28h-.85c.05-.65,.09-1.41,.13-2.29s.08-1.8,.11-2.78c.03-.98,.05-1.94,.07-2.9,.02-.95,.03-1.84,.03-2.66Z" fill="#333"/>
        <path d="M4.37,194.56l.81,.22c-.35,1.01-.76,2-1.22,2.97-.47,.97-.97,1.88-1.51,2.74-.54,.85-1.1,1.61-1.69,2.29-.02-.06-.07-.14-.13-.24-.07-.1-.14-.2-.21-.3-.07-.1-.14-.17-.2-.23,.56-.61,1.1-1.32,1.62-2.11,.52-.8,.99-1.65,1.42-2.56,.43-.91,.8-1.83,1.12-2.76Zm-1.66,4.52l.77-.81,.04,.02v12.62h-.81v-11.83Zm2.38-1.51h11.36v.79H5.09v-.79Zm1.12,7.63H15.16v5.62h-.83v-4.84H7v4.9h-.79v-5.67Zm.2-5.11H14.99v.77H6.41v-.77Zm0,2.52H14.99v.76H6.41v-.76Zm.27,6.7H14.69v.77H6.68v-.77Zm2.63-14.47l.79-.31c.26,.36,.52,.76,.77,1.19,.25,.43,.43,.8,.55,1.12l-.81,.38c-.12-.32-.3-.71-.55-1.15s-.5-.85-.75-1.22Z" fill="#333"/>
        <path d="M5.15,216.23l.83,.23c-.43,1.04-.93,2.06-1.5,3.06s-1.18,1.93-1.84,2.79c-.66,.86-1.34,1.63-2.05,2.29-.04-.06-.09-.14-.15-.24-.07-.1-.13-.2-.21-.31-.07-.1-.14-.18-.22-.24,.68-.61,1.34-1.32,1.98-2.12s1.22-1.67,1.76-2.6c.54-.93,1.01-1.88,1.4-2.85Zm-2.05,4.54l.85-.86,.02,.02v12.49h-.86v-11.65Zm2.02,3.17h11.66v.85H5.11v-.85Zm.59,6.93h10.66v.85H5.71v-.85Zm.74-13.01h9.56v.83H6.44v-.83Zm4.18,.49h.86v12.92h-.86v-12.92Z" fill="#333"/>
        <path d="M8.6,238.75c.49,0,.94,.12,1.33,.36,.4,.24,.71,.56,.95,.95,.24,.4,.36,.84,.36,1.33s-.12,.92-.36,1.32-.56,.72-.95,.96c-.4,.24-.84,.36-1.33,.36s-.92-.12-1.32-.36c-.4-.24-.72-.56-.96-.96s-.36-.84-.36-1.32,.12-.94,.36-1.33c.24-.4,.56-.71,.96-.95,.4-.24,.84-.36,1.32-.36Zm0,4.59c.54,0,1-.19,1.38-.57s.57-.84,.57-1.38c0-.36-.09-.69-.26-.98-.17-.29-.41-.53-.69-.7s-.62-.26-.99-.26-.68,.09-.97,.26-.52,.41-.7,.7-.27,.62-.27,.98,.09,.69,.27,.98,.41,.53,.7,.7,.61,.26,.97,.26Z" fill="#333"/>
      </g>
      <g>
        <path d="M124.88,15.44h17.98v1.5h-17.98v-1.5Zm1.04-13.1h15.92v1.54h-15.92v-1.54Zm7.04,.78h1.66v12.94h-1.66V3.12Z" fill="#333"/>
        <path d="M124.9,38.42h17.88v.98h-17.88v-.98Zm2.7-8.1h1.04c-.08,.47-.23,.87-.45,1.2-.22,.33-.54,.61-.96,.83-.42,.22-.98,.4-1.67,.55-.04-.12-.12-.26-.24-.42-.12-.16-.23-.29-.34-.38,.61-.09,1.1-.21,1.45-.36,.35-.15,.62-.34,.81-.57,.19-.23,.31-.52,.36-.85Zm-2.52-4.92h8.48v1.14h-8.48v-1.14Zm.1,9.68c.71-.04,1.52-.09,2.45-.14,.93-.05,1.92-.11,2.97-.18,1.05-.07,2.11-.13,3.18-.2v.9c-1.03,.07-2.05,.14-3.08,.22-1.03,.08-2,.15-2.92,.22-.92,.07-1.75,.12-2.5,.16l-.1-.98Zm.08-5.24h8.56v.9h-8.56v-.9Zm.76,3.18h7.18v.88h-7.18v-.88Zm.52,9.48c-.03-.12-.08-.3-.17-.54-.09-.24-.17-.44-.25-.6,.19-.01,.39-.06,.62-.15,.23-.09,.48-.19,.76-.31,.2-.08,.52-.24,.95-.48,.43-.24,.91-.53,1.44-.86,.53-.33,1.03-.69,1.51-1.06l1.46,.46c-.87,.64-1.75,1.21-2.65,1.7-.9,.49-1.78,.91-2.63,1.24v.02c-.21,.08-.39,.15-.53,.2-.14,.05-.26,.11-.36,.18-.1,.07-.15,.13-.15,.2Zm-.32-14.36h6.68v.9h-6.68v-.9Zm.32,14.36v-.84l1.02-.44,12.22-.5c.03,.15,.06,.32,.11,.51s.09,.34,.13,.45c-1.93,.09-3.59,.17-4.98,.24-1.39,.07-2.55,.12-3.5,.17-.95,.05-1.72,.09-2.33,.13-.61,.04-1.08,.07-1.42,.1-.34,.03-.6,.06-.78,.09-.18,.03-.34,.06-.47,.09Zm.86-6.06h12.98v.98h-12.98v-.98Zm1.54-8.94h1.28v2.94h-1.28v-2.94Zm0,4.48h1.28v3.36h-1.28v-3.36Zm.82-7.92h1.44v3.38h-1.44v-3.38Zm.42,6.2h1.02v.9c0,.2,.02,.33,.05,.4s.12,.1,.25,.1h1.18c.11,0,.24,0,.41-.02,.17-.01,.31-.03,.43-.06,.01,.12,.03,.26,.04,.41,.01,.15,.03,.29,.04,.41-.09,.03-.23,.05-.41,.06-.18,.01-.35,.02-.51,.02h-1.38c-.47,0-.77-.1-.91-.31-.14-.21-.21-.55-.21-1.03v-.88Zm6.42-2.6h1.18v1.88c0,.52-.04,1.06-.11,1.63-.07,.57-.23,1.14-.47,1.73-.24,.59-.59,1.16-1.06,1.72-.47,.56-1.09,1.08-1.88,1.56-.09-.13-.23-.28-.41-.44-.18-.16-.35-.29-.51-.4,.73-.44,1.32-.91,1.75-1.42s.76-1.02,.98-1.53c.22-.51,.36-1.02,.43-1.51,.07-.49,.1-.95,.1-1.38v-1.84Zm-2.52,3.98l.72-.86c.52,.21,1.05,.47,1.59,.76s1.05,.6,1.52,.91c.47,.31,.86,.62,1.15,.91l-.76,.96c-.29-.29-.67-.6-1.14-.93-.47-.33-.97-.64-1.5-.95-.53-.31-1.06-.57-1.58-.8Zm.14-6.24h8.44v1.14h-8.44v-1.14Zm.08,3.62h5.8v1.14h-5.8v-1.14Zm2.06,10.98l1.02-.66c.56,.21,1.13,.48,1.72,.8,.59,.32,1.14,.65,1.67,.98,.53,.33,.96,.65,1.29,.94l-1.04,.74c-.33-.29-.76-.61-1.28-.96-.52-.35-1.07-.68-1.66-1.01-.59-.33-1.16-.6-1.72-.83Zm.06-15.94h1.48v3.38h-1.48v-3.38Zm3.02,4.96h1.24v4.92c0,.4,.03,.63,.08,.68,.05,.05,.15,.08,.28,.08h.44c.08,0,.15,0,.22-.02,.07-.01,.11-.03,.14-.04,.09-.07,.15-.21,.18-.42,.03-.13,.04-.33,.05-.59,0-.26,.02-.58,.03-.95,.12,.09,.26,.18,.43,.27,.17,.09,.33,.16,.49,.21-.01,.36-.04,.72-.07,1.08-.03,.36-.08,.61-.13,.76-.03,.15-.08,.27-.17,.36-.09,.09-.19,.17-.31,.24-.08,.07-.2,.11-.35,.14-.15,.03-.3,.04-.43,.04h-.82c-.17,0-.35-.03-.52-.08-.17-.05-.32-.14-.44-.26-.13-.12-.22-.28-.27-.48s-.07-.57-.07-1.1v-4.84Z" fill="#333"/>
        <path d="M125.42,60.94l1.24,.22c-.12,.85-.27,1.72-.44,2.6s-.37,1.63-.58,2.26c-.13-.07-.32-.15-.57-.24-.25-.09-.44-.16-.59-.2,.24-.61,.43-1.34,.58-2.17s.27-1.66,.36-2.47Zm-.44-5.38c-.03-.09-.07-.22-.12-.38-.05-.16-.11-.32-.17-.49-.06-.17-.12-.31-.17-.43,.17-.04,.35-.16,.53-.35s.37-.44,.57-.75c.15-.2,.38-.56,.69-1.08,.31-.52,.65-1.13,1.01-1.84,.36-.71,.67-1.42,.94-2.14l1.3,.54c-.51,1.12-1.08,2.23-1.73,3.32-.65,1.09-1.3,2.04-1.95,2.84v.02c-.19,.11-.34,.2-.45,.27s-.22,.15-.31,.24c-.09,.09-.14,.16-.14,.23Zm.14,4.52c-.03-.09-.07-.22-.12-.38-.05-.16-.11-.32-.17-.49-.06-.17-.12-.31-.17-.43,.21-.04,.44-.18,.67-.43,.23-.25,.5-.56,.81-.93,.16-.19,.4-.49,.71-.92s.66-.93,1.04-1.51,.77-1.21,1.17-1.89c.4-.68,.76-1.37,1.08-2.06l1.22,.72c-.51,.92-1.05,1.83-1.64,2.74-.59,.91-1.19,1.77-1.81,2.59s-1.25,1.57-1.89,2.25v.02c-.17,.09-.32,.18-.45,.25-.13,.07-.23,.15-.32,.23-.09,.08-.13,.16-.13,.24Zm-.14-4.54l-.02-1.04,.68-.42,3.5-.3c-.03,.19-.05,.39-.08,.6-.03,.21-.04,.39-.04,.54-.8,.09-1.45,.17-1.94,.23-.49,.06-.88,.11-1.16,.16-.28,.05-.49,.09-.62,.12-.13,.03-.24,.07-.32,.11Zm.14,4.54l-.06-1.06,.7-.46,5.44-.74c-.03,.17-.04,.37-.05,.59,0,.22,0,.4,.01,.55-1.25,.19-2.26,.34-3.01,.47-.75,.13-1.33,.23-1.74,.3-.41,.07-.7,.14-.88,.19-.18,.05-.32,.11-.41,.16Zm2.48,1.02l1.1-.24c.12,.68,.23,1.42,.34,2.21,.11,.79,.18,1.48,.22,2.05l-1.16,.28c-.03-.59-.09-1.28-.18-2.08-.09-.8-.2-1.54-.32-2.22Zm1.98-5.16l1.06-.36c.21,.41,.41,.85,.6,1.32,.19,.47,.35,.92,.5,1.36,.15,.44,.25,.83,.32,1.16l-1.16,.44c-.07-.33-.17-.73-.3-1.18-.13-.45-.29-.92-.47-1.4-.18-.48-.36-.93-.55-1.34Zm.24,4.74l1.02-.32c.25,.61,.49,1.28,.72,2,.23,.72,.39,1.34,.5,1.86l-1.1,.38c-.09-.53-.25-1.17-.48-1.9s-.45-1.41-.66-2.02Zm3.1-11.56h9.6v16.9h-1.44v-15.4h-6.78v15.56h-1.38v-17.06Zm.76,7.28h8.1v1.42h-8.1v-1.42Zm.06,7.08h7.92v1.4h-7.92v-1.4Zm3.16-13.3h1.4v13.96h-1.4v-13.96Z" fill="#333"/>
        <path d="M127.74,71.98l1.46,.42c-.25,.69-.57,1.37-.94,2.03s-.78,1.28-1.21,1.86-.88,1.09-1.35,1.53c-.07-.09-.16-.22-.28-.39-.12-.17-.25-.33-.38-.49-.13-.16-.25-.29-.36-.4,.64-.55,1.23-1.22,1.77-2.03s.97-1.65,1.29-2.53Zm-1.74,18c-.03-.12-.08-.26-.17-.41-.09-.15-.18-.31-.27-.46-.09-.15-.18-.27-.26-.35,.16-.11,.33-.28,.51-.52,.18-.24,.27-.57,.27-.98v-9.4h1.38v10.62c-.29,.2-.54,.38-.73,.54-.19,.16-.36,.33-.51,.5-.15,.17-.22,.33-.22,.46Zm0,0l-.1-1.22,.7-.54,5.86-1.3c-.03,.2-.04,.43-.05,.68,0,.25,0,.46,0,.62-1.33,.32-2.4,.58-3.2,.79-.8,.21-1.42,.37-1.85,.48-.43,.11-.74,.21-.93,.28s-.33,.14-.44,.21Zm.72-12.12h6.78v6.72h-6.76v-1.2h5.32v-4.34h-5.34v-1.18Zm.24,2.82h5.62v1.14h-5.62v-1.14Zm.48-7.12h6.34v1.3h-6.34v-1.3Zm1.28,2.2l1.06-.8c.29,.27,.6,.58,.91,.94,.31,.36,.55,.67,.71,.94l-1.1,.92c-.15-.27-.37-.59-.68-.98-.31-.39-.61-.73-.9-1.02Zm1.38,9.78l1.2-.56c.36,.45,.73,.94,1.11,1.46,.38,.52,.73,1.03,1.06,1.52s.6,.93,.81,1.3l-1.26,.7c-.2-.4-.46-.85-.79-1.36-.33-.51-.68-1.03-1.05-1.58-.37-.55-.73-1.04-1.08-1.48Zm5.5-13.54l1.54,.36c-.2,.72-.45,1.43-.75,2.12-.3,.69-.63,1.34-.98,1.94-.35,.6-.73,1.13-1.13,1.6-.08-.09-.19-.21-.34-.35s-.3-.28-.45-.41c-.15-.13-.28-.24-.39-.32,.56-.6,1.06-1.34,1.5-2.21,.44-.87,.77-1.78,1-2.73Zm-.6,5.86h6.32v1.38h-4.9v11.2h-1.42v-12.58Zm.4-4.3h7.56v1.3h-7.56v-1.3Zm1.92,2.14l1.04-.82c.32,.27,.65,.58,.98,.95,.33,.37,.59,.69,.76,.97l-1.08,.88c-.17-.28-.42-.61-.74-.98-.32-.37-.64-.71-.96-1Zm3.34,2.16h1.44v8.52c0,.4-.05,.71-.16,.94-.11,.23-.31,.41-.62,.54-.31,.11-.72,.17-1.23,.2-.51,.03-1.16,.04-1.95,.04-.04-.2-.1-.43-.19-.7-.09-.27-.18-.5-.29-.7,.6,.01,1.14,.02,1.63,.03,.49,0,.81,0,.97,0,.17-.01,.28-.04,.33-.09s.07-.14,.07-.29v-8.48Z" fill="#333"/>
        <path d="M128.92,104.42l1.32,.44c-.36,.73-.79,1.46-1.3,2.18-.51,.72-1.04,1.39-1.61,2.01-.57,.62-1.15,1.17-1.75,1.65-.04-.09-.12-.22-.23-.37s-.23-.3-.36-.45c-.13-.15-.24-.27-.33-.36,.83-.61,1.62-1.37,2.39-2.26,.77-.89,1.39-1.84,1.87-2.84Zm-3.96,11.94h17.74v1.38h-17.74v-1.38Zm2.36,2.18l1.42,.36c-.16,.44-.36,.91-.59,1.4s-.47,.97-.71,1.43c-.24,.46-.48,.87-.72,1.23l-1.44-.56c.24-.32,.48-.7,.73-1.13,.25-.43,.49-.89,.72-1.36,.23-.47,.43-.93,.59-1.37Zm-1.68-6.96h16.66v1.38h-16.66v-1.38Zm2.66-4.72h13.78v1.36h-14.28l.5-1.36Zm-.24,2.5h1.34v7.8h-1.34v-7.8Zm2.64,9.76l1.38-.14c.13,.59,.25,1.22,.34,1.9,.09,.68,.15,1.25,.16,1.72l-1.48,.2c0-.31-.02-.67-.05-1.1s-.08-.87-.13-1.32c-.05-.45-.13-.87-.22-1.26Zm.8-9.76h1.28v7.72h-1.28v-7.72Zm3.32,9.72l1.4-.26c.19,.39,.37,.8,.54,1.24,.17,.44,.33,.87,.46,1.29,.13,.42,.23,.79,.3,1.11l-1.48,.32c-.09-.48-.25-1.07-.48-1.77-.23-.7-.47-1.34-.74-1.93Zm.28-9.72h1.3v7.8h-1.3v-7.8Zm3.54,0h1.38v7.8h-1.38v-7.8Zm.32,9.62l1.38-.52c.25,.4,.52,.83,.79,1.3s.53,.92,.77,1.37c.24,.45,.43,.84,.56,1.17l-1.46,.64c-.12-.35-.29-.75-.52-1.2s-.47-.92-.74-1.41c-.27-.49-.53-.94-.78-1.35Z" fill="#333"/>
        <path d="M125.26,132.12l1,.14c0,.59-.03,1.21-.09,1.87-.06,.66-.16,1.3-.3,1.93-.14,.63-.32,1.17-.55,1.62l-.98-.42c.23-.41,.41-.91,.54-1.49,.13-.58,.23-1.19,.29-1.83,.06-.64,.09-1.25,.09-1.82Zm1.66-3.56h1.34v18.38h-1.34v-18.38Zm1.58,2.88l.94-.28c.19,.44,.34,.91,.47,1.42,.13,.51,.2,.93,.23,1.28l-.98,.36c-.03-.36-.1-.8-.22-1.33-.12-.53-.27-1.01-.44-1.45Zm1.9,2.28h1.18v5.44c0,.79-.04,1.65-.12,2.59-.08,.94-.23,1.87-.46,2.79s-.57,1.75-1.02,2.48c-.07-.08-.16-.17-.27-.26-.11-.09-.23-.18-.36-.27s-.24-.15-.33-.19c.43-.69,.74-1.45,.93-2.28,.19-.83,.32-1.66,.37-2.5,.05-.84,.08-1.63,.08-2.36v-5.44Zm1.44-5.16l1.22,.14c-.17,.71-.38,1.46-.62,2.25-.24,.79-.53,1.58-.86,2.37-.33,.79-.73,1.54-1.18,2.26-.11-.12-.26-.25-.45-.39-.19-.14-.36-.24-.51-.31,.41-.64,.77-1.33,1.08-2.07s.57-1.48,.8-2.22c.23-.74,.4-1.42,.52-2.03Zm-.9,11.78h4.7v1.26h-4.7v-1.26Zm.04-6.62h4.68v1.26h-4.68v-1.26Zm0,3.26h4.7v1.24h-4.7v-1.24Zm.86-6.78h2.9v1.24h-3.36l.46-1.24Zm1.02,3.98h.92v6.7h-.92v-6.7Zm1.46-3.98h.26l.2-.06,.82,.5c-.12,.44-.26,.9-.41,1.39-.15,.49-.31,.96-.48,1.41-.17,.45-.33,.85-.49,1.2-.12-.08-.28-.17-.47-.28s-.36-.19-.51-.24c.15-.35,.29-.74,.42-1.17,.13-.43,.26-.87,.38-1.31,.12-.44,.21-.83,.28-1.18v-.26Zm.78,3.52h1.18v11.66c0,.33-.04,.61-.11,.82s-.22,.39-.43,.52c-.21,.11-.49,.17-.83,.2-.34,.03-.76,.04-1.25,.04-.01-.17-.06-.39-.14-.66-.08-.27-.17-.49-.26-.68,.37,.01,.7,.02,.99,.02h.59c.17,0,.26-.09,.26-.28v-11.64Zm3.44-3.76h1.22c-.07,.8-.19,1.58-.38,2.33-.19,.75-.46,1.44-.83,2.07-.37,.63-.86,1.17-1.49,1.62-.08-.15-.2-.31-.37-.5-.17-.19-.32-.33-.45-.42,.53-.37,.96-.83,1.27-1.37s.55-1.13,.71-1.77c.16-.64,.27-1.29,.32-1.96Zm-.9,6.26l1.08,.2c-.13,.92-.33,1.81-.58,2.66-.25,.85-.55,1.59-.88,2.2-.11-.08-.27-.17-.48-.27-.21-.1-.39-.17-.52-.21,.35-.59,.63-1.29,.85-2.1,.22-.81,.4-1.64,.53-2.48Zm-1.06-6.76h5.44v1.2h-5.44v-1.2Zm.08,12.42h6.5v1.26h-6.5v-1.26Zm1.02-3.64h5.26v1.18h-5.56l.3-1.18Zm3.78-8.78h1.2c0,.28,0,.46-.02,.54-.04,1.13-.09,2.05-.15,2.76-.06,.71-.13,1.24-.21,1.61-.08,.37-.19,.62-.32,.77-.12,.15-.25,.25-.4,.32-.15,.07-.32,.11-.52,.14-.16,.01-.36,.02-.6,.03-.24,0-.49,0-.76,0-.01-.19-.05-.4-.1-.63-.05-.23-.13-.42-.22-.57,.27,.03,.5,.04,.7,.05s.35,0,.44,0c.21,0,.37-.06,.46-.18,.08-.11,.15-.32,.21-.64,.06-.32,.11-.8,.16-1.44,.05-.64,.09-1.49,.13-2.56v-.2Zm-2.02,6.64h1.26v10.84h-1.26v-10.84Z" fill="#333"/>
        <path d="M124.96,153.98h17.84v1.5h-17.84v-1.5Zm2.04,4.44h1.46v9.08h-1.46v-9.08Zm.62,0h7.58v7.48h-7.58v-1.44h6.1v-4.6h-6.1v-1.44Zm11.16-4h1.56v14.38c0,.53-.08,.94-.23,1.23s-.43,.5-.83,.63c-.39,.13-.93,.21-1.63,.23-.7,.02-1.55,.03-2.55,.03-.03-.15-.08-.32-.15-.51-.07-.19-.15-.39-.23-.59s-.16-.37-.24-.52c.53,.03,1.06,.04,1.57,.05,.51,0,.96,0,1.34,0h.81c.21-.03,.36-.08,.45-.15,.09-.07,.13-.22,.13-.43v-14.36Z" fill="#333"/>
        <path d="M124.6,190.98h18.5v1.06h-18.5v-1.06Zm.16-7.76h9.08v.88h-9.08v-.88Zm.34-5.66h8.62v.88h-8.62v-.88Zm15.26,8.78l1.04,.84c-.96,.16-2.06,.29-3.31,.4-1.25,.11-2.57,.19-3.96,.25-1.39,.06-2.79,.1-4.2,.11s-2.77,.01-4.09,0c0-.15-.03-.31-.08-.49-.05-.18-.11-.34-.16-.47,1.28,.01,2.61,.01,4,0s2.75-.05,4.08-.1c1.33-.05,2.58-.13,3.73-.22,1.15-.09,2.14-.2,2.95-.32Zm-14.62-7.24h7.34v3.5h-7.34v-3.5Zm.02,5.22h1.1v1.1h5.08v-1.1h1.14v2h-7.32v-2Zm.56,4.58h14.74v1.02h-14.74v-1.02Zm.48-9.08v.68h5.18v-.68h-5.18Zm0,1.36v.7h5.18v-.7h-5.18Zm1.94-4.62h1.2v9.34h-1.2v-9.34Zm4.36,10.56h1.48v6.36c0,.4-.06,.69-.17,.88s-.33,.33-.65,.42c-.31,.09-.72,.15-1.25,.17-.53,.02-1.2,.02-2.03,0-.04-.16-.1-.35-.19-.56-.09-.21-.18-.41-.29-.58,.4,.01,.78,.02,1.15,.02s.69,0,.96-.01,.46,0,.57,0c.15,0,.25-.03,.32-.08,.07-.05,.1-.15,.1-.28v-6.34Zm2.08-9.94h1.28v1.2c0,.39-.07,.77-.21,1.15-.14,.38-.4,.74-.78,1.07s-.93,.63-1.65,.9c-.07-.09-.15-.2-.26-.33-.11-.13-.22-.25-.33-.37-.11-.12-.22-.21-.31-.26,.64-.21,1.12-.44,1.45-.67,.33-.23,.54-.48,.65-.75,.11-.27,.16-.53,.16-.8v-1.14Zm5.1,4.3h.26l.24-.04,.74,.26c-.41,.99-1,1.8-1.76,2.45s-1.65,1.16-2.66,1.55-2.09,.68-3.22,.88c-.07-.15-.15-.32-.25-.53-.1-.21-.21-.37-.33-.49,1.04-.15,2.03-.38,2.96-.69,.93-.31,1.75-.74,2.46-1.27s1.23-1.18,1.56-1.94v-.18Zm-5.6,0h5.96v1.04h-5.96v-1.04Zm1.42,.94c.4,.59,.95,1.1,1.66,1.53,.71,.43,1.52,.79,2.45,1.08,.93,.29,1.92,.49,2.97,.61-.13,.12-.28,.29-.43,.5-.15,.21-.27,.41-.35,.58-1.09-.17-2.12-.43-3.08-.78-.96-.35-1.81-.79-2.55-1.32-.74-.53-1.34-1.14-1.79-1.82l1.12-.38Zm-.14-5.24h3.78v1.1h-3.78v-1.1Zm3.06,0h1.34v2.08c0,.21,.02,.36,.05,.44,.03,.08,.12,.12,.25,.12h1.28c.12,0,.27,0,.46,0s.34-.03,.46-.07c.03,.17,.05,.37,.06,.58,.01,.21,.03,.4,.06,.56-.12,.04-.27,.06-.46,.07s-.37,0-.54,0h-1.46c-.41,0-.73-.05-.94-.16-.21-.11-.36-.29-.44-.55-.08-.26-.12-.6-.12-1.01v-2.06Z" fill="#333"/>
      </g>
    </g>
  </g>
</svg>